<svg width="310" height="274" viewBox="0 0 310 274" fill="none" xmlns="http://www.w3.org/2000/svg">
<path d="M32.5694 153.813V143.643C32.5694 138.12 28.0922 133.643 22.5694 133.643H16C10.4772 133.643 6 138.099 6 143.622C6 188.812 6 263.723 6 266.404C6 268.507 15.3754 268.187 23.8949 267.394C28.8755 266.929 32.5694 262.674 32.5694 257.672V240.815M32.5694 153.813H44.8187C48.6001 153.813 52.0621 151.664 54.4473 148.729C59.3754 142.667 69.8513 133.342 87.6707 133.342M32.5694 153.813V240.815M87.6707 133.342C105.49 133.342 115.966 142.667 120.894 148.729C123.279 151.664 126.741 153.813 130.523 153.813H172.059C172.059 153.813 190.174 153.813 190.174 173.231C190.174 192.648 172.059 192.648 172.059 192.648H123.183C117.661 192.648 112.922 197.248 114.556 202.524C120.511 221.757 145.031 224.258 172.059 224.258H236.369M87.6707 133.342V16C87.6707 10.4772 92.1479 6 97.6707 6H168.134M32.5694 240.815C44.7844 242.583 76.0133 249.081 104.965 261.1C106.206 261.615 107.536 261.889 108.88 261.889H236.369C254.484 261.889 253.88 224.258 236.369 224.258M236.369 224.258H294C299.523 224.258 304 219.781 304 214.258V16C304 10.4772 299.523 6 294 6H222.178M168.134 6V61.0258C168.134 66.5486 172.611 71.0258 178.134 71.0258H212.178C217.701 71.0258 222.178 66.5487 222.178 61.0258V6M168.134 6H222.178" stroke="#BB6EF6" stroke-width="12"/>
</svg>
