<svg width="367" height="299" viewBox="0 0 367 299" fill="none" xmlns="http://www.w3.org/2000/svg">
<g filter="url(#filter0_f_1853_16061)">
<path d="M203.725 46.1814L221.927 118.253L240.685 192.528M203.725 46.1814C203.725 46.1814 198.546 28.4414 218.327 23.4458C238.107 18.4502 241.972 36.5223 241.972 36.5223L278.932 182.868C278.932 182.868 284.111 200.608 264.33 205.604C244.55 210.6 240.685 192.528 240.685 192.528M203.725 46.1814C180.969 74.3063 152.01 90.9543 110.235 105.711M240.685 192.528C211.311 180.255 181.931 178.083 145.477 182.404M110.235 105.711C88.328 113.45 62.8963 120.668 32.9862 128.749C22.6435 131.544 16.4286 142.105 19.0519 152.492L23.3652 169.571L27.6785 186.65C30.3018 197.038 40.7819 203.382 51.2111 200.931C58.2039 199.287 64.9627 197.717 71.5064 196.23M110.235 105.711L130.14 184.527M130.14 184.527C123.594 185.551 116.817 186.748 109.772 188.101M130.14 184.527C135.396 183.704 140.503 182.994 145.477 182.404M57.5365 159.77L84.9925 152.836M71.5064 196.23L90.6911 272.194C90.6911 272.194 95.0438 288.238 113.712 283.523C132.38 278.809 128.592 262.622 128.592 262.622L118.191 221.438M71.5064 196.23C85.1397 193.131 97.8387 190.393 109.772 188.101M109.772 188.101L118.191 221.438M145.477 182.404C151.902 207.845 147.139 214.127 118.191 221.438M301.059 98.2687L333.887 89.9781M280.115 65.6205L294.988 41.5463M298.128 136.946L322.649 151.072" stroke="#BB6EF6" stroke-width="5" stroke-linecap="round" stroke-linejoin="round"/>
</g>
<path d="M203.725 46.1814L221.927 118.253L240.685 192.528M203.725 46.1814C203.725 46.1814 198.546 28.4414 218.327 23.4458C238.107 18.4502 241.972 36.5223 241.972 36.5223L278.932 182.868C278.932 182.868 284.111 200.608 264.33 205.604C244.55 210.6 240.685 192.528 240.685 192.528M203.725 46.1814C180.969 74.3063 152.01 90.9543 110.235 105.711M240.685 192.528C211.311 180.255 181.931 178.083 145.477 182.404M110.235 105.711C88.328 113.45 62.8963 120.668 32.9862 128.749C22.6435 131.544 16.4286 142.105 19.0519 152.492L23.3652 169.571L27.6785 186.65C30.3018 197.038 40.7819 203.382 51.2111 200.931C58.2039 199.287 64.9627 197.717 71.5064 196.23M110.235 105.711L130.14 184.527M130.14 184.527C123.594 185.551 116.817 186.748 109.772 188.101M130.14 184.527C135.396 183.704 140.503 182.994 145.477 182.404M57.5365 159.77L84.9925 152.836M71.5064 196.23L90.6911 272.194C90.6911 272.194 95.0438 288.238 113.712 283.523C132.38 278.809 128.592 262.622 128.592 262.622L118.191 221.438M71.5064 196.23C85.1397 193.131 97.8387 190.393 109.772 188.101M109.772 188.101L118.191 221.438M145.477 182.404C151.902 207.845 147.139 214.127 118.191 221.438M301.059 98.2687L333.887 89.9781M280.115 65.6205L294.988 41.5463M298.128 136.946L322.649 151.072" stroke="#BB6EF6" stroke-width="5" stroke-linecap="round" stroke-linejoin="round"/>
<defs>
<filter id="filter0_f_1853_16061" x="5.95068" y="10.0728" width="340.437" height="286.817" filterUnits="userSpaceOnUse" color-interpolation-filters="sRGB">
<feFlood flood-opacity="0" result="BackgroundImageFix"/>
<feBlend mode="normal" in="SourceGraphic" in2="BackgroundImageFix" result="shape"/>
<feGaussianBlur stdDeviation="5" result="effect1_foregroundBlur_1853_16061"/>
</filter>
</defs>
</svg>
