<svg width="322" height="318" viewBox="0 0 322 318" fill="none" xmlns="http://www.w3.org/2000/svg">
<g filter="url(#filter0_f_1853_16159)">
<path d="M201.717 271.723C202.774 284.597 214.119 294.171 227.057 293.109C239.994 292.046 249.625 280.748 248.567 267.874C247.51 255.001 236.165 245.426 223.227 246.488C210.29 247.551 200.659 258.849 201.717 271.723ZM201.717 271.723L138.875 276.884M246.707 151.821C229.561 153.229 214.525 140.539 213.124 123.477C211.722 106.416 224.486 91.4425 241.632 90.0342C258.778 88.6259 273.813 101.316 275.215 118.377C276.616 135.439 263.853 150.412 246.707 151.821ZM246.707 151.821C238.923 152.46 231.342 154.618 224.394 158.173C218.875 160.997 213.842 164.658 209.472 169.016M246.707 151.821C254.49 151.181 262.322 152.074 269.757 154.447C277.191 156.82 284.082 160.628 290.035 165.652C295.988 170.677 300.888 176.82 304.454 183.731C306.291 187.29 307.755 191.017 308.831 194.852C310.512 200.847 305.765 206.345 299.531 206.857L203.571 214.739C199.88 215.042 196.419 213.536 194.35 210.973M79.6441 241.883C62.4981 243.291 47.4625 230.601 46.0611 213.54C44.6597 196.478 57.4232 181.505 74.5692 180.096C91.7152 178.688 106.751 191.378 108.152 208.44C109.554 225.501 96.7901 240.474 79.6441 241.883ZM79.6441 241.883C71.8608 242.522 64.2791 244.681 57.3317 248.235C50.3843 251.79 44.2074 256.671 39.1536 262.599C34.0998 268.528 30.2681 275.388 27.8773 282.788C26.6461 286.599 25.8094 290.515 25.3743 294.474C24.6942 300.664 30.2739 305.314 36.5088 304.801L132.468 296.92C138.703 296.408 143.449 290.909 141.768 284.914C141 282.175 140.034 279.491 138.875 276.884M79.6441 241.883C87.4274 241.243 95.2598 242.136 102.694 244.509C107.741 246.12 112.538 248.393 116.961 251.258M155.022 53.6561C151.9 49.8881 149.864 45.1655 149.434 39.9277C148.313 26.2783 158.524 14.2999 172.24 13.1732C185.957 12.0466 197.986 22.1983 199.107 35.8478C200.228 49.4972 190.017 61.4756 176.3 62.6023C167.847 63.2966 160.035 59.7075 155.022 53.6561ZM155.022 53.6561L98.8125 94.7287M98.8125 94.7287C96.0139 93.3171 93.1008 92.125 90.0991 91.1668C82.6648 88.7935 74.8324 87.901 67.0491 88.5403C59.2658 89.1796 51.684 91.3381 44.7367 94.8927C37.7893 98.4472 31.6123 103.328 26.5585 109.257C21.5048 115.185 17.6731 122.046 15.2823 129.446C14.0511 133.257 13.2143 137.172 12.7792 141.132C12.0992 147.321 17.6789 151.971 23.9138 151.459L119.873 143.577C124.052 143.234 127.562 140.651 128.916 137.18M98.8125 94.7287C102.945 96.8132 106.828 99.3764 110.377 102.372C116.331 107.397 121.231 113.54 124.797 120.451C126.633 124.01 128.098 127.736 129.173 131.572C129.727 133.549 129.583 135.472 128.916 137.18M128.916 137.18L149.624 145.364M209.472 169.016C208.341 170.144 207.255 171.318 206.216 172.537C201.162 178.466 197.331 185.326 194.94 192.726C193.709 196.537 192.872 200.453 192.437 204.412C192.159 206.937 192.924 209.206 194.35 210.973M209.472 169.016L182.255 158.26M194.35 210.973L171.952 222.632M116.961 251.258C119.053 252.613 121.061 254.101 122.972 255.715C128.926 260.739 133.826 266.882 137.392 273.793C137.917 274.81 138.411 275.841 138.875 276.884M116.961 251.258L141.842 238.306M171.952 222.632C173.137 224.706 173.897 227.065 174.105 229.6C174.87 238.907 167.908 247.074 158.555 247.842C151.333 248.435 144.797 244.442 141.842 238.306M171.952 222.632C168.787 217.093 162.592 213.581 155.787 214.14C146.435 214.908 139.473 223.075 140.237 232.382C140.411 234.501 140.971 236.497 141.842 238.306M182.255 158.26C179.831 164.155 174.244 168.517 167.429 169.076C157.765 169.87 149.29 162.718 148.501 153.101C148.277 150.379 148.693 147.75 149.624 145.364M182.255 158.26C183.269 155.795 183.73 153.062 183.497 150.227C182.708 140.61 174.233 133.457 164.569 134.251C157.641 134.82 151.982 139.319 149.624 145.364M33.1838 60.2203C34.5852 77.2821 49.6209 89.9718 66.7669 88.5635C83.9129 87.1552 96.6764 72.1822 95.275 55.1203C93.8736 38.0585 78.838 25.3689 61.692 26.7772C44.5459 28.1855 31.7824 43.1585 33.1838 60.2203Z" stroke="#3C61F5" stroke-width="5" stroke-linejoin="round"/>
</g>
<path d="M201.717 271.723C202.774 284.597 214.119 294.171 227.057 293.109C239.994 292.046 249.625 280.748 248.567 267.874C247.51 255.001 236.165 245.426 223.227 246.488C210.29 247.551 200.659 258.849 201.717 271.723ZM201.717 271.723L138.875 276.884M246.707 151.821C229.561 153.229 214.525 140.539 213.124 123.477C211.722 106.416 224.486 91.4425 241.632 90.0342C258.778 88.6259 273.813 101.316 275.215 118.377C276.616 135.439 263.853 150.412 246.707 151.821ZM246.707 151.821C238.923 152.46 231.342 154.618 224.394 158.173C218.875 160.997 213.842 164.658 209.472 169.016M246.707 151.821C254.49 151.181 262.322 152.074 269.757 154.447C277.191 156.82 284.082 160.628 290.035 165.652C295.988 170.677 300.888 176.82 304.454 183.731C306.291 187.29 307.755 191.017 308.831 194.852C310.512 200.847 305.765 206.345 299.531 206.857L203.571 214.739C199.88 215.042 196.419 213.536 194.35 210.973M79.6441 241.883C62.4981 243.291 47.4625 230.601 46.0611 213.54C44.6597 196.478 57.4232 181.505 74.5692 180.096C91.7152 178.688 106.751 191.378 108.152 208.44C109.554 225.501 96.7901 240.474 79.6441 241.883ZM79.6441 241.883C71.8608 242.522 64.2791 244.681 57.3317 248.235C50.3843 251.79 44.2074 256.671 39.1536 262.599C34.0998 268.528 30.2681 275.388 27.8773 282.788C26.6461 286.599 25.8094 290.515 25.3743 294.474C24.6942 300.664 30.2739 305.314 36.5088 304.801L132.468 296.92C138.703 296.408 143.449 290.909 141.768 284.914C141 282.175 140.034 279.491 138.875 276.884M79.6441 241.883C87.4274 241.243 95.2598 242.136 102.694 244.509C107.741 246.12 112.538 248.393 116.961 251.258M155.022 53.6561C151.9 49.8881 149.864 45.1655 149.434 39.9277C148.313 26.2783 158.524 14.2999 172.24 13.1732C185.957 12.0466 197.986 22.1983 199.107 35.8478C200.228 49.4972 190.017 61.4756 176.3 62.6023C167.847 63.2966 160.035 59.7075 155.022 53.6561ZM155.022 53.6561L98.8125 94.7287M98.8125 94.7287C96.0139 93.3171 93.1008 92.125 90.0991 91.1668C82.6648 88.7935 74.8324 87.901 67.0491 88.5403C59.2658 89.1796 51.684 91.3381 44.7367 94.8927C37.7893 98.4472 31.6123 103.328 26.5585 109.257C21.5048 115.185 17.6731 122.046 15.2823 129.446C14.0511 133.257 13.2143 137.172 12.7792 141.132C12.0992 147.321 17.6789 151.971 23.9138 151.459L119.873 143.577C124.052 143.234 127.562 140.651 128.916 137.18M98.8125 94.7287C102.945 96.8132 106.828 99.3764 110.377 102.372C116.331 107.397 121.231 113.54 124.797 120.451C126.633 124.01 128.098 127.736 129.173 131.572C129.727 133.549 129.583 135.472 128.916 137.18M128.916 137.18L149.624 145.364M209.472 169.016C208.341 170.144 207.255 171.318 206.216 172.537C201.162 178.466 197.331 185.326 194.94 192.726C193.709 196.537 192.872 200.453 192.437 204.412C192.159 206.937 192.924 209.206 194.35 210.973M209.472 169.016L182.255 158.26M194.35 210.973L171.952 222.632M116.961 251.258C119.053 252.613 121.061 254.101 122.972 255.715C128.926 260.739 133.826 266.882 137.392 273.793C137.917 274.81 138.411 275.841 138.875 276.884M116.961 251.258L141.842 238.306M171.952 222.632C173.137 224.706 173.897 227.065 174.105 229.6C174.87 238.907 167.908 247.074 158.555 247.842C151.333 248.435 144.797 244.442 141.842 238.306M171.952 222.632C168.787 217.093 162.592 213.581 155.787 214.14C146.435 214.908 139.473 223.075 140.237 232.382C140.411 234.501 140.971 236.497 141.842 238.306M182.255 158.26C179.831 164.155 174.244 168.517 167.429 169.076C157.765 169.87 149.29 162.718 148.501 153.101C148.277 150.379 148.693 147.75 149.624 145.364M182.255 158.26C183.269 155.795 183.73 153.062 183.497 150.227C182.708 140.61 174.233 133.457 164.569 134.251C157.641 134.82 151.982 139.319 149.624 145.364M33.1838 60.2203C34.5852 77.2821 49.6209 89.9718 66.7669 88.5635C83.9129 87.1552 96.6764 72.1822 95.275 55.1203C93.8736 38.0585 78.838 25.3689 61.692 26.7772C44.5459 28.1855 31.7824 43.1585 33.1838 60.2203Z" stroke="#3C61F5" stroke-width="5" stroke-linejoin="round"/>
<defs>
<filter id="filter0_f_1853_16159" x="0.220215" y="0.587891" width="321.464" height="316.75" filterUnits="userSpaceOnUse" color-interpolation-filters="sRGB">
<feFlood flood-opacity="0" result="BackgroundImageFix"/>
<feBlend mode="normal" in="SourceGraphic" in2="BackgroundImageFix" result="shape"/>
<feGaussianBlur stdDeviation="5" result="effect1_foregroundBlur_1853_16159"/>
</filter>
</defs>
</svg>
