<svg width="341" height="310" viewBox="0 0 341 310" fill="none" xmlns="http://www.w3.org/2000/svg">
<g filter="url(#filter0_f_1853_17140)">
<path d="M41.8853 132.034C41.4424 130.631 41.3318 129.093 41.6419 127.486C42.4278 123.415 43.625 119.423 45.2211 115.574C48.3204 108.099 52.8631 101.308 58.59 95.5867C62.0045 92.1757 65.8 89.1853 69.8944 86.6702C72.6671 84.967 75.5768 83.4818 78.598 82.2317C86.0805 79.1356 94.1001 77.542 102.199 77.542C110.298 77.542 118.318 79.1356 125.8 82.2317C133.283 85.3278 140.081 89.8658 145.808 95.5867C151.535 101.308 156.078 108.099 159.177 115.574C160.773 119.423 161.97 123.415 162.756 127.486C163.066 129.093 162.956 130.631 162.513 132.034M41.8853 132.034H33.9945C32.5182 132.034 31.2629 133.112 31.0393 134.571L12.5275 255.389C12.2501 257.199 13.6511 258.831 15.4827 258.831H44.0741M41.8853 132.034H162.513M162.513 132.034H179.824M179.824 132.034C179.381 130.631 179.271 129.093 179.581 127.486C180.366 123.415 181.564 119.423 183.16 115.574C186.259 108.099 190.802 101.308 196.529 95.5867C199.943 92.1757 203.739 89.1853 207.833 86.6702C210.606 84.967 213.516 83.4818 216.537 82.2317C224.019 79.1356 232.039 77.542 240.138 77.542C248.237 77.542 256.256 79.1356 263.739 82.2317C271.221 85.3278 278.02 89.8658 283.747 95.5867C289.474 101.308 294.016 108.099 297.116 115.574C298.712 119.423 299.909 123.415 300.695 127.486C301.005 129.093 300.894 130.631 300.452 132.034M179.824 132.034H300.452M300.452 132.034H307.005C308.482 132.034 309.737 133.112 309.961 134.571L328.473 255.389C328.75 257.199 327.349 258.831 325.517 258.831H298.91M298.91 258.831C302.417 263.27 305.303 268.179 307.477 273.424C309.073 277.273 310.271 281.264 311.057 285.336C312.285 291.7 306.913 297 300.425 297H200.574C196.226 297 192.378 294.619 190.684 291.133C189.85 289.417 189.537 287.434 189.942 285.336C190.728 281.264 191.925 277.273 193.521 273.424C195.696 268.179 198.582 263.27 202.088 258.831M298.91 258.831C297.42 256.945 295.817 255.143 294.108 253.436C288.382 247.715 281.583 243.177 274.1 240.081C266.618 236.985 258.598 235.392 250.499 235.392C242.4 235.392 234.381 236.985 226.898 240.081C223.877 241.331 220.967 242.817 218.195 244.52C214.1 247.035 210.305 250.025 206.89 253.436C205.182 255.143 203.579 256.945 202.088 258.831M202.088 258.831H140.896M140.896 258.831C144.403 263.27 147.288 268.179 149.463 273.424C151.059 277.273 152.256 281.264 153.042 285.336C154.271 291.7 148.898 297 142.41 297H42.5597C38.2113 297 34.364 294.619 32.6694 291.133C31.8356 289.417 31.5229 287.434 31.9279 285.336C32.7138 281.264 33.911 277.273 35.5071 273.424C37.6819 268.179 40.5674 263.27 44.0741 258.831M140.896 258.831C139.405 256.945 137.802 255.143 136.094 253.436C130.367 247.715 123.569 243.177 116.086 240.081C108.604 236.985 100.584 235.392 92.4851 235.392C84.3861 235.392 76.3665 236.985 68.884 240.081C65.8628 241.331 62.9531 242.817 60.1804 244.52C56.086 247.035 52.2905 250.025 48.876 253.436C47.1677 255.143 45.5648 256.945 44.0741 258.831M283.098 203.121C283.098 220.943 268.634 235.392 250.793 235.392C232.952 235.392 218.488 220.943 218.488 203.121C218.488 185.298 232.952 170.85 250.793 170.85C268.634 170.85 283.098 185.298 283.098 203.121ZM125.083 203.121C125.083 220.943 110.62 235.392 92.7787 235.392C74.9374 235.392 60.4741 220.943 60.4741 203.121C60.4741 185.298 74.9374 170.85 92.7787 170.85C110.62 170.85 125.083 185.298 125.083 203.121ZM134.797 45.271C134.797 63.0938 120.334 77.542 102.493 77.542C84.6514 77.542 70.1881 63.0938 70.1881 45.271C70.1881 27.4482 84.6514 13 102.493 13C120.334 13 134.797 27.4482 134.797 45.271ZM272.736 45.271C272.736 63.0938 258.273 77.542 240.431 77.542C222.59 77.542 208.127 63.0938 208.127 45.271C208.127 27.4482 222.59 13 240.431 13C258.273 13 272.736 27.4482 272.736 45.271Z" stroke="#BB6EF6" stroke-width="5" stroke-linejoin="round"/>
</g>
<path d="M41.8853 132.034C41.4424 130.631 41.3318 129.093 41.6419 127.486C42.4278 123.415 43.625 119.423 45.2211 115.574C48.3204 108.099 52.8631 101.308 58.59 95.5867C62.0045 92.1757 65.8 89.1853 69.8944 86.6702C72.6671 84.967 75.5768 83.4818 78.598 82.2317C86.0805 79.1356 94.1001 77.542 102.199 77.542C110.298 77.542 118.318 79.1356 125.8 82.2317C133.283 85.3278 140.081 89.8658 145.808 95.5867C151.535 101.308 156.078 108.099 159.177 115.574C160.773 119.423 161.97 123.415 162.756 127.486C163.066 129.093 162.956 130.631 162.513 132.034M41.8853 132.034H33.9945C32.5182 132.034 31.2629 133.112 31.0393 134.571L12.5275 255.389C12.2501 257.199 13.6511 258.831 15.4827 258.831H44.0741M41.8853 132.034H162.513M162.513 132.034H179.824M179.824 132.034C179.381 130.631 179.271 129.093 179.581 127.486C180.366 123.415 181.564 119.423 183.16 115.574C186.259 108.099 190.802 101.308 196.529 95.5867C199.943 92.1757 203.739 89.1853 207.833 86.6702C210.606 84.967 213.516 83.4818 216.537 82.2317C224.019 79.1356 232.039 77.542 240.138 77.542C248.237 77.542 256.256 79.1356 263.739 82.2317C271.221 85.3278 278.02 89.8658 283.747 95.5867C289.474 101.308 294.016 108.099 297.116 115.574C298.712 119.423 299.909 123.415 300.695 127.486C301.005 129.093 300.894 130.631 300.452 132.034M179.824 132.034H300.452M300.452 132.034H307.005C308.482 132.034 309.737 133.112 309.961 134.571L328.473 255.389C328.75 257.199 327.349 258.831 325.517 258.831H298.91M298.91 258.831C302.417 263.27 305.303 268.179 307.477 273.424C309.073 277.273 310.271 281.264 311.057 285.336C312.285 291.7 306.913 297 300.425 297H200.574C196.226 297 192.378 294.619 190.684 291.133C189.85 289.417 189.537 287.434 189.942 285.336C190.728 281.264 191.925 277.273 193.521 273.424C195.696 268.179 198.582 263.27 202.088 258.831M298.91 258.831C297.42 256.945 295.817 255.143 294.108 253.436C288.382 247.715 281.583 243.177 274.1 240.081C266.618 236.985 258.598 235.392 250.499 235.392C242.4 235.392 234.381 236.985 226.898 240.081C223.877 241.331 220.967 242.817 218.195 244.52C214.1 247.035 210.305 250.025 206.89 253.436C205.182 255.143 203.579 256.945 202.088 258.831M202.088 258.831H140.896M140.896 258.831C144.403 263.27 147.288 268.179 149.463 273.424C151.059 277.273 152.256 281.264 153.042 285.336C154.271 291.7 148.898 297 142.41 297H42.5597C38.2113 297 34.364 294.619 32.6694 291.133C31.8356 289.417 31.5229 287.434 31.9279 285.336C32.7138 281.264 33.911 277.273 35.5071 273.424C37.6819 268.179 40.5674 263.27 44.0741 258.831M140.896 258.831C139.405 256.945 137.802 255.143 136.094 253.436C130.367 247.715 123.569 243.177 116.086 240.081C108.604 236.985 100.584 235.392 92.4851 235.392C84.3861 235.392 76.3665 236.985 68.884 240.081C65.8628 241.331 62.9531 242.817 60.1804 244.52C56.086 247.035 52.2905 250.025 48.876 253.436C47.1677 255.143 45.5648 256.945 44.0741 258.831M283.098 203.121C283.098 220.943 268.634 235.392 250.793 235.392C232.952 235.392 218.488 220.943 218.488 203.121C218.488 185.298 232.952 170.85 250.793 170.85C268.634 170.85 283.098 185.298 283.098 203.121ZM125.083 203.121C125.083 220.943 110.62 235.392 92.7787 235.392C74.9374 235.392 60.4741 220.943 60.4741 203.121C60.4741 185.298 74.9374 170.85 92.7787 170.85C110.62 170.85 125.083 185.298 125.083 203.121ZM134.797 45.271C134.797 63.0938 120.334 77.542 102.493 77.542C84.6514 77.542 70.1881 63.0938 70.1881 45.271C70.1881 27.4482 84.6514 13 102.493 13C120.334 13 134.797 27.4482 134.797 45.271ZM272.736 45.271C272.736 63.0938 258.273 77.542 240.431 77.542C222.59 77.542 208.127 63.0938 208.127 45.271C208.127 27.4482 222.59 13 240.431 13C258.273 13 272.736 27.4482 272.736 45.271Z" stroke="#BB6EF6" stroke-width="5" stroke-linejoin="round"/>
<defs>
<filter id="filter0_f_1853_17140" x="-0.00830078" y="0.5" width="341.017" height="309" filterUnits="userSpaceOnUse" color-interpolation-filters="sRGB">
<feFlood flood-opacity="0" result="BackgroundImageFix"/>
<feBlend mode="normal" in="SourceGraphic" in2="BackgroundImageFix" result="shape"/>
<feGaussianBlur stdDeviation="5" result="effect1_foregroundBlur_1853_17140"/>
</filter>
</defs>
</svg>
