<svg width="337" height="345" viewBox="0 0 337 345" fill="none" xmlns="http://www.w3.org/2000/svg">
<g filter="url(#filter0_f_1843_14325)">
<path d="M84.6936 185.347C80.7435 139.837 123.015 84.3024 178.396 84.9503L178.048 114.722C178.048 114.722 149.956 107.669 149.671 131.999C149.386 156.328 177.636 149.935 177.636 149.935L176.789 222.283C176.789 222.283 206.334 214.624 206.029 240.714C205.724 266.804 176.366 258.456 176.366 258.456L175.943 294.63M84.6936 185.347C89.2278 237.587 137.549 265.046 137.208 294.177L146.812 294.289M84.6936 185.347L105.822 185.594C105.822 185.594 98.0996 216.239 123.389 216.535C148.679 216.831 141.675 186.013 141.675 186.013L212.743 186.845C212.743 186.845 206.982 159.243 231.152 159.526C255.321 159.808 248.916 187.268 248.916 187.268L266.501 187.474C270.285 187.518 273.223 190.836 272.513 194.554C263.431 242.091 218.845 267.331 218.519 295.128L208.916 295.016M146.812 294.289L146.58 314.1C146.466 323.844 154.274 331.836 164.018 331.95L190.833 332.264C200.578 332.378 208.57 324.571 208.684 314.826L208.916 295.016M146.812 294.289L175.943 294.63M208.916 295.016L175.943 294.63M161.296 49.1368L155.87 12.6494M85.8807 83.868L55.3455 53.8854M54.1437 156.615L13.1781 156.135M232.642 32.1172C290.07 35.6705 325.087 80.263 324.417 137.565L302.648 137.31C302.648 137.31 308.763 107.286 285.074 107.009C261.384 106.732 266.795 136.891 266.795 136.891L231.421 136.477L231.848 99.983C231.848 99.983 202.322 106.041 202.61 81.3915C202.899 56.7421 232.275 63.4891 232.275 63.4891L232.642 32.1172Z" stroke="#F6B254" stroke-width="5" stroke-linecap="round" stroke-linejoin="round"/>
</g>
<path d="M84.6936 185.347C80.7435 139.837 123.015 84.3024 178.396 84.9503L178.048 114.722C178.048 114.722 149.956 107.669 149.671 131.999C149.386 156.328 177.636 149.935 177.636 149.935L176.789 222.283C176.789 222.283 206.334 214.624 206.029 240.714C205.724 266.804 176.366 258.456 176.366 258.456L175.943 294.63M84.6936 185.347C89.2278 237.587 137.549 265.046 137.208 294.177L146.812 294.289M84.6936 185.347L105.822 185.594C105.822 185.594 98.0996 216.239 123.389 216.535C148.679 216.831 141.675 186.013 141.675 186.013L212.743 186.845C212.743 186.845 206.982 159.243 231.152 159.526C255.321 159.808 248.916 187.268 248.916 187.268L266.501 187.474C270.285 187.518 273.223 190.836 272.513 194.554C263.431 242.091 218.845 267.331 218.519 295.128L208.916 295.016M146.812 294.289L146.58 314.1C146.466 323.844 154.274 331.836 164.018 331.95L190.833 332.264C200.578 332.378 208.57 324.571 208.684 314.826L208.916 295.016M146.812 294.289L175.943 294.63M208.916 295.016L175.943 294.63M161.296 49.1368L155.87 12.6494M85.8807 83.868L55.3455 53.8854M54.1437 156.615L13.1781 156.135M232.642 32.1172C290.07 35.6705 325.087 80.263 324.417 137.565L302.648 137.31C302.648 137.31 308.763 107.286 285.074 107.009C261.384 106.732 266.795 136.891 266.795 136.891L231.421 136.477L231.848 99.983C231.848 99.983 202.322 106.041 202.61 81.3915C202.899 56.7421 232.275 63.4891 232.275 63.4891L232.642 32.1172Z" stroke="#F6B254" stroke-width="5" stroke-linecap="round" stroke-linejoin="round"/>
<defs>
<filter id="filter0_f_1843_14325" x="0.677734" y="0.148926" width="336.249" height="344.616" filterUnits="userSpaceOnUse" color-interpolation-filters="sRGB">
<feFlood flood-opacity="0" result="BackgroundImageFix"/>
<feBlend mode="normal" in="SourceGraphic" in2="BackgroundImageFix" result="shape"/>
<feGaussianBlur stdDeviation="5" result="effect1_foregroundBlur_1843_14325"/>
</filter>
</defs>
</svg>
