<svg width="145" height="254" viewBox="0 0 145 254" fill="none" xmlns="http://www.w3.org/2000/svg">
<g filter="url(#filter0_f_2069_14557)">
<path d="M125.898 170.663C74.8978 170.663 75.1868 170.663 75.1868 241.374M125.898 170.663C75.7181 170.663 75.1915 170.663 75.1869 238.327M125.898 170.663C75.7181 170.663 75.1916 170.664 75.187 103C75.1845 170.664 74.7326 170.663 24.4761 170.663M75.1868 241.374C75.1868 170.663 75.3978 170.663 24.4761 170.663M75.1868 241.374C75.1868 240.343 75.1869 239.328 75.1869 238.327M75.1868 241.374L75.1869 238.327M24.4761 170.663C74.7326 170.663 75.1844 170.663 75.1869 238.327" stroke="#F6B254" stroke-width="5" stroke-linejoin="round"/>
</g>
<path d="M125.898 170.663C74.8978 170.663 75.1868 170.663 75.1868 241.374M125.898 170.663C75.7181 170.663 75.1915 170.663 75.1869 238.327M125.898 170.663C75.7181 170.663 75.1916 170.664 75.187 103C75.1845 170.664 74.7326 170.663 24.4761 170.663M75.1868 241.374C75.1868 170.663 75.3978 170.663 24.4761 170.663M75.1868 241.374C75.1868 240.343 75.1869 239.328 75.1869 238.327M75.1868 241.374L75.1869 238.327M24.4761 170.663C74.7326 170.663 75.1844 170.663 75.1869 238.327" stroke="#F6B254" stroke-width="5" stroke-linejoin="round"/>
<g filter="url(#filter1_f_2069_14557)">
<path d="M51.2236 38.5185C31.9896 38.5185 32.0986 38.5185 32.0986 65.1864M51.2236 38.5185C32.2989 38.5185 32.1003 38.5185 32.0986 64.0373M51.2236 38.5185C32.2989 38.5185 32.1004 38.5188 32.0986 13C32.0977 38.5188 31.9273 38.5185 12.9735 38.5185M32.0986 65.1864C32.0986 38.5185 32.1781 38.5185 12.9735 38.5185M32.0986 65.1864C32.0986 64.7978 32.0986 64.4148 32.0986 64.0373M32.0986 65.1864L32.0986 64.0373M12.9735 38.5185C31.9273 38.5185 32.0976 38.5185 32.0986 64.0373" stroke="#F6B254" stroke-width="5" stroke-linejoin="round"/>
</g>
<path d="M51.2236 38.5185C31.9896 38.5185 32.0986 38.5185 32.0986 65.1864M51.2236 38.5185C32.2989 38.5185 32.1003 38.5185 32.0986 64.0373M51.2236 38.5185C32.2989 38.5185 32.1004 38.5188 32.0986 13C32.0977 38.5188 31.9273 38.5185 12.9735 38.5185M32.0986 65.1864C32.0986 38.5185 32.1781 38.5185 12.9735 38.5185M32.0986 65.1864C32.0986 64.7978 32.0986 64.4148 32.0986 64.0373M32.0986 65.1864L32.0986 64.0373M12.9735 38.5185C31.9273 38.5185 32.0976 38.5185 32.0986 64.0373" stroke="#F6B254" stroke-width="5" stroke-linejoin="round"/>
<defs>
<filter id="filter0_f_2069_14557" x="11.9761" y="90.5" width="126.421" height="163.374" filterUnits="userSpaceOnUse" color-interpolation-filters="sRGB">
<feFlood flood-opacity="0" result="BackgroundImageFix"/>
<feBlend mode="normal" in="SourceGraphic" in2="BackgroundImageFix" result="shape"/>
<feGaussianBlur stdDeviation="5" result="effect1_foregroundBlur_2069_14557"/>
</filter>
<filter id="filter1_f_2069_14557" x="0.473633" y="0.5" width="63.25" height="77.1865" filterUnits="userSpaceOnUse" color-interpolation-filters="sRGB">
<feFlood flood-opacity="0" result="BackgroundImageFix"/>
<feBlend mode="normal" in="SourceGraphic" in2="BackgroundImageFix" result="shape"/>
<feGaussianBlur stdDeviation="5" result="effect1_foregroundBlur_2069_14557"/>
</filter>
</defs>
</svg>
