<svg width="356" height="360" viewBox="0 0 356 360" fill="none" xmlns="http://www.w3.org/2000/svg">
<g filter="url(#filter0_f_1853_17136)">
<path d="M285.562 283.181L316.848 279.755L321.194 319.443L196.051 333.147L70.9084 346.851L66.5622 307.163L97.8479 303.737M285.562 283.181L254.277 286.607L191.705 293.459L129.134 300.311L97.8479 303.737M285.562 283.181L281.216 243.492L257.752 246.062M97.8479 303.737L93.5017 264.048L116.966 261.479M116.966 261.479L140.43 258.909L187.359 253.77L234.288 248.631L257.752 246.062M116.966 261.479L112.62 221.79L183.013 214.081L253.406 206.373L257.752 246.062M12.6091 117.986L44.3195 114.513M32.8505 41.1779L59.241 62.3867M48.9935 188.593L70.1686 162.175M329.713 83.2606L298.003 86.7331M293.329 12.6536L272.154 39.0711M309.472 160.069L283.082 138.86M163.711 32.5855L190.633 74.6167L240.462 76.5151L208.864 115.129L222.472 163.164L176.021 144.997L134.602 172.786L137.492 122.945L98.2863 92.0843L146.523 79.4471L163.711 32.5855Z" stroke="#3C61F5" stroke-width="5" stroke-linecap="round" stroke-linejoin="round"/>
</g>
<path d="M285.562 283.181L316.848 279.755L321.194 319.443L196.051 333.147L70.9084 346.851L66.5622 307.163L97.8479 303.737M285.562 283.181L254.277 286.607L191.705 293.459L129.134 300.311L97.8479 303.737M285.562 283.181L281.216 243.492L257.752 246.062M97.8479 303.737L93.5017 264.048L116.966 261.479M116.966 261.479L140.43 258.909L187.359 253.77L234.288 248.631L257.752 246.062M116.966 261.479L112.62 221.79L183.013 214.081L253.406 206.373L257.752 246.062M12.6091 117.986L44.3195 114.513M32.8505 41.1779L59.241 62.3867M48.9935 188.593L70.1686 162.175M329.713 83.2606L298.003 86.7331M293.329 12.6536L272.154 39.0711M309.472 160.069L283.082 138.86M163.711 32.5855L190.633 74.6167L240.462 76.5151L208.864 115.129L222.472 163.164L176.021 144.997L134.602 172.786L137.492 122.945L98.2863 92.0843L146.523 79.4471L163.711 32.5855Z" stroke="#3C61F5" stroke-width="5" stroke-linecap="round" stroke-linejoin="round"/>
<defs>
<filter id="filter0_f_1853_17136" x="0.108887" y="0.15332" width="342.105" height="359.198" filterUnits="userSpaceOnUse" color-interpolation-filters="sRGB">
<feFlood flood-opacity="0" result="BackgroundImageFix"/>
<feBlend mode="normal" in="SourceGraphic" in2="BackgroundImageFix" result="shape"/>
<feGaussianBlur stdDeviation="5" result="effect1_foregroundBlur_1853_17136"/>
</filter>
</defs>
</svg>
