<svg width="348" height="320" viewBox="0 0 348 320" fill="none" xmlns="http://www.w3.org/2000/svg">
<g filter="url(#filter0_f_1853_17132)">
<path d="M59.8721 205.404L168.22 221.119M65.4099 167.223L173.758 182.939M284.641 149.719L196.896 136.992M290.179 111.539L181.831 95.8239M135.341 101.83C135.347 101.785 135.354 101.741 135.36 101.696C142.287 53.9416 192.41 21.6849 247.314 29.6484C302.217 37.6118 341.111 82.7799 334.184 130.534C330.946 152.856 318.27 171.792 300.079 184.817C291.171 191.195 298.694 217.78 309.309 231.264C291.438 228.672 275.497 220.627 259.982 201.789C248.009 204.096 235.254 204.47 222.231 202.582C220.356 202.31 218.501 201.994 216.665 201.637M135.341 101.83C133.505 101.473 131.649 101.158 129.775 100.886C74.8715 92.9224 24.7482 125.179 17.8218 172.933C14.5841 195.255 21.3579 217.012 35.0986 234.669C41.8278 243.315 27.062 266.668 13.0529 276.579C30.9247 279.171 48.4939 275.987 68.722 262.334C79.546 267.948 91.6686 271.93 104.692 273.819C159.596 281.783 209.719 249.526 216.646 201.772C216.652 201.727 216.659 201.682 216.665 201.637M135.341 101.83C160.679 106.76 182.237 119.688 196.896 136.992M216.665 201.637C220.042 178.062 212.257 155.124 196.896 136.992" stroke="#F6B254" stroke-width="5" stroke-linecap="round" stroke-linejoin="round"/>
</g>
<path d="M59.8721 205.404L168.22 221.119M65.4099 167.223L173.758 182.939M284.641 149.719L196.896 136.992M290.179 111.539L181.831 95.8239M135.341 101.83C135.347 101.785 135.354 101.741 135.36 101.696C142.287 53.9416 192.41 21.6849 247.314 29.6484C302.217 37.6118 341.111 82.7799 334.184 130.534C330.946 152.856 318.27 171.792 300.079 184.817C291.171 191.195 298.694 217.78 309.309 231.264C291.438 228.672 275.497 220.627 259.982 201.789C248.009 204.096 235.254 204.47 222.231 202.582C220.356 202.31 218.501 201.994 216.665 201.637M135.341 101.83C133.505 101.473 131.649 101.158 129.775 100.886C74.8715 92.9224 24.7482 125.179 17.8218 172.933C14.5841 195.255 21.3579 217.012 35.0986 234.669C41.8278 243.315 27.062 266.668 13.0529 276.579C30.9247 279.171 48.4939 275.987 68.722 262.334C79.546 267.948 91.6686 271.93 104.692 273.819C159.596 281.783 209.719 249.526 216.646 201.772C216.652 201.727 216.659 201.682 216.665 201.637M135.341 101.83C160.679 106.76 182.237 119.688 196.896 136.992M216.665 201.637C220.042 178.062 212.257 155.124 196.896 136.992" stroke="#F6B254" stroke-width="5" stroke-linecap="round" stroke-linejoin="round"/>
<defs>
<filter id="filter0_f_1853_17132" x="0.552734" y="15.9443" width="346.933" height="273.96" filterUnits="userSpaceOnUse" color-interpolation-filters="sRGB">
<feFlood flood-opacity="0" result="BackgroundImageFix"/>
<feBlend mode="normal" in="SourceGraphic" in2="BackgroundImageFix" result="shape"/>
<feGaussianBlur stdDeviation="5" result="effect1_foregroundBlur_1853_17132"/>
</filter>
</defs>
</svg>
