<svg width="32" height="32" viewBox="0 0 32 32" fill="none" xmlns="http://www.w3.org/2000/svg">
<path d="M15.5118 16.3488C11.2496 16.3488 7.79435 12.9129 7.79435 8.67442C7.79435 4.43596 11.2496 1 15.5118 1C19.774 1 23.2292 4.43596 23.2292 8.67442C23.2292 12.9129 19.774 16.3488 15.5118 16.3488ZM15.5118 16.3488C13.577 16.3488 11.6611 16.7278 9.87361 17.4641C9.83138 17.4815 9.78924 17.4991 9.74719 17.5168C8.00949 18.2515 6.42959 19.3117 5.09381 20.6401C3.7257 22.0005 2.64046 23.6157 1.90005 25.3932C1.79298 25.6503 1.69342 25.91 1.60143 26.1721C1.36587 26.8433 1.18002 27.5298 1.04501 28.2261C0.751568 29.7395 2.03499 31 3.58488 31H27.4386C28.9885 31 30.2719 29.7395 29.9785 28.2261C29.8444 27.5346 29.6602 26.8528 29.427 26.186L29.4221 26.1721C29.3301 25.91 29.2305 25.6503 29.1235 25.3932C28.3831 23.6157 27.2978 22.0005 25.9297 20.6401C25.4904 20.2032 25.0248 19.7954 24.5357 19.4186C23.5378 18.6496 22.4426 18.0099 21.2763 17.5168C21.2343 17.4991 21.1921 17.4815 21.1499 17.4641C19.3624 16.7278 17.4466 16.3488 15.5118 16.3488Z" stroke="black" stroke-width="2" stroke-linejoin="round"/>
</svg>
