<svg width="27" height="34" viewBox="0 0 27 34" fill="none" xmlns="http://www.w3.org/2000/svg">
<path d="M12.8867 1C16.947 1.00003 20.1705 1.70157 22.4023 3.25684C24.6998 4.85789 25.8115 7.2677 25.8115 10.3105C25.8115 12.0291 25.4481 13.5743 24.6855 14.9121L24.6865 14.9131C23.9818 16.1693 23.0894 17.1481 21.9863 17.7832L21.9785 17.7881L21.9707 17.792C20.0786 18.8369 18.2661 19.4268 16.5488 19.4893C16.5665 19.5821 16.5853 19.6819 16.6074 19.7881C16.7552 20.4976 16.8369 21.1507 16.8369 21.7373C16.8367 22.6118 16.0934 23.0507 15.6787 23.2393C15.236 23.4404 14.6587 23.5902 13.9883 23.7119C14.8142 23.8498 15.5424 24.0657 16.1592 24.374H16.1582C17.6236 25.0763 18.208 26.5301 18.208 28.2607C18.2079 29.8143 17.5764 31.0818 16.2939 31.9062C15.0871 32.682 13.4046 33 11.3906 33C9.37664 33 7.69415 32.682 6.4873 31.9062C5.20487 31.0818 4.57334 29.8143 4.57324 28.2607C4.57324 26.707 5.20477 25.4387 6.4873 24.6143C6.92296 24.3343 7.42079 24.1145 7.97363 23.9473C6.92498 23.7215 6.05387 23.2308 5.59277 22.3086L5.58691 22.2969L5.58105 22.2842C5.31593 21.7159 5.15755 20.9349 5.05762 20.0283C4.95519 19.0991 4.90626 17.9481 4.90625 16.585C4.90625 16.0757 5.15568 15.6774 5.44824 15.4053C5.72545 15.1475 6.07706 14.9634 6.43164 14.8232C7.14039 14.5431 8.12465 14.3377 9.3291 14.1826C10.0908 14.0631 10.7659 13.8161 11.3652 13.4473L11.3721 13.4434L11.3799 13.4385C11.8676 13.1493 12.0107 12.8446 12.0107 12.4707C12.0107 12.4595 12.0084 12.4506 12.0078 12.4434C11.9229 12.3942 11.677 12.3077 11.1416 12.3076C10.0678 12.3076 8.8939 12.5819 7.61133 13.1719L7.61035 13.1709C6.93008 13.4901 6.38238 13.7374 5.97363 13.9053C5.76983 13.989 5.58733 14.0589 5.43359 14.1094C5.32428 14.1453 5.09667 14.2187 4.86719 14.2188C4.03461 14.2188 3.40916 13.7155 2.97363 13.1289C2.53862 12.5429 2.18259 11.7368 1.87793 10.7793L1.875 10.7715L1.87305 10.7627C1.29532 8.82732 1.00003 6.95768 1 5.1582C1 4.58226 1.31605 4.13708 1.61523 3.83789C1.92036 3.53281 2.32667 3.25838 2.78613 3.00488L3.18066 2.79297C4.14359 2.31416 5.42552 1.92732 6.97656 1.60645C8.80242 1.2007 10.7743 1 12.8867 1Z" stroke="black" stroke-width="2"/>
</svg>
