<svg width="26" height="33" viewBox="0 0 26 33" fill="none" xmlns="http://www.w3.org/2000/svg">
<path d="M12.3867 0.75C16.4254 0.750034 19.5881 1.4494 21.7588 2.96191C23.9788 4.50896 25.0615 6.83588 25.0615 9.81055C25.0615 11.4941 24.7059 12.9958 23.9678 14.29C23.28 15.5161 22.4171 16.4585 21.3613 17.0664L21.3506 17.0732C19.4249 18.1367 17.5997 18.7156 15.8896 18.7461L15.8887 18.7451L15.7529 18.752C15.7815 18.9213 15.817 19.1166 15.8633 19.3389C16.0088 20.0372 16.0869 20.6727 16.0869 21.2373C16.0867 21.9485 15.4814 22.3271 15.0752 22.5117C14.6032 22.7262 13.9537 22.8877 13.1719 23.0156L13.1611 23.0176C12.3997 23.1304 11.6833 23.2155 11.0127 23.2725C12.887 23.2829 14.4215 23.5351 15.5469 24.0977H15.5459C16.8949 24.742 17.458 26.0819 17.458 27.7607C17.4579 29.2375 16.8634 30.4222 15.6592 31.1963C14.5117 31.934 12.8859 32.25 10.8906 32.25C8.89533 32.25 7.26959 31.9339 6.12207 31.1963C4.91789 30.4222 4.32334 29.2375 4.32324 27.7607C4.32324 26.2839 4.91794 25.0994 6.12207 24.3252C6.9295 23.8061 7.97373 23.4958 9.2168 23.3574C9.19296 23.3575 9.16919 23.3584 9.14551 23.3584C7.40938 23.3584 5.93851 22.9413 5.31641 21.6973L5.3125 21.6875L5.30762 21.6787C5.06025 21.1486 4.90486 20.4009 4.80566 19.501C4.70462 18.5842 4.65626 17.4431 4.65625 16.085C4.65625 15.6633 4.86161 15.3276 5.11816 15.0889C5.36333 14.8608 5.68297 14.6903 6.02344 14.5557C6.70377 14.2867 7.66492 14.084 8.86523 13.9297C9.65866 13.8055 10.3662 13.5478 10.9961 13.1602L11.0068 13.1543L11.1982 13.0283C11.6071 12.7294 11.7607 12.3858 11.7607 11.9707C11.7607 11.8794 11.7435 11.8355 11.7334 11.8164C11.7243 11.7994 11.7045 11.7709 11.6475 11.7354C11.5115 11.6507 11.2112 11.5577 10.6416 11.5576C9.52599 11.5576 8.31807 11.8411 7.01172 12.4414C6.32932 12.7617 5.78352 13.0076 5.37891 13.1738C5.17752 13.2565 5.00111 13.3242 4.85547 13.3721C4.74321 13.409 4.55133 13.4687 4.36719 13.4688C3.6458 13.4688 3.08531 13.0347 2.67383 12.4805C2.26274 11.9267 1.91742 11.1507 1.61621 10.2041L1.6123 10.1914C1.04052 8.27592 0.750034 6.43023 0.75 4.6582C0.75 4.17777 1.01393 3.79271 1.29199 3.51465C1.5065 3.30018 1.7799 3.09728 2.09668 2.90332L2.42773 2.71191C3.38844 2.15809 4.77458 1.71375 6.53125 1.35059V1.34961C8.33692 0.948351 10.2899 0.75 12.3867 0.75Z" stroke="black" stroke-width="1.5"/>
</svg>
