<svg width="32" height="32" viewBox="0 0 32 32" fill="none" xmlns="http://www.w3.org/2000/svg">
<path d="M24.0161 16.0161C24.0161 20.4344 20.4344 24.0161 16.0161 24.0161C11.5979 24.0161 8.01613 20.4344 8.01613 16.0161C8.01613 11.5979 11.5979 8.01613 16.0161 8.01613C20.4344 8.01613 24.0161 11.5979 24.0161 16.0161Z" stroke="black" stroke-width="2"/>
<path d="M16 1C15.7245 1 15.4507 1.00743 15.1788 1.0221C14.054 1.08279 13.25 2.0688 13.25 3.19529V3.36614C13.25 4.33839 12.5688 5.1696 11.6706 5.54183C10.796 5.90427 9.77654 5.80196 9.09023 5.14992L8.92415 4.99213C8.0941 4.20354 6.80989 4.08918 5.95952 4.85583C5.57721 5.2005 5.21272 5.56456 4.8676 5.94647C4.13864 6.75316 4.28855 7.98082 5.09448 8.71062C5.8749 9.41732 6.00835 10.5797 5.59373 11.5474C5.19877 12.4693 4.33579 13.1841 3.33288 13.1841H3.21145C2.08158 13.1841 1.09122 13.9877 1.02564 15.1156C1.00862 15.4083 1 15.7031 1 16C1 16.2542 1.00632 16.5069 1.01882 16.758C1.07465 17.8797 2.05637 18.6841 3.17951 18.6841H3.32755C4.31162 18.6841 5.14834 19.3668 5.52058 20.2778L5.53453 20.3117C5.93298 21.2778 5.76222 22.4294 4.95591 23.0941C4.12876 23.7761 3.93993 24.9847 4.64041 25.7963C5.0516 26.2727 5.49225 26.7229 5.95952 27.1442C6.80989 27.9108 8.0941 27.7965 8.92415 27.0079L9.09023 26.8501C9.77654 26.198 10.7961 26.0957 11.6706 26.4582C12.5688 26.8304 13.25 27.6616 13.25 28.6339V28.8047C13.25 29.9312 14.054 30.9172 15.1788 30.9779C15.4507 30.9926 15.7245 31 16 31C16.2755 31 16.5493 30.9926 16.8212 30.9779C17.946 30.9172 18.75 29.9312 18.75 28.8047V28.6339C18.75 27.6616 19.4312 26.8304 20.3294 26.4582C21.2039 26.0957 22.2235 26.198 22.9098 26.8501L23.0758 27.0079C23.9059 27.7965 25.1901 27.9108 26.0405 27.1442C26.5078 26.7229 26.9484 26.2727 27.3596 25.7963C28.0601 24.9847 27.8712 23.7761 27.0441 23.0941C26.2378 22.4294 26.067 21.2778 26.4655 20.3117L26.4794 20.2778C26.8517 19.3668 27.6884 18.6841 28.6724 18.6841H28.8205C29.9436 18.6841 30.9254 17.8797 30.9812 16.758C30.9937 16.5069 31 16.2542 31 16C31 15.7031 30.9914 15.4083 30.9744 15.1156C30.9088 13.9877 29.9184 13.1841 28.7885 13.1841H28.6671C27.6642 13.1841 26.8012 12.4693 26.4063 11.5474C25.9916 10.5797 26.1251 9.41732 26.9055 8.71062C27.7115 7.98082 27.8614 6.75316 27.1324 5.94647C26.7873 5.56456 26.4228 5.2005 26.0405 4.85583C25.1901 4.08918 23.9059 4.20354 23.0758 4.99213L22.9098 5.14992C22.2235 5.80196 21.2039 5.90427 20.3294 5.54183C19.4312 5.1696 18.75 4.33839 18.75 3.36614V3.19529C18.75 2.0688 17.946 1.08279 16.8212 1.0221C16.5493 1.00743 16.2755 1 16 1Z" stroke="black" stroke-width="2"/>
</svg>
