<svg width="43" height="37" viewBox="0 0 43 37" fill="none" xmlns="http://www.w3.org/2000/svg">
<path d="M19.9077 18.6935C19.9077 19.9733 18.8722 21.0109 17.5949 21.0109C16.3176 21.0109 15.2821 19.9733 15.2821 18.6935C15.2821 17.4136 16.3176 16.376 17.5949 16.376M17.5949 18.6935L33.6465 7.48622M38.8443 4.00572L33.6465 7.48622M38.8443 4.00572L41.1571 5.86923L35.9592 9.57236L33.6465 7.48622M38.8443 4.00572L37.9723 1L32.8767 4.82584L33.6465 7.48622M34.2374 18.6935C34.2374 27.8902 26.797 35.3456 17.6187 35.3456C8.44045 35.3456 1 27.8902 1 18.6935C1 9.49674 8.44045 2.04133 17.6187 2.04133C26.797 2.04133 34.2374 9.49674 34.2374 18.6935ZM27.1798 18.6935C27.1798 23.9845 22.8992 28.2738 17.6187 28.2738C12.3382 28.2738 8.05759 23.9845 8.05759 18.6935C8.05759 13.4024 12.3382 9.11311 17.6187 9.11311C22.8992 9.11311 27.1798 13.4024 27.1798 18.6935Z" stroke="black" stroke-width="2" stroke-linecap="round" stroke-linejoin="round"/>
</svg>
