<svg width="54" height="61" viewBox="0 0 54 61" fill="none" xmlns="http://www.w3.org/2000/svg">
<path d="M37.0866 10.6406C45.7281 14.5018 51.75 23.172 51.75 33.2487C51.75 46.9178 40.669 57.9987 27 57.9987C13.331 57.9987 2.25 46.9178 2.25 33.2487C2.25 26.6126 4.86175 20.5864 9.11343 16.1421C11.4129 19.3534 14.4615 21.9917 18.0036 23.8017C18.139 15.4747 22.0439 8.0641 28.0863 3.20215C30.3766 6.2734 33.4136 8.85438 37.0866 10.6406Z" stroke="#BB6EF6" stroke-width="4.5" stroke-linecap="round" stroke-linejoin="round"/>
<path d="M27 48.9999C33.2132 48.9999 38.25 43.9631 38.25 37.7499C38.25 32.04 33.9962 27.3236 28.4847 26.597C25.4597 29.3106 23.3586 33.0334 22.7109 37.2357C20.3631 36.6618 18.1959 35.6273 16.3105 34.2335C15.9468 35.3398 15.75 36.5219 15.75 37.7499C15.75 43.9631 20.7868 48.9999 27 48.9999Z" stroke="#BB6EF6" stroke-width="4.5" stroke-linecap="round" stroke-linejoin="round"/>
</svg>
