<svg width="557" height="177" viewBox="0 0 557 177" fill="none" xmlns="http://www.w3.org/2000/svg">
<path d="M1.79992 34.3311C1.4685 33.8893 0.841682 33.7999 0.399897 34.1313C-0.0418881 34.4627 -0.13135 35.0895 0.200077 35.5313L1 34.9312L1.79992 34.3311ZM246.298 21.6976L245.384 22.1042L246.298 21.6976ZM178.749 71.2535L177.881 71.75L178.749 71.2535ZM549.249 71.2535L550.179 70.8859L550.179 70.8859L549.249 71.2535ZM402.542 175.96C402.932 176.351 403.566 176.351 403.956 175.96L410.32 169.596C410.711 169.206 410.711 168.572 410.32 168.182C409.93 167.791 409.296 167.791 408.906 168.182L403.249 173.839L397.592 168.182C397.202 167.791 396.568 167.791 396.178 168.182C395.787 168.572 395.787 169.206 396.178 169.596L402.542 175.96ZM1 34.9312L0.200077 35.5313C3.76556 40.284 10.9787 44.9749 20.5896 49.3933C30.2424 53.8309 42.4596 58.0577 56.1952 61.8155C83.6676 69.3315 117.306 74.9965 148.842 76.7045C180.338 78.4104 209.895 76.1794 229.109 67.7816C238.73 63.5766 245.882 57.7705 249.297 50.0147C252.721 42.2379 252.295 32.7149 247.212 21.291L246.298 21.6976L245.384 22.1042C250.319 33.1941 250.594 42.1051 247.466 49.2088C244.329 56.3334 237.677 61.8543 228.308 65.949C209.544 74.1505 180.381 76.4098 148.95 74.7075C117.558 73.0073 84.0603 67.3654 56.723 59.8864C43.0537 56.1467 30.9474 51.9538 21.425 47.5761C11.8607 43.1792 5.0467 38.659 1.79992 34.3311L1 34.9312ZM246.298 21.6976L247.212 21.291C241.534 8.5323 232.5 2.04171 222.543 0.414547C212.636 -1.20431 201.969 2.01448 192.984 8.34525C175.023 21.0008 163.39 46.4141 177.881 71.75L178.749 71.2535L179.617 70.757C165.764 46.5366 176.794 22.1997 194.136 9.98017C202.803 3.87341 212.949 0.873482 222.22 2.38837C231.44 3.89496 239.949 9.89057 245.384 22.1042L246.298 21.6976ZM178.749 71.2535L177.881 71.75C187.914 89.2919 200.328 99.9834 214.524 105.497C228.703 111.003 244.557 111.305 261.416 108.26C295.085 102.178 333.1 82.6699 370.418 63.9558C407.84 45.1898 444.536 27.2354 475.821 23.9386C491.427 22.2942 505.602 24.3092 517.822 31.6325C530.042 38.9556 540.429 51.6592 548.319 71.6211L549.249 71.2535L550.179 70.8859C542.175 50.6367 531.547 37.5257 518.85 29.9169C506.154 22.3084 491.51 20.2743 475.612 21.9496C443.89 25.2925 406.841 43.4534 369.522 62.168C332.099 80.9346 294.379 100.273 261.06 106.291C244.425 109.296 228.972 108.962 215.248 103.632C201.543 98.3098 189.459 87.9651 179.617 70.757L178.749 71.2535ZM549.249 71.2535L548.319 71.6211C553.489 84.7001 555.043 94.6275 553.931 102.186C552.827 109.689 549.084 114.939 543.434 118.698C537.74 122.486 530.083 124.774 521.176 126.222C512.278 127.668 502.231 128.262 491.806 128.723C471.032 129.642 448.701 130.022 431.595 135.73C423.016 138.593 415.661 142.822 410.454 149.203C405.235 155.599 402.249 164.065 402.249 175.253H403.249H404.249C404.249 164.441 407.125 156.446 412.004 150.468C416.893 144.475 423.87 140.417 432.228 137.627C448.999 132.031 470.968 131.646 491.894 130.721C502.319 130.26 512.472 129.663 521.496 128.196C530.511 126.731 538.498 124.384 544.541 120.364C550.628 116.314 554.717 110.582 555.909 102.477C557.094 94.4267 555.41 84.1196 550.179 70.8859L549.249 71.2535Z" fill="white"/>
</svg>
