<svg width="27" height="24" viewBox="0 0 27 24" fill="none" xmlns="http://www.w3.org/2000/svg">
<path d="M20.6978 22.7299C20.3718 23.1757 19.7461 23.2728 19.3003 22.9468L12.0356 17.6343C11.5898 17.3083 11.4926 16.6826 11.8187 16.2368C12.1447 15.791 12.7703 15.6939 13.2161 16.0199L19.6737 20.7422L24.396 14.2846C24.722 13.8388 25.3476 13.7417 25.7934 14.0677C26.2392 14.3937 26.3364 15.0194 26.0104 15.4652L20.6978 22.7299ZM0.836018 1.98695C0.291245 1.89617 -0.076786 1.38095 0.013998 0.83618C0.10478 0.291407 0.619999 -0.0766239 1.16477 0.0141602L1.00039 1.00056L0.836018 1.98695ZM19.8906 22.1396L18.9025 22.293C17.3329 12.1812 10.7407 3.63751 0.836018 1.98695L1.00039 1.00056L1.16477 0.0141602C12.1456 1.84405 19.2156 11.2714 20.8788 21.9863L19.8906 22.1396Z" fill="#180544"/>
</svg>
