<svg width="15" height="29" viewBox="0 0 15 29" fill="none" xmlns="http://www.w3.org/2000/svg">
<path d="M9.9648 1C9.9648 0.447715 9.51709 0 8.9648 0C8.41252 0 7.9648 0.447715 7.9648 1H8.9648H9.9648ZM7.4459 28.7711C7.87947 29.1132 8.50828 29.0391 8.85038 28.6055L14.4251 21.5399C14.7672 21.1064 14.6931 20.4776 14.2595 20.1355C13.8259 19.7934 13.1971 19.8675 12.855 20.3011L7.89967 26.5816L1.61919 21.6262C1.18561 21.2841 0.556804 21.3583 0.214708 21.7919C-0.127387 22.2255 -0.0532269 22.8543 0.38035 23.1964L7.4459 28.7711ZM8.9648 1H7.9648C7.9648 5.45163 7.48189 9.89115 7.12175 14.4305C6.76386 18.9416 6.53146 23.5182 7.0722 28.1032L8.06531 27.9861L9.05843 27.8689C8.542 23.4901 8.75935 19.0777 9.11549 14.5887C9.46939 10.128 9.9648 5.55634 9.9648 1H8.9648Z" fill="#180544"/>
</svg>
