<svg width="435" height="159" viewBox="0 0 435 159" fill="none" xmlns="http://www.w3.org/2000/svg">
<path d="M434.131 19.4942C434.599 19.2002 434.739 18.5828 434.445 18.1153C434.151 17.6478 433.534 17.5072 433.066 17.8012L433.599 18.6477L434.131 19.4942ZM175.071 32.8982L175.94 32.4028L175.071 32.8982ZM222.038 25.9841L221.038 25.9842L222.038 25.9841ZM12.5821 158.354C13.1061 158.528 13.6724 158.245 13.847 157.721L16.6932 149.183C16.8678 148.659 16.5847 148.093 16.0608 147.918C15.5368 147.744 14.9705 148.027 14.7958 148.551L12.2659 156.14L4.67648 153.61C4.15254 153.435 3.58622 153.719 3.41157 154.243C3.23691 154.767 3.52006 155.333 4.044 155.508L12.5821 158.354ZM433.599 18.6477L433.066 17.8012C397.312 40.2882 341.95 59.8059 290.989 65.7096C265.512 68.661 241.198 68.2019 221.018 63.0515C200.841 57.9021 184.887 48.091 175.94 32.4028L175.071 32.8982L174.203 33.3936C183.506 49.7056 200.02 59.7566 220.523 64.9893C241.022 70.221 265.6 70.6642 291.219 67.6963C342.451 61.7612 398.103 42.1534 434.131 19.4942L433.599 18.6477ZM175.071 32.8982L175.94 32.4028C171.266 24.2066 171.837 17.4097 175.101 12.3652C178.408 7.25228 184.601 3.75428 191.49 2.50472C198.37 1.25658 205.778 2.2842 211.432 6.01447C217.041 9.7148 221.038 16.146 221.038 25.9842L222.038 25.9841L223.038 25.9841C223.038 15.5297 218.749 8.44523 212.534 4.34502C206.364 0.27476 198.408 -0.783023 191.133 0.53684C183.865 1.85529 177.109 5.57869 173.421 11.2788C169.689 17.0474 169.219 24.6552 174.203 33.3936L175.071 32.8982ZM222.038 25.9841L221.038 25.9842C221.038 32.9773 216.978 38.1084 209.614 42.0219C202.214 45.9543 191.64 48.5552 179.032 50.4621C166.443 52.366 151.931 53.5643 136.703 54.7418C121.488 55.9183 105.566 57.0736 90.2072 58.8929C74.8496 60.7121 60.0186 63.1992 46.9794 67.0501C33.9482 70.8987 22.6367 76.1292 14.3753 83.4783C6.08586 90.8522 0.893745 100.339 0.105034 112.587C-0.681158 124.797 2.9124 139.669 12.0039 157.852L12.8984 157.405L13.7928 156.958C4.78851 138.949 1.34586 124.442 2.1009 112.716C2.85342 101.029 7.77997 92.022 15.7045 84.9726C23.6571 77.8983 34.6548 72.7754 47.5459 68.9682C60.4291 65.1634 75.1336 62.6925 90.4425 60.879C105.751 59.0657 121.625 57.9137 136.857 56.7359C152.075 55.5591 166.659 54.3561 179.331 52.4396C191.985 50.5259 202.839 47.8869 210.552 43.788C218.301 39.67 223.038 33.978 223.038 25.9841L222.038 25.9841Z" fill="white"/>
</svg>
