<svg width="19" height="24" viewBox="0 0 19 24" fill="none" xmlns="http://www.w3.org/2000/svg">
<path d="M18.3871 1.73395C18.7925 1.35884 18.817 0.72615 18.4419 0.320799C18.0668 -0.0845516 17.4341 -0.109065 17.0287 0.266047L17.7079 1L18.3871 1.73395ZM6.65617 22.8462C7.0467 23.2367 7.67986 23.2367 8.07039 22.8462L14.4343 16.4822C14.8249 16.0917 14.8249 15.4585 14.4343 15.068C14.0438 14.6775 13.4107 14.6775 13.0201 15.068L7.36328 20.7249L1.70643 15.068C1.3159 14.6775 0.682738 14.6775 0.292213 15.068C-0.0983109 15.4585 -0.0983109 16.0917 0.292213 16.4822L6.65617 22.8462ZM17.7079 1L17.0287 0.266047C10.5023 6.30557 6.36328 13.1878 6.36328 22.1391H7.36328H8.36328C8.36328 13.9158 12.1249 7.52898 18.3871 1.73395L17.7079 1Z" fill="#180544"/>
</svg>
