<svg width="263" height="269" viewBox="0 0 263 269" fill="none" xmlns="http://www.w3.org/2000/svg">
<path d="M89.9709 186.624C42.2239 138.118 63.9516 67.6371 131.012 67.6371C198.072 67.6371 219.8 138.118 172.053 186.624C163.61 195.201 165.319 207.107 166.592 215.974C167.605 223.03 168.342 228.162 163.469 228.162H153.544M89.9709 186.624C93.2114 189.916 94.9564 193.698 95.8044 197.611M89.9709 186.624C98.4137 195.201 96.7043 207.107 95.4313 215.974C94.4183 223.03 93.6816 228.162 98.5547 228.162H108.48C108.48 231.847 108.24 235.328 108.017 238.559C106.995 253.417 106.335 263 131.012 263C155.689 263 155.029 253.417 154.006 238.559C153.783 235.328 153.544 231.847 153.544 228.162M117.6 228.162H153.544M131.012 37.3545V6M194.853 67.6371L221.141 42.4463M221.141 129.81H256.012M67.1704 67.6371L40.8829 42.4463M40.8829 129.81H6.01173M131.012 86.8072C103.383 86.8072 84.3377 105.691 81.6553 124.718" stroke="#3C61F5" stroke-width="12" stroke-linecap="round"/>
</svg>
