<svg width="283" height="286" viewBox="0 0 283 286" fill="none" xmlns="http://www.w3.org/2000/svg">
<path d="M229.381 134.58C229.381 143.148 222.423 150.095 213.84 150.095C205.256 150.095 198.298 143.148 198.298 134.58C198.298 126.011 205.256 119.065 213.84 119.065C222.423 119.065 229.381 126.011 229.381 134.58Z" stroke="#BB6EF6" stroke-width="12"/>
<path fill-rule="evenodd" clip-rule="evenodd" d="M132.806 16.96C125.649 25.2947 114.65 29.2911 103.801 27.4987C84.7786 24.3562 67.43 38.8883 67.227 58.1346C67.1112 69.1118 61.2588 79.231 51.7937 84.8197C35.1986 94.6184 31.266 116.883 43.5031 131.757C50.4827 140.24 52.5152 151.747 48.8631 162.102C42.4598 180.257 53.7833 199.836 72.7347 203.377C83.5438 205.397 92.5102 212.908 96.38 223.184C103.165 241.2 124.446 248.932 141.244 239.485C150.825 234.096 162.53 234.096 172.111 239.485C188.909 248.932 210.19 241.2 216.975 223.184C220.844 212.908 229.811 205.397 240.62 203.377C259.571 199.836 270.895 180.257 264.492 162.102C260.839 151.747 262.872 140.24 269.851 131.757C282.089 116.883 278.156 94.6184 261.561 84.8197C252.096 79.231 246.243 69.1118 246.128 58.1346C245.925 38.8883 228.576 24.3562 209.554 27.4987C198.705 29.2911 187.706 25.2947 180.549 16.96C168.001 2.34668 145.354 2.34668 132.806 16.96ZM114.53 134.58C114.53 143.148 107.572 150.095 98.9883 150.095C90.4047 150.095 83.4464 143.148 83.4464 134.58C83.4464 126.011 90.4047 119.065 98.9883 119.065C107.572 119.065 114.53 126.011 114.53 134.58ZM171.956 134.58C171.956 143.148 164.997 150.095 156.414 150.095C147.83 150.095 140.872 143.148 140.872 134.58C140.872 126.011 147.83 119.065 156.414 119.065C164.997 119.065 171.956 126.011 171.956 134.58ZM229.381 134.58C229.381 143.148 222.423 150.095 213.84 150.095C205.256 150.095 198.298 143.148 198.298 134.58C198.298 126.011 205.256 119.065 213.84 119.065C222.423 119.065 229.381 126.011 229.381 134.58ZM54.997 259.488C64.8899 259.488 72.9096 251.483 72.9096 241.607C72.9096 231.731 64.8899 223.725 54.997 223.725C45.1041 223.725 37.0844 231.731 37.0844 241.607C37.0844 251.483 45.1041 259.488 54.997 259.488ZM26.5468 269.744C26.5468 275.408 21.9472 280 16.2734 280C10.5996 280 6 275.408 6 269.744C6 264.08 10.5996 259.489 16.2734 259.489C21.9472 259.489 26.5468 264.08 26.5468 269.744Z" stroke="#BB6EF6" stroke-width="12"/>
<path fill-rule="evenodd" clip-rule="evenodd" d="M98.9883 150.095C107.572 150.095 114.53 143.148 114.53 134.58C114.53 126.011 107.572 119.065 98.9883 119.065C90.4047 119.065 83.4464 126.011 83.4464 134.58C83.4464 143.148 90.4047 150.095 98.9883 150.095Z" stroke="#BB6EF6" stroke-width="12"/>
<path fill-rule="evenodd" clip-rule="evenodd" d="M156.414 150.095C164.997 150.095 171.956 143.148 171.956 134.58C171.956 126.011 164.997 119.065 156.414 119.065C147.83 119.065 140.872 126.011 140.872 134.58C140.872 143.148 147.83 150.095 156.414 150.095Z" stroke="#BB6EF6" stroke-width="12"/>
</svg>
