<svg width="304" height="275" viewBox="0 0 304 275" fill="none" xmlns="http://www.w3.org/2000/svg">
<path d="M33.5961 116.023C33.1871 114.726 33.085 113.304 33.3713 111.819C34.0969 108.056 35.2023 104.366 36.676 100.809C39.5378 93.8998 43.7322 87.6223 49.02 82.3345C52.1727 79.1818 55.6773 76.4177 59.4577 74.0931C62.0179 72.5188 64.7045 71.146 67.4941 69.9906C74.4029 67.1288 81.8077 65.6559 89.2857 65.6559C96.7637 65.6559 104.169 67.1288 111.077 69.9906C117.986 72.8523 124.264 77.0468 129.551 82.3345C134.839 87.6223 139.034 93.8998 141.895 100.809C143.369 104.366 144.475 108.056 145.2 111.819C145.486 113.304 145.384 114.726 144.975 116.023M33.5961 116.023H29.0744C26.1213 116.023 23.6105 118.179 23.1637 121.098L7.05566 226.337C6.50146 229.957 9.30342 233.221 12.9663 233.221H35.617M33.5961 116.023H144.975M144.975 116.023H160.959M160.959 116.023C160.55 114.726 160.448 113.304 160.735 111.819C161.46 108.056 162.566 104.366 164.039 100.809C166.901 93.8998 171.096 87.6223 176.383 82.3345C179.536 79.1818 183.041 76.4177 186.821 74.0931C189.381 72.5188 192.068 71.146 194.857 69.9906C201.766 67.1288 209.171 65.6559 216.649 65.6559C224.127 65.6559 231.532 67.1288 238.441 69.9906C245.349 72.8523 251.627 77.0468 256.915 82.3345C262.202 87.6223 266.397 93.8998 269.259 100.809C270.732 104.366 271.838 108.056 272.563 111.819C272.85 113.304 272.748 114.726 272.339 116.023M160.959 116.023H272.339M272.339 116.023H275.626C278.579 116.023 281.09 118.179 281.537 121.098L297.645 226.337C298.199 229.957 295.397 233.221 291.734 233.221H270.916M270.916 233.221C274.153 237.323 276.818 241.86 278.826 246.708C280.3 250.266 281.405 253.956 282.131 257.719C283.265 263.601 278.304 268.5 272.314 268.5H180.118C176.103 268.5 172.551 266.299 170.986 263.077C170.217 261.491 169.928 259.659 170.302 257.719C171.027 253.956 172.133 250.266 173.607 246.708C175.615 241.86 178.279 237.323 181.517 233.221M270.916 233.221C269.539 231.477 268.059 229.812 266.482 228.234C261.194 222.947 254.917 218.752 248.008 215.89C241.099 213.029 233.694 211.556 226.216 211.556C218.738 211.556 211.333 213.029 204.425 215.89C201.635 217.046 198.948 218.419 196.388 219.993C192.608 222.317 189.103 225.082 185.951 228.234C184.373 229.812 182.893 231.477 181.517 233.221M181.517 233.221H125.016M125.016 233.221C128.254 237.323 130.918 241.86 132.926 246.708C134.4 250.266 135.505 253.956 136.231 257.719C137.365 263.601 132.405 268.5 126.414 268.5H34.2187C30.2037 268.5 26.6514 266.299 25.0867 263.077C24.3168 261.491 24.0281 259.659 24.402 257.719C25.1277 253.956 26.2331 250.266 27.7068 246.708C29.7149 241.86 32.3792 237.323 35.617 233.221M125.016 233.221C123.639 231.477 122.159 229.812 120.582 228.234C115.294 222.947 109.017 218.752 102.108 215.89C95.1993 213.029 87.7945 211.556 80.3164 211.556C72.8384 211.556 65.4336 213.029 58.5248 215.89C55.7353 217.046 53.0486 218.419 50.4885 219.993C46.708 222.317 43.2035 225.082 40.0508 228.234C38.4734 229.812 36.9934 231.477 35.617 233.221M256.315 181.728C256.315 198.201 242.961 211.556 226.487 211.556C210.014 211.556 196.659 198.201 196.659 181.728C196.659 165.254 210.014 151.9 226.487 151.9C242.961 151.9 256.315 165.254 256.315 181.728ZM110.416 181.728C110.416 198.201 97.0611 211.556 80.5876 211.556C64.1141 211.556 50.7596 198.201 50.7596 181.728C50.7596 165.254 64.1141 151.9 80.5876 151.9C97.0611 151.9 110.416 165.254 110.416 181.728ZM119.385 35.828C119.385 52.3015 106.03 65.6559 89.5569 65.6559C73.0833 65.6559 59.7289 52.3015 59.7289 35.828C59.7289 19.3544 73.0833 6 89.5569 6C106.03 6 119.385 19.3544 119.385 35.828ZM246.748 35.828C246.748 52.3015 233.394 65.6559 216.92 65.6559C200.447 65.6559 187.092 52.3015 187.092 35.828C187.092 19.3544 200.447 6 216.92 6C233.394 6 246.748 19.3544 246.748 35.828Z" stroke="#E7A74E" stroke-width="12" stroke-linejoin="round"/>
</svg>
