<svg width="64" height="60" viewBox="0 0 64 60" fill="none" xmlns="http://www.w3.org/2000/svg">
<path d="M18.4943 36.75L9.11682 36.75C6.03691 36.75 3.2801 34.668 2.95403 31.6054C2.81917 30.3387 2.75 29.0524 2.75 27.75C2.75 19.2071 5.72564 11.3593 10.697 5.18633C11.8598 3.74246 13.6574 3 15.5113 3L27.5593 3C29.0103 3 30.4518 3.23393 31.8283 3.69277L41.1717 6.80722C42.5482 7.26607 43.9897 7.5 45.4407 7.5L49.3236 7.5M18.4943 36.75C20.3491 36.75 21.4669 38.9219 20.6701 40.5969C19.2787 43.5221 18.5 46.7951 18.5 50.25C18.5 53.9779 21.5221 57 25.25 57C26.4926 57 27.5 55.9926 27.5 54.75L27.5 52.8499C27.5 51.1324 27.8277 49.4307 28.4656 47.8361C29.3771 45.5571 31.257 43.8431 33.4234 42.6894C36.7649 40.9098 39.6882 38.4485 42.0077 35.491C43.5006 33.5875 45.6832 32.25 48.1023 32.25L49.2534 32.25M18.4943 36.75L25.1 36.75M49.3236 7.5C49.3553 7.65001 49.406 7.79886 49.4773 7.94339C51.2526 11.5412 52.25 15.5916 52.25 19.875C52.25 24.3352 51.1685 28.5429 49.2534 32.25M49.3236 7.5C49.0924 6.40602 49.8726 5.25 51.048 5.25L53.7713 5.25C56.4375 5.25 58.9103 6.80405 59.6883 9.35412C60.7037 12.6821 61.25 16.2148 61.25 19.875C61.25 24.5324 60.3656 28.9832 58.7555 33.0686C57.8403 35.3909 55.498 36.75 53.0019 36.75L49.8436 36.75C48.4279 36.75 47.6081 35.0823 48.3431 33.8722C48.6645 33.3431 48.9682 32.8021 49.2534 32.25" stroke="#3C61F5" stroke-width="4.5" stroke-linecap="round" stroke-linejoin="round"/>
</svg>
