<svg width="64" height="64" viewBox="0 0 64 64" fill="none" xmlns="http://www.w3.org/2000/svg">
<path d="M20.2886 25.4396L11.75 23L20.2886 20.5604C24.7734 19.279 28.279 15.7734 29.5604 11.2886L32 2.75L34.4396 11.2886C35.721 15.7734 39.2266 19.279 43.7114 20.5604L52.25 23L43.7114 25.4396C39.2266 26.721 35.721 30.2266 34.4396 34.7114L32 43.25L29.5604 34.7114C28.279 30.2266 24.7734 26.721 20.2886 25.4396Z" stroke="#3C61F5" stroke-width="4.5" stroke-linecap="round" stroke-linejoin="round"/>
<path d="M41.8564 50.7766L38.75 50L41.8564 49.2234C45.484 48.3165 48.3165 45.484 49.2234 41.8564L50 38.75L50.7766 41.8564C51.6835 45.484 54.516 48.3165 58.1436 49.2234L61.25 50L58.1436 50.7766C54.516 51.6835 51.6835 54.516 50.7766 58.1436L50 61.25L49.2234 58.1436C48.3165 54.516 45.484 51.6835 41.8564 50.7766Z" stroke="#3C61F5" stroke-width="4.5" stroke-linecap="round" stroke-linejoin="round"/>
<path d="M6.29819 46.6827L2.75 45.5L6.29819 44.3173C8.31378 43.6454 9.89541 42.0638 10.5673 40.0482L11.75 36.5L12.9327 40.0482C13.6046 42.0638 15.1862 43.6454 17.2018 44.3173L20.75 45.5L17.2018 46.6827C15.1862 47.3546 13.6046 48.9362 12.9327 50.9518L11.75 54.5L10.5673 50.9518C9.89541 48.9362 8.31378 47.3546 6.29819 46.6827Z" stroke="#3C61F5" stroke-width="4.5" stroke-linecap="round" stroke-linejoin="round"/>
</svg>
