<svg width="103" height="80" viewBox="0 0 103 80" fill="none" xmlns="http://www.w3.org/2000/svg">
<path d="M33.9318 40.5083C34.0884 42.0431 32.9714 43.4143 31.4371 43.571C29.9027 43.7276 28.5319 42.6103 28.3754 41.0755C28.2188 39.5406 29.3357 38.1694 30.8701 38.0128C32.4045 37.8562 33.7752 38.9734 33.9318 40.5083Z" fill="black"/>
<path fill-rule="evenodd" clip-rule="evenodd" d="M89.1926 7.31618L56.4232 1.41136C55.2556 1.20096 54.1386 1.97724 53.9283 3.14523L48.7625 31.8311C51.7283 33.0893 54.2794 35.2461 55.9798 38.188C59.5017 44.2815 63.6619 52.3249 65.224 58.6751L79.4813 61.2441C80.6489 61.4545 81.7659 60.6783 81.9762 59.5103L88.91 21.0065L90.9259 9.81196C91.1362 8.64398 90.3602 7.52658 89.1926 7.31618ZM76.5356 33.9661C76.0834 36.4773 73.6817 38.1463 71.1713 37.6939C69.3459 37.365 67.9657 36.005 67.5222 34.3218C66.5195 35.7444 64.7516 36.5371 62.9262 36.2082C60.4158 35.7559 58.7473 33.3535 59.1995 30.8423C59.6517 28.3311 62.0534 26.6621 64.5638 27.1145C64.5811 27.1176 64.5985 27.1208 64.6158 27.1241C64.4775 26.5299 64.4553 25.8983 64.5703 25.2597C65.0226 22.7486 67.4242 21.0796 69.9346 21.5319C72.4449 21.9843 74.1134 24.3867 73.6612 26.8979C73.546 27.5374 73.3044 28.1223 72.9668 28.6314C75.3888 29.154 76.9782 31.508 76.5356 33.9661Z" fill="black"/>
<path d="M71.1713 37.6939C73.6817 38.1463 76.0834 36.4773 76.5356 33.9661C76.9782 31.508 75.3888 29.154 72.9668 28.6314C73.3044 28.1223 73.546 27.5374 73.6612 26.8979C74.1134 24.3867 72.4449 21.9843 69.9346 21.5319C67.4242 21.0796 65.0226 22.7486 64.5703 25.2597C64.4553 25.8983 64.4775 26.5299 64.6158 27.1241C64.5985 27.1208 64.5811 27.1176 64.5638 27.1145C62.0534 26.6621 59.6517 28.3311 59.1995 30.8423C58.7473 33.3535 60.4158 35.7559 62.9262 36.2082C64.7516 36.5371 66.5195 35.7444 67.5222 34.3218C67.9657 36.005 69.3459 37.365 71.1713 37.6939Z" fill="black"/>
<path d="M81.9762 59.5103C81.7659 60.6783 80.6489 61.4545 79.4813 61.2441L65.224 58.6751C65.7184 60.685 65.9525 62.5252 65.8237 64.0804L79.2346 70.4057C80.3077 70.9119 81.5878 70.452 82.0938 69.3785L101.071 29.1181C101.577 28.0446 101.117 26.7641 100.044 26.258L88.91 21.0065L81.9762 59.5103Z" fill="black"/>
<path fill-rule="evenodd" clip-rule="evenodd" d="M30.2487 31.9202C26.2045 32.333 23.2177 32.5494 20.6404 32.6927C14.1116 33.0555 8.37555 37.0505 6.31349 43.2576C3.38232 52.0809 0.0473074 64.4616 1.91921 70.6682C3.71807 76.6325 6.58275 78.9402 10.9234 78.4972C14.6633 78.1154 19.4331 63.3724 23.3752 62.97L43.25 60.9413C47.192 60.539 54.8404 74.0144 58.5803 73.6327C62.9209 73.1896 65.2606 70.3507 65.8181 64.1458L65.8237 64.0804C65.9525 62.5252 65.7184 60.685 65.224 58.6751C63.6619 52.3249 59.5017 44.2815 55.9798 38.188C54.2794 35.2461 51.7283 33.0893 48.7625 31.8311C46.0198 30.6675 42.9223 30.2724 39.815 30.7355C37.2618 31.1159 34.2929 31.5074 30.2487 31.9202ZM31.4371 43.571C32.9714 43.4143 34.0884 42.0431 33.9318 40.5083C33.7752 38.9734 32.4045 37.8562 30.8701 38.0128C29.3357 38.1694 28.2188 39.5406 28.3754 41.0755C28.5319 42.6103 29.9027 43.7276 31.4371 43.571Z" fill="black"/>
<path d="M20.6404 32.6927L20.564 31.3185L20.6404 32.6927ZM6.31349 43.2576L7.61963 43.6915L6.31349 43.2576ZM1.91921 70.6682L0.601507 71.0656L1.91921 70.6682ZM10.9234 78.4972L10.7836 77.1279L10.9234 78.4972ZM23.3752 62.97L23.2354 61.6008L23.3752 62.97ZM39.815 30.7355L39.6121 29.3742L39.815 30.7355ZM55.9798 38.188L54.7882 38.8767L55.9798 38.188ZM58.5803 73.6327L58.4405 72.2634L58.5803 73.6327ZM43.25 60.9413L43.3898 62.3106L43.25 60.9413ZM89.1926 7.31618L89.4366 5.96167L89.1926 7.31618ZM56.4232 1.41136L56.1792 2.76587L56.4232 1.41136ZM81.9762 59.5103L83.3308 59.7542L81.9762 59.5103ZM90.9259 9.81196L92.2804 10.0559L90.9259 9.81196ZM53.9283 3.14523L55.2828 3.38915L53.9283 3.14523ZM79.4813 61.2441L79.2372 62.5987L79.4813 61.2441ZM79.2346 70.4057L78.6475 71.6505L79.2346 70.4057ZM82.0938 69.3785L83.3387 69.9654L82.0938 69.3785ZM100.044 26.258L100.631 25.0132L100.044 26.258ZM101.071 29.1181L99.826 28.5313L101.071 29.1181ZM88.91 21.0065L87.5554 20.7625L88.91 21.0065ZM71.1713 37.6939L70.9273 39.0485L71.1713 37.6939ZM76.5356 33.9661L77.8901 34.2101L76.5356 33.9661ZM62.9262 36.2082L62.6821 37.5627L62.9262 36.2082ZM64.5638 27.1145L64.3197 28.469L64.5638 27.1145ZM73.6612 26.8979L75.0157 27.1418L73.6612 26.8979ZM64.5703 25.2597L65.9249 25.5037L64.5703 25.2597ZM72.9668 28.6314L71.8197 27.8708C71.5683 28.2499 71.5205 28.7287 71.6919 29.1501C71.8633 29.5714 72.2318 29.8809 72.6765 29.9768L72.9668 28.6314ZM64.6158 27.1241L64.3565 28.4758C64.814 28.5636 65.2849 28.4139 65.6078 28.0782C65.9307 27.7424 66.0618 27.266 65.9563 26.8123L64.6158 27.1241ZM67.5222 34.3218L68.8531 33.9712C68.7168 33.4537 68.2928 33.0622 67.7662 32.9673C67.2395 32.8725 66.7056 33.0915 66.3973 33.5289L67.5222 34.3218ZM70.2418 42.8551C70.9898 42.9899 71.7055 42.4928 71.8403 41.7447C71.9751 40.9966 71.478 40.2809 70.7299 40.1461L70.4858 41.5006L70.2418 42.8551ZM62.5368 38.6698C61.7887 38.535 61.073 39.0321 60.9382 39.7802C60.8034 40.5283 61.3006 41.244 62.0486 41.3788L62.2927 40.0243L62.5368 38.6698ZM48.7625 31.8311L48.225 33.0982L48.7625 31.8311ZM65.224 58.6751L63.8875 59.0038L65.224 58.6751ZM30.2487 31.9202L30.1089 30.551C26.0863 30.9616 23.1206 31.1764 20.564 31.3185L20.6404 32.6927L20.7167 34.0669C23.3147 33.9225 26.3227 33.7044 30.3884 33.2894L30.2487 31.9202ZM6.31349 43.2576L5.00735 42.8237C3.533 47.2617 1.94628 52.6255 0.964122 57.6817C-0.0042094 62.6668 -0.440589 67.6104 0.601507 71.0656L1.91921 70.6682L3.23691 70.2708C2.4071 67.5194 2.70228 63.1694 3.66627 58.2066C4.61644 53.315 6.16281 48.0768 7.61963 43.6915L6.31349 43.2576ZM1.91921 70.6682L0.601507 71.0656C1.53643 74.1655 2.80474 76.5207 4.5743 78.032C6.39686 79.5886 8.59417 80.1184 11.0632 79.8664L10.9234 78.4972L10.7836 77.1279C8.91198 77.319 7.50662 76.9165 6.36197 75.9389C5.16431 74.916 4.10084 73.1353 3.23691 70.2708L1.91921 70.6682ZM10.9234 78.4972L11.0632 79.8664C11.9481 79.776 12.6967 79.2878 13.2843 78.7661C13.8895 78.2287 14.4664 77.5275 15.0107 76.7689C16.097 75.2548 17.2065 73.2908 18.2697 71.4219C19.3566 69.5116 20.3986 67.6941 21.4021 66.3264C21.9027 65.6441 22.3561 65.1268 22.7585 64.7811C23.1746 64.4237 23.4214 64.3488 23.5149 64.3393L23.3752 62.97L23.2354 61.6008C22.3434 61.6919 21.5788 62.1657 20.9649 62.6931C20.3373 63.2321 19.7421 63.9357 19.1828 64.6981C18.0663 66.2197 16.943 68.1873 15.8772 70.0607C14.7878 71.9757 13.7571 73.7942 12.7741 75.1643C12.2837 75.8478 11.8436 76.3642 11.4567 76.7077C11.0522 77.0669 10.8337 77.1228 10.7836 77.1279L10.9234 78.4972ZM30.2487 31.9202L30.3884 33.2894C34.4542 32.8744 37.4442 32.4803 40.0178 32.0968L39.815 30.7355L39.6121 29.3742C37.0795 29.7516 34.1316 30.1404 30.1089 30.551L30.2487 31.9202ZM65.8181 64.1458L64.4473 64.0226C64.1795 67.0026 63.4976 68.9616 62.5311 70.2054C61.6073 71.3942 60.3122 72.0724 58.4405 72.2634L58.5803 73.6327L58.72 75.0019C61.189 74.7498 63.234 73.787 64.7047 71.8944C66.1326 70.0568 66.8992 67.4938 67.1889 64.269L65.8181 64.1458ZM58.5803 73.6327L58.4405 72.2634C58.3905 72.2685 58.1652 72.2579 57.6966 71.9879C57.2483 71.7296 56.713 71.3128 56.0947 70.7424C54.8553 69.5992 53.4788 68.0264 52.0251 66.3711C50.603 64.7516 49.1055 63.0515 47.7049 61.7868C47.0031 61.1531 46.278 60.5843 45.5546 60.1831C44.8468 59.7907 44.0022 59.4811 43.1102 59.5721L43.25 60.9413L43.3898 62.3106C43.4833 62.301 43.7401 62.3245 44.2197 62.5905C44.6836 62.8477 45.232 63.2627 45.8601 63.8298C47.119 64.9666 48.5066 66.536 49.9568 68.1874C51.3755 69.8029 52.8586 71.5023 54.2283 72.7658C54.9145 73.3987 55.6211 73.9689 56.3224 74.373C57.0033 74.7653 57.8351 75.0922 58.72 75.0019L58.5803 73.6327ZM20.6404 32.6927L20.564 31.3185C13.5276 31.7095 7.26469 36.0288 5.00735 42.8237L6.31349 43.2576L7.61963 43.6915C9.48641 38.0723 14.6956 34.4015 20.7167 34.0669L20.6404 32.6927ZM33.9318 40.5083L32.5626 40.648C32.642 41.4271 32.0751 42.1224 31.2973 42.2017L31.4371 43.571L31.5768 44.9402C33.8678 44.7063 35.5347 42.6592 35.301 40.3686L33.9318 40.5083ZM31.4371 43.571L31.2973 42.2017C30.5196 42.2811 29.8241 41.7148 29.7446 40.9358L28.3754 41.0755L27.0062 41.2151C27.2398 43.5058 29.2858 45.174 31.5768 44.9402L31.4371 43.571ZM28.3754 41.0755L29.7446 40.9358C29.6651 40.1567 30.2321 39.4614 31.0099 39.382L30.8701 38.0128L30.7303 36.6436C28.4394 36.8774 26.7725 38.9245 27.0062 41.2151L28.3754 41.0755ZM30.8701 38.0128L31.0099 39.382C31.7876 39.3026 32.4831 39.869 32.5626 40.648L33.9318 40.5083L35.301 40.3686C35.0673 38.0779 33.0213 36.4097 30.7303 36.6436L30.8701 38.0128ZM23.3752 62.97L23.5149 64.3393L43.3898 62.3106L43.25 60.9413L43.1102 59.5721L23.2354 61.6008L23.3752 62.97ZM89.1926 7.31618L89.4366 5.96167L56.6673 0.0568472L56.4232 1.41136L56.1792 2.76587L88.9485 8.6707L89.1926 7.31618ZM81.9762 59.5103L80.6217 59.2664C80.546 59.6866 80.1444 59.9651 79.7253 59.8896L79.4813 61.2441L79.2372 62.5987C81.1533 62.9439 82.9858 61.67 83.3308 59.7542L81.9762 59.5103ZM56.4232 1.41136L56.6673 0.0568472C54.7512 -0.288427 52.9187 0.985549 52.5737 2.9013L53.9283 3.14523L55.2828 3.38915C55.3585 2.96893 55.7601 2.69035 56.1792 2.76587L56.4232 1.41136ZM89.1926 7.31618L88.9485 8.6707C89.3677 8.74624 89.647 9.14771 89.5713 9.56804L90.9259 9.81196L92.2804 10.0559C92.6254 8.14025 91.3526 6.30692 89.4366 5.96167L89.1926 7.31618ZM82.0938 69.3785L83.3387 69.9654L102.316 29.7049L101.071 29.1181L99.826 28.5313L80.8488 68.7917L82.0938 69.3785ZM79.2346 70.4057L78.6475 71.6505C80.4084 72.4811 82.5087 71.7263 83.3387 69.9654L82.0938 69.3785L80.8488 68.7917C80.6669 69.1777 80.207 69.3426 79.8217 69.1609L79.2346 70.4057ZM100.044 26.258L99.457 27.5028C99.8425 27.6846 100.008 28.145 99.826 28.5313L101.071 29.1181L102.316 29.7049C103.146 27.9443 102.392 25.8436 100.631 25.0132L100.044 26.258ZM81.9762 59.5103L83.3308 59.7542L90.2645 21.2504L88.91 21.0065L87.5554 20.7625L80.6217 59.2664L81.9762 59.5103ZM88.91 21.0065L90.2645 21.2504L92.2804 10.0559L90.9259 9.81196L89.5713 9.56804L87.5554 20.7625L88.91 21.0065ZM100.044 26.258L100.631 25.0132L89.4971 19.7616L88.91 21.0065L88.3228 22.2513L99.457 27.5028L100.044 26.258ZM71.1713 37.6939L70.9273 39.0485C74.1861 39.6357 77.3032 37.469 77.8901 34.2101L76.5356 33.9661L75.181 33.7222C74.8635 35.4856 73.1773 36.6569 71.4154 36.3394L71.1713 37.6939ZM59.1995 30.8423L57.845 30.5984C57.2582 33.8572 59.4233 36.9755 62.6821 37.5627L62.9262 36.2082L63.1702 34.8537C61.4083 34.5362 60.2365 32.8497 60.5541 31.0862L59.1995 30.8423ZM64.5638 27.1145L64.8078 25.76C61.5489 25.1727 58.4319 27.3394 57.845 30.5984L59.1995 30.8423L60.5541 31.0862C60.8716 29.3228 62.5578 28.1515 64.3197 28.469L64.5638 27.1145ZM73.6612 26.8979L75.0157 27.1418C75.6026 23.883 73.4374 20.7646 70.1786 20.1774L69.9346 21.5319L69.6905 22.8864C71.4524 23.2039 72.6242 24.8904 72.3066 26.6539L73.6612 26.8979ZM69.9346 21.5319L70.1786 20.1774C66.9197 19.5902 63.8027 21.7569 63.2158 25.0158L64.5703 25.2597L65.9249 25.5037C66.2424 23.7403 67.9286 22.569 69.6905 22.8864L69.9346 21.5319ZM72.9668 28.6314L74.1138 29.3921C74.5532 28.7295 74.8667 27.9693 75.0157 27.1418L73.6612 26.8979L72.3066 26.6539C72.2253 27.1055 72.0556 27.5151 71.8197 27.8708L72.9668 28.6314ZM76.5356 33.9661L77.8901 34.2101C78.4646 31.0197 76.402 27.9646 73.257 27.2861L72.9668 28.6314L72.6765 29.9768C74.3756 30.3434 75.4918 31.9962 75.181 33.7222L76.5356 33.9661ZM64.5703 25.2597L63.2158 25.0158C63.067 25.8421 63.0953 26.6628 63.2752 27.436L64.6158 27.1241L65.9563 26.8123C65.8597 26.397 65.8437 25.9546 65.9249 25.5037L64.5703 25.2597ZM64.6158 27.1241L64.875 25.7725C64.8527 25.7682 64.8303 25.764 64.8078 25.76L64.5638 27.1145L64.3197 28.469C64.332 28.4712 64.3443 28.4735 64.3565 28.4758L64.6158 27.1241ZM62.9262 36.2082L62.6821 37.5627C65.0538 37.9901 67.3477 36.9583 68.6472 35.1148L67.5222 34.3218L66.3973 33.5289C65.6913 34.5305 64.4494 35.0842 63.1702 34.8537L62.9262 36.2082ZM67.5222 34.3218L66.1913 34.6725C66.7659 36.8536 68.5556 38.6211 70.9273 39.0485L71.1713 37.6939L71.4154 36.3394C70.1362 36.1089 69.1654 35.1565 68.8531 33.9712L67.5222 34.3218ZM67.5222 34.3218L66.1677 34.0779L65.0087 40.5138L66.3633 40.7578L67.7178 41.0017L68.8768 34.5658L67.5222 34.3218ZM66.3633 40.7578L66.1192 42.1123L70.2418 42.8551L70.4858 41.5006L70.7299 40.1461L66.6073 39.4032L66.3633 40.7578ZM66.3633 40.7578L66.6073 39.4032L62.5368 38.6698L62.2927 40.0243L62.0486 41.3788L66.1192 42.1123L66.3633 40.7578ZM53.9283 3.14523L52.5737 2.9013L47.408 31.5872L48.7625 31.8311L50.1171 32.0751L55.2828 3.38915L53.9283 3.14523ZM39.815 30.7355L40.0178 32.0968C42.8811 31.6701 45.7218 32.0362 48.225 33.0982L48.7625 31.8311L49.3001 30.5641C46.3178 29.2989 42.9636 28.8748 39.6121 29.3742L39.815 30.7355ZM48.7625 31.8311L48.225 33.0982C50.9286 34.2451 53.2441 36.2052 54.7882 38.8767L55.9798 38.188L57.1714 37.4993C55.3147 34.287 52.5281 31.9336 49.3001 30.5641L48.7625 31.8311ZM65.224 58.6751L64.9799 60.0296L79.2372 62.5987L79.4813 61.2441L79.7253 59.8896L65.4681 57.3206L65.224 58.6751ZM55.9798 38.188L54.7882 38.8767C58.3079 44.9664 62.3766 52.8614 63.8875 59.0038L65.224 58.6751L66.5605 58.3463C64.9473 51.7883 60.6955 43.5965 57.1714 37.4993L55.9798 38.188ZM65.224 58.6751L63.8875 59.0038C64.3637 60.9397 64.5638 62.6184 64.4521 63.9668L65.8237 64.0804L67.1954 64.1939C67.3413 62.4321 67.0731 60.4302 66.5605 58.3463L65.224 58.6751ZM65.8237 64.0804L64.4521 63.9668C64.4506 63.9852 64.449 64.0038 64.4473 64.0226L65.8181 64.1458L67.1889 64.269C67.1911 64.2443 67.1933 64.2192 67.1954 64.1939L65.8237 64.0804ZM65.8237 64.0804L65.2366 65.3252L78.6475 71.6505L79.2346 70.4057L79.8217 69.1609L66.4109 62.8355L65.8237 64.0804ZM65.8181 64.1458L67.1893 64.2643L67.195 64.1989L65.8237 64.0804L64.4525 63.9619L64.4469 64.0273L65.8181 64.1458Z" fill="white"/>
</svg>
