<svg width="106" height="108" viewBox="0 0 106 108" fill="none" xmlns="http://www.w3.org/2000/svg">
<path d="M93.7251 1.50195C96.2844 1.20422 98.8746 2.08323 101.188 4.3916C103.501 6.70009 104.386 9.28869 104.094 11.8486C103.809 14.3431 102.432 16.6077 100.622 18.4219L96.063 22.9902V95.1074C96.0627 101.213 91.1129 106.162 85.0073 106.162H74.4048C74.0215 106.162 73.6534 106.01 73.3823 105.739C73.1112 105.468 72.9595 105.1 72.9595 104.717L72.9585 85.7412H12.5015C6.39573 85.7412 1.4458 80.7913 1.4458 74.6855V11.7051C1.4459 8.78067 2.81085 6.52684 4.80518 5.04004C6.76142 3.58167 9.29655 2.87056 11.7642 2.84277C14.2308 2.81503 16.7788 3.46854 18.7495 4.92285C20.765 6.41029 22.1146 8.69898 22.1147 11.7051V20.9463H71.2349L87.1587 4.98828C88.969 3.17409 91.2311 1.79209 93.7251 1.50195Z" fill="black" stroke="#1B0F47" stroke-width="2.89111" stroke-linejoin="round"/>
<path d="M88.1823 6.00967C91.5055 2.6794 96.0903 1.34651 100.167 5.41489C104.244 9.48328 102.921 14.0709 99.5981 17.4012L94.6175 22.3923L94.6176 84.2958L94.6175 95.107C94.6175 100.414 90.3151 104.717 85.0077 104.717L74.4045 104.717L74.4045 84.2958H12.501C7.1936 84.2958 2.89111 79.9934 2.89112 74.686L2.89112 64.035L2.89111 11.7054C2.89111 2.01546 20.6693 1.61505 20.6693 11.7054L20.6693 22.3923L71.8345 22.3923L88.1823 6.00967Z" fill="black"/>
<path d="M88.1823 6.00967C91.5055 2.6794 96.0903 1.34651 100.167 5.41489C104.244 9.48328 102.921 14.0709 99.5981 17.4012M88.1823 6.00967L71.8345 22.3923M88.1823 6.00967L99.5981 17.4012M99.5981 17.4012L94.6175 22.3923M94.6175 22.3923L69.124 47.9402C68.1951 48.871 66.9968 49.4859 65.6982 49.698L54.0857 51.5947L56.2796 37.9803L71.8345 22.3923M94.6175 22.3923L94.6176 84.2958M94.6176 84.2958L94.6175 95.107C94.6175 100.414 90.3151 104.717 85.0077 104.717L74.4045 104.717L74.4045 84.2958M94.6176 84.2958L74.4045 84.2958M20.6693 22.3923L20.6693 11.7054C20.6693 1.61505 2.89111 2.01546 2.89111 11.7054L2.89112 64.035M20.6693 22.3923V64.035C20.6693 53.9447 2.89112 54.3451 2.89112 64.035M20.6693 22.3923L71.8345 22.3923M2.89112 64.035L2.89112 74.686C2.89111 79.9934 7.1936 84.2958 12.501 84.2958H74.4045" stroke="white" stroke-width="2.89111" stroke-linejoin="round"/>
</svg>
