<svg width="84" height="144" viewBox="0 0 84 144" fill="none" xmlns="http://www.w3.org/2000/svg">
<path d="M37.0802 0.139398C36.6049 -0.141869 35.9916 0.0154249 35.7103 0.490722C35.4291 0.96602 35.5864 1.57934 36.0616 1.8606L36.5709 1L37.0802 0.139398ZM81.586 54.333L80.6379 54.6511L81.586 54.333ZM28.74 80.7338L28.2932 81.6284L28.74 80.7338ZM50.3286 67.6331L51.2666 67.2864L50.3286 67.6331ZM10.0004 143.71C10.5527 143.71 11.0004 143.262 11.0004 142.71L11.0004 133.71C11.0004 133.157 10.5527 132.71 10.0004 132.71C9.44811 132.71 9.0004 133.157 9.0004 133.71L9.00043 141.71L1.00043 141.71C0.448149 141.71 0.000435472 142.157 0.000437737 142.71C0.000440001 143.262 0.448157 143.71 1.00044 143.71L10.0004 143.71ZM36.5709 1L36.0616 1.8606C62.3761 17.4327 74.9864 37.8063 80.6379 54.6511L81.586 54.333L82.534 54.0149C76.7452 36.7608 63.8478 15.9796 37.0802 0.139398L36.5709 1ZM81.586 54.333L80.6379 54.6511C82.87 61.3042 81.7482 66.5688 78.6699 70.6774C75.5504 74.8409 70.3413 77.9201 64.2383 79.9415C58.1503 81.958 51.2736 82.8874 44.9501 82.826C38.607 82.7644 32.9271 81.707 29.1868 79.8391L28.74 80.7338L28.2932 81.6284C32.4143 83.6864 38.4356 84.7628 44.9307 84.8259C51.4456 84.8892 58.5445 83.9343 64.8672 81.8401C71.1748 79.7509 76.8115 76.4932 80.2705 71.8766C83.7707 67.2049 84.9601 61.2459 82.534 54.0149L81.586 54.333ZM28.74 80.7338L29.1868 79.8391C22.808 76.6538 20.8611 73.1909 21.0264 70.3187C21.1973 67.3518 23.6328 64.4123 27.3497 62.3575C31.0286 60.3238 35.702 59.3175 39.8672 60.0393C43.9824 60.7525 47.6029 63.1424 49.3906 67.9797L50.3286 67.6331L51.2666 67.2864C49.2022 61.7004 44.9384 58.8883 40.2087 58.0687C35.5292 57.2577 30.3972 58.3877 26.3821 60.6072C22.4052 62.8056 19.2582 66.2362 19.0297 70.2038C18.7958 74.2662 21.6328 78.3024 28.2932 81.6284L28.74 80.7338ZM50.3286 67.6331L49.3906 67.9797C51.0019 72.34 51.0733 76.163 50.078 79.6031C49.0778 83.0604 46.9781 86.206 44.1281 89.1564C38.3949 95.0917 29.8463 100.031 21.752 105.026C17.7334 107.507 13.8364 109.998 10.536 112.609C7.24101 115.216 4.4756 117.992 2.77553 121.067C1.05737 124.174 0.437642 127.573 1.42156 131.332C2.39556 135.055 4.91694 139.04 9.29333 143.417L10.0004 142.71L10.7075 142.003C6.46767 137.763 4.20687 134.076 3.35641 130.826C2.51586 127.614 3.02938 124.741 4.52583 122.034C6.04037 119.295 8.57092 116.714 11.7769 114.177C14.9775 111.645 18.7865 109.207 22.8024 106.728C30.7773 101.806 39.6125 96.7099 45.5666 90.5459C48.5603 87.4467 50.8803 84.0266 51.9992 80.159C53.1231 76.2742 53.0132 72.0129 51.2666 67.2864L50.3286 67.6331Z" fill="white"/>
</svg>
