<svg width="132" height="191" viewBox="0 0 132 191" fill="none" xmlns="http://www.w3.org/2000/svg">
<g filter="url(#filter0_f_2069_14556)">
<path d="M118.914 127.92C82.7952 127.92 82.9999 127.92 82.9999 177.999M118.914 127.92C83.3761 127.92 83.0032 127.92 82.9999 175.841M118.914 127.92C83.3761 127.92 83.0033 127.921 83 80C82.9982 127.921 82.6782 127.92 47.0856 127.92M82.9999 177.999C82.9999 127.92 83.1493 127.92 47.0856 127.92M82.9999 177.999C82.9999 177.269 82.9999 176.55 82.9999 175.841M82.9999 177.999L82.9999 175.841M47.0856 127.92C82.6782 127.92 82.9981 127.92 82.9999 175.841" stroke="#3C61F5" stroke-width="5" stroke-linejoin="round"/>
</g>
<path d="M118.914 127.92C82.7952 127.92 82.9999 127.92 82.9999 177.999M118.914 127.92C83.3761 127.92 83.0032 127.92 82.9999 175.841M118.914 127.92C83.3761 127.92 83.0033 127.921 83 80C82.9982 127.921 82.6782 127.92 47.0856 127.92M82.9999 177.999C82.9999 127.92 83.1493 127.92 47.0856 127.92M82.9999 177.999C82.9999 177.269 82.9999 176.55 82.9999 175.841M82.9999 177.999L82.9999 175.841M47.0856 127.92C82.6782 127.92 82.9981 127.92 82.9999 175.841" stroke="#3C61F5" stroke-width="5" stroke-linejoin="round"/>
<g filter="url(#filter1_f_2069_14556)">
<path d="M39.5171 30.7864C26.111 30.7864 26.187 30.7864 26.187 49.3739M39.5171 30.7864C26.3266 30.7864 26.1882 30.7864 26.187 48.573M39.5171 30.7864C26.3266 30.7864 26.1882 30.7866 26.187 13C26.1863 30.7866 26.0676 30.7864 12.8568 30.7864M26.187 49.3739C26.187 30.7864 26.2424 30.7864 12.8568 30.7864M26.187 49.3739C26.187 49.103 26.187 48.8361 26.187 48.573M26.187 49.3739L26.187 48.573M12.8568 30.7864C26.0676 30.7864 26.1863 30.7864 26.187 48.573" stroke="#3C61F5" stroke-width="5" stroke-linejoin="round"/>
</g>
<path d="M39.5171 30.7864C26.111 30.7864 26.187 30.7864 26.187 49.3739M39.5171 30.7864C26.3266 30.7864 26.1882 30.7864 26.187 48.573M39.5171 30.7864C26.3266 30.7864 26.1882 30.7866 26.187 13C26.1863 30.7866 26.0676 30.7864 12.8568 30.7864M26.187 49.3739C26.187 30.7864 26.2424 30.7864 12.8568 30.7864M26.187 49.3739C26.187 49.103 26.187 48.8361 26.187 48.573M26.187 49.3739L26.187 48.573M12.8568 30.7864C26.0676 30.7864 26.1863 30.7864 26.187 48.573" stroke="#3C61F5" stroke-width="5" stroke-linejoin="round"/>
<defs>
<filter id="filter0_f_2069_14556" x="34.5854" y="67.5" width="96.8286" height="122.999" filterUnits="userSpaceOnUse" color-interpolation-filters="sRGB">
<feFlood flood-opacity="0" result="BackgroundImageFix"/>
<feBlend mode="normal" in="SourceGraphic" in2="BackgroundImageFix" result="shape"/>
<feGaussianBlur stdDeviation="5" result="effect1_foregroundBlur_2069_14556"/>
</filter>
<filter id="filter1_f_2069_14556" x="0.356934" y="0.5" width="51.6602" height="61.374" filterUnits="userSpaceOnUse" color-interpolation-filters="sRGB">
<feFlood flood-opacity="0" result="BackgroundImageFix"/>
<feBlend mode="normal" in="SourceGraphic" in2="BackgroundImageFix" result="shape"/>
<feGaussianBlur stdDeviation="5" result="effect1_foregroundBlur_2069_14556"/>
</filter>
</defs>
</svg>
