<svg width="132" height="191" viewBox="0 0 132 191" fill="none" xmlns="http://www.w3.org/2000/svg">
<g filter="url(#filter0_f_2069_14554)">
<path d="M118.914 127.92C82.7947 127.92 82.9994 127.92 82.9994 177.999M118.914 127.92C83.3756 127.92 83.0027 127.92 82.9994 175.841M118.914 127.92C83.3756 127.92 83.0028 127.921 82.9995 80C82.9977 127.921 82.6777 127.92 47.0851 127.92M82.9994 177.999C82.9994 127.92 83.1488 127.92 47.0851 127.92M82.9994 177.999C82.9994 177.269 82.9994 176.55 82.9994 175.841M82.9994 177.999L82.9994 175.841M47.0851 127.92C82.6777 127.92 82.9976 127.92 82.9994 175.841" stroke="#BB6EF6" stroke-width="5" stroke-linejoin="round"/>
</g>
<path d="M118.914 127.92C82.7947 127.92 82.9994 127.92 82.9994 177.999M118.914 127.92C83.3756 127.92 83.0027 127.92 82.9994 175.841M118.914 127.92C83.3756 127.92 83.0028 127.921 82.9995 80C82.9977 127.921 82.6777 127.92 47.0851 127.92M82.9994 177.999C82.9994 127.92 83.1488 127.92 47.0851 127.92M82.9994 177.999C82.9994 177.269 82.9994 176.55 82.9994 175.841M82.9994 177.999L82.9994 175.841M47.0851 127.92C82.6777 127.92 82.9976 127.92 82.9994 175.841" stroke="#BB6EF6" stroke-width="5" stroke-linejoin="round"/>
<g filter="url(#filter1_f_2069_14554)">
<path d="M39.5166 30.7864C26.1105 30.7864 26.1865 30.7864 26.1865 49.3739M39.5166 30.7864C26.3261 30.7864 26.1877 30.7864 26.1865 48.573M39.5166 30.7864C26.3261 30.7864 26.1877 30.7866 26.1865 13C26.1859 30.7866 26.0671 30.7864 12.8563 30.7864M26.1865 49.3739C26.1865 30.7864 26.2419 30.7864 12.8563 30.7864M26.1865 49.3739C26.1865 49.103 26.1865 48.8361 26.1865 48.573M26.1865 49.3739L26.1865 48.573M12.8563 30.7864C26.0671 30.7864 26.1858 30.7864 26.1865 48.573" stroke="#BB6EF6" stroke-width="5" stroke-linejoin="round"/>
</g>
<path d="M39.5166 30.7864C26.1105 30.7864 26.1865 30.7864 26.1865 49.3739M39.5166 30.7864C26.3261 30.7864 26.1877 30.7864 26.1865 48.573M39.5166 30.7864C26.3261 30.7864 26.1877 30.7866 26.1865 13C26.1859 30.7866 26.0671 30.7864 12.8563 30.7864M26.1865 49.3739C26.1865 30.7864 26.2419 30.7864 12.8563 30.7864M26.1865 49.3739C26.1865 49.103 26.1865 48.8361 26.1865 48.573M26.1865 49.3739L26.1865 48.573M12.8563 30.7864C26.0671 30.7864 26.1858 30.7864 26.1865 48.573" stroke="#BB6EF6" stroke-width="5" stroke-linejoin="round"/>
<defs>
<filter id="filter0_f_2069_14554" x="34.585" y="67.5" width="96.8286" height="122.999" filterUnits="userSpaceOnUse" color-interpolation-filters="sRGB">
<feFlood flood-opacity="0" result="BackgroundImageFix"/>
<feBlend mode="normal" in="SourceGraphic" in2="BackgroundImageFix" result="shape"/>
<feGaussianBlur stdDeviation="5" result="effect1_foregroundBlur_2069_14554"/>
</filter>
<filter id="filter1_f_2069_14554" x="0.356445" y="0.5" width="51.6602" height="61.374" filterUnits="userSpaceOnUse" color-interpolation-filters="sRGB">
<feFlood flood-opacity="0" result="BackgroundImageFix"/>
<feBlend mode="normal" in="SourceGraphic" in2="BackgroundImageFix" result="shape"/>
<feGaussianBlur stdDeviation="5" result="effect1_foregroundBlur_2069_14554"/>
</filter>
</defs>
</svg>
