<svg width="352" height="347" viewBox="0 0 352 347" fill="none" xmlns="http://www.w3.org/2000/svg">
<g filter="url(#filter0_f_1853_17148)">
<path d="M12.7749 43.502L36.4242 41.1072M316.223 12.7746L292.574 15.1694M35.687 269.771L59.3363 267.376M339.135 239.043L315.486 241.438M36.4242 41.1072L59.3363 267.376M36.4242 41.1072L164.499 28.1383L292.574 15.1694M59.3363 267.376L187.411 254.407M292.574 15.1694L315.486 241.438M315.486 241.438L187.411 254.407M120.905 130.796L85.5276 118.49L168.516 67.8128L259.98 100.825M120.905 130.796L176.865 150.261L227.787 119.973M120.905 130.796L128.163 202.477C128.163 202.477 157.753 212.632 182.923 210.083C208.093 207.535 235.046 191.654 235.046 191.654L227.787 119.973M259.98 100.825L227.787 119.973M259.98 100.825L264.531 145.768M187.411 254.407L190.581 285.713M190.581 285.713C178.029 286.984 168.893 298.283 170.176 310.951C171.459 323.619 182.674 332.858 195.226 331.587C207.779 330.315 216.914 319.016 215.632 306.348C214.349 293.681 203.133 284.442 190.581 285.713Z" stroke="#F6B254" stroke-width="5" stroke-linecap="round" stroke-linejoin="round"/>
</g>
<path d="M12.7749 43.502L36.4242 41.1072M316.223 12.7746L292.574 15.1694M35.687 269.771L59.3363 267.376M339.135 239.043L315.486 241.438M36.4242 41.1072L59.3363 267.376M36.4242 41.1072L164.499 28.1383L292.574 15.1694M59.3363 267.376L187.411 254.407M292.574 15.1694L315.486 241.438M315.486 241.438L187.411 254.407M120.905 130.796L85.5276 118.49L168.516 67.8128L259.98 100.825M120.905 130.796L176.865 150.261L227.787 119.973M120.905 130.796L128.163 202.477C128.163 202.477 157.753 212.632 182.923 210.083C208.093 207.535 235.046 191.654 235.046 191.654L227.787 119.973M259.98 100.825L227.787 119.973M259.98 100.825L264.531 145.768M187.411 254.407L190.581 285.713M190.581 285.713C178.029 286.984 168.893 298.283 170.176 310.951C171.459 323.619 182.674 332.858 195.226 331.587C207.779 330.315 216.914 319.016 215.632 306.348C214.349 293.681 203.133 284.442 190.581 285.713Z" stroke="#F6B254" stroke-width="5" stroke-linecap="round" stroke-linejoin="round"/>
<defs>
<filter id="filter0_f_1853_17148" x="0.274658" y="0.274414" width="351.361" height="343.929" filterUnits="userSpaceOnUse" color-interpolation-filters="sRGB">
<feFlood flood-opacity="0" result="BackgroundImageFix"/>
<feBlend mode="normal" in="SourceGraphic" in2="BackgroundImageFix" result="shape"/>
<feGaussianBlur stdDeviation="5" result="effect1_foregroundBlur_1853_17148"/>
</filter>
</defs>
</svg>
