<svg width="611" height="855" viewBox="0 0 611 855" fill="none" xmlns="http://www.w3.org/2000/svg">
<path d="M233.937 150.075L153.291 166.149L176.739 227.755L101.936 248.291" stroke="#3C61F5" stroke-width="17.7188" stroke-linecap="round" stroke-linejoin="round"/>
<path d="M8.99882 55.575L46.3379 209.981L132.018 112.402" stroke="#F6B254" stroke-width="17.9719" stroke-linecap="round" stroke-linejoin="round"/>
<path d="M233.937 102.656L87.2506 51.525M233.937 60.1313L87.2506 9" stroke="#BB6EF6" stroke-width="17.9719" stroke-linecap="round" stroke-linejoin="round"/>
<path d="M192.264 541.744L176.189 461.098L114.583 484.546L94.048 409.743" stroke="#BB6EF6" stroke-width="17.7188" stroke-linecap="round" stroke-linejoin="round"/>
<path d="M286.757 316.8L132.351 354.139L229.93 439.819" stroke="#F6B254" stroke-width="17.9719" stroke-linecap="round" stroke-linejoin="round"/>
<path d="M239.675 541.744L290.806 395.058M282.2 541.744L333.331 395.058" stroke="#3C61F5" stroke-width="17.9719" stroke-linecap="round" stroke-linejoin="round"/>
<path d="M19.7988 751.166L100.445 735.092L76.9967 673.486L151.8 652.95" stroke="#3C61F5" stroke-width="17.7188" stroke-linecap="round" stroke-linejoin="round"/>
<path d="M244.743 845.666L207.404 691.26L121.725 788.839" stroke="#F6B254" stroke-width="17.9719" stroke-linecap="round" stroke-linejoin="round"/>
<path d="M253.519 645.525L400.204 696.656M253.519 688.05L400.204 739.181" stroke="#BB6EF6" stroke-width="17.9719" stroke-linecap="round" stroke-linejoin="round"/>
<path d="M503.532 506.865L442.084 500.066L480.073 399.695L407.242 398.475" stroke="#3C61F5" stroke-width="17.7188" stroke-linecap="round" stroke-linejoin="round"/>
<path d="M562.587 420.625L550.343 575.483M601.514 437.743L589.27 592.602" stroke="#F6B254" stroke-width="17.9719" stroke-linecap="round" stroke-linejoin="round"/>
<path d="M390.909 485.178L404.302 617.417L503.621 581.548" stroke="#BB6EF6" stroke-width="17.9719" stroke-linecap="round" stroke-linejoin="round"/>
<path d="M440.57 71.6814L426.234 206.426L351.218 69.7499" stroke="#3C61F5" stroke-width="17.9719" stroke-linecap="round" stroke-linejoin="round"/>
<path d="M287.093 179.707L359.53 317.126M329.142 173.365L401.579 310.784" stroke="#F6B254" stroke-width="17.9719" stroke-linecap="round" stroke-linejoin="round"/>
<path d="M468.322 297.551L433.567 246.422L534.549 210.088L488.157 153.931" stroke="#BB6EF6" stroke-width="17.7188" stroke-linecap="round" stroke-linejoin="round"/>
</svg>
