<svg width="1131" height="1615" viewBox="0 0 1131 1615" fill="none" xmlns="http://www.w3.org/2000/svg">
<path opacity="0.8" d="M4.32102 18.0906C3.4278 23.8915 3.64418 31.2747 3.23911 36.7954C3.23324 36.8723 3.2274 36.9493 3.22159 37.0264C3.05295 39.2468 2.8492 41.7172 2.6458 44.4859C2.61977 44.8314 2.59305 45.1869 2.56728 45.5515C2.33718 48.7532 2.12188 53.0514 2.02905 58.4027C1.78169 76.9055 4.47388 90.9885 5.25275 95.3845C6.872 104.17 8.1294 113.535 10.1101 126.324C10.2901 127.483 10.4747 128.674 10.6694 129.898C10.827 130.889 10.5167 131.783 9.97266 131.893C9.42832 132.003 8.85694 131.285 8.69881 130.29C8.50776 129.09 8.32416 127.922 8.14769 126.788C8.14689 126.783 8.1461 126.778 8.1453 126.772C6.14791 113.886 4.91489 104.688 3.32761 96.1066C2.5273 91.5872 -0.246252 77.1439 0.0181808 58.0937C0.11721 52.691 0.336056 48.2634 0.573916 45.0528C0.599771 44.6947 0.62641 44.3472 0.652244 44.0106C0.652944 44.0027 0.653645 43.9947 0.654346 43.9868C0.863081 41.0948 1.06634 38.7845 1.23081 36.6331C1.23387 36.5871 1.23694 36.5411 1.24003 36.4952C1.65791 30.8275 1.45313 23.521 2.33738 17.7777C2.51959 16.5516 3.13237 15.6662 3.67741 15.7663C4.22266 15.868 4.49825 16.8917 4.32102 18.0906ZM89.2032 372.939C92.6326 377.019 96.5129 382.897 99.9367 388.064C103.4 393.318 106.496 398.062 107.941 400.37C109.341 402.615 111.139 404.908 113.388 407.547C113.906 408.155 114.449 408.782 115.012 409.426C116.874 411.556 118.971 413.887 121.254 416.471C129.687 425.969 135.926 431.42 140.431 435.234C141.36 436.015 142.232 436.731 143.05 437.398C143.052 437.399 143.053 437.4 143.054 437.401C146.14 439.911 148.493 441.741 150.501 443.608C154.08 446.924 157.054 449.6 160.548 452.977C165.361 457.654 173.346 462.815 178.93 465.466C179.235 465.612 179.548 465.76 179.865 465.911C183.905 467.822 188.899 470.139 196.277 473.688C202.398 476.623 207.663 479.338 212.297 481.719C213.63 482.403 214.91 483.059 216.136 483.679C219.237 485.246 221.996 486.592 224.702 487.748C241.396 494.815 251.086 498.501 257.137 501.218C261.753 503.258 264.298 504.64 266.121 505.638C266.673 505.939 267.159 506.205 267.623 506.438C271.718 508.507 275.74 510.064 280.458 511.808C281.521 512.199 282.637 512.605 283.795 513.025C287.672 514.429 290.6 515.112 292.991 515.562C294.026 515.755 294.94 515.9 295.8 516.032C295.816 516.034 295.832 516.036 295.848 516.038C295.968 516.057 296.087 516.076 296.205 516.094C296.294 516.107 296.383 516.119 296.472 516.133C296.509 516.131 296.541 516.132 296.565 516.132C296.585 516.132 296.6 516.132 296.609 516.132C296.611 516.132 296.613 516.132 296.615 516.131C296.789 516.133 296.934 516.152 296.964 516.156C297.017 516.163 297.062 516.171 297.086 516.175C297.209 516.195 297.367 516.227 297.472 516.249C297.741 516.306 298.208 516.408 298.928 516.567C299.557 516.685 300.171 516.776 300.952 516.891C301.001 516.898 301.05 516.905 301.099 516.912C301.858 517.022 302.744 517.151 303.847 517.325C304.851 517.483 305.673 518.066 305.69 518.633C305.705 519.2 304.905 519.537 303.898 519.379C302.855 519.216 302.022 519.097 301.26 518.987C301.212 518.98 301.163 518.974 301.115 518.967C300.323 518.852 299.555 518.737 298.774 518.59C298.509 518.541 298.237 518.486 297.983 518.433C297.523 518.35 296.995 518.269 296.362 518.173C296.234 518.154 296.104 518.133 295.969 518.112C295.108 517.981 294.102 517.826 292.971 517.615C290.3 517.116 287.041 516.35 282.8 514.811C281.692 514.409 280.597 514.011 279.562 513.629C274.796 511.866 270.477 510.194 266.101 507.976C265.496 507.67 264.922 507.356 264.308 507.02C262.483 506.019 260.323 504.835 256.027 502.935C250.24 500.328 240.733 496.709 224.049 489.655C221.194 488.437 218.235 486.992 215.065 485.388C213.858 484.777 212.615 484.143 211.358 483.497C206.773 481.141 201.644 478.496 195.701 475.654C188.44 472.168 183.563 469.915 179.509 468.005C179.369 467.939 179.229 467.874 179.089 467.808C178.915 467.726 178.743 467.644 178.572 467.562C172.589 464.736 164.018 459.228 158.681 454.022C155.324 450.766 152.466 448.188 148.886 444.864C147.129 443.226 145.099 441.653 142.053 439.18C141.197 438.485 140.26 437.713 139.227 436.847C134.609 432.939 128.232 427.37 119.647 417.691C117.423 415.17 115.402 412.923 113.536 410.791C112.957 410.128 112.391 409.475 111.842 408.83C109.566 406.159 107.532 403.59 105.907 400.971C104.559 398.808 101.552 394.178 98.159 389.023C94.7636 383.888 91.1263 378.407 88.0812 374.808C87.7625 374.433 87.4431 374.052 87.1245 373.67C84.3697 370.372 81.6745 366.957 79.1009 364.374C72.4899 358.967 66.4772 349.278 61.8895 338.441C57.3536 327.747 54.341 316.735 51.6928 307.918C51.624 307.688 51.5551 307.457 51.4862 307.226C45.4241 286.759 41.5668 272.118 40.1435 266.968C40.0808 266.737 40.0236 266.526 39.9724 266.336C39.9266 266.167 39.8843 266.014 39.8479 265.878C39.3029 263.849 38.7574 262.054 38.1873 260.161C38.1561 260.058 38.1249 259.954 38.0937 259.851C37.495 257.861 36.8554 255.685 36.2399 253.236C33.9072 243.945 31.9965 236.386 30.3432 229.772C30.0418 228.566 29.7509 227.39 29.4664 226.242C29.4656 226.238 29.4648 226.235 29.4641 226.232C28.2169 221.198 27.1195 216.654 26.1774 212.404C24.4499 204.6 23.2109 199.338 22.2169 195.257C21.9054 193.976 21.6158 192.796 21.3431 191.681C20.7531 189.27 20.2439 187.167 19.7759 184.984C18.8957 180.876 18.0173 177.125 17.1623 173.4C17.0862 173.068 17.0115 172.737 16.9359 172.406C16.0133 168.367 15.1357 164.417 14.3492 160.132C14.1675 159.142 14.463 158.241 15.0051 158.122C15.5471 158.003 16.1318 158.708 16.313 159.696C17.0756 163.852 17.9282 167.701 18.8483 171.732C18.9241 172.064 19.0016 172.397 19.0781 172.731C19.9291 176.442 20.8188 180.259 21.7136 184.436C22.1641 186.538 22.6438 188.522 23.2207 190.882C23.496 192.008 23.7938 193.22 24.1214 194.568C25.1287 198.706 26.3826 204.028 28.1242 211.898C29.0536 216.091 30.133 220.569 31.3774 225.595C31.6633 226.749 31.9583 227.934 32.2629 229.153C33.9166 235.772 35.833 243.359 38.1747 252.688C38.7558 255.001 39.3578 257.053 39.9536 259.036C39.987 259.147 40.0203 259.259 40.0536 259.371C40.6178 261.246 41.1939 263.138 41.7686 265.279C41.8454 265.565 41.9427 265.93 42.0613 266.368C43.4825 271.511 47.3509 286.193 53.4168 306.671C53.4353 306.734 53.4538 306.798 53.4723 306.861C57.5984 320.615 60.2326 328.042 63.047 333.851C63.6618 335.101 64.2159 336.234 64.7202 337.273C66.0519 340.039 67.1058 342.298 68.0165 344.246C68.2595 344.765 68.491 345.255 68.7116 345.721C69.6646 347.735 70.4393 349.314 71.3403 350.857C74.0702 355.506 76.4317 358.519 79.7972 361.955C82.6423 364.848 85.5692 368.567 88.2549 371.803C88.2589 371.808 88.2629 371.813 88.2669 371.818C88.5838 372.2 88.8962 372.575 89.2032 372.939ZM318.431 518.929C319.42 519.128 320.167 519.732 320.056 520.275C319.952 520.819 319.023 521.097 318.03 520.896C315.668 520.419 313.286 519.916 310.886 519.387C309.879 519.166 309.157 518.543 309.285 518.004C309.402 517.462 310.321 517.207 311.323 517.427C313.711 517.954 316.081 518.454 318.431 518.929ZM95.5091 364.139C96.1007 364.897 96.301 365.889 95.9542 366.361C95.607 366.83 94.8376 366.599 94.2392 365.837C93.9237 365.435 93.393 364.771 92.6932 363.883C89.112 359.354 80.7833 348.42 73.3826 333.698C70.511 328.052 67.6213 321.442 65.1101 314.889C64.3703 312.96 63.6982 311.188 63.0559 309.468C60.4342 302.418 57.1438 296.912 53.1512 282.895C36.7155 223.668 26.6731 163.496 16.6814 103.083C13.8937 85.5696 11.9702 68.2024 11.3152 50.2186C10.5346 35.4372 12.6772 7.54284 19.53 1.07237C20.3427 0.0717226 21.4146 -0.241395 21.7651 0.18554C22.118 0.616481 21.7663 1.49911 21.0762 2.35376C14.9685 7.65939 12.4768 35.3804 13.3184 49.989C13.9609 67.8537 15.8665 85.1252 18.6386 102.566C28.6101 162.954 41.0677 222.759 57.4443 281.745C61.375 295.54 62.2557 301.528 64.8506 308.516C65.4925 310.238 66.1674 312.018 66.9116 313.961C69.4426 320.574 72.3708 327.263 75.262 332.923C82.4113 347.084 90.3761 357.61 93.9222 362.124C94.6327 363.029 95.1782 363.715 95.5091 364.139ZM121.92 401.103C129.28 409.197 140.202 420.321 150.568 429.188C155.597 433.533 160.429 437.391 164.398 440.372C170.536 444.971 174.288 448.071 178.034 451.112C178.074 451.144 178.115 451.177 178.155 451.209C181.927 454.24 185.723 457.227 192.476 461.27C199.253 465.329 209.068 470.288 219.159 474.729C219.166 474.733 219.174 474.737 219.182 474.741C229.205 479.185 240.017 482.241 247.43 485.176C273.386 495.4 289.915 500.717 298.149 503.913C312.623 509.407 330.207 510.502 345.464 514.626C347.101 515.343 344.078 516.554 340.922 515.71C340.808 515.683 340.693 515.656 340.579 515.629C339.494 515.374 338.522 515.152 337.18 514.891C335.262 514.564 333.813 514.347 332.485 514.145C328.96 513.79 305.04 508.933 296.991 505.651C289.175 502.592 272.21 499.703 245.752 489.292C238.377 486.368 228.638 481.128 218.528 476.653C218.5 476.641 218.472 476.628 218.444 476.616C208.372 472.187 198.403 467.163 191.472 463.012C184.435 458.8 180.442 455.648 176.605 452.557C176.568 452.527 176.531 452.497 176.494 452.467C172.762 449.431 169.166 446.452 163.215 441.994C159.133 438.928 154.211 434.998 149.118 430.593C138.734 421.695 127.887 410.639 120.529 402.559C119.858 401.83 119.635 400.912 120.023 400.514C120.41 400.115 121.256 400.381 121.92 401.103ZM131.393 392.923C152.557 413.224 175.329 431.761 199.517 448.64C206.074 452.58 215.446 457.852 225.066 462.605C225.175 462.659 225.283 462.714 225.392 462.769C234.888 467.481 244.661 471.716 251.723 474.513C276.958 484.449 293.353 488.685 301.321 491.809C308.746 494.628 311.008 495.068 314.144 495.74C314.232 495.759 314.321 495.778 314.409 495.797C314.415 495.797 314.421 495.796 314.427 495.796C314.543 495.793 314.639 495.798 314.689 495.802C314.789 495.809 314.87 495.821 314.9 495.825C314.97 495.835 315.027 495.846 315.048 495.85C315.132 495.866 315.228 495.886 315.29 495.9C315.864 496.028 317.65 496.45 319.047 496.805C320.48 497.169 321.487 497.469 322.546 497.787C322.652 497.819 322.76 497.852 322.871 497.884C323.85 498.175 324.915 498.488 326.445 498.885C327.377 499.126 327.96 499.739 327.753 500.261C327.545 500.783 326.62 501.013 325.682 500.77C324.066 500.349 322.908 500.01 321.942 499.72C321.835 499.687 321.729 499.655 321.622 499.622C320.602 499.315 319.705 499.051 318.427 498.725C316.567 498.299 315.166 498.009 313.881 497.741C310.616 497.041 307.99 496.524 300.188 493.551C292.6 490.554 276.539 486.429 251.009 476.389C243.897 473.574 234.062 469.312 224.522 464.578C224.409 464.522 224.296 464.467 224.184 464.411C214.505 459.63 205.093 454.332 198.512 450.378C172.848 435.016 148.806 417.509 129.999 394.376C126.3 390.369 123.066 386.543 120.187 382.949C111.699 372.308 106.013 363.627 99.9464 355.622C98.6304 353.863 95.5408 349.005 91.6392 341.659C90.4872 339.484 89.2856 337.13 88.0226 334.527C87.1469 332.722 86.2453 330.803 85.3264 328.769C83.0974 323.863 80.6181 317.863 78.1096 311.368C77.3898 309.51 76.7343 307.797 76.1071 306.133C73.5076 299.188 71.4416 293.637 67.4916 279.832C62.5769 262.857 55.8096 233.931 52.6885 218.354C51.0898 210.536 50.3125 206.139 49.7751 202.998C49.6264 202.125 49.4999 201.355 49.3829 200.649C49.0772 198.802 48.842 197.371 48.494 195.51C46.0013 182.083 43.8744 172.745 40.5385 157.451C40.3299 156.487 40.5937 155.566 41.1251 155.394C41.6567 155.222 42.2559 155.861 42.4644 156.823C45.798 172.119 47.9521 181.586 50.4758 195.178C50.8385 197.117 51.0896 198.65 51.4003 200.525C51.5155 201.22 51.6386 201.962 51.7795 202.789C52.3072 205.872 53.0757 210.22 54.6634 217.984C57.7748 233.511 64.5237 262.35 69.411 279.233C73.3105 292.865 75.3328 298.313 77.9034 305.188C78.5302 306.854 79.1882 308.573 79.9118 310.444C82.441 317 84.9503 323.077 87.1896 328C88.0649 329.936 88.9237 331.765 89.7582 333.489C91.0078 336.069 92.192 338.392 93.3288 340.543C97.2743 347.976 100.165 352.486 101.277 353.989C107.478 362.216 113.367 371.196 121.872 381.836C124.699 385.359 127.844 389.075 131.393 392.923ZM32.0815 101.729C32.2376 102.695 31.9278 103.598 31.388 103.741C30.8483 103.884 30.2811 103.211 30.1241 102.242C29.2993 97.149 28.7308 93.4878 28.2903 90.5833C27.4897 85.2796 27.133 82.734 26.7522 78.8247C25.8001 68.9603 25.0896 59.1462 24.7784 50.6528C24.196 36.3085 24.9399 24.9049 25.9645 19.4545C26.121 18.5549 26.701 17.9692 27.2445 18.0774C27.7879 18.1881 28.0945 18.9244 27.9433 19.795C26.9552 25.0431 26.2089 36.2185 26.7787 50.4228C27.0848 58.8833 27.793 68.6776 28.7478 78.5785C29.1149 82.3515 29.4501 84.7657 30.2269 89.9247C30.6632 92.8067 31.2393 96.524 32.0815 101.729ZM353.671 525.809C356.103 526.095 359.244 525.725 361.648 526.192C361.683 526.199 361.717 526.206 361.752 526.212C362.757 526.405 363.775 526.658 365.004 526.952C365.16 526.99 365.321 527.029 365.484 527.068C366.917 527.412 368.777 527.819 371.235 528.236C379.58 529.644 386.335 528.278 388.366 527.842C392.477 526.961 396.946 526.515 403.061 525.465C403.623 525.367 404.196 525.266 404.781 525.156C405.254 525.067 405.727 525.432 405.843 525.974C405.958 526.517 405.665 527.033 405.184 527.123C404.603 527.233 404.035 527.336 403.478 527.433C403.476 527.433 403.473 527.434 403.47 527.434C397.232 528.508 392.8 528.947 388.748 529.816C386.643 530.267 379.652 531.676 371.028 530.224C368.518 529.801 366.631 529.389 365.173 529.041C365.012 529.003 364.854 528.965 364.701 528.928C364.697 528.927 364.694 528.926 364.69 528.925C363.442 528.627 362.458 528.383 361.488 528.197C361.467 528.194 361.447 528.19 361.426 528.187C358.979 527.711 355.87 528.088 353.494 527.809C353.036 527.755 352.705 527.262 352.755 526.71C352.807 526.158 353.217 525.756 353.671 525.809ZM427.856 428.178C425.104 427.699 421.881 426.526 418.886 425.599C415.937 424.652 413.115 423.874 411.81 423.462C410.526 423.055 409.013 422.932 407.3 422.946C406.905 422.95 406.495 422.961 406.069 422.977C404.673 423.031 403.067 423.154 401.388 423.262C395.055 423.721 391.198 425.142 388.546 426.197C387.997 426.422 387.489 426.643 387.016 426.854C387.015 426.855 387.014 426.855 387.013 426.855C385.218 427.661 383.975 428.294 382.673 428.683C380.348 429.39 378.522 429.994 376.129 430.631C372.821 431.491 369.023 434.381 367.182 436.799C367.079 436.931 366.974 437.069 366.868 437.207C365.507 438.988 363.921 441.157 361.5 444.297C359.511 446.894 357.672 449.027 356.049 450.933C355.587 451.475 355.146 451.994 354.727 452.501C353.674 453.774 352.74 454.985 352.017 456.16C347.511 463.589 345.353 468.061 343.622 470.742C342.319 472.833 341.353 473.976 340.664 474.76C340.456 475.002 340.271 475.217 340.113 475.426C338.711 477.281 337.778 479.235 336.779 481.517C336.558 482.025 336.33 482.558 336.094 483.119C335.305 484.998 335.067 486.511 334.989 487.71C334.955 488.235 334.956 488.675 334.958 489.105C334.958 489.113 334.958 489.12 334.959 489.128C334.959 489.188 334.959 489.247 334.959 489.305C334.959 489.35 334.962 489.394 334.962 489.438C334.969 489.457 334.973 489.473 334.977 489.485C334.98 489.495 334.982 489.503 334.983 489.507C334.984 489.508 334.984 489.509 334.985 489.51C335.009 489.598 335.013 489.671 335.014 489.685C335.015 489.711 335.014 489.734 335.014 489.746C335.013 489.807 335.006 489.886 335 489.937C334.986 490.071 334.957 490.302 334.911 490.66C334.892 490.976 334.896 491.282 334.905 491.665C334.905 491.689 334.906 491.713 334.907 491.738C334.915 492.112 334.926 492.549 334.925 493.097C334.924 493.595 334.478 494.001 333.922 494.004C333.367 494.006 332.914 493.595 332.915 493.086C332.916 492.559 332.905 492.14 332.896 491.758C332.896 491.733 332.895 491.709 332.894 491.685C332.885 491.287 332.88 490.91 332.906 490.509C332.915 490.374 332.927 490.237 332.94 490.108C332.952 489.875 332.951 489.608 332.949 489.288C332.949 489.223 332.95 489.157 332.949 489.089C332.947 488.654 332.947 488.149 332.981 487.583C333.07 486.22 333.344 484.511 334.218 482.426C334.448 481.88 334.671 481.354 334.892 480.844C335.913 478.493 336.928 476.359 338.443 474.352C338.652 474.076 338.871 473.82 339.106 473.548C339.8 472.754 340.648 471.742 341.874 469.771C343.558 467.163 345.709 462.691 350.295 455.125C351.07 453.863 352.091 452.54 353.187 451.216C353.607 450.708 354.04 450.192 354.484 449.671C356.119 447.749 357.947 445.628 359.91 443.064C362.34 439.916 363.91 437.766 365.302 435.949C365.349 435.886 365.397 435.824 365.444 435.761C365.504 435.684 365.563 435.608 365.622 435.532C367.635 432.892 371.754 429.724 375.503 428.742C377.838 428.12 379.643 427.518 382.01 426.796C383.173 426.448 384.268 425.887 386.069 425.074C386.575 424.847 387.134 424.605 387.758 424.349C390.539 423.242 394.568 421.753 401.194 421.265C402.875 421.156 404.472 421.031 405.911 420.973C406.362 420.955 406.803 420.943 407.235 420.939C409.023 420.922 410.776 421.045 412.316 421.532C413.57 421.927 416.423 422.709 419.429 423.668C422.518 424.623 425.664 425.755 428.199 426.194C428.462 426.239 428.728 426.287 428.994 426.338C431.285 426.773 433.613 427.455 435.792 427.768C447.516 427.349 456.402 445.064 457.595 454.463C457.623 454.591 457.651 454.718 457.679 454.846C459.706 464.448 459.618 471.22 459.687 474.91C459.69 475.702 459.673 476.353 459.655 476.853C459.649 477.005 459.643 477.142 459.637 477.266C459.632 477.376 459.628 477.476 459.623 477.564C459.55 478.87 459.495 480.084 459.386 481.333C459.38 481.402 459.374 481.47 459.368 481.538C459.247 482.847 459.049 484.275 458.62 485.887C456.998 491.925 454.49 496.495 452.077 499.997C451.621 500.656 451.173 501.264 450.722 501.852C450.721 501.853 450.719 501.855 450.718 501.857C448.717 504.452 446.759 506.471 444.811 508.169C441.226 511.253 438.722 512.952 436.794 514.301C436.196 514.713 435.638 515.088 435.106 515.437C433.936 516.2 432.966 516.798 431.889 517.367C429.849 518.439 428.069 519.374 426.252 520.255C426.093 520.332 425.934 520.407 425.775 520.483C423.817 521.416 421.877 522.251 419.757 522.934C419.261 523.094 418.718 522.79 418.548 522.262C418.372 521.736 418.622 521.188 419.107 521.032C421.128 520.38 422.975 519.589 424.892 518.676C425.048 518.602 425.205 518.525 425.361 518.449C427.122 517.595 428.906 516.665 430.921 515.606C431.935 515.071 432.814 514.528 433.933 513.801C434.457 513.459 435.014 513.085 435.625 512.664C437.518 511.342 439.978 509.671 443.461 506.68C445.315 505.065 447.169 503.16 449.085 500.683C449.521 500.117 449.949 499.534 450.392 498.897C452.705 495.548 455.11 491.183 456.667 485.409C457.054 483.962 457.239 482.667 457.356 481.428C457.363 481.357 457.37 481.287 457.376 481.217C457.48 480.039 457.539 478.81 457.614 477.496C457.624 477.319 457.636 477.092 457.647 476.818C457.665 476.33 457.682 475.691 457.679 474.91C457.613 471.274 457.689 464.631 455.727 455.316C455.72 455.282 455.713 455.248 455.706 455.214C454.057 447.868 451.927 443.587 449.822 440.938C448.113 438.823 446.792 437.195 445.738 435.939C445.534 435.697 445.341 435.473 445.153 435.257C444.316 434.293 443.623 433.566 442.836 432.945C440.471 431.106 438.305 430.191 435.557 429.786C433.228 429.444 430.765 428.724 428.616 428.317C428.613 428.317 428.61 428.316 428.607 428.315C428.352 428.266 428.101 428.22 427.856 428.178ZM335.603 500.247C335.558 500.732 335.079 501.102 334.526 501.072C333.972 501.041 333.554 500.611 333.599 500.115C333.706 498.934 333.833 497.765 333.98 496.606C334.041 496.125 334.542 495.762 335.092 495.824C335.644 495.885 336.037 496.337 335.977 496.808C335.833 497.943 335.708 499.09 335.603 500.247ZM425.091 437.96C424.711 437.884 424.54 437.406 424.701 436.88C424.863 436.355 425.318 435.986 425.726 436.07C425.94 436.115 426.297 436.18 426.779 436.285C430.039 436.62 441.154 441.298 445.9 452.381C446.309 453.276 446.664 454.105 446.986 454.91C448.231 458.114 450.468 460.658 451.097 467.635C451.283 469.969 451.351 472.394 451.301 474.91C451.475 489.769 439.816 501.721 428.254 506.94C416.444 512.626 404.015 515.01 391.595 517.136C383.742 518.44 375.826 518.74 367.916 518.523C361.291 518.422 349.413 516.38 346.635 515.913C346.194 515.848 345.89 515.347 345.957 514.797C346.024 514.247 346.433 513.855 346.87 513.919C349.609 514.38 361.355 516.41 367.894 516.512C375.718 516.729 383.543 516.436 391.277 515.15C414.136 511.164 446.043 502.885 446.906 474.91C446.924 472.504 446.843 470.199 446.668 467.992C446.089 461.552 446.326 458.772 445.116 455.64C444.811 454.886 444.462 454.068 444.066 453.204C439.546 442.727 429.235 438.482 426.124 438.163C425.655 438.064 425.304 438.002 425.091 437.96ZM407.484 433.609C402.961 433.964 396.496 435.13 391.088 437.205C388.463 438.179 386.025 439.323 384.201 440.324C381.325 441.913 379.381 442.695 377.408 443.549C377.387 443.558 377.366 443.567 377.345 443.577C375.379 444.452 373.439 445.363 370.84 447.65C368.249 449.928 365.148 453.675 362.546 457.708C362.543 457.711 362.541 457.714 362.539 457.717C359.886 461.768 358.627 466.58 357.041 469.563C351.47 480.149 348.963 487.291 347.155 490.931C344.098 497.39 345.83 505.172 343.912 512.309C343.437 513.142 341.812 511.884 342.187 510.385C342.198 510.332 342.208 510.278 342.218 510.225C342.312 509.715 342.389 509.272 342.449 508.654C342.488 507.761 342.485 507.103 342.485 506.503C342.33 504.967 343.372 493.8 345.275 490.285C347.027 486.803 347.135 478.93 353.095 467.519C354.769 464.37 358.165 460.729 360.872 456.593C360.88 456.581 360.887 456.57 360.894 456.559C363.548 452.451 366.763 448.56 369.471 446.177C372.241 443.737 374.316 442.762 376.368 441.84C376.388 441.831 376.408 441.823 376.428 441.814C378.431 440.942 380.339 440.168 383.194 438.587C385.118 437.53 387.66 436.332 390.397 435.317C395.968 433.185 402.598 431.981 407.3 431.609C407.723 431.57 408.098 431.994 408.138 432.548C408.177 433.101 407.885 433.572 407.484 433.609ZM408.147 446.106C399.418 448.901 390.253 452.67 380.735 458.19C378.636 460.008 375.791 462.772 373.3 465.846C373.272 465.88 373.243 465.914 373.214 465.949C370.717 469.008 368.597 472.33 367.264 474.816C362.509 483.79 361.157 490.096 359.469 493.149C357.974 495.984 357.902 496.917 357.755 498.204C357.751 498.239 357.747 498.275 357.742 498.31C357.744 498.313 357.745 498.315 357.747 498.318C357.768 498.365 357.779 498.404 357.784 498.423C357.793 498.462 357.795 498.494 357.796 498.505C357.797 498.532 357.796 498.555 357.795 498.563C357.793 498.596 357.79 498.633 357.786 498.657C357.755 498.88 357.631 499.578 357.508 500.137C357.38 500.709 357.246 501.118 357.101 501.552C357.086 501.596 357.071 501.64 357.056 501.684C356.926 502.077 356.786 502.507 356.634 503.136C356.542 503.519 356.026 503.782 355.478 503.719C354.931 503.656 354.561 503.282 354.654 502.889C354.815 502.211 354.967 501.744 355.099 501.341C355.114 501.296 355.129 501.251 355.144 501.207C355.285 500.781 355.403 500.411 355.518 499.891C355.638 499.134 355.693 498.583 355.747 498.064C355.903 496.696 355.993 495.595 357.583 492.552C359.223 489.571 360.549 483.242 365.471 473.913C366.847 471.341 369.034 467.905 371.608 464.744C371.638 464.707 371.668 464.67 371.697 464.633C374.269 461.452 377.206 458.596 379.372 456.717C387.654 449.388 397.979 443.272 407.977 444.105C409.729 443.917 411.316 443.934 412.72 444.052C416.884 444.443 419.448 445.439 422.493 445.879C423.163 445.996 424.703 446.672 426.644 448.248C427.207 448.705 427.844 449.293 428.452 449.92C429.985 451.502 431.684 453.778 433.189 456.758C433.509 457.389 433.79 457.983 434.051 458.569C435.079 460.972 435.963 462.985 436.49 468.526C436.64 470.311 436.711 472.434 436.64 474.91C436.568 480.046 433.87 484.65 431.261 487.092C429.53 488.776 428.24 489.561 427.354 490.09C427.104 490.236 426.878 490.36 426.668 490.473C426.118 490.771 425.683 490.995 425.134 491.31C421.078 493.559 418.049 495.279 412.513 497.693C412.161 497.842 411.711 497.54 411.516 497.022C411.32 496.503 411.443 495.965 411.784 495.82C417.179 493.463 420.138 491.773 424.032 489.631C424.573 489.324 425.016 489.1 425.541 488.821C425.735 488.717 425.94 488.606 426.162 488.479C426.982 487.998 428.176 487.28 429.757 485.762C432.144 483.531 434.53 479.575 434.631 474.91C434.701 472.506 434.634 470.45 434.49 468.733C433.99 463.431 433.154 461.551 432.177 459.286C431.928 458.728 431.656 458.163 431.35 457.561C429.918 454.753 428.324 452.648 426.91 451.208C426.35 450.638 425.77 450.112 425.257 449.701C423.45 448.265 422.132 447.729 421.608 447.649C418.715 447.318 416.349 446.401 412.463 446.049C411.181 445.946 409.735 445.933 408.147 446.106ZM390.306 501.742C390.707 501.672 391.101 502.059 391.191 502.606C391.28 503.154 391.026 503.657 390.618 503.728C388.476 504.102 386.952 504.344 385.717 504.531C383.493 504.867 382.375 505.009 380.729 505.065C376.485 505.203 372.336 505.196 368.624 505.098C362.444 504.938 357.347 504.528 354.705 504.205C354.286 504.153 353.988 503.662 354.04 503.11C354.092 502.559 354.471 502.155 354.886 502.205C357.488 502.525 362.505 502.929 368.603 503.09C372.286 503.187 376.403 503.193 380.627 503.057C382.201 503.004 383.253 502.873 385.394 502.549C386.612 502.364 388.142 502.12 390.306 501.742ZM345.39 558.627C347.043 562.421 349.024 566.389 351.211 570.349C355.78 578.641 360.856 586.646 365.383 593.82C365.475 593.966 365.567 594.113 365.66 594.259C368.37 598.537 371.086 602.744 374.691 607.893C375.147 608.545 375.617 609.21 376.1 609.887C380.398 615.88 385.856 623.125 394.092 632.334C422.009 663.343 450.825 679.503 459.294 684.598C476.721 694.678 495.476 704.771 521.862 716.427C524.286 717.494 526.764 718.57 529.294 719.648C531.347 720.523 532.882 721.652 532.714 722.183C532.546 722.714 530.733 722.444 528.672 721.566C526.187 720.507 523.759 719.457 521.381 718.411C521.37 718.407 521.359 718.402 521.349 718.397C494.711 706.641 476.298 696.712 459.168 686.867C450.479 681.661 420.715 665.107 391.996 633.02C383.635 623.612 378.117 616.227 373.777 610.125C373.303 609.455 372.844 608.799 372.399 608.159C372.389 608.144 372.379 608.129 372.368 608.114C368.76 602.91 366.141 598.81 363.541 594.681C363.485 594.594 363.43 594.506 363.374 594.419C358.843 587.203 353.905 579.365 349.449 571.294C347.21 567.245 345.192 563.205 343.52 559.361C342.559 557.155 342.253 555.178 342.775 554.991C343.299 554.806 344.442 556.454 345.39 558.627ZM1010.77 977.184C1017.99 986.04 1026.14 998.612 1032.63 1010.3C1039.14 1021.93 1044.25 1033.04 1046.47 1038.25C1048.66 1043.35 1051.27 1048.96 1054.29 1055.7C1054.98 1057.24 1055.69 1058.85 1056.42 1060.51C1058.81 1065.99 1061.37 1072.12 1063.95 1078.99C1073.32 1104.14 1078.21 1120.99 1081.73 1133.02C1082.45 1135.49 1083.1 1137.8 1083.7 1139.95C1083.7 1139.96 1083.7 1139.96 1083.7 1139.96C1085.95 1148.09 1087.49 1154.27 1088.6 1159.97C1090.54 1170.12 1091.92 1178.48 1093.09 1188.61C1094.76 1202.57 1097.79 1222.28 1099.93 1235.19C1100.05 1235.9 1100.17 1236.62 1100.29 1237.35C1101.83 1246.66 1103.65 1258.25 1105.24 1275.63C1106.55 1290.18 1106.97 1302.8 1107.11 1314.07C1107.15 1317.29 1107.16 1320.36 1107.16 1323.29C1107.16 1330.73 1107.07 1337.44 1107.06 1343.7C1106.89 1382.65 1104.72 1405.12 1103.22 1419.16C1102 1429.89 1100.91 1436.04 1100.14 1440.32C1099.91 1441.63 1099.7 1442.77 1099.52 1443.86C1097.9 1453.51 1096.66 1462.56 1095.1 1473.21C1094.75 1475.62 1094.38 1478.11 1093.98 1480.71C1092.66 1489.37 1091.95 1495.76 1091.46 1500.94C1091.24 1503.18 1091.07 1505.14 1090.92 1506.99C1090.91 1507.03 1090.91 1507.06 1090.91 1507.09C1090.89 1507.35 1090.86 1507.61 1090.84 1507.86C1090.83 1508.05 1090.81 1508.24 1090.8 1508.43C1090.8 1508.51 1090.79 1508.58 1090.79 1508.63C1090.79 1508.67 1090.79 1508.7 1090.79 1508.72C1090.79 1508.72 1090.79 1508.73 1090.79 1508.73C1090.79 1509.1 1090.76 1509.41 1090.76 1509.47C1090.75 1509.58 1090.74 1509.68 1090.73 1509.73C1090.71 1510 1090.67 1510.34 1090.65 1510.57C1090.58 1511.15 1090.46 1512.16 1090.27 1513.72C1090.12 1515.07 1090 1516.4 1089.84 1518.09C1089.83 1518.2 1089.82 1518.3 1089.82 1518.41C1089.66 1520.05 1089.48 1521.96 1089.24 1524.34C1089.01 1526.51 1088.36 1528.43 1087.77 1528.64C1087.19 1528.85 1086.9 1527.29 1087.12 1525.12C1087.35 1522.89 1087.52 1521.1 1087.67 1519.46C1087.68 1519.36 1087.69 1519.26 1087.7 1519.15C1087.86 1517.46 1088.02 1515.78 1088.19 1514.12C1088.26 1513.55 1088.32 1512.97 1088.38 1512.42C1088.49 1511.44 1088.59 1510.31 1088.7 1508.96C1088.73 1508.69 1088.75 1508.41 1088.78 1508.12C1088.93 1506.28 1089.12 1504.13 1089.35 1501.7C1089.9 1495.95 1090.7 1488.88 1092.13 1479.45C1092.5 1476.97 1092.86 1474.56 1093.2 1472.19C1094.76 1461.56 1096.09 1451.76 1097.79 1441.59C1098.02 1440.19 1098.27 1438.84 1098.52 1437.39C1099.27 1433.14 1100.2 1427.84 1101.31 1417.98C1102.73 1404.6 1104.86 1382.72 1105.05 1344.06C1105.07 1337.51 1105.15 1330.35 1105.15 1322.82C1105.15 1319.95 1105.13 1316.99 1105.1 1313.98C1104.96 1302.91 1104.55 1290.71 1103.3 1276.7C1101.77 1259.74 1100.03 1248.48 1098.52 1239.24C1098.47 1238.92 1098.41 1238.6 1098.36 1238.28C1098.29 1237.88 1098.23 1237.49 1098.16 1237.1C1095.93 1223.38 1092.71 1202.45 1090.84 1187.09C1089.69 1177.43 1088.37 1169.47 1086.42 1159.4C1085.46 1154.46 1084.15 1149.19 1081.97 1141.25C1081.35 1139.01 1080.66 1136.56 1079.88 1133.84C1076.31 1121.64 1071.36 1104.59 1061.9 1079.26C1059.41 1072.63 1056.97 1066.8 1054.6 1061.37C1053.86 1059.68 1053.13 1058.03 1052.4 1056.41C1049.38 1049.66 1046.48 1043.45 1043.94 1037.57C1041.86 1032.75 1036.92 1022.07 1030.6 1010.8C1024.21 999.328 1016.66 987.785 1010.38 980.014C1009.73 979.206 1009.07 978.392 1008.41 977.581C1002.76 970.647 996.827 963.832 991.468 958.696C967.986 937.656 930.328 897.76 898.966 874.57C897.507 873.453 896.068 872.37 894.655 871.324C894.246 871.022 893.837 870.72 893.427 870.419C857.304 844.077 827.191 830.294 817.232 825.338C816.761 825.112 816.333 824.908 815.948 824.724C815.603 824.56 815.292 824.413 815.017 824.282C810.898 822.324 807.208 820.691 803.324 819.008C803.112 818.917 802.9 818.825 802.687 818.734C798.581 816.961 794.253 815.128 789.152 812.93C770.162 804.77 754.302 798.845 740.507 793.87C737.952 792.951 735.464 792.064 733.032 791.207C733.025 791.205 733.018 791.202 733.011 791.2C722.343 787.441 712.82 784.221 703.775 781.144C687.271 775.545 676.006 772.004 667.219 769.26C664.465 768.402 661.927 767.617 659.533 766.878C654.343 765.275 649.793 763.871 645.135 762.374C636.399 759.567 628.218 757.019 620.26 754.504C619.551 754.28 618.839 754.054 618.124 753.827C609.415 751.064 600.897 748.313 591.828 745.146C589.731 744.414 588.147 743.377 588.288 742.838C588.431 742.301 590.241 742.463 592.333 743.193C601.129 746.266 609.432 748.953 618.129 751.714C618.845 751.941 619.57 752.17 620.285 752.396C628.217 754.904 636.537 757.501 645.438 760.361C649.93 761.805 654.221 763.129 659.317 764.702C661.738 765.45 664.347 766.256 667.25 767.159C676.172 769.945 687.592 773.533 704.27 779.19C713.214 782.231 722.628 785.413 733.305 789.172C735.756 790.035 738.273 790.929 740.863 791.859C754.717 796.851 770.692 802.813 789.835 811.036C794.668 813.117 798.783 814.857 802.886 816.623C803.116 816.722 803.346 816.822 803.576 816.921C807.44 818.59 811.35 820.314 815.714 822.388C816.298 822.665 817.041 823.02 817.935 823.448C827.941 828.427 858.281 842.292 894.704 868.865C894.817 868.948 894.929 869.031 895.042 869.114C896.816 870.42 898.525 871.699 900.172 872.951C921.341 889.135 932.625 899.592 941.733 907.295C949.304 913.767 954.959 919.251 959.311 923.622C960.147 924.463 960.935 925.261 961.681 926.024C964.915 929.333 967.358 931.909 969.971 934.546C977.831 942.512 983.45 948.032 990.523 954.673C996.583 960.389 1003.21 967.966 1008.77 974.742C1008.78 974.752 1008.79 974.763 1008.8 974.773C1009.47 975.59 1010.13 976.396 1010.77 977.184ZM1086.3 1555.62C1085.99 1557.71 1085.27 1559.5 1084.73 1559.39C1084.18 1559.3 1084.02 1557.36 1084.33 1555.27C1085.08 1550.18 1085.84 1545.02 1086.6 1539.78C1086.92 1537.58 1087.61 1535.89 1088.16 1535.99C1088.7 1536.08 1088.89 1537.93 1088.57 1540.14C1087.82 1545.38 1087.06 1550.54 1086.3 1555.62ZM1013.5 963.927C1014.87 965.589 1015.84 967.525 1015.68 968.237C1015.53 968.946 1014.31 968.169 1012.96 966.514C1012.25 965.638 1011.06 964.205 1009.44 962.289C997.829 948.187 962.851 909.979 919.637 877.134C916.026 874.342 912.729 871.873 909.548 869.538C908.055 868.443 906.576 867.387 905.09 866.351C893.154 858.174 881.476 851.04 856.981 836.819C740.359 769.438 602.94 748.953 482.07 685.907C447.464 667.355 415.245 643.434 389.683 612.983C379.786 601.365 367.707 583.989 358.655 566.359C347.625 545.872 343.627 524.42 343.13 516.679C342.906 514.414 343.26 512.56 343.814 512.552C344.37 512.541 344.914 514.335 345.135 516.549C345.626 524.099 349.536 545.169 360.425 565.411C369.36 582.816 381.248 599.947 391.001 611.426C416.28 641.62 448.176 665.395 482.545 683.875C603.046 746.957 741.497 764.994 859.341 833.049C884.211 847.512 894.491 856.083 906.337 864.677C907.6 865.61 908.874 866.547 910.175 867.5C913.381 869.846 916.715 872.335 920.379 875.161C963.19 907.637 997.953 945.26 1009.8 959.52C1011.49 961.502 1012.74 962.999 1013.5 963.927ZM1064.77 1052.99C1075.25 1075.32 1087.17 1108.44 1094.72 1138.14C1098.49 1152.6 1101.41 1166.14 1103.55 1177.06C1106.84 1193.95 1108.01 1204.75 1109.07 1215.42C1109.09 1215.53 1109.1 1215.65 1109.11 1215.76C1110.12 1226.42 1111.04 1237.13 1112.56 1254.48C1114.09 1271.97 1115.87 1296.19 1116.51 1320.74C1116.51 1320.76 1116.51 1320.78 1116.51 1320.8C1117.2 1345.23 1117.84 1369.94 1116.88 1387.89C1113.37 1450.16 1106.63 1488.14 1103.31 1507.29C1097.27 1540.64 1093.61 1579.23 1086.59 1613.07C1085.58 1616.67 1084.88 1610.33 1086.29 1603.34C1086.34 1603.09 1086.38 1602.84 1086.43 1602.59C1086.88 1600.2 1087.28 1597.96 1087.77 1595.07C1088.42 1590.88 1088.87 1587.7 1089.29 1584.77C1090.4 1577.09 1098.29 1524.16 1101.55 1505.49C1104.68 1487.32 1108.92 1449.9 1112.45 1387.5C1113.38 1369.95 1115.19 1345.87 1114.51 1321.34C1114.51 1321.27 1114.5 1321.21 1114.5 1321.14C1113.88 1296.83 1112.11 1272.42 1110.56 1254.68C1108.99 1236.75 1108.01 1225.58 1106.97 1214.82C1106.96 1214.72 1106.95 1214.61 1106.94 1214.51C1105.88 1203.96 1104.74 1193.7 1101.59 1177.48C1099.4 1166.35 1096.45 1152.69 1092.66 1138.2C1085.13 1108.74 1073.42 1076.2 1063.08 1054.14C1062.16 1052.14 1061.78 1050.26 1062.24 1049.94C1062.7 1049.62 1063.84 1050.98 1064.77 1052.99ZM1076.37 1048.29C1107.89 1112.19 1123.06 1183.45 1126.9 1252.5C1128.49 1270.52 1129.84 1295.66 1130 1320.78C1130 1321.07 1130 1321.35 1130 1321.63C1130.19 1346.52 1129.29 1371.07 1128.34 1388.81C1124.78 1451.66 1119 1490.08 1115.66 1509.35C1112.4 1527.09 1111.65 1532.35 1110.67 1539.57C1110.64 1539.76 1110.61 1539.96 1110.58 1540.17C1110.58 1540.18 1110.58 1540.2 1110.58 1540.21C1110.57 1540.47 1110.56 1540.69 1110.55 1540.8C1110.53 1541.03 1110.51 1541.22 1110.5 1541.29C1110.48 1541.45 1110.47 1541.58 1110.46 1541.63C1110.43 1541.83 1110.4 1542.05 1110.38 1542.19C1110.19 1543.53 1109.56 1547.7 1109.02 1550.95C1108.47 1554.28 1108.03 1556.62 1107.57 1559.07C1107.52 1559.32 1107.47 1559.57 1107.43 1559.81C1107 1562.07 1106.52 1564.6 1105.89 1568.14C1105.5 1570.3 1104.78 1571.76 1104.28 1571.41C1103.77 1571.07 1103.67 1569.06 1104.06 1566.89C1104.72 1563.18 1105.24 1560.41 1105.65 1558.25C1105.7 1558 1105.75 1557.76 1105.79 1557.51C1106.24 1555.15 1106.63 1553.08 1107.11 1550.12C1107.77 1545.84 1108.22 1542.59 1108.63 1539.62C1109.64 1532.17 1110.51 1526.08 1113.91 1507.54C1117.05 1489.27 1122.74 1451.88 1126.33 1388.73C1127.29 1370.99 1128.18 1346.46 1127.99 1321.64C1127.99 1321.35 1127.99 1321.06 1127.99 1320.77C1127.83 1295.68 1126.49 1270.64 1124.9 1252.71C1118.8 1182.86 1102.67 1114.92 1074.7 1049.45C1069.2 1037.5 1063.83 1026.88 1058.51 1017.09C1042.89 988.487 1028.33 967.585 1012.87 949.599C1009.39 945.592 1000.92 935.005 987.301 920.484C983.273 916.197 978.972 911.763 974.067 906.921C961.988 894.995 947.234 881.658 929.656 867.946C925.973 865.073 922.61 862.531 919.366 860.13C917.256 858.568 915.196 857.066 913.121 855.572C901.606 847.41 890.205 839.304 866.252 825.275C831.715 804.351 769.72 778.291 736.134 766.399C719.368 760.245 709.87 756.899 703.178 754.483C701.31 753.813 699.67 753.222 698.165 752.682C694.232 751.273 691.18 750.186 687.171 748.811C658.268 738.894 637.864 732.745 604.814 721.879C602.741 721.193 601.088 720.165 601.116 719.589C601.145 719.012 602.841 719.102 604.91 719.788C637.964 730.668 658.68 736.91 687.986 746.966C692.174 748.402 695.444 749.569 699.449 751.005C700.933 751.538 702.519 752.108 704.292 752.745C710.876 755.123 720.284 758.439 736.982 764.57C770.544 776.457 832.598 802.548 867.171 823.484C891.379 837.663 902.637 845.677 914.325 853.956C916.2 855.306 918.072 856.669 919.988 858.083C923.256 860.496 926.654 863.056 930.39 865.963C948.06 879.711 962.933 893.121 975.087 905.096C980.009 909.945 984.339 914.399 988.354 918.66C1002.32 933.538 1010.27 943.511 1013.31 946.956C1029.46 965.597 1044.68 987.498 1060.48 1016.5C1065.76 1026.23 1071.03 1036.68 1076.37 1048.29ZM490.824 673.098C492.705 674.101 494.138 675.355 494.01 675.916C493.882 676.475 492.232 676.128 490.338 675.122C480.36 669.814 473.316 665.64 467.921 662.338C457.896 656.133 453.256 652.926 446.427 647.859C428.883 634.745 413.517 620.231 401.235 605.825C386.896 589.082 376.849 572.835 370.139 560.205C367.345 554.954 365.285 550.378 363.802 546.727C363.025 544.815 362.871 543.102 363.396 542.925C363.923 542.75 364.919 544.147 365.685 546.025C367.14 549.603 369.162 554.093 371.908 559.257C378.523 571.705 388.405 587.711 402.549 604.273C414.731 618.598 430.011 633.069 447.55 646.189C454.129 651.073 458.478 654.094 468.205 660.148C473.571 663.449 480.622 667.654 490.824 673.098Z" fill="#F6B254"/>
</svg>
