<svg width="1920" height="1098" viewBox="0 0 1920 1098" fill="none" xmlns="http://www.w3.org/2000/svg">
<path d="M-81.0243 6.24219C-35.7801 19.9335 11.2679 61.9576 31.9292 103.6C32.2448 104.178 32.5582 104.757 32.8696 105.337C41.6343 121.719 49.1482 139.76 55.7383 161.516C56.5873 164.329 57.4287 167.235 58.255 170.228C65.3507 195.853 71.6731 228.906 75.4397 272.766C84.9897 421.311 74.5223 534.874 76.1861 570.461C77.0807 640.825 74.6859 719.213 108.538 813.035C111.743 821.239 115.605 830.011 119.828 838.328C123.267 845.129 126.873 850.175 127.564 850.012C128.225 849.77 125.734 844.465 122.317 837.75C118.206 829.7 114.434 821.204 111.292 813.251C111.278 813.215 111.263 813.178 111.249 813.141C77.2414 719.544 79.7495 642.781 78.6723 574.275C76.799 537.949 87.8285 421.854 77.6287 269.171C73.6171 224.56 66.983 191.294 59.4317 165.157C58.5869 162.231 57.7315 159.402 56.8728 156.672C56.8524 156.608 56.8321 156.544 56.8117 156.48C49.9071 134.679 42.271 117.199 33.5594 101.388C33.3693 101.043 33.1784 100.699 32.9869 100.355C11.3763 57.998 -36.2703 17.1667 -80.5106 3.7951C-88.7818 0.938964 -95.9932 -0.376392 -96.0722 0.301794C-96.1608 0.995705 -89.1802 3.4103 -81.0243 6.24219ZM1506.42 1000.5C1541.74 1022.66 1593.85 1043.84 1641.79 1054.78C1689.99 1066.3 1734.93 1068.79 1755.88 1068.93C1776.42 1069.15 1799.25 1068.75 1826.2 1065.79C1832.33 1065.1 1838.78 1064.26 1845.34 1063.24C1867.05 1059.84 1891.03 1054.49 1915.91 1045.11C1933.14 1038.6 1948.51 1030.99 1961.9 1022.57C2021.01 985.183 2042.81 938.723 2053.3 904.475C2055.96 895.634 2057.89 887.23 2059.33 879.324C2059.33 879.311 2059.33 879.297 2059.34 879.284C2064.63 849.213 2064.07 826.133 2062.17 805.035C2058.29 767.579 2050.49 737.465 2037.4 702.585C2019.83 654.143 1983.55 589.967 1953.82 552.47C1952.22 550.388 1950.58 548.276 1948.91 546.164C1927.17 519.922 1899.48 484.805 1844.49 455.161C1798.49 430.351 1749.67 436.639 1723.78 465.808C1719.61 470.052 1715.68 474.758 1711.98 479.891C1708.95 484.096 1706.21 488.153 1703.74 492.073C1690.26 513.145 1681.37 537.093 1680.94 557.255C1681.56 624.932 1743.51 656.392 1779.76 676.534C1819.81 696.701 1851.69 706.845 1876.81 714.709C1914.99 726.211 1936.89 730.698 1952.92 734.217C1957.76 735.247 1961.85 736.088 1965.82 736.914C2001.31 744.258 2034.18 750.389 2073.63 756.666C2082.42 758.059 2091.62 759.459 2101.17 760.846C2133.15 765.476 2157.16 768.769 2175.83 771.368C2183.96 772.494 2191.29 773.501 2198.11 774.42C2198.23 774.437 2198.36 774.454 2198.49 774.472C2199.44 774.6 2200.38 774.725 2201.32 774.851C2202.03 774.945 2202.73 775.041 2203.44 775.135C2203.71 775.181 2203.96 775.218 2204.15 775.248C2204.29 775.271 2204.41 775.288 2204.48 775.3C2204.5 775.302 2204.51 775.305 2204.52 775.308C2205.86 775.515 2207.01 775.669 2207.24 775.701C2207.65 775.757 2208.02 775.803 2208.21 775.827C2209.19 775.955 2210.46 776.111 2211.31 776.213C2213.47 776.475 2217.24 776.925 2223.05 777.594C2228.06 778.196 2233.02 778.808 2239.17 779.55C2239.56 779.597 2239.95 779.644 2240.33 779.69C2246.33 780.411 2253.32 781.236 2262.03 782.201C2269.93 783.078 2277.28 783.293 2278.47 782.724C2279.62 782.15 2273.95 780.994 2266.12 780.134C2257.94 779.237 2251.41 778.475 2245.43 777.765C2245.05 777.72 2244.67 777.674 2244.29 777.629C2238.08 776.888 2232.04 776.154 2225.77 775.407C2223.66 775.156 2221.49 774.898 2219.45 774.658C2215.79 774.209 2211.63 773.673 2206.63 773.014C2205.62 772.881 2204.59 772.746 2203.53 772.605C2196.74 771.702 2188.74 770.615 2179.84 769.395C2159.07 766.531 2132.52 762.908 2097.77 757.821C2088.68 756.486 2079.77 755.116 2071.15 753.741C2031.64 747.407 1996.17 740.75 1958.87 732.82C1953.85 731.75 1948.69 730.639 1943.42 729.473C1927.84 725.944 1908.82 721.867 1873.98 711.223C1849.95 703.581 1819.45 693.798 1780.38 674.065C1745 654.422 1684.82 623.464 1683.39 558.599C1683.48 537.936 1692.95 513.091 1706.8 491.893C1709 488.466 1711.39 484.951 1713.99 481.351C1717.76 476.12 1721.73 471.415 1725.85 467.244C1750.92 439.545 1796.34 433.319 1840.38 455.922C1893.9 483.606 1921.35 517.372 1943.15 543.036C1943.89 543.944 1944.62 544.856 1945.35 545.772C1946.26 546.91 1947.16 548.047 1948.05 549.179C1980.01 588.446 2018.88 656.491 2037.43 709.967C2049.38 743.316 2056.59 772.056 2060.02 808.995C2061.4 827.263 2062.11 846.844 2057.38 876.084C2055.98 884.254 2054.06 893.132 2051.21 902.804C2040.86 937.146 2019.26 983.352 1960.59 1020.46C1946.89 1029.07 1931.09 1036.83 1913.34 1043.42C1889.36 1052.28 1866.59 1057.38 1845.13 1060.76C1838.48 1061.8 1831.84 1062.67 1825.42 1063.38C1798.49 1066.34 1773.14 1066.83 1749.51 1066.27C1730.14 1065.9 1686.85 1063.19 1640.23 1051.85C1593.19 1040.86 1545.47 1021.03 1514.24 1002.22C1510.98 1000.29 1507.72 998.305 1504.5 996.286C1476.6 978.937 1450.74 957.58 1432.84 937.924C1423.73 927.642 1414.28 916.034 1405.21 903.033C1328.93 801.412 1241.55 633.383 1148.09 533.401C1146.69 531.958 1145.28 530.527 1143.87 529.11C1009.78 396.759 856.069 434.68 819.697 432.222C817.703 432.382 815.879 432.535 814.232 432.678C812.762 432.805 811.426 432.923 810.246 433.031C807.395 433.291 804.575 433.558 801.777 433.834C786.617 435.339 773.415 437.188 760.376 439.573C759.528 439.729 758.683 439.886 757.842 440.046C739.282 443.689 723.191 447.53 701.321 455.674C622.741 483.42 577.403 548.159 561.13 602.656C557.778 612.859 555.059 622.925 552.797 632.691C552.79 632.719 552.784 632.748 552.777 632.777C543.009 675.872 540.604 714.203 538.36 749.904C534.963 815.059 531.786 857.386 523.395 888.15C520.829 897.803 517.943 906.139 514.605 913.734C507.437 929.953 498.557 942.014 487.17 951.411C465.534 969.146 437.118 974.446 408.402 975.022C405.961 975.064 403.469 975.072 400.924 975.042C368.871 974.482 338.925 969.419 304.201 961.462C296.971 959.783 290.564 958.729 290.239 959.356C289.914 959.978 295.821 962.057 303.088 963.752C336.841 971.514 366.461 976.669 398.608 977.495C401.222 977.548 403.793 977.564 406.313 977.542C435.133 977.204 464.951 972.348 487.933 953.989C499.326 944.78 508.184 933.377 515.686 917.38C519.219 909.797 522.445 900.996 525.231 890.889C534.119 859.518 537.393 816.353 540.803 750.646C543.014 715.412 545.325 677.699 554.843 634.88C557.067 625.093 559.737 615.031 563.058 604.76C579.038 550.528 623.393 486.02 701.761 458.163C722.145 450.527 737.41 446.709 755.566 443.026C756.554 442.831 757.63 442.622 758.546 442.448C771.64 439.976 785.618 437.936 802.025 436.306C804.579 436.054 807.154 435.808 809.752 435.57C812.248 435.341 815.419 435.058 819.19 434.751C855.516 437.174 1009.18 399.18 1142.46 531.214C1142.85 531.6 1143.23 531.987 1143.61 532.375C1223.8 619.678 1251.42 678.727 1278.71 719.153C1298.98 751.789 1314.35 775.625 1327.46 795.364C1329.93 799.086 1332.22 802.523 1334.46 805.868C1344.23 820.426 1351.91 831.601 1359.73 843.069C1375.9 866.735 1389.02 885.516 1402.7 904.938C1408.56 913.277 1414.84 921.445 1421.89 929.774C1441.05 952.708 1469.4 976.784 1496.7 994.353C1496.74 994.38 1496.78 994.406 1496.82 994.433C1500.05 996.536 1503.27 998.57 1506.42 1000.5ZM2377.78 793.634C2385.89 794.17 2392.27 794.007 2392.24 793.32C2392.2 792.631 2385.77 791.677 2377.66 791.139C2357.83 789.823 2339.51 788.472 2319.75 786.856C2311.69 786.198 2305.32 786.202 2305.31 786.889C2305.36 787.58 2311.75 788.692 2319.84 789.353C2339.61 790.967 2357.96 792.32 2377.78 793.634ZM1471.31 992.711C1477.81 997.432 1484.77 1001.37 1486.66 1001.78C1488.55 1002.16 1484.64 998.987 1478.11 994.427C1474.65 992.002 1469.01 987.993 1461.67 982.27C1444.92 969.107 1418.47 946.888 1393.05 912.239C1337.49 839.105 1271.81 724.628 1194.38 610.485C1184.55 596.654 1175.3 584.358 1166.09 572.962C1125.87 527.977 1093.04 476.074 973.747 448.361C917.292 437.171 859.791 438.54 802.821 444.236C725.593 451.678 643.846 479.084 599.887 547.51C556.213 614.956 553.843 696.561 549.467 772.443C544.194 845.572 546.608 938.235 476.7 974.324C407.601 1005.02 327.385 983.165 254.256 963.454C114.269 930.443 68.0689 773.828 65.2883 643.723C57.8885 500.456 78.317 355.997 56.2417 211.826C47.7233 153.238 15.8185 61.129 -59.0115 27.0437C-130.976 -7.49528 -203.082 2.79185 -228.019 4.06846C-236.4 4.82925 -243.325 6.22929 -243.151 6.89506C-242.982 7.56804 -235.823 7.26254 -227.495 6.51184C-202.885 5.2319 -131.324 -4.77884 -60.5405 29.0519C13.0367 62.2834 44.9931 152.789 53.5801 210.989C75.8583 354.233 55.5584 498.523 62.7003 641.747C65.2404 772.476 110.897 932.337 253.41 966.362C326.796 986.195 406.895 1008.88 478.351 977.581C551.139 939.825 548.134 845.554 553.803 772.638C558.341 696.738 561.214 615.836 604.054 550.202C647.012 483.693 726.812 456.901 803.358 449.591C860.253 443.967 917.503 442.7 973.32 453.875C1089.01 481.04 1122.15 527.785 1162.47 572.454C1171.67 583.735 1180.99 596.019 1190.96 609.972C1269.32 725.095 1335.7 841.073 1391.03 913.775C1414.42 945.681 1438.42 966.739 1454.31 979.69C1461.84 985.783 1467.68 990.08 1471.31 992.711ZM1834.6 1078.07C1875.37 1072.99 1924.55 1061.88 1969.21 1034.35C2024.67 1001.6 2065.01 940.033 2073.56 877.626C2082.32 822.231 2073.27 770.397 2062.43 730.824C2044.71 669.383 2024.73 633.927 2004.2 600.087C2003.97 599.724 2003.75 599.361 2003.52 598.998C1982.07 565.863 1959.43 532.18 1912.03 488.737C1888.39 467.978 1857.2 444.069 1817.45 432.867C1778.2 420.049 1728.18 434.654 1702.68 473.125C1701.47 474.764 1700.3 476.396 1699.17 478.021C1699.13 478.083 1699.08 478.144 1699.04 478.206C1672.74 513.971 1657.54 564.616 1678.56 604.386C1698.17 643.421 1733.54 666.366 1762.34 682.758C1973.43 780.387 2121.89 776.921 2191.66 788.978C2316.51 801.649 2458.81 815.103 2587.05 811.157C2599.1 809.659 2577.33 809.469 2550.9 809.416C2550.05 809.421 2549.18 809.426 2548.3 809.429C2540.21 809.464 2530.56 809.389 2520.63 809.22C2504.45 808.865 2492.85 808.444 2481.87 808.017C2452.73 808.066 2255.94 794.837 2186.16 785.854C2120.31 774.051 1974.53 774.915 1764.42 677.63C1736.61 661.763 1702.35 640.245 1682.68 603.717C1661.6 566.743 1673.87 517.291 1699.96 481.26C1700.1 481.048 1700.25 480.836 1700.39 480.623C1701.77 478.624 1703.2 476.613 1704.69 474.589C1729.55 437.315 1777.32 422.767 1816.14 435.09C1855.27 445.889 1886.59 469.685 1910.32 490.532C1959.12 535.263 1982.45 570.641 2003.79 604.193C2003.99 604.526 2004.2 604.859 2004.4 605.188C2024.39 638.717 2043.04 672.561 2060.01 731.399C2071.05 771.605 2079.94 823.838 2070.82 878.971C2061.9 940.416 2022.16 1000.12 1967.9 1032.25C1924.15 1059.22 1875.81 1070.33 1835.59 1075.44C1827.56 1076.45 1820.72 1077.61 1820.42 1078.32C1820.12 1079.03 1826.54 1079.05 1834.6 1078.07ZM1838.44 1093.16C1886.27 1087.42 1934.67 1074.79 1977.98 1048.48C2081.26 991.247 2112.52 855.573 2085.81 752.006C2061.51 645.568 2005.33 549.418 1925.85 477.143C1900.8 454.988 1868.24 429.301 1823.34 416.335C1779.56 400.941 1716.68 419.576 1689.17 463.304C1687.71 465.317 1686.3 467.324 1684.93 469.325C1684.27 470.285 1683.63 471.244 1682.99 472.201C1655.45 510.529 1640.63 570.539 1666.6 614.366C1690.49 657.006 1727.31 679.086 1756.68 695.849C1973.41 795.361 2121.05 792.278 2191.65 804.548C2258.5 811.247 2277.27 812.563 2304.71 815.094C2305.45 815.158 2306.19 815.222 2306.93 815.286C2306.98 815.292 2307.03 815.299 2307.08 815.305C2308.01 815.418 2308.79 815.504 2309.19 815.547C2310.01 815.634 2310.68 815.698 2310.93 815.721C2311.51 815.776 2311.99 815.818 2312.16 815.834C2312.87 815.896 2313.67 815.964 2314.19 816.007C2319.12 816.421 2334.81 817.646 2346.81 818.452C2358.9 819.269 2368.36 819.806 2377.69 820.294C2378.64 820.344 2379.59 820.393 2380.54 820.442C2389.02 820.876 2397.78 821.305 2411.5 821.961C2419.67 822.347 2425.32 822.026 2424.38 821.296C2423.44 820.564 2416.23 819.691 2408 819.292C2393.35 818.574 2384.52 818.137 2375.79 817.676C2374.85 817.626 2373.9 817.576 2372.95 817.525C2363.86 817.035 2355.81 816.568 2344.98 815.831C2329.19 814.691 2316.63 813.637 2306.14 812.724C2277.8 810.116 2256.06 808.568 2186.14 801.429C2119.41 789.373 1975.17 793.104 1757.95 693.719C1728.7 677.059 1692.16 655.02 1668.76 613.14C1643.36 570.169 1657.83 511.545 1685.09 473.52C1685.74 472.547 1686.4 471.571 1687.07 470.595C1688.4 468.658 1689.77 466.714 1691.18 464.765C1718.4 421.697 1779.55 403.664 1822.72 418.736C1866.94 431.503 1899.28 456.947 1924.13 478.924C2003.76 552.836 2058.1 649.404 2081.29 754.416C2106.52 856.886 2076.31 987.546 1975.69 1044.79C1933.95 1070.66 1886.69 1083.91 1839.48 1090.53C1790.97 1096.69 1746.18 1095.28 1705.43 1090.39C1585.56 1074.71 1497.2 1032.9 1430.4 973.53C1421.44 965.273 1402.89 948.744 1381.8 920.757C1369.45 904.243 1355.41 884.959 1340.06 862.938C1327.89 845.483 1315.01 826.48 1301.33 805.68C1267.5 754.897 1230.79 692.423 1185.27 626.3C1175.64 612.526 1166.75 600.485 1157.92 589.264C1118.95 544.761 1089.74 496.957 978.208 467.791C930.376 456.734 869.318 455.481 804.631 462.268C744.482 468.145 681.932 486.634 641.451 525.901C600.417 564.53 585.343 618.076 578.293 658.572C568.333 721.702 569.222 759.191 567.372 785.315C567.004 792.608 566.653 799.176 566.302 805.067C565.368 820.433 564.506 832.616 562.663 848.648C556.568 903.889 539.408 963.648 486.747 990.126C434.573 1015.43 378.816 1009.64 314.363 996.881C306.142 995.155 298.322 993.876 297.739 994.444C296.716 994.904 303.273 997.056 311.591 998.838C376.422 1011.83 432.592 1018.34 486.634 992.976C541.38 966.31 559.18 904.306 565.214 848.2C567.12 831.46 568.012 818.289 568.932 802.689C569.268 796.877 569.606 790.451 569.947 783.618C571.76 757.885 570.904 720.811 580.85 658.363C587.905 618.144 602.961 565.377 643.411 527.464C683.269 488.923 745.141 470.567 804.878 464.738C869.296 457.976 929.976 459.239 977.322 470.137C1086.83 498.651 1115.49 544.714 1154.33 588.745C1163.24 599.954 1172.17 611.981 1181.84 625.754C1227.5 691.76 1264.29 754.486 1298.09 805.277C1311.77 826.12 1324.62 845.11 1336.7 862.469C1353 885.911 1367.45 905.728 1379.82 922.262C1399.8 948.747 1416.28 963.69 1423.7 970.82C1492.22 1034.07 1585.19 1077.59 1706.68 1093.05C1747.18 1097.8 1791.23 1099.03 1838.44 1093.16ZM46.5521 650.339C46.9988 658.57 48.0593 665.6 48.7846 666.125C49.5127 666.645 49.6175 660.496 49.1541 652.298C46.8138 608.996 47.0979 578.116 47.224 553.878C47.6901 509.194 48.4529 487.603 49.0524 455.403C50.6751 372.268 51.8918 291.907 41.047 221.82C28.6758 100.659 -53.0226 35.518 -102.081 27.5957C-110.083 25.3644 -115.63 24.8249 -115.8 25.4724C-115.772 26.1939 -110.352 27.8515 -102.478 30.0609C-54.4052 38.1459 25.5847 100.802 38.4101 221.009C49.3753 290.773 48.2165 371.343 46.5775 454.97C45.9948 486.196 45.2796 506.601 44.7676 550.29C44.6133 574.552 44.2402 605.816 46.5521 650.339Z" fill="#BB6EF6"/>
</svg>
