<svg width="1386" height="1378" viewBox="0 0 1386 1378" fill="none" xmlns="http://www.w3.org/2000/svg">
<path opacity="0.8" d="M8.94674 31.5791C14.33 38.6249 22.1358 46.3488 28.1076 52.5894C28.1915 52.6778 28.2756 52.7662 28.3597 52.8545C30.8129 55.4267 33.3282 58.0521 36.4818 61.1559C36.8817 61.5493 37.3035 61.9611 37.7153 62.3614C41.4001 65.9312 46.0329 70.248 52.8155 75.7613C75.4583 94.0607 96.4133 103.251 102.784 106.233C115.439 111.939 129.085 118.145 147.988 125.456C149.721 126.124 151.557 126.825 153.324 127.487C154.776 128.032 155.829 128.899 155.67 129.431C155.51 129.964 154.194 129.957 152.735 129.411C150.997 128.759 149.203 128.078 147.501 127.423C147.493 127.42 147.486 127.417 147.478 127.414C128.383 120.034 114.996 113.937 102.559 108.354C96.0517 105.316 74.4319 95.8972 51.0901 76.9602C44.1987 71.3343 39.505 66.9379 35.7606 63.2905C35.3431 62.8836 34.9385 62.4852 34.5464 62.0973C34.5372 62.0881 34.528 62.0789 34.5188 62.0697C31.3308 58.9115 28.9132 56.3665 26.5505 53.8791C26.5 53.8265 26.4495 53.7739 26.399 53.7213C20.3214 47.3474 12.6023 39.6725 7.3316 32.7732C6.32082 31.4614 5.88567 30.1216 6.33707 29.7999C6.78937 29.4787 7.94716 30.2836 8.94674 31.5791ZM535.952 219.527C543.872 221.294 553.63 224.668 562.456 228.227C571.271 231.771 578.831 235.401 582.378 237.231C585.913 239.045 589.904 240.822 594.602 242.939C595.679 243.424 596.793 243.928 597.94 244.452C601.737 246.187 605.849 248.123 610.479 250.522C627.118 259.188 637.579 265.464 644.895 269.93C646.398 270.854 647.778 271.713 649.074 272.533C649.076 272.535 649.078 272.536 649.081 272.538C654.089 275.715 657.692 278.18 660.793 280.691C666.259 285.145 670.635 289.014 675.479 294.05C682.132 300.883 691.802 310.32 697.909 316.553C698.249 316.892 698.595 317.24 698.944 317.594C703.388 322.153 708.825 327.922 715.417 337.671C720.846 345.751 724.675 353.619 727.462 360.496C728.273 362.493 729.003 364.425 729.678 366.299C730.743 369.258 731.665 372.073 732.516 374.783C733.022 376.398 733.497 377.953 733.956 379.464C741.424 404.698 740.668 420.116 740.016 429.408C739.366 436.604 738.319 440.534 737.593 443.327C737.367 444.174 737.158 444.926 736.974 445.628C735.321 451.88 733.816 457.557 731.52 464.224C731.009 465.694 730.448 467.234 729.835 468.812C727.773 474.1 726.256 478.026 725.094 481.133C724.582 482.493 724.134 483.691 723.7 484.817C723.693 484.837 723.685 484.858 723.677 484.879C723.617 485.036 723.556 485.191 723.495 485.346C723.45 485.462 723.406 485.579 723.36 485.696C723.348 485.745 723.336 485.788 723.327 485.82C723.32 485.845 723.314 485.865 723.311 485.878C723.31 485.881 723.31 485.883 723.31 485.886C723.245 486.117 723.171 486.308 723.156 486.348C723.13 486.416 723.105 486.476 723.092 486.506C723.026 486.669 722.934 486.875 722.872 487.011C722.713 487.362 722.432 487.969 721.983 488.9C721.61 489.719 721.267 490.511 720.824 491.505C720.796 491.567 720.768 491.63 720.741 491.692C720.307 492.659 719.791 493.786 719.102 495.178C718.472 496.45 717.478 497.382 716.907 497.269C716.335 497.155 716.4 496.057 717.026 494.807C717.673 493.511 718.154 492.475 718.586 491.522C718.614 491.462 718.641 491.401 718.668 491.341C719.117 490.347 719.534 489.401 719.995 488.396C720.15 488.059 720.31 487.712 720.461 487.388C720.721 486.8 721 486.122 721.323 485.306C721.388 485.143 721.456 484.974 721.524 484.801C721.957 483.694 722.447 482.403 723.001 480.945C724.292 477.534 725.956 473.254 728.146 467.572C728.718 466.083 729.248 464.616 729.738 463.191C731.995 456.59 733.58 450.561 735.254 444.001C735.483 443.09 735.712 442.237 735.949 441.307C736.631 438.549 737.48 435.229 738.05 428.668C738.614 419.926 739.402 405.095 732.1 380.27C731.626 378.703 731.131 377.078 730.604 375.397C729.72 372.577 728.762 369.668 727.686 366.697C727.03 364.885 726.328 363.047 725.575 361.195C722.86 354.505 719.196 346.981 714.041 339.251C707.705 329.817 702.513 324.239 698.156 319.721C698.004 319.566 697.851 319.409 697.7 319.256C697.512 319.066 697.326 318.876 697.14 318.689C690.741 312.086 680.58 302.157 673.236 294.691C668.599 289.923 664.476 286.284 659.053 281.885C656.364 279.721 653.314 277.623 648.451 274.522C647.087 273.654 645.648 272.752 643.997 271.736C636.601 267.216 626.052 260.888 609.29 252.172C604.82 249.861 600.916 248.023 597.155 246.302C595.99 245.77 594.841 245.249 593.712 244.741C589.014 242.624 584.558 240.651 580.501 238.578C577.253 236.906 569.921 233.393 561.375 229.963C552.705 226.473 543.691 223.392 536.755 221.833C536.04 221.672 535.318 221.509 534.596 221.348C528.306 219.936 522.146 218.66 516.899 218.111C492.962 217.201 453.101 204.556 426.004 197.937C425.649 197.849 425.294 197.761 424.939 197.673C393.731 189.972 370.79 185.041 362.991 183.305C362.627 183.224 362.296 183.152 361.998 183.086C361.732 183.028 361.491 182.976 361.279 182.929C358.098 182.227 355.27 181.672 352.302 181.088C352.14 181.056 351.978 181.024 351.816 180.993C348.679 180.375 345.388 179.721 341.521 178.85C327.154 175.616 315.371 173.036 305.199 170.782C303.316 170.365 301.488 169.957 299.706 169.559C299.7 169.558 299.695 169.557 299.69 169.555C291.909 167.82 284.858 166.215 278.292 164.624C266.32 161.721 258.165 159.778 251.812 158.282C249.822 157.813 247.992 157.381 246.266 156.973C242.536 156.089 239.288 155.306 235.964 154.438C229.649 152.787 223.771 151.295 218.061 149.802C217.552 149.668 217.043 149.534 216.535 149.4C210.352 147.772 204.264 146.108 197.753 144.107C196.251 143.645 195.145 142.827 195.278 142.288C195.413 141.749 196.734 141.69 198.232 142.151C204.538 144.09 210.477 145.718 216.641 147.344C217.151 147.478 217.663 147.612 218.176 147.746C223.861 149.235 229.827 150.755 236.258 152.438C239.458 153.274 242.52 154.013 246.17 154.88C247.913 155.293 249.791 155.735 251.885 156.229C258.323 157.747 266.583 159.716 278.655 162.644C285.134 164.214 292.094 165.801 299.864 167.534C301.656 167.934 303.501 168.344 305.405 168.766C315.595 171.025 327.435 173.618 341.876 176.87C345.53 177.692 348.649 178.314 351.772 178.928C351.947 178.963 352.122 178.998 352.298 179.033C355.241 179.612 358.225 180.197 361.586 180.938C362.035 181.037 362.608 181.164 363.297 181.316C371.108 183.056 394.142 188.004 425.486 195.739C425.583 195.763 425.68 195.788 425.778 195.812C446.688 201.003 458.559 204.163 467.484 205.923C474.496 207.31 479.873 208.626 484.143 209.719C484.962 209.929 485.736 210.128 486.473 210.319C489.657 211.147 492.162 211.808 494.689 212.362C502.265 214.025 508.019 214.958 514.903 215.652C520.792 216.257 527.579 217.657 533.78 219.042C533.789 219.044 533.798 219.046 533.807 219.048C534.536 219.21 535.253 219.37 535.952 219.527ZM709.108 513.233C708.241 514.384 707.166 515.029 706.734 514.682C706.302 514.334 706.667 513.137 707.523 512.001C709.568 509.288 711.527 506.511 713.394 503.673C714.175 502.487 715.167 501.755 715.632 502.057C716.096 502.36 715.848 503.597 715.055 504.802C713.164 507.676 711.18 510.487 709.108 513.233ZM532.809 208.044C534.299 208.393 535.638 209.186 535.803 209.809C535.966 210.43 534.897 210.646 533.414 210.297C532.622 210.11 531.352 209.824 529.649 209.447C517.388 206.634 481.779 199.459 444.463 191.488C441.334 190.81 438.523 190.213 435.841 189.649C424.355 187.241 414.826 186.476 392.924 181.489C300.943 160.149 207.706 140.681 120.018 103.016C94.9276 91.9507 70.7162 78.2495 49.0996 60.6693C30.145 46.8706 4.63237 12.3497 0.740503 3.00508C-0.0250237 1.62748 -0.224514 0.292921 0.269709 0.0416657C0.764691 -0.209266 1.75775 0.702421 2.51349 2.0614C6.33464 11.2304 31.4564 45.2892 50.1819 58.9586C71.573 76.3896 95.563 90.0053 120.497 101.025C207.991 138.686 301.893 155.809 394.02 177.181C415.729 182.125 424.354 185.184 435.807 187.583C438.499 188.149 441.329 188.747 444.49 189.432C481.328 197.299 516.432 204.327 528.906 207.17C530.672 207.559 531.992 207.854 532.809 208.044ZM600.068 233.695C615.818 240.337 638.088 251.724 655.78 263.628C664.688 269.547 672.268 275.29 678.414 280.304C687.858 288.059 692.911 293.603 697.923 299.372C697.976 299.434 698.029 299.495 698.082 299.557C702.976 305.336 707.708 311.112 714.934 320.985C722.183 330.873 731.387 345.54 737.826 361.357C737.831 361.369 737.836 361.382 737.84 361.394C739.245 364.799 740.603 368.271 741.876 371.777C746.5 384.387 749.771 396.972 750.786 406.923C754.986 451.464 741.298 477.487 735.275 489.15C724.054 509.909 709.08 532.962 689.163 546.913C686.818 548.221 689.213 544.224 693.023 541.254C693.159 541.144 693.295 541.034 693.43 540.923C694.718 539.868 695.835 538.924 697.339 537.534C699.487 535.479 701.01 533.877 702.385 532.399C706.682 529.109 728.69 499.54 733.928 487.352C739.5 476.264 750.468 450.714 746.355 407.291C745.372 397.726 743.693 385.242 739.694 372.478C738.641 369.093 737.445 365.735 736.101 362.46C736.083 362.417 736.065 362.374 736.048 362.33C729.752 346.793 720.617 332.132 713.322 322.187C705.918 312.065 700.997 306.106 696.061 300.318C696.013 300.262 695.965 300.206 695.916 300.15C690.969 294.497 686.193 289.292 677.167 281.878C670.941 276.797 663.318 271.038 654.402 265.127C636.895 253.38 615.04 242.203 599.488 235.633C598.077 235.029 597.052 234.11 597.208 233.574C597.366 233.038 598.65 233.09 600.068 233.695ZM605.416 222.376C651.349 240.035 697.422 268.786 726.293 312.029C734.232 322.774 743.972 339.25 750.451 356.612C750.526 356.81 750.6 357.009 750.674 357.207C751.984 360.689 753.2 364.228 754.31 367.785C758.678 381.674 761.172 395.344 762.239 405.927C766.711 453.472 752.995 482.038 746.524 494.64C739.843 506.556 737.674 509.586 734.811 514.368C734.73 514.496 734.649 514.625 734.568 514.753C734.564 514.762 734.56 514.771 734.557 514.781C734.477 514.956 734.405 515.1 734.366 515.173C734.288 515.322 734.219 515.44 734.193 515.485C734.134 515.587 734.081 515.671 734.062 515.701C733.986 515.824 733.897 515.963 733.839 516.052C733.305 516.881 731.56 519.458 730.097 521.425C728.601 523.447 727.461 524.838 726.246 526.282C726.123 526.427 725.999 526.573 725.876 526.719C724.772 528.017 723.561 529.42 721.809 531.415C720.736 532.634 719.611 533.195 719.313 532.693C719.016 532.191 719.645 530.823 720.697 529.618C722.514 527.536 723.785 526.048 724.873 524.757C724.994 524.614 725.114 524.47 725.235 524.326C726.379 522.954 727.37 521.727 728.678 519.955C730.531 517.356 731.82 515.353 732.971 513.515C735.907 508.625 738.375 505.143 745.217 492.765C751.139 480.892 764.612 453.475 760.246 406.163C759.19 395.682 756.721 382.148 752.398 368.398C751.298 364.873 750.094 361.366 748.797 357.918C748.721 357.716 748.644 357.515 748.568 357.314C742.15 340.124 732.527 323.85 724.688 313.234C693.83 271.17 649.308 245.547 604.844 224.318C596.454 220.721 588.5 217.534 581.413 214.828C560.069 206.722 543.537 201.498 527.436 197.847C523.95 197.07 514.71 194.504 501.523 191.139C497.67 190.156 493.426 189.089 488.816 187.957C477.416 185.157 464.234 182.081 449.016 178.764C445.856 178.076 443.041 177.477 440.344 176.907C428.814 174.482 419.638 172.571 397.691 167.568C370.647 161.411 325.471 150.997 301.558 144.932C289.534 141.911 282.783 140.074 278.045 138.761C276.725 138.394 275.566 138.067 274.504 137.768C271.729 136.985 269.582 136.376 266.712 135.603C246.206 130.028 231.816 126.47 208.543 119.965C207.072 119.549 205.928 118.752 205.981 118.189C206.035 117.626 207.264 117.508 208.73 117.923C231.994 124.436 246.572 128.047 267.335 133.689C270.331 134.496 272.62 135.147 275.443 135.942C276.489 136.237 277.608 136.551 278.859 136.899C283.514 138.188 290.191 140.005 302.141 143.007C325.993 149.055 371.093 159.452 398.065 165.592C419.807 170.548 428.809 172.424 440.309 174.84C443.013 175.411 445.852 176.013 449.033 176.705C464.292 180.028 477.515 183.109 488.944 185.914C493.556 187.044 497.798 188.109 501.643 189.089C515.107 192.522 523.826 194.942 526.816 195.603C543.487 199.356 560.816 204.837 582.409 213.055C589.436 215.742 597.262 218.885 605.416 222.376ZM127.428 89.4244C128.805 90.0266 129.822 90.955 129.692 91.5044C129.562 92.0531 128.327 92.0147 126.941 91.4103C119.615 88.2094 114.59 85.8388 110.56 83.8923C103.052 80.2312 99.549 78.3737 94.434 75.4306C81.1126 67.7184 68.9831 59.4389 58.6474 51.1081C41.5204 37.4087 29.9985 23.7833 24.4576 16.3089C23.5813 15.1372 23.2573 13.9181 23.7119 13.6007C24.1674 13.2843 25.2192 13.9753 26.084 15.1305C31.5284 22.4672 42.8225 35.8472 59.728 49.4009C69.9755 57.6771 82.0523 65.9361 95.3774 73.6542C100.308 76.4925 103.591 78.2403 110.881 81.8094C114.921 83.7687 119.94 86.1453 127.428 89.4244ZM672.234 547.278C669.466 549.235 666.29 552.142 663.272 553.672C663.229 553.693 663.187 553.715 663.144 553.737C661.902 554.369 660.601 554.946 659.027 555.613C658.826 555.698 658.62 555.784 658.41 555.872C656.555 556.646 654.228 557.607 651.124 558.843C640.699 563.006 632.899 566.829 630.455 568.021C625.497 570.402 619.988 572.206 612.313 573.865C611.619 574.013 610.906 574.156 610.161 574.301C609.56 574.418 608.984 574.067 608.872 573.524C608.76 572.98 609.145 572.452 609.735 572.338C610.451 572.199 611.139 572.059 611.806 571.917C611.809 571.917 611.812 571.916 611.815 571.916C619.412 570.276 624.722 568.532 629.497 566.244C631.961 565.044 639.843 561.189 650.396 556.973C653.498 555.737 655.818 554.777 657.665 554.005C657.868 553.92 658.066 553.837 658.259 553.756C658.264 553.754 658.268 553.752 658.273 553.75C659.84 553.085 661.073 552.538 662.248 551.94C662.272 551.927 662.297 551.914 662.322 551.9C665.337 550.373 668.4 547.529 671.053 545.654C671.564 545.295 672.244 545.362 672.573 545.808C672.902 546.254 672.75 546.914 672.234 547.278ZM530.529 490.907C532.145 488.216 535.575 485.614 538.997 483.968C542.377 482.31 545.805 481.457 547.424 481.185C549.042 480.903 550.67 480.41 552.69 479.829C553.153 479.696 553.636 479.56 554.14 479.423C555.804 478.972 557.606 478.544 559.711 478.236C567.32 477.172 572.418 476.941 575.989 476.72C576.728 476.68 577.42 476.646 578.071 476.62C578.072 476.62 578.073 476.62 578.074 476.62C580.552 476.526 582.346 476.53 584.026 476.824C587.025 477.356 589.393 477.912 592.226 478.955C596.107 480.369 601.667 481.296 605.443 481.576C605.651 481.59 605.864 481.604 606.08 481.619C608.833 481.829 612.225 482.132 617.137 483.447C621.217 484.552 624.58 486.071 627.457 487.593C628.281 488.03 629.067 488.47 629.798 488.889C631.654 489.953 633.29 490.962 634.877 491.85C644.651 497.403 649.235 502.175 651.843 505.247C653.856 507.682 654.638 509.279 655.218 510.436C655.391 510.786 655.541 511.096 655.693 511.378C657.054 513.902 658.444 515.994 660.012 518.585C660.359 519.161 660.716 519.766 661.08 520.406C662.311 522.567 663.343 523.941 664.269 525.04C664.669 525.515 665.037 525.927 665.384 526.319C665.391 526.326 665.397 526.333 665.404 526.34C665.452 526.395 665.5 526.449 665.547 526.503C665.583 526.544 665.62 526.584 665.656 526.625C665.676 526.637 665.692 526.649 665.704 526.658C665.714 526.665 665.722 526.67 665.727 526.674C665.728 526.674 665.729 526.675 665.731 526.675C665.818 526.739 665.879 526.805 665.892 526.818C665.914 526.841 665.931 526.863 665.94 526.874C665.989 526.932 666.046 527.011 666.083 527.064C666.179 527.199 666.343 527.437 666.59 527.81C666.823 528.123 667.067 528.419 667.357 528.77C667.376 528.792 667.395 528.814 667.413 528.836C667.699 529.183 668.031 529.593 668.428 530.124C668.79 530.608 668.727 531.288 668.29 531.633C667.853 531.978 667.214 531.866 666.86 531.391C666.493 530.899 666.187 530.522 665.906 530.18C665.888 530.159 665.87 530.137 665.852 530.116C665.559 529.76 665.282 529.429 664.995 529.039C664.9 528.911 664.805 528.777 664.716 528.651C664.547 528.431 664.341 528.19 664.092 527.906C664.042 527.849 663.991 527.789 663.938 527.729C663.599 527.345 663.201 526.902 662.774 526.394C661.762 525.19 660.648 523.699 659.332 521.39C658.992 520.791 658.654 520.219 658.319 519.664C656.782 517.117 655.308 514.901 653.892 512.28C653.698 511.921 653.525 511.564 653.336 511.185C652.774 510.065 652.101 508.711 650.282 506.509C647.846 503.646 643.474 499.054 633.946 493.632C632.313 492.716 630.601 491.66 628.748 490.6C628.046 490.198 627.298 489.784 626.538 489.382C623.759 487.911 620.566 486.469 616.696 485.417C611.991 484.153 608.732 483.852 606.053 483.647C605.959 483.641 605.866 483.635 605.773 483.629C605.658 483.62 605.543 483.612 605.429 483.605C601.468 483.305 595.681 482.35 591.46 480.817C588.805 479.84 586.569 479.315 583.65 478.796C582.214 478.547 580.718 478.539 578.335 478.624C577.672 478.648 576.947 478.68 576.147 478.723C572.588 478.941 567.516 479.172 560.008 480.222C558.021 480.513 556.342 480.91 554.732 481.344C554.231 481.479 553.745 481.616 553.271 481.751C551.301 482.316 549.525 482.861 547.722 483.175C546.275 483.416 543.045 484.22 539.891 485.765C536.638 487.334 533.642 489.667 532.291 491.906C532.145 492.141 531.999 492.379 531.859 492.617C530.65 494.655 529.735 496.779 529.63 498.723C530.18 504.388 529.365 508.82 529.624 514.553C529.913 520.264 530.233 525.703 531.052 530.041C531.079 530.181 531.105 530.32 531.132 530.46C533.45 542.609 538.053 549.809 539.558 552.129C539.631 552.241 539.699 552.342 539.759 552.433C539.813 552.514 539.862 552.587 539.905 552.651C540.551 553.616 541.196 554.4 541.883 555.191C541.921 555.234 541.958 555.277 541.996 555.32C542.726 556.152 543.53 557.033 544.423 558.061C547.77 561.899 551.079 564.425 554.096 566.344C554.657 566.699 555.209 567.034 555.755 567.35C555.756 567.351 555.758 567.352 555.76 567.353C558.154 568.736 560.403 569.788 562.568 570.727C566.547 572.433 569.477 573.11 571.761 573.559C572.476 573.696 573.141 573.807 573.774 573.904C575.144 574.112 576.358 574.259 577.589 574.432C579.921 574.759 582.132 574.867 584.296 574.892C584.49 574.895 584.684 574.897 584.879 574.898C587.273 574.911 589.569 574.833 592.102 574.787C592.691 574.776 593.177 575.212 593.208 575.766C593.235 576.32 592.787 576.784 592.182 576.796C589.665 576.842 587.378 576.921 584.922 576.911C584.722 576.91 584.521 576.909 584.32 576.907C582.104 576.882 579.798 576.769 577.353 576.428C576.131 576.256 574.956 576.115 573.57 575.907C572.91 575.807 572.203 575.691 571.426 575.543C569.038 575.074 565.971 574.37 561.806 572.588C559.59 571.628 557.283 570.55 554.794 569.116C554.223 568.786 553.642 568.437 553.051 568.063C549.903 566.065 546.436 563.422 542.932 559.409C542.054 558.399 541.265 557.538 540.504 556.671C540.462 556.623 540.42 556.574 540.378 556.526C539.671 555.714 538.964 554.858 538.256 553.801C538.162 553.66 538.042 553.479 537.898 553.259C536.331 550.853 531.548 543.354 529.167 530.872C529.16 530.833 529.153 530.794 529.145 530.755C527.737 523.141 527.578 518.393 526.941 514.73C526.892 514.476 526.843 514.232 526.793 513.995C526.316 511.71 526.395 510.068 526.563 508.71C526.596 508.454 526.63 508.214 526.667 507.986C526.828 507.011 527.009 506.232 527.108 505.434C527.432 503.023 527.548 501.158 527.655 498.496C527.751 496.236 528.843 493.744 530.079 491.653C530.081 491.649 530.083 491.646 530.085 491.643C530.232 491.393 530.381 491.147 530.529 490.907ZM673.809 537.25C674.066 537.809 673.864 538.457 673.362 538.691C672.859 538.924 672.25 538.665 671.998 538.116C671.401 536.814 670.774 535.511 670.106 534.197C669.829 533.65 669.994 532.998 670.48 532.733C670.968 532.469 671.598 532.702 671.882 533.26C672.562 534.599 673.201 535.924 673.809 537.25ZM521.346 486.096C521.739 485.477 522.492 485.186 522.998 485.442C523.503 485.699 523.582 486.382 523.204 486.969C523.003 487.281 522.684 487.801 522.285 488.508C519.9 492.437 515.238 503.384 517.59 515.349C518.149 518.757 518.761 521.962 519.468 525.399C519.753 526.774 520.036 527.976 520.32 529.103C521.624 533.916 523.696 537.615 527.106 546.182C540.647 584.831 591.265 594.931 628.361 579.713C639.338 575.646 649.958 570.727 660.125 564.865C668.718 560.204 683.705 550.172 686.909 547.336C687.428 546.917 688.136 546.917 688.494 547.342C688.85 547.766 688.715 548.457 688.19 548.882C684.974 551.729 669.881 561.848 661.224 566.551C650.964 572.475 640.242 577.45 629.14 581.571C592.214 597.014 538.133 589.69 522.991 547.859C519.4 538.804 519.723 534.559 518.393 529.692C518.102 528.542 517.81 527.313 517.517 525.902C516.777 522.316 516.145 519.009 515.566 515.483C513.212 503.179 517.897 491.9 520.361 487.772C520.785 487.008 521.128 486.441 521.346 486.096ZM549.989 469.504C557.432 466.904 568.575 465.322 578.222 465.496C582.929 465.537 587.321 465.895 590.752 466.268C596.156 466.867 599.392 467.93 602.612 469.041C602.646 469.053 602.681 469.065 602.715 469.076C605.866 470.205 609.055 471.39 614.155 473.018C619.364 474.68 626.484 477.001 633.454 480.22C633.459 480.223 633.465 480.226 633.47 480.228C640.332 483.342 647.631 486.576 652.026 490.084C667.464 502.51 673.024 513.819 675.462 519.205C679.643 528.815 686.686 538.644 687.773 549.565C687.639 550.854 685.577 549.439 685.274 547.299C685.259 547.222 685.245 547.146 685.23 547.07C685.09 546.342 684.957 545.71 684.709 544.847C684.305 543.613 683.953 542.723 683.627 541.917C682.963 539.631 676.185 525.127 673.562 519.893C671.241 514.834 664.11 505.51 649.274 493.574C645.17 490.297 639.527 485.204 632.694 482.087C632.676 482.078 632.657 482.07 632.639 482.061C625.841 478.917 618.776 476.603 613.571 474.941C608.376 473.282 605.103 472.066 601.953 470.942C601.922 470.931 601.891 470.92 601.86 470.909C598.726 469.829 595.684 468.836 590.571 468.267C587.124 467.892 582.759 467.542 578.104 467.506C568.669 467.347 557.901 468.879 550.699 471.385C550.044 471.605 549.354 471.372 549.148 470.856C548.944 470.34 549.316 469.731 549.989 469.504ZM546.401 457.514C570.173 447.871 596.325 450.024 618.179 459.13C624.1 460.996 632.071 464.15 639.673 468.253C639.758 468.299 639.843 468.345 639.927 468.392C647.4 472.39 654.423 477.294 659.133 481.05C676.091 494.678 683.172 506.49 685.979 512.424C688.55 518.214 689.226 519.591 690.486 521.821C690.519 521.882 690.551 521.943 690.584 522.003C690.587 522.007 690.591 522.01 690.595 522.013C690.659 522.076 690.707 522.133 690.731 522.163C690.779 522.224 690.814 522.276 690.826 522.296C690.856 522.341 690.878 522.38 690.886 522.394C690.919 522.451 690.955 522.518 690.977 522.561C691.184 522.96 691.805 524.242 692.244 525.276C692.68 526.307 692.939 527.072 693.203 527.882C693.23 527.964 693.256 528.046 693.282 528.128C693.518 528.86 693.771 529.659 694.159 530.801C694.395 531.498 694.145 532.183 693.608 532.327C693.07 532.471 692.453 532.03 692.22 531.346C691.817 530.163 691.551 529.327 691.318 528.603C691.292 528.523 691.266 528.442 691.24 528.362C690.991 527.598 690.763 526.938 690.381 526.033C689.763 524.707 689.251 523.756 688.779 522.894C687.494 520.614 686.722 519.048 684.051 513.067C681.411 507.551 674.688 496.158 657.913 482.645C653.272 478.941 646.352 474.108 639.002 470.173C638.916 470.127 638.83 470.081 638.744 470.035C631.256 465.993 623.418 462.888 617.601 461.053C594.943 454.018 571.35 453.619 547.125 459.391C542.764 460.834 538.76 462.473 535.218 464.217C524.646 469.445 516.915 476.027 512.3 484.344C511.348 486.165 508.175 490.722 505.984 498.349C505.351 500.588 504.832 503.062 504.525 505.753C504.151 509.064 504.104 512.431 504.488 516.216C504.859 519.607 505.356 523.011 506.081 526.73C506.383 528.282 506.686 529.647 506.991 530.93C508.392 536.335 509.33 540.855 513.322 551.133C517.628 564.187 533.178 583.123 544.619 589.121C550.032 592.449 553.318 593.887 555.608 594.96C556.25 595.252 556.817 595.505 557.341 595.732C558.696 596.317 559.758 596.746 561.181 597.235C571.448 600.591 579.06 601.444 590.982 601.043C591.731 601.01 592.393 601.423 592.46 601.976C592.527 602.529 591.962 603.014 591.198 603.049C579.053 603.472 571.17 602.616 560.524 599.133C559.003 598.611 557.844 598.14 556.428 597.526C555.9 597.296 555.338 597.046 554.715 596.762C552.41 595.679 549.078 594.221 543.551 590.823C531.826 584.679 515.859 565.225 511.476 551.93C507.43 541.526 506.497 537.031 505.067 531.536C504.754 530.23 504.442 528.838 504.13 527.249C503.371 523.368 502.859 519.858 502.477 516.35C502.092 512.5 502.134 509.082 502.505 505.693C502.815 502.884 503.343 500.319 503.993 497.984C506.315 489.865 509.469 485.418 510.277 483.785C515.16 474.768 523.544 467.702 534.48 462.339C538.076 460.577 542.092 458.944 546.401 457.514ZM632.624 594.565C631.943 594.812 631.22 594.588 631.004 594.075C630.794 593.56 631.17 592.95 631.84 592.708C635.381 591.424 637.95 590.356 639.873 589.533C643.46 587.981 645.215 587.147 647.795 586.054C654.536 583.174 660.801 579.968 666.296 576.819C675.428 571.596 682.407 566.55 686.076 563.918C686.654 563.503 687.39 563.524 687.721 563.969C688.052 564.413 687.847 565.117 687.263 565.537C683.583 568.178 676.585 573.238 667.395 578.503C661.834 581.693 655.488 584.951 648.627 587.885C646.095 588.958 644.421 589.753 640.871 591.294C638.927 592.129 636.307 593.227 632.624 594.565ZM684.815 590.063C685.165 600.223 683.945 612.6 680.057 621.586C680.004 621.712 679.952 621.837 679.899 621.963C678.345 625.626 676.453 629.251 673.756 633.444C673.412 633.978 673.051 634.524 672.677 635.078C669.346 640.003 664.787 645.844 657.446 653.447C631.841 678.198 608.561 701.296 603.203 709.762C591.259 725.729 578.868 744.73 571.292 773.611C571.172 774.078 571.052 774.548 570.934 775.023C570.413 777.116 569.898 779.26 569.396 781.458C568.903 783.615 568.081 785.315 567.528 785.249C566.975 785.181 566.904 783.359 567.399 781.185C567.918 778.91 568.447 776.695 568.984 774.537C569.072 774.18 569.162 773.826 569.252 773.474C569.255 773.462 569.258 773.45 569.261 773.438C576.945 744.012 589.273 725.195 600.963 709.368C606.407 700.588 630.624 676.626 656.496 651.521C663.797 643.903 668.246 638.093 671.475 633.224C671.828 632.69 672.165 632.171 672.486 631.662C672.494 631.65 672.501 631.638 672.509 631.626C675.116 627.481 676.837 624.072 678.256 620.66C678.286 620.588 678.315 620.514 678.345 620.441C682.115 611.561 683.134 599.732 682.806 590.058C682.767 588.23 683.124 586.671 683.68 586.653C684.233 586.635 684.775 588.196 684.815 590.063ZM932.172 1094.44C943.102 1091.97 957.697 1089.22 970.525 1086.74C983.466 1084.25 995.159 1082.07 1000.66 1081.16C1006.07 1080.24 1011.97 1078.96 1019.01 1077.38C1020.63 1077.02 1022.3 1076.64 1024.03 1076.25C1029.72 1074.98 1036.11 1073.58 1043.06 1072.23C1068.73 1067.26 1085.35 1064.95 1097.26 1063.64C1099.7 1063.38 1101.99 1063.15 1104.12 1062.96C1104.12 1062.96 1104.13 1062.96 1104.13 1062.96C1112.17 1062.24 1118.18 1061.98 1123.68 1062.14C1133.48 1062.44 1141.43 1063.15 1150.83 1064.85C1163.8 1067.06 1181.82 1071.05 1193.47 1074.6C1193.81 1074.7 1194.15 1074.8 1194.5 1074.9L1193.55 1074.51C1193.82 1074.62 1194.08 1074.72 1194.35 1074.84C1201.66 1077.93 1210.7 1083.27 1222.07 1094.76C1231.5 1104.37 1238.6 1114.31 1244.43 1123.15C1246.16 1125.78 1247.65 1128.15 1249.14 1130.57C1252.92 1136.69 1256.07 1142.13 1259.12 1147.34C1277.78 1179.73 1286.34 1199.93 1291.8 1212.43C1295.91 1222.13 1297.89 1227.71 1299.32 1231.72C1299.75 1232.94 1300.13 1234.01 1300.5 1235.02C1303.82 1243.97 1307.16 1252.08 1311.2 1261.84C1312.08 1263.99 1313.03 1266.27 1314.01 1268.63C1317.25 1276.49 1320.02 1282.3 1322.25 1286.73C1323.22 1288.65 1324.13 1290.41 1324.97 1292.02C1324.99 1292.05 1325 1292.08 1325.02 1292.11C1325.14 1292.34 1325.25 1292.56 1325.37 1292.78C1325.46 1292.95 1325.55 1293.12 1325.63 1293.28C1325.67 1293.35 1325.71 1293.4 1325.73 1293.44C1325.76 1293.48 1325.77 1293.5 1325.78 1293.52C1325.78 1293.52 1325.79 1293.53 1325.79 1293.53C1325.98 1293.84 1326.12 1294.11 1326.15 1294.16C1326.2 1294.26 1326.25 1294.35 1326.27 1294.39C1326.39 1294.62 1326.54 1294.93 1326.64 1295.13C1326.89 1295.65 1327.33 1296.55 1328.01 1297.94C1328.61 1299.13 1329.22 1300.3 1329.99 1301.76C1330.04 1301.85 1330.09 1301.94 1330.13 1302.03C1330.88 1303.45 1331.76 1305.1 1332.84 1307.16C1333.82 1309.04 1334.31 1310.93 1333.96 1311.45C1333.59 1311.95 1332.48 1310.82 1331.5 1308.96C1330.48 1307.02 1329.66 1305.47 1328.9 1304.06C1328.86 1303.97 1328.81 1303.88 1328.76 1303.79C1327.98 1302.32 1327.23 1300.88 1326.48 1299.39C1326.22 1298.89 1325.96 1298.37 1325.73 1297.88C1325.28 1297.01 1324.77 1296.02 1324.15 1294.84C1324.02 1294.6 1323.89 1294.36 1323.76 1294.11C1322.92 1292.5 1321.93 1290.6 1320.86 1288.46C1318.37 1283.53 1315.31 1277.1 1311.78 1268.53C1310.84 1266.27 1309.94 1264.09 1309.06 1261.97C1305.01 1252.17 1301.41 1243.46 1297.89 1233.97C1297.41 1232.66 1296.96 1231.41 1296.48 1230.06C1295.06 1226.08 1293.37 1221.32 1289.57 1212.37C1284.37 1200.48 1276.03 1180.76 1257.56 1148.65C1254.37 1143.21 1251.03 1137.43 1247.2 1131.24C1245.74 1128.89 1244.3 1126.62 1242.69 1124.16C1236.99 1115.51 1230.14 1105.97 1221.19 1096.75C1210.24 1085.58 1201.69 1080.37 1194.69 1077.22C1194.45 1077.11 1194.21 1077.01 1193.97 1076.9C1193.67 1076.78 1193.37 1076.65 1193.08 1076.53C1192.94 1076.48 1192.81 1076.42 1192.67 1076.37L1193.81 1076.84C1181.51 1073.01 1162.9 1068.88 1148.85 1066.59C1139.95 1065.05 1132.39 1064.41 1122.72 1064.14C1117.96 1064.03 1112.87 1064.23 1105.04 1064.9C1102.84 1065.09 1100.41 1065.32 1097.74 1065.61C1085.69 1066.92 1068.9 1069.26 1043.01 1074.3C1036.28 1075.6 1030.18 1076.94 1024.53 1078.2C1022.77 1078.6 1021.04 1078.99 1019.34 1079.37C1012.27 1080.95 1005.68 1082.4 999.432 1083.45C994.312 1084.3 982.987 1086.4 970.373 1088.82C957.691 1091.27 944.149 1093.82 934.52 1096.03C933.518 1096.26 932.505 1096.49 931.492 1096.72C922.774 1098.69 913.778 1100.43 906.537 1102.13C874.33 1112.9 810.901 1106.53 773.403 1090.74C772.906 1090.56 772.409 1090.37 771.912 1090.19C744.207 1079.69 723.377 1067.3 709.126 1058.13C700.892 1052.8 695.268 1048.92 691.725 1046.46C691.289 1046.16 690.893 1045.88 690.538 1045.63C690.222 1045.41 689.935 1045.21 689.684 1045.03C685.913 1042.38 682.644 1040.1 679.092 1037.55C678.901 1037.41 678.71 1037.28 678.519 1037.14C674.82 1034.47 671.096 1031.73 666.615 1028.15C650.251 1015.07 637.641 1003.31 627.287 992.506C625.357 990.489 623.566 988.566 621.787 986.61C621.781 986.604 621.776 986.598 621.771 986.592C613.959 977.993 607.531 969.985 601.822 961.945C591.502 947.321 585.685 936.436 581.43 927.9C580.113 925.23 578.943 922.732 577.872 920.334C575.585 915.212 573.737 910.557 572.086 905.789C568.947 896.688 566.609 888.164 564.822 879.632C564.665 878.878 564.51 878.112 564.36 877.348C562.543 868.087 561.382 858.754 560.988 848.919C560.896 846.63 561.315 844.733 561.868 844.675C562.422 844.621 562.901 846.406 562.99 848.668C563.363 858.128 564.449 867.159 566.213 876.317C566.359 877.076 566.513 877.844 566.669 878.602C568.402 887.015 570.728 895.644 573.874 904.81C575.443 909.365 577.164 913.743 579.354 918.709C580.411 921.1 581.606 923.683 582.967 926.459C587.223 935.063 593.043 945.998 603.369 960.651C608.949 968.52 615.258 976.408 622.984 984.937C624.78 986.918 626.558 988.828 628.499 990.86C638.803 1001.64 651.397 1013.4 667.774 1026.5C671.98 1029.86 675.511 1032.48 679.161 1035.12C679.366 1035.26 679.571 1035.41 679.776 1035.56C683.265 1038.07 686.735 1040.5 690.69 1043.28C691.219 1043.66 691.898 1044.14 692.72 1044.71C696.266 1047.17 701.928 1051.08 710.215 1056.44C724.432 1065.59 745.183 1077.93 772.728 1088.35C772.863 1088.4 772.998 1088.45 773.133 1088.5C802.443 1099.26 820.317 1101.74 833.407 1103.07C843.898 1103.98 851.637 1104.35 858.046 1104.57C859.263 1104.61 860.412 1104.64 861.507 1104.67C866.222 1104.78 870.026 1104.77 873.752 1104.6C885.038 1104.05 893.083 1102.86 902.651 1100.71C910.732 1098.89 920.599 1097.01 929.144 1095.11C929.157 1095.11 929.17 1095.11 929.183 1095.1C930.199 1094.88 931.198 1094.66 932.172 1094.44ZM1348.05 1334.11C1349.07 1336.04 1349.5 1337.78 1349 1338.02C1348.5 1338.27 1347.27 1336.93 1346.25 1334.99C1343.79 1330.33 1341.52 1325.88 1339.19 1321.19C1338.24 1319.29 1337.88 1317.54 1338.39 1317.31C1338.89 1317.08 1340.07 1318.45 1341.01 1320.35C1343.35 1325.03 1345.6 1329.46 1348.05 1334.11ZM921.909 1085.88C923.922 1085.48 925.994 1085.52 926.541 1085.99C927.084 1086.46 925.878 1087.18 923.861 1087.59C922.792 1087.8 921.037 1088.16 918.666 1088.62C901.919 1091.88 851.377 1101.24 798.983 1087.72C794.676 1086.65 790.792 1085.58 787.076 1084.48C771.567 1079.6 758.006 1076.68 730.468 1061.39C724.89 1058.21 719.282 1054.8 713.645 1051.13C621.707 997.108 544.786 887.038 580.89 777.505C584.761 761.474 591.169 746.195 599.853 732.187C620.015 698.824 652.753 676.857 674.579 647.719C688.512 631.429 696.896 598.462 692.391 575.439C691.078 565.437 689.047 557.657 687.914 553.8C687.333 551.814 687.243 550.092 687.776 549.936C688.307 549.78 689.268 551.276 689.858 553.294C690.999 557.183 693.051 565.049 694.377 575.146C698.955 598.338 690.461 632.162 676.391 648.645C654.307 678.215 621.806 699.964 601.846 732.796C593.133 746.747 586.741 761.999 582.942 778.016C547.824 887.187 624.795 993.78 716.046 1047.41C721.669 1051.06 727.256 1054.45 732.806 1057.6C759.652 1072.49 771.642 1077.48 787 1082.35C790.699 1083.46 794.578 1084.54 798.894 1085.62C850.078 1098.96 899.609 1090.17 916.519 1086.93C918.958 1086.47 920.782 1086.1 921.909 1085.88ZM1018.37 1066.59C1041.41 1061.05 1074.6 1053.81 1104.29 1051.79C1118.73 1050.73 1132.25 1050.87 1143.02 1051.66C1159.73 1052.93 1170.04 1055.53 1180.02 1058.45C1180.12 1058.49 1180.23 1058.52 1180.34 1058.55C1186.05 1060.28 1191.45 1062.14 1198.13 1064.72L1198.19 1064.74C1202.98 1067.18 1208.22 1070.47 1213.98 1075.06C1227.41 1085.52 1242.79 1103.75 1255.78 1123.54C1255.79 1123.55 1255.8 1123.57 1255.81 1123.59C1268.88 1143.3 1281.11 1163.91 1288.81 1179.42C1315.16 1233.67 1328.36 1268.3 1335.6 1285.66C1348.15 1316.08 1365.48 1348.92 1385.45 1376.58C1387.49 1379.68 1382.11 1376.11 1378.21 1370.17C1378.07 1369.96 1377.93 1369.76 1377.79 1369.55C1376.48 1367.6 1375.27 1365.76 1373.68 1363.32C1371.39 1359.89 1369.57 1357.07 1368.09 1354.7C1363.37 1348.69 1339.63 1302.32 1333.18 1285.11C1326.31 1268.66 1311.17 1235.63 1284.76 1181.26C1277.24 1166.11 1267.46 1144.87 1254.39 1125.09C1254.36 1125.04 1254.32 1124.98 1254.29 1124.93C1241.48 1105.39 1226.15 1087.08 1212.76 1076.65C1207.14 1072.18 1202 1068.94 1197.33 1066.57L1197.45 1066.62C1190.31 1063.87 1184.62 1061.94 1178.7 1060.18C1178.6 1060.15 1178.5 1060.12 1178.4 1060.09C1168.63 1057.28 1158.85 1054.88 1142.91 1053.67C1131.99 1052.87 1118.42 1052.75 1103.99 1053.83C1074.63 1055.87 1041.99 1062.98 1019.16 1068.46C1017.09 1068.96 1015.24 1068.94 1015.02 1068.43C1014.8 1067.91 1016.3 1067.08 1018.37 1066.59ZM1016 1054.29C1073.7 1038.43 1141.69 1026.2 1203.08 1050.8L1204.53 1051.4C1211.08 1054.72 1217.01 1058.82 1222.36 1063.26C1237.93 1075.26 1254.12 1095.52 1267.25 1116.43C1267.4 1116.67 1267.55 1116.91 1267.7 1117.14C1280.81 1137.97 1291.62 1159.23 1299.25 1174.59C1325.85 1229.39 1339.92 1263.5 1347.13 1280.77C1353.63 1296.87 1355.81 1301.16 1358.97 1307.52C1359.06 1307.7 1359.14 1307.87 1359.23 1308.04C1359.24 1308.05 1359.24 1308.06 1359.25 1308.07C1359.38 1308.28 1359.49 1308.45 1359.54 1308.54C1359.65 1308.72 1359.73 1308.88 1359.76 1308.93C1359.83 1309.06 1359.89 1309.18 1359.91 1309.21C1359.99 1309.38 1360.08 1309.56 1360.14 1309.68C1360.68 1310.76 1362.47 1314.42 1363.83 1317.2C1365.22 1320.05 1366.19 1322.11 1367.24 1324.31C1367.34 1324.53 1367.45 1324.75 1367.55 1324.97C1368.5 1326.95 1369.48 1329 1371.03 1332.03C1371.99 1333.89 1372.27 1335.41 1371.67 1335.46C1371.07 1335.52 1369.8 1334.07 1368.84 1332.18C1367.24 1329.05 1366.16 1326.78 1365.22 1324.79C1365.11 1324.57 1365.01 1324.35 1364.9 1324.13C1363.88 1321.98 1363.06 1320.22 1361.81 1317.66C1359.97 1313.98 1358.55 1311.17 1357.32 1308.71C1354.04 1302.12 1351.51 1297.12 1344.71 1280.23C1337.87 1263.85 1324.17 1230.57 1297.46 1175.51C1289.84 1160.15 1279.04 1138.92 1266 1118.21C1265.84 1117.97 1265.69 1117.73 1265.54 1117.49C1252.47 1096.67 1236.41 1076.62 1221.15 1064.86C1215.75 1060.62 1209.84 1056.77 1203.43 1053.71L1202.22 1053.21C1140.47 1030.65 1075.87 1043.57 1016.79 1056.16C1004.73 1059.06 993.82 1061.72 983.714 1064.09C954.027 1071.08 931.47 1075.47 909.931 1079.19C905.225 1079.97 892.77 1081.76 874.779 1082.31C869.516 1082.46 863.708 1082.49 857.499 1082.3C842.241 1081.83 824.101 1080 804.294 1075.23C800.149 1074.23 796.506 1073.26 792.97 1072.24C778.089 1067.68 765.996 1064.15 739.552 1049.71C734.057 1046.63 728.101 1043.07 721.589 1038.83C690.25 1018.99 653.683 987.759 636.573 966.48C625.961 953.818 621.06 946.062 617.546 940.51C616.591 938.973 615.795 937.644 615.035 936.355C613.072 933.011 611.701 930.54 609.83 927.062C597.159 902.352 590.424 883.829 587.423 852.08C587.269 850.095 587.624 848.321 588.171 848.152C588.719 847.979 589.248 849.456 589.395 851.419C592.274 882.868 598.933 901.467 611.674 926.249C613.603 929.828 615.072 932.462 617.064 935.833C617.809 937.089 618.566 938.344 619.471 939.793C622.917 945.212 627.715 952.794 638.202 965.296C655.167 986.372 691.509 1017.41 722.679 1037.14C729.124 1041.34 735.023 1044.87 740.45 1047.91C766.447 1062.11 778.23 1065.59 792.914 1070.13C796.426 1071.14 800.086 1072.13 804.2 1073.13C823.899 1077.92 841.91 1079.77 857.068 1080.27C863.23 1080.47 868.973 1080.45 874.185 1080.31C892.414 1079.76 904.062 1078.05 908.072 1077.42C930.255 1073.68 953.706 1069.1 983.642 1062.04C993.625 1059.7 1004.31 1057.1 1016 1054.29ZM612.177 741.602C611.16 743.284 609.923 744.553 609.379 744.384C608.829 744.231 609.173 742.693 610.202 740.975C615.638 731.959 620.346 725.923 624.128 721.209C631.206 712.575 635.031 708.612 640.83 702.745C655.912 687.648 672.049 673.452 684.169 657.344C705.523 630.579 707.349 599.512 706.25 585.641C706.125 583.298 706.414 581.497 706.97 581.466C707.522 581.437 708.133 583.226 708.259 585.606C709.361 599.546 707.521 631.134 685.984 658.27C673.71 674.66 657.44 688.965 642.324 704.093C636.724 709.756 633.122 713.477 626.227 721.82C622.471 726.466 617.714 732.49 612.177 741.602Z" fill="#3C61F5"/>
</svg>
