<svg width="334" height="256" viewBox="0 0 334 256" fill="none" xmlns="http://www.w3.org/2000/svg">
<g filter="url(#filter0_f_2002_14337)">
<path d="M227.866 44.3666C228.289 47.3746 226.193 50.1558 223.185 50.5786C220.177 51.0013 217.396 48.9056 216.973 45.8975C216.551 42.8895 218.646 40.1084 221.654 39.6856C224.662 39.2629 227.443 41.3586 227.866 44.3666Z" stroke="#BB6EF6" stroke-width="5"/>
<path d="M80.6963 53.437L89.6087 52.1845C92.3433 51.8001 94.8716 53.7054 95.2559 56.4399L96.3694 64.3624C96.7537 67.097 99.282 69.0022 102.017 68.6179L109.939 67.5045C112.674 67.1202 115.202 69.0254 115.586 71.7599L116.839 80.6724C117.223 83.4069 115.318 85.9352 112.583 86.3196L104.661 87.433C101.926 87.8173 100.021 90.3457 100.405 93.0802L101.519 101.002C101.903 103.737 99.9978 106.265 97.2633 106.649L88.3508 107.902C85.6163 108.286 83.088 106.381 82.7036 103.646L81.5903 95.7245C81.206 92.99 78.6776 91.0847 75.9431 91.469L68.0213 92.5824C65.2868 92.9667 62.7584 91.0614 62.3741 88.3269L61.1216 79.4145C60.7372 76.6799 62.6425 74.1516 65.377 73.7673L73.2988 72.6539C76.0334 72.2696 77.9386 69.7413 77.5543 67.0067L76.4409 59.0842C76.0565 56.3497 77.9618 53.8213 80.6963 53.437ZM157.718 76.9465C164.828 75.9473 169.781 69.3736 168.782 62.2638C167.783 55.1539 161.209 50.2003 154.099 51.1995C146.989 52.1987 142.036 58.7724 143.035 65.8823C144.034 72.9921 150.608 77.9457 157.718 76.9465ZM214.249 62.4377C214.671 65.4457 212.576 68.2269 209.568 68.6496C206.56 69.0724 203.778 66.9766 203.356 63.9686C202.933 60.9606 205.029 58.1794 208.037 57.7567C211.045 57.3339 213.826 59.4297 214.249 62.4377ZM227.639 82.2672C230.647 81.8444 232.743 79.0633 232.32 76.0552C231.897 73.0472 229.116 70.9515 226.108 71.3742C223.1 71.7969 221.004 74.5781 221.427 77.5861C221.85 80.5942 224.631 82.6899 227.639 82.2672ZM154.287 124.386C155.939 136.144 147.747 147.016 135.988 148.669C124.23 150.321 113.358 142.129 111.705 130.37C110.053 118.612 118.245 107.74 130.004 106.087C141.762 104.435 152.634 112.627 154.287 124.386ZM220.635 115.061C222.287 126.82 214.095 137.692 202.336 139.344C190.578 140.997 179.706 132.804 178.053 121.046C176.401 109.287 184.593 98.4151 196.352 96.7626C208.11 95.11 218.982 103.303 220.635 115.061ZM241.256 64.1961C244.264 63.7733 246.36 60.9922 245.937 57.9842C245.515 54.9762 242.733 52.8804 239.725 53.3031C236.717 53.7259 234.622 56.5071 235.044 59.5151C235.467 62.5231 238.248 64.6188 241.256 64.1961Z" stroke="#BB6EF6" stroke-width="5"/>
<path fill-rule="evenodd" clip-rule="evenodd" d="M105.574 28.2657C117.538 27.1445 131.393 25.6106 150.133 22.9769C168.873 20.3432 208.04 13.5002 208.04 13.5002C208.04 13.5002 247.872 10.9714 270.935 47.581C293.997 84.1906 322.841 136.427 321.282 166.555C319.784 195.508 309.401 209.123 289.287 211.949C280.737 213.151 267.164 198.832 253.413 184.325C239.294 169.43 224.988 154.338 215.735 155.638L123.64 168.581C114.386 169.882 104.794 188.333 95.3284 206.542C86.1085 224.278 77.0084 241.783 68.4576 242.985C48.3441 245.812 34.611 235.586 25.1904 208.168C15.3873 179.636 28.7157 121.473 40.7935 79.9252C49.2901 50.6963 75.2679 31.1057 105.574 28.2657ZM227.866 44.3666C228.289 47.3746 226.193 50.1558 223.185 50.5786C220.177 51.0013 217.396 48.9056 216.973 45.8975C216.551 42.8895 218.646 40.1084 221.654 39.6856C224.662 39.2629 227.443 41.3586 227.866 44.3666ZM80.6963 53.437L89.6087 52.1845C92.3433 51.8001 94.8716 53.7054 95.2559 56.4399L96.3694 64.3624C96.7537 67.097 99.282 69.0022 102.017 68.6179L109.939 67.5045C112.674 67.1202 115.202 69.0254 115.586 71.7599L116.839 80.6724C117.223 83.4069 115.318 85.9352 112.583 86.3196L104.661 87.433C101.926 87.8173 100.021 90.3457 100.405 93.0802L101.519 101.002C101.903 103.737 99.9978 106.265 97.2633 106.649L88.3508 107.902C85.6163 108.286 83.088 106.381 82.7036 103.646L81.5903 95.7245C81.206 92.99 78.6776 91.0847 75.9431 91.469L68.0213 92.5824C65.2868 92.9667 62.7584 91.0614 62.3741 88.3269L61.1216 79.4145C60.7372 76.6799 62.6425 74.1516 65.377 73.7673L73.2988 72.6539C76.0334 72.2696 77.9386 69.7413 77.5543 67.0067L76.4409 59.0842C76.0565 56.3497 77.9618 53.8213 80.6963 53.437ZM157.718 76.9465C164.828 75.9473 169.781 69.3736 168.782 62.2638C167.783 55.1539 161.209 50.2003 154.099 51.1995C146.989 52.1987 142.036 58.7724 143.035 65.8823C144.034 72.9921 150.608 77.9457 157.718 76.9465ZM214.249 62.4377C214.671 65.4457 212.576 68.2269 209.568 68.6496C206.56 69.0724 203.778 66.9766 203.356 63.9686C202.933 60.9606 205.029 58.1794 208.037 57.7567C211.045 57.3339 213.826 59.4297 214.249 62.4377ZM227.639 82.2672C230.647 81.8444 232.743 79.0633 232.32 76.0552C231.897 73.0472 229.116 70.9515 226.108 71.3742C223.1 71.7969 221.004 74.5781 221.427 77.5861C221.85 80.5942 224.631 82.6899 227.639 82.2672ZM154.287 124.386C155.939 136.144 147.747 147.016 135.988 148.669C124.23 150.321 113.358 142.129 111.705 130.37C110.053 118.612 118.245 107.74 130.004 106.087C141.762 104.435 152.634 112.627 154.287 124.386ZM220.635 115.061C222.287 126.82 214.095 137.692 202.336 139.344C190.578 140.997 179.706 132.804 178.053 121.046C176.401 109.287 184.593 98.4151 196.352 96.7626C208.11 95.11 218.982 103.303 220.635 115.061ZM241.256 64.1961C244.264 63.7733 246.36 60.9922 245.937 57.9842C245.515 54.9762 242.733 52.8804 239.725 53.3031C236.717 53.7259 234.622 56.5071 235.044 59.5151C235.467 62.5231 238.248 64.6188 241.256 64.1961Z" stroke="#BB6EF6" stroke-width="5"/>
</g>
<path d="M227.866 44.3666C228.289 47.3746 226.193 50.1558 223.185 50.5786C220.177 51.0013 217.396 48.9056 216.973 45.8975C216.551 42.8895 218.646 40.1084 221.654 39.6856C224.662 39.2629 227.443 41.3586 227.866 44.3666Z" stroke="#BB6EF6" stroke-width="5"/>
<path d="M80.6963 53.437L89.6087 52.1845C92.3433 51.8001 94.8716 53.7054 95.2559 56.4399L96.3694 64.3624C96.7537 67.097 99.282 69.0022 102.017 68.6179L109.939 67.5045C112.674 67.1202 115.202 69.0254 115.586 71.7599L116.839 80.6724C117.223 83.4069 115.318 85.9352 112.583 86.3196L104.661 87.433C101.926 87.8173 100.021 90.3457 100.405 93.0802L101.519 101.002C101.903 103.737 99.9978 106.265 97.2633 106.649L88.3508 107.902C85.6163 108.286 83.088 106.381 82.7036 103.646L81.5903 95.7245C81.206 92.99 78.6776 91.0847 75.9431 91.469L68.0213 92.5824C65.2868 92.9667 62.7584 91.0614 62.3741 88.3269L61.1216 79.4145C60.7372 76.6799 62.6425 74.1516 65.377 73.7673L73.2988 72.6539C76.0334 72.2696 77.9386 69.7413 77.5543 67.0067L76.4409 59.0842C76.0565 56.3497 77.9618 53.8213 80.6963 53.437ZM157.718 76.9465C164.828 75.9473 169.781 69.3736 168.782 62.2638C167.783 55.1539 161.209 50.2003 154.099 51.1995C146.989 52.1987 142.036 58.7724 143.035 65.8823C144.034 72.9921 150.608 77.9457 157.718 76.9465ZM214.249 62.4377C214.671 65.4457 212.576 68.2269 209.568 68.6496C206.56 69.0724 203.778 66.9766 203.356 63.9686C202.933 60.9606 205.029 58.1794 208.037 57.7567C211.045 57.3339 213.826 59.4297 214.249 62.4377ZM227.639 82.2672C230.647 81.8444 232.743 79.0633 232.32 76.0552C231.897 73.0472 229.116 70.9515 226.108 71.3742C223.1 71.7969 221.004 74.5781 221.427 77.5861C221.85 80.5942 224.631 82.6899 227.639 82.2672ZM154.287 124.386C155.939 136.144 147.747 147.016 135.988 148.669C124.23 150.321 113.358 142.129 111.705 130.37C110.053 118.612 118.245 107.74 130.004 106.087C141.762 104.435 152.634 112.627 154.287 124.386ZM220.635 115.061C222.287 126.82 214.095 137.692 202.336 139.344C190.578 140.997 179.706 132.804 178.053 121.046C176.401 109.287 184.593 98.4151 196.352 96.7626C208.11 95.11 218.982 103.303 220.635 115.061ZM241.256 64.1961C244.264 63.7733 246.36 60.9922 245.937 57.9842C245.515 54.9762 242.733 52.8804 239.725 53.3031C236.717 53.7259 234.622 56.5071 235.044 59.5151C235.467 62.5231 238.248 64.6188 241.256 64.1961Z" stroke="#BB6EF6" stroke-width="5"/>
<path fill-rule="evenodd" clip-rule="evenodd" d="M105.574 28.2657C117.538 27.1445 131.393 25.6106 150.133 22.9769C168.873 20.3432 208.04 13.5002 208.04 13.5002C208.04 13.5002 247.872 10.9714 270.935 47.581C293.997 84.1906 322.841 136.427 321.282 166.555C319.784 195.508 309.401 209.123 289.287 211.949C280.737 213.151 267.164 198.832 253.413 184.325C239.294 169.43 224.988 154.338 215.735 155.638L123.64 168.581C114.386 169.882 104.794 188.333 95.3284 206.542C86.1085 224.278 77.0084 241.783 68.4576 242.985C48.3441 245.812 34.611 235.586 25.1904 208.168C15.3873 179.636 28.7157 121.473 40.7935 79.9252C49.2901 50.6963 75.2679 31.1057 105.574 28.2657ZM227.866 44.3666C228.289 47.3746 226.193 50.1558 223.185 50.5786C220.177 51.0013 217.396 48.9056 216.973 45.8975C216.551 42.8895 218.646 40.1084 221.654 39.6856C224.662 39.2629 227.443 41.3586 227.866 44.3666ZM80.6963 53.437L89.6087 52.1845C92.3433 51.8001 94.8716 53.7054 95.2559 56.4399L96.3694 64.3624C96.7537 67.097 99.282 69.0022 102.017 68.6179L109.939 67.5045C112.674 67.1202 115.202 69.0254 115.586 71.7599L116.839 80.6724C117.223 83.4069 115.318 85.9352 112.583 86.3196L104.661 87.433C101.926 87.8173 100.021 90.3457 100.405 93.0802L101.519 101.002C101.903 103.737 99.9978 106.265 97.2633 106.649L88.3508 107.902C85.6163 108.286 83.088 106.381 82.7036 103.646L81.5903 95.7245C81.206 92.99 78.6776 91.0847 75.9431 91.469L68.0213 92.5824C65.2868 92.9667 62.7584 91.0614 62.3741 88.3269L61.1216 79.4145C60.7372 76.6799 62.6425 74.1516 65.377 73.7673L73.2988 72.6539C76.0334 72.2696 77.9386 69.7413 77.5543 67.0067L76.4409 59.0842C76.0565 56.3497 77.9618 53.8213 80.6963 53.437ZM157.718 76.9465C164.828 75.9473 169.781 69.3736 168.782 62.2638C167.783 55.1539 161.209 50.2003 154.099 51.1995C146.989 52.1987 142.036 58.7724 143.035 65.8823C144.034 72.9921 150.608 77.9457 157.718 76.9465ZM214.249 62.4377C214.671 65.4457 212.576 68.2269 209.568 68.6496C206.56 69.0724 203.778 66.9766 203.356 63.9686C202.933 60.9606 205.029 58.1794 208.037 57.7567C211.045 57.3339 213.826 59.4297 214.249 62.4377ZM227.639 82.2672C230.647 81.8444 232.743 79.0633 232.32 76.0552C231.897 73.0472 229.116 70.9515 226.108 71.3742C223.1 71.7969 221.004 74.5781 221.427 77.5861C221.85 80.5942 224.631 82.6899 227.639 82.2672ZM154.287 124.386C155.939 136.144 147.747 147.016 135.988 148.669C124.23 150.321 113.358 142.129 111.705 130.37C110.053 118.612 118.245 107.74 130.004 106.087C141.762 104.435 152.634 112.627 154.287 124.386ZM220.635 115.061C222.287 126.82 214.095 137.692 202.336 139.344C190.578 140.997 179.706 132.804 178.053 121.046C176.401 109.287 184.593 98.4151 196.352 96.7626C208.11 95.11 218.982 103.303 220.635 115.061ZM241.256 64.1961C244.264 63.7733 246.36 60.9922 245.937 57.9842C245.515 54.9762 242.733 52.8804 239.725 53.3031C236.717 53.7259 234.622 56.5071 235.044 59.5151C235.467 62.5231 238.248 64.6188 241.256 64.1961Z" stroke="#BB6EF6" stroke-width="5"/>
<defs>
<filter id="filter0_f_2002_14337" x="9.29102" y="0.962891" width="324.551" height="254.976" filterUnits="userSpaceOnUse" color-interpolation-filters="sRGB">
<feFlood flood-opacity="0" result="BackgroundImageFix"/>
<feBlend mode="normal" in="SourceGraphic" in2="BackgroundImageFix" result="shape"/>
<feGaussianBlur stdDeviation="5" result="effect1_foregroundBlur_2002_14337"/>
</filter>
</defs>
</svg>
