<svg width="628" height="435" viewBox="0 0 628 435" fill="none" xmlns="http://www.w3.org/2000/svg">
<path opacity="0.2" d="M551.369 0.109375C585.143 0.109375 606.674 41.4826 615.962 124.229C623.561 187.555 627.36 268.613 627.36 367.402C627.36 412.153 558.968 434.528 422.183 434.528C398.541 434.528 383.765 419.33 377.855 388.933C371.944 358.536 368.989 305.764 368.989 230.617C368.989 76.9453 429.782 0.109375 551.369 0.109375ZM182.81 0.109375C207.296 0.109375 225.027 19.9516 236.004 59.6361C246.98 101.854 253.313 144.071 255.002 186.289C257.535 248.771 258.801 309.142 258.801 367.402C258.801 412.153 190.409 434.528 53.6238 434.528C29.982 434.528 15.2058 419.33 9.29537 388.933C3.38492 358.536 0.429688 305.764 0.429688 230.617C0.429688 76.9453 61.223 0.109375 182.81 0.109375Z" fill="#3C61F5"/>
</svg>
