<svg width="68" height="68" viewBox="0 0 68 68" fill="none" xmlns="http://www.w3.org/2000/svg">
<rect x="2" y="2" width="64" height="64" rx="12" fill="black" stroke="white" stroke-width="4"/>
<circle cx="34" cy="34" r="23" stroke="white" stroke-width="1.5"/>
<path d="M34.1618 27.1176C36.4034 27.1176 38.2206 25.3004 38.2206 23.0588C38.2206 20.8172 36.4034 19 34.1618 19C31.9201 19 30.1029 20.8172 30.1029 23.0588C30.1029 25.3004 31.9201 27.1176 34.1618 27.1176ZM34.1618 27.1176H25C23.8954 27.1176 23 28.0131 23 29.1176V29.1765C23 30.281 23.8954 31.1765 25 31.1765H30.4412V36.0222C30.4412 36.3923 30.3385 36.7551 30.1445 37.0703L26.2613 43.3806C25.5738 44.4977 25.8937 45.9585 26.9851 46.6861C28.134 47.4521 29.6893 47.1116 30.413 45.9355L34.1618 39.8437L37.9105 45.9355C38.6343 47.1116 40.1895 47.4521 41.3385 46.6861C42.4298 45.9585 42.7497 44.4977 42.0623 43.3806L38.179 37.0703C37.9851 36.7551 37.8824 36.3923 37.8824 36.0222V31.1765H43.3235C44.4281 31.1765 45.3235 30.281 45.3235 29.1765V29.1176C45.3235 28.0131 44.4281 27.1176 43.3235 27.1176H34.1618Z" stroke="white" stroke-width="1.5" stroke-linejoin="round"/>
</svg>
