<svg preserveAspectRatio="none" width="232" height="62" viewBox="0 0 232 62" fill="none" xmlns="http://www.w3.org/2000/svg">
<path d="M20.5103 60.8396C20.648 60.7631 21.2306 60.8884 21.4762 60.8437C21.2427 61.5717 20.0136 61.1171 20.5103 60.8396ZM42.5236 7.65018C42.3294 7.83903 42.1352 8.02787 41.941 8.21673C42.5332 8.29242 43.3093 8.11239 43.8632 8.24339C43.9539 8.26555 43.7566 8.78843 43.9683 8.79737C44.18 8.80617 44.0941 8.11482 44.395 8.02062C44.7327 7.91704 46.3334 8.29811 46.8754 8.25101C48.9055 8.0716 50.9267 7.54213 52.9849 7.69808C50.9139 8.34808 53.0687 8.733 53.6429 8.47235C53.77 8.41239 53.6657 7.12339 55.7955 7.3118C57.1509 7.43119 56.0315 9.35577 58.2092 8.28721C56.4054 7.10788 58.1039 7.08894 59.448 6.95926C59.6805 6.93662 61.573 7.00945 62.3979 6.89911C62.6804 6.861 63.0688 6.15742 63.4439 6.11554C63.7028 6.08719 63.9228 6.44409 64.3068 6.40058C66.0968 6.20221 67.8574 6.06084 69.6641 6.07121C68.7246 7.87494 70.5354 6.75894 70.6245 6.83667C71.0824 7.281 69.1557 7.53842 69.9399 7.78463C71.0052 7.66277 72.0733 7.54088 73.1409 7.41916C72.2487 7.26162 74.2116 5.8828 74.6224 6.42744C74.3587 4.90297 79.5839 7.4554 80.3228 6.8948C80.4757 6.77655 79.3817 6.08349 81.8323 6.27834C82.0976 6.30044 82.0271 6.76975 82.1623 6.71796C82.2435 6.68682 82.6496 5.18381 83.2343 5.96379C83.4473 6.24854 82.2623 7.2928 84.9744 6.73365C83.7918 5.30326 88.7161 5.68652 89.6368 6.00688C89.4451 5.81668 89.2534 5.6265 89.0616 5.43633C89.9825 5.92441 90.1106 5.40525 90.3121 5.42068C91.1237 5.48251 92.2675 5.92739 93.0144 5.83453C93.8897 5.72673 93.833 4.79498 94.8811 5.09463C94.6247 4.90397 94.3689 4.71328 94.114 4.52254C94.823 4.52882 95.5376 4.53484 96.2479 4.54122C94.6832 5.87465 96.6055 4.57843 96.7346 4.54395C96.9411 4.48632 96.6713 5.00956 97.0173 4.92538C97.0529 4.91283 96.9717 4.4405 97.5075 4.35431C98.6257 4.17596 98.4861 4.78453 98.9595 4.74901C99.0027 4.74331 98.8249 4.32411 99.6375 4.17318C102.217 3.69336 99.6449 4.50215 99.5482 4.56749C99.4218 4.65357 100.422 6.38953 98.1737 5.88891C98.927 6.04598 99.0509 6.83358 99.1355 6.84819C99.2107 6.85982 100.489 6.67043 100.558 6.63891C101.173 6.33177 100.585 5.82396 100.702 5.71952C100.799 5.63514 102.383 6.24762 102.651 4.59731C103.484 6.05462 102.304 5.98739 101.081 6.29296C100.919 6.61204 102.296 6.82972 102.369 6.82454C104.131 6.7158 103.081 5.53907 103.419 4.72618C103.596 4.30082 104.364 5.10068 103.635 4.03261C105.225 3.81993 104.295 4.51994 104.404 4.60875C104.568 4.73899 105.107 4.38811 105.179 4.42623C105.285 4.48271 104.952 4.88756 105.364 4.9985C105.433 5.01414 106.044 4.31522 105.186 4.04991C106.311 4.07681 106.19 3.51932 106.638 4.63081C107.285 2.43885 107.276 5.86567 107.588 5.96776C108.417 6.23653 108.082 4.56579 108.12 4.48109C108.382 3.93707 110.66 4.38303 111.203 4.10752C111.056 5.3338 109.42 4.22605 109.088 4.48196C107.974 5.3339 110.762 4.99173 110.008 6.56636C110.338 6.12664 110.668 5.68697 110.997 5.24734C111.704 6.18944 110.81 6.67097 112.533 6.21014C112.769 5.34719 111.308 6.41632 111.573 5.73191C111.73 5.33013 112.737 5.18668 112.744 4.97931C112.75 4.72988 111.853 5.07779 111.975 4.68752C112.239 3.84499 115.627 4.43381 113.109 5.03246C113.816 4.97689 114.28 6.59425 114.865 6.04771C115.243 5.69313 112.875 3.55984 116.254 3.77952C116.371 4.54923 114.927 4.08606 114.893 4.14716C114.846 4.2359 115.204 5.96737 115.253 6.05099C115.425 6.32551 118.799 5.19145 119.573 6.02752C119.228 5.03454 122.152 5.69872 122.449 5.37341C122.528 5.28373 122.181 4.68322 122.266 4.61268C122.673 4.29244 123.675 4.80377 124.438 5.06304C124.68 5.14477 124.899 5.20138 125.067 5.19873C125.853 5.18684 125.723 4.65847 125.767 4.65699C126.113 4.66736 125.858 5.04491 126.069 5.03203C126.388 5.01216 128.566 4.96426 128.676 4.88244C128.707 4.85711 128.315 4.26699 128.786 4.1246C128.867 4.09999 128.857 4.82598 130.248 4.43518C131.922 3.96529 129.021 3.60111 129.683 2.80451C130.833 3.82243 130.737 2.75574 131.037 2.82329C131.14 2.84826 131.953 3.71472 132.779 3.61155C132.193 3.79179 131.602 3.97239 131.021 4.15257C131.608 4.27983 132.739 4.01957 133.228 4.17323C133.468 4.24796 133.316 5.00509 133.824 4.95696C133.931 4.94272 134.261 3.10025 132.97 3.98979C132.828 3.34624 133.487 3.73414 133.771 3.5343C133.814 3.50324 133.93 2.40863 134.343 3.06233C134.444 3.22329 133.629 6.44198 136.044 4.01264C136.122 3.93435 135.815 3.55349 135.891 3.46696C135.943 3.40832 136.6 3.53334 136.669 3.47323C136.739 3.40891 136.402 2.99321 136.485 2.90332C136.908 2.44025 137.587 4.12469 136.659 4.04396C136.979 4.23933 137.298 4.43475 137.617 4.63021C137.218 3.35455 138.08 4.24009 138.502 4.17735C141.223 3.77538 139.347 3.03278 139.793 2.57216C140.512 1.83269 140.054 4.07719 141.138 3.35207C141.239 3.28439 139.835 2.41691 142.506 2.80608C142.115 2.86363 141.73 2.92089 141.341 2.97836C141.632 4.2175 142.745 2.81737 142.837 2.79494C143.868 2.56788 143.19 3.05609 144.697 2.33023C144.832 2.26511 145.148 2.55809 145.433 2.38859C146.619 1.68973 143.805 2.08832 143.699 1.58613C143.65 1.33965 146.697 1.24158 146.811 1.35403C147.283 1.85309 145.439 1.65685 145.821 2.28715C145.964 2.51015 150.278 1.81042 151.164 2.0182C152.183 2.26005 152.721 3.93347 152.63 2.02685C153.011 3.88334 153.196 2.59383 153.326 2.6001C154.891 2.69356 154.891 2.71255 156.215 2.46556C156.508 2.41163 156.786 2.96676 156.885 2.86561C156.943 2.80463 156.799 2.2028 157.087 2.00028C157.488 1.72272 159.992 2.22315 160.196 2.54978C160.397 2.87638 159.154 2.74805 159.403 3.28918C160.299 3.30013 161.146 3.12075 162.044 3.13438C162.417 3.14171 162.245 3.53773 162.406 3.53743C162.472 3.53886 163.745 3.13445 163.683 2.99464C163.536 2.66928 159.582 3.09004 160.592 2.36149C160.787 2.22066 161.544 3.07577 161.377 1.99836C164.938 2.06677 168.491 2.1387 172.051 2.21313C170.055 3.12143 167.728 2.5085 165.595 2.68969C165.304 2.7134 164.31 2.65773 164.457 3.19924C166.274 3.25146 168.52 2.85564 170.28 3.12792C170.337 3.13701 170.156 3.63882 170.368 3.70662C170.767 3.8331 171.998 2.97843 172.221 3.17333C172.26 3.21935 171.569 3.90264 171.809 4.30412C172.424 5.33441 172.452 2.9854 172.94 2.9897C173.32 2.99383 175.891 4.00584 176.488 3.26042C177.12 2.4659 174.608 2.90627 174.765 2.27385C176.443 1.56553 178.208 2.15244 179.82 1.99825C179.848 1.99492 179.578 1.51791 179.936 1.43253C180.558 1.28398 180.755 1.96942 181.065 2.06598C181.4 2.16852 182.557 2.01478 182.726 2.26019C182.748 2.2924 182.543 2.99098 182.509 3.01199C182.015 3.31908 181.794 2.43515 181.747 2.42586C181.572 2.40014 181.418 2.74991 181.259 2.73697C180.997 2.71525 180.839 2.40576 180.494 2.39402C180.256 2.38474 180.513 2.98121 180.283 2.9642C180.199 2.95548 179.227 1.61163 179.209 3.03102C179.209 3.47748 186.628 3.70498 187.354 3.31465C186.712 3.17374 186.069 3.03297 185.427 2.89222C186.736 3.24661 188.23 2.04439 188.416 3.71259C193.197 3.62948 197.979 3.55029 202.757 3.47403C203.616 3.57857 203.197 4.67465 204.584 4.29929C204.207 3.97284 203.829 3.6464 203.452 3.31999C204.18 3.52819 207.386 3.85623 207.89 3.61173C207.956 3.57971 208.005 2.60238 208.797 2.48358C209.5 2.37854 209.645 3.10272 210.029 3.22574C210.351 3.32701 210.698 3.12027 210.794 3.15638C210.867 3.18543 210.915 3.63006 211.092 3.70016C211.651 3.91641 211.151 2.68051 211.759 4.09822C211.629 4.15899 211.499 4.21977 211.369 4.28055C212.039 4.46006 212.971 5.07481 212.012 5.44061C211.847 5.50374 211.972 5.06602 211.847 5.07226C206.96 5.3682 210.902 6.03433 212.586 5.28903C213.055 5.90881 215.504 5.41022 215.591 5.53262C215.713 5.71006 215.313 6.23943 215.886 6.65626C216.007 6.74448 219.288 6.24219 218.138 7.14368C217.901 7.32963 216.312 7.21477 215.932 7.25654C216.888 8.57196 218.904 6.53896 219.143 6.57838C220.105 6.74782 217.363 7.8326 219.517 7.89609C221.174 7.94469 219.584 7.10786 220.202 6.69396C220.55 6.46166 222.461 7.37666 222.355 6.08834C222.99 5.92253 222.644 6.62225 222.726 6.66794C222.805 6.70777 224.05 6.26639 224.47 6.52059C224.521 6.55226 224.394 7.22986 224.448 7.28251C224.552 7.37213 225.762 7.18503 225.808 7.12606C225.838 7.08522 225.522 6.51058 225.635 6.36295C225.767 6.19267 226.943 6.27986 227.001 6.10916C227.081 5.85136 225.643 6.08155 225.855 5.41433C226.529 5.55065 227.594 5.0652 228.01 4.51738C227.909 4.67324 227.265 4.72305 227.039 4.67952C227.102 3.71309 228.488 3.66583 228.048 4.44775C228.331 4.02579 228.116 3.81784 228.269 3.42461C228.309 3.32494 228.736 3.28616 228.811 3.11603C228.821 3.08238 228.363 2.73872 228.443 2.53951C228.588 2.17951 229.889 2.20239 230 2.29038C230.31 2.53981 229.265 2.90349 229.195 3.31304C229.185 3.37589 230.12 4.13172 230.136 4.20134C230.222 4.95241 229.196 4.45313 229.341 5.12647C229.595 5.25896 229.848 5.39146 230.103 5.52394C229.176 6.2525 227.395 5.97621 226.973 6.77739C228.379 6.48322 229.862 6.44614 229.936 8.20583C229.967 8.94692 229.375 9.40795 229.407 9.59534C229.526 10.2656 230.343 9.49624 230.376 9.53047C230.403 9.57044 230.417 9.60993 230.418 9.64886C230.418 9.64888 230.418 9.64889 230.418 9.64891C230.436 10.0436 229.238 10.3806 229.186 10.5634C229.098 10.888 229.694 12.1824 229.706 12.4739C229.689 12.5333 228.842 12.8827 229.155 13.3787C229.471 13.8796 230.225 13.8581 230.254 13.9104C230.411 14.2115 229.105 14.5492 229.074 14.7325C229.057 14.8251 229.789 15.3581 229.817 15.5193C229.842 15.6812 229.319 16.0595 229.13 16.5822C228.988 16.9705 229.461 17.2429 229.383 17.3062C229.327 17.3483 228.081 17.3961 228.023 17.4658C227.936 17.569 228.248 18.0121 228.21 18.1279C228.157 18.2945 227.748 18.1475 227.808 18.3138C227.852 18.4378 229.479 19.9414 229.488 20.3616C229.501 21.0783 227.779 19.5029 229.438 22.2613C229.449 22.2794 229.814 22.0623 229.826 22.0792C230.079 22.589 228.915 23.4408 230.375 23.2372C227.687 24.2588 230.082 24.3282 229.731 25.5513C229.596 26.0214 228.547 26.2585 228.545 26.3283C228.674 26.9116 228.991 26.4411 229.118 26.7243C229.188 26.8826 228.269 27.5453 228.5 27.9396C228.619 28.1428 229.619 28.025 229.662 28.0638C230.076 28.4291 229.607 28.8625 229.706 29.1304C229.772 29.3101 230.379 29.2982 230.396 29.3303C230.424 29.3974 229.634 30.1695 229.474 30.4358C229.352 30.6406 229.854 30.9313 229.767 31.022C229.242 31.565 228.02 30.2918 229.223 32.0981C229.297 32.2089 229.719 32.1444 229.733 32.1666C230.018 32.6811 229.238 32.7606 229.117 33.1972C228.91 33.9495 230.015 33.487 229.103 34.0494C229.825 34.504 230.215 34.4667 231.03 34.2957C228.774 34.772 228.057 36.7274 230.576 36.5692C229.773 36.5742 229.909 37.6542 229.671 37.6837C229.522 37.7007 228.313 36.6737 228.951 39.0685C229.031 39.3677 229.721 38.9531 229.526 39.581C227.825 39.4971 229.508 39.9759 229.513 40.0576C229.554 41.4828 225.359 40.4968 224.655 40.6903C223.837 40.9147 223.152 42.0691 222.972 42.0784C222.382 42.1047 222.847 41.5134 222.706 41.3096C222.563 41.1079 220.931 42.273 220.845 42.2167C220.509 41.9901 220.81 41.3004 220.774 41.2678C220.353 40.8716 218.121 41.4991 217.483 41.3698C217.522 41.807 218.791 41.7862 218.031 42.5245C217.145 43.3852 217.008 41.4564 216.98 41.3725C212.759 41.5761 208.539 41.7807 204.321 41.9875C204.42 43.0124 207.142 42.1148 207.212 42.2473C207.615 43.0316 202.954 43.2246 202.368 42.8877C202.812 43.0901 203.255 43.2926 203.7 43.4951C203.011 44.7094 201.303 43.2483 200.253 43.8181C199.915 44.0028 200.6 44.4287 200.588 44.4604C200.219 44.9367 199.579 44.6114 200.018 43.9744C199.095 44.6074 199.205 43.95 198.473 43.934C198.436 43.9337 198.77 44.3962 198.202 44.6199C197.936 44.7243 196.494 44.7911 196.32 45.2168C196.249 45.3959 197.064 47.211 197.081 45.6162C198.685 46.3206 197.55 44.8686 198.161 44.8775C198.255 44.8817 198.08 45.7792 199.595 45.2921C199.375 46.9064 197.555 45.7889 197.26 45.9967C196.654 46.4236 199.266 47.134 199.68 45.8646C199.516 47.1241 199.87 46.0248 200.446 46.0503C201.077 46.0778 200.82 46.4622 201.16 46.4489C202.09 46.4165 201.665 45.5517 202.466 46.3125C201.61 43.8843 203.762 45.929 204.392 46.547C203.42 46.7156 202.452 46.8842 201.481 47.053C201.543 47.1797 201.604 47.3065 201.666 47.4333C201.408 47.4265 201.15 47.4197 200.892 47.413C200.928 47.2873 200.963 47.1615 200.999 47.0358C199.709 47.9009 199.347 47.0102 199.238 47.005C197.842 46.9628 196.237 47.0434 194.83 47.1045C194.619 47.1137 194.798 47.9128 193.234 47.3522C192.735 47.1738 193.169 46.5258 192.618 46.6453C192.001 48.3803 191.952 47.0213 191.745 47.0286C191.151 47.0561 190.807 47.4947 190.753 47.5017C190.024 47.6012 188.948 47.5803 188.145 47.6804C188.13 47.6875 188.574 48.1913 188.043 48.0608C187.855 48.0141 186.11 45.8566 184.701 46.6522C185.083 46.7854 185.465 46.9187 185.846 47.0521C185.395 46.8618 182.339 47.5692 183.121 48.1318C183.6 48.4754 184.659 46.983 184.849 48.3617C183.804 47.9946 178.166 48.8823 177.709 48.5823C177.646 48.5393 177.999 48.0722 177.912 48.0188C177.845 47.9781 176.554 48.1465 176.373 47.9823C176.266 47.8847 176.826 47.5819 176.772 47.4223C176.726 47.3088 175.094 47.1943 175.028 47.7618C175.417 47.5166 176.545 47.6603 175.981 48.163C175.908 48.2255 175.499 47.8812 175.411 47.9604C174.593 48.6911 177.129 48.4034 177.521 48.3905C175.96 49.1839 173.452 48.4571 171.621 49.0149C170.85 48.5827 172.696 48.2441 171.83 47.8971C170.037 47.1777 171.395 48.5677 171.343 48.6301C170.932 49.1239 169.324 46.6628 169.417 48.5913C168.767 48.3322 168.96 48.079 168.074 48.3755C168.198 48.5032 168.323 48.6309 168.448 48.7587C167.509 49.9244 165.26 47.2109 165.407 46.9882C165.805 46.3917 166.947 47.2348 167.04 47.2086C167.178 47.1698 167.459 45.1942 169.07 46.869C169.628 45.526 166.617 46.1017 167.952 45.1393C167.031 45.3314 163.15 44.6085 162.628 45.2124C162.566 45.291 162.939 46.5831 161.957 45.9652C161.491 45.6708 162.576 45.6011 162.355 45.3136C161.675 44.4296 153.1 45.4524 151.465 45.5878C151.358 45.5948 151.376 45.187 151.272 45.1962C150.954 45.2241 149.82 45.89 149.237 45.7334C150.465 46.4221 148.157 46.6016 147.568 46.55C146.673 46.471 146.69 45.7541 146.297 45.6226C144.779 45.116 142.581 46.9337 141.339 45.4114C141.482 46.981 139.31 44.7475 138.37 44.7849C137.634 44.8137 136.63 45.9126 137.652 46.4926C136.388 46.4889 135.074 46.8555 133.89 47.0169C133.696 47.0437 133.939 46.5638 133.608 46.6243C133.578 46.6331 133.562 47.0912 133.278 47.1544C130.933 47.6832 132.03 46.6508 131.571 46.3908C131.314 46.2452 131.126 46.1762 130.989 46.1576C132.372 45.9909 133.943 45.7244 134.375 45.6876C133.951 44.7013 131.329 46.0503 130.517 45.8243C130.489 45.816 130.553 45.256 130.525 45.2536C130.525 45.2537 130.524 45.2537 130.523 45.2537C130.224 45.2278 128.354 45.5382 128.779 46.1779C128.894 46.3486 129.756 46.2997 130.785 46.1819C130.512 46.3217 130.756 46.9314 130.708 46.9606C130.127 47.3012 128.639 46.7764 128.114 46.7241C127.994 46.7128 128.025 47.1104 128.005 47.1125C127.528 47.0488 127.658 45.9011 127.239 47.1007C126.303 45.7325 128.831 46.7998 128.604 45.8896C128.539 45.6251 127.726 45.5582 126.738 45.6382C125.122 45.7691 123.028 46.3002 123.079 46.9944C123.053 46.8761 122.97 46.7322 122.807 46.5725C122.446 46.2175 120.937 46.422 120.686 46.6429C120.644 46.6859 120.724 47.768 120.67 47.7812C120.533 47.814 118.63 47.0722 117.976 47.7528C118.358 47.8828 118.741 48.0129 119.122 48.143C116.868 48.2835 117.233 48.5859 118.005 48.8658C118.043 48.8665 118.082 48.9055 118.118 48.9078C118.715 49.1133 119.474 49.3006 119.49 49.3854C119.555 49.7085 115.733 50.1135 116.411 49.0658C116.506 48.9224 118.306 49.2663 117.386 48.6005C117.225 48.4838 116.096 48.7552 116.032 48.6797C115.6 48.1777 118.05 47.3341 117.702 46.6054C117.14 47.3514 116.341 47.0225 115.659 47.2465C115.35 47.3479 115.304 47.8955 115.266 47.908C114.695 48.0837 114.987 47.4953 114.794 47.5209C114.691 47.5368 113.618 48.8158 113.736 47.1327C110.031 48.5847 112.767 48.4213 115.072 48.1916C114.378 48.8427 112.927 48.633 112.29 48.8125C112.062 48.8774 112.232 49.4267 111.85 49.5612C111.065 49.8375 107.194 49.4257 106.188 49.335C106.79 49.1012 106.574 48.5049 106.103 48.5752C105.632 48.6459 106.079 49.4324 105.992 49.525C105.897 49.6211 103.655 49.3723 103.293 49.4997C104.944 49.1054 104.531 48.5227 103.111 48.5449C103.305 48.3581 103.499 48.1714 103.694 47.9846C102.879 48.2797 101.07 47.4624 100.608 47.7665C100.535 47.8152 100.836 48.3078 100.795 48.3352C100.389 48.5769 98.9235 48.1451 98.867 48.3229C98.8193 48.4709 99.457 48.8604 99.2428 49.0843C99.1982 49.1314 98.5665 48.4794 97.9949 48.684C97.7828 48.7595 97.9422 49.2329 97.8896 49.2641C97.4509 49.5234 97.6667 48.6965 96.8489 48.8773C96.25 49.0108 95.848 49.8309 94.9942 49.6199C97.8042 50.4615 95.4698 50.181 94.3371 50.5581C94.1559 50.6183 94.3665 51.4824 93.2395 51.1248C95.4864 49.4003 92.52 50.3308 91.9047 50.3516C91.8706 50.3483 91.8235 49.7728 91.5208 49.7822C91.4953 49.7843 91.5561 50.1715 91.2772 50.2186C88.6289 50.6654 90.306 50.1198 89.7757 49.7672C89.549 49.617 88.2916 50.2479 87.9432 50.283C87.8631 50.2894 87.8748 49.8824 87.5655 49.9176C87.0182 49.9808 86.5526 50.4423 86.1918 50.4991C86.1499 50.5038 86.1065 49.8655 85.4338 50.1154C85.2446 50.1853 85.0423 50.4256 85.3276 50.592C86.2736 51.139 87.9383 49.9862 89.0011 50.5251C89.9717 51.0157 87.0219 51.2511 86.8669 51.2641C86.8105 51.2696 87.3687 50.9166 86.7776 50.8904C86.2723 50.8695 85.4259 52.0295 84.6656 51.836C84.6077 51.8217 83.9529 50.9241 83.977 50.8678C83.9996 50.8264 84.9022 50.5661 84.7523 50.3039C84.7346 50.274 84.1532 50.3167 84.0646 50.1201C83.9562 49.8807 83.5544 47.4899 83.4262 47.4373C83.0976 47.3083 83.3398 47.8441 83.1309 47.8189C82.6829 47.7661 81.101 47.1511 81.1047 47.9883C81.3613 48.0219 81.6168 48.0555 81.8741 48.089C80.4698 48.2635 81.0931 48.5808 80.9033 48.7498C80.6988 48.9325 80.7133 48.1955 80.2334 48.1566C80.1296 48.1479 78.1471 48.4267 78.2024 48.7321C79.2739 48.1728 78.9222 49.1047 78.9741 49.1177C79.1709 49.1645 79.3853 48.6408 79.6447 48.6346C81.4692 48.5994 79.685 49.5173 80.1275 49.6965C80.2797 49.7566 80.5468 49.3042 80.6108 49.3224C80.8191 49.3815 80.8582 49.9494 80.9911 49.8949C81.3014 49.7683 80.8808 48.9877 80.9032 48.9442C81.1549 48.4233 82.3037 48.9795 81.668 49.8977C82.1022 50.1869 82.0854 49.1206 82.4416 49.525C83.15 50.3254 82.1544 50.1709 81.8968 50.3274C80.9769 50.8913 80.6692 50.501 79.3281 50.7258C78.845 50.8057 78.3011 51.3586 78.0769 51.4012C77.9365 51.428 76.4832 49.716 76.6217 52.5306C76.0835 52.2915 75.1476 50.4903 74.615 50.6093C74.137 50.7173 74.3537 51.7023 74.3111 51.7437C74.2452 51.8086 73.6588 51.7671 73.4705 51.9203C73.2502 52.1011 73.3897 52.4734 73.0331 52.6515C72.1456 53.0937 72.1045 52.0768 72.0066 52.0167C70.8685 51.3234 71.4375 52.7374 71.2032 52.8686C70.9827 52.9895 67.8 52.6348 67.1576 53.0431C67.4149 52.8224 67.672 52.6017 67.9291 52.381C67.4052 51.7786 66.9585 52.8446 66.8767 51.7094C66.8956 53.5494 65.8201 52.3876 65.524 52.4542C65.4073 52.4813 65.4366 52.7932 65.2898 52.8161C64.7167 52.908 63.3986 52.743 63.0952 52.9216C61.7838 53.691 65.3222 54.6026 65.5976 54.6538C65.0523 54.6685 61.9889 55.2781 63.4659 56.0681C63.6942 56.19 64.0302 55.3444 64.1514 55.3044C64.9717 55.0395 64.3632 55.817 64.433 55.8827C64.5515 55.9885 65.0544 55.2423 65.2045 55.3177C65.2545 55.3417 64.9866 56.0275 65.7819 55.9905C65.4333 56.661 63.164 56.2789 62.8796 56.4495C62.779 56.5104 63.521 57.8475 61.5242 56.6309C61.5546 56.7576 61.5851 56.8842 61.6155 57.0108C60.555 57.1322 59.4913 57.2539 58.43 57.3755C58.5265 57.073 59.0854 56.4418 58.3413 56.6162C57.9128 56.717 58.2759 57.3534 58.2376 57.375C57.8624 57.5806 50.9574 57.8095 49.6284 57.9701C49.1761 58.0235 47.9444 58.6343 47.8484 58.6504C47.2732 58.741 45.209 58.5308 44.8057 58.6322C44.5541 58.6967 44.8322 59.2301 44.603 59.2193C44.3899 59.2084 44.5743 58.6631 44.51 58.645C43.976 58.4867 40.0723 59.442 39.0992 59.0032C39.6837 59.1157 42.4756 57.8672 42.3931 57.4967C42.3774 57.4462 41.6557 57.0879 41.5251 57.2943C41.258 56.8501 40.536 58.3031 40.0751 58.0573C40.0229 58.0293 40.1687 57.2314 39.3687 57.1408C39.0929 57.11 38.4207 57.7687 37.6586 57.13C36.6419 57.5277 31.1144 56.8694 30.7941 57.7378C30.786 57.783 31.5746 58.0227 31.0776 58.4031C30.417 58.9088 30.9352 57.3181 30.1216 57.2375C29.9992 57.2251 27.7699 57.5299 27.7026 57.6307C27.0815 58.5453 29.0625 58.7685 29.0416 58.8715C28.9903 59.1306 27.3739 59.3921 27.3037 59.3364C27.2367 59.2781 28.4874 58.0379 26.9218 58.5803C27.1136 58.706 27.3053 58.8316 27.4971 58.9573C26.7648 59.2751 26.6409 58.4825 26.4562 58.4458C25.8817 58.3288 25.3513 59.5803 24.3478 58.1443C24.0823 57.7631 24.4503 57.296 24.4164 57.2384C24.0937 56.7231 23.8217 58.1767 23.3189 57.1392C23.2811 57.0619 24.2447 56.3566 22.4866 56.4713C22.6142 56.5655 22.742 56.6597 22.8698 56.754C22.6368 56.9986 20.8672 57.2519 20.624 57.2139C19.9142 57.1025 20.4756 56.3284 19.7783 56.4626C20.296 57.4383 18.1663 57.7112 18.2323 56.8374C18.0059 57.9444 16.1346 57.2261 15.2789 57.2569C14.7389 57.2772 13.672 57.8245 13.4972 57.7803C13.2842 57.7262 13.2983 56.9803 12.9109 56.8401C12.8005 56.8001 11.7158 57.4182 10.6808 56.7158C10.4802 56.5805 9.99644 55.349 10.3299 55.011C10.9009 54.4327 12.1158 55.3701 12.0518 54.6277C11.9819 53.8335 10.4673 54.4091 10.0445 54.3329C8.09218 53.9803 9.14501 53.0614 9.07863 52.8084C8.90928 52.195 7.86109 52.284 7.81357 52.231C7.61559 51.9947 8.32662 51.4531 8.31265 51.0728C8.29341 50.5778 7.22255 49.753 7.44148 49.5712C7.75501 49.3128 8.73402 49.9944 8.7906 49.955C9.526 49.4246 8.39858 48.3527 8.07146 47.8111C7.97214 47.6443 8.30342 47.3375 8.22721 47.2917C7.06411 46.5976 8.09931 48.9118 7.34905 48.8025C6.67966 48.7051 7.47906 47.8984 7.4511 47.8587C7.4155 47.8154 6.62363 47.8269 6.48245 47.5697C6.41277 47.4408 8.36697 45.8453 8.23785 45.1966C7.59304 45.3842 6.94817 45.5719 6.30326 45.7595C6.19531 44.9097 7.17835 45.4753 7.26986 45.3808C7.45414 45.1913 6.87895 44.7959 6.8845 44.5246C6.88569 44.3521 7.4865 43.6974 6.89025 43.4835C6.68529 43.4095 6.30703 44.0355 5.54102 43.4725C8.01377 42.5244 6.23245 42.161 6.13798 41.8637C6.04502 41.5664 7.20305 40.7751 5.74843 40.998C5.57476 39.3419 5.74513 40.4711 6.14146 40.1517C6.62688 39.7591 5.41367 39.2905 7.30236 39.5818C7.1449 38.8115 5.65256 38.9658 5.56922 38.909C5.49709 38.8573 5.80425 38.4529 5.67708 38.3312C4.17491 36.9223 5.18372 37.5443 4.71386 36.612C4.67206 36.5287 3.32303 36.2611 4.32279 36.0544C6.1443 35.6784 6.98591 36.729 7.13847 34.3534C5.71073 33.4207 4.16393 35.0502 3.75235 35.1035C3.12213 35.1826 3.74565 34.6588 3.65875 34.5293C3.62878 34.4876 3.0862 34.5635 3.07634 34.5259C2.56832 32.7555 5.50147 34.3349 6.36747 33.9637C6.11196 33.7105 5.85644 33.4573 5.60092 33.204C5.92265 33.1719 6.24436 33.1397 6.56606 33.1075C4.99414 32.6688 6.49833 32.9064 6.78476 31.4266C6.84905 31.0941 5.87718 31.7215 6.96797 30.7368C6.10506 30.5835 6.35614 30.2684 5.61456 30.7294C5.59572 30.1451 7.28177 29.3727 7.94403 29.0283C5.49056 28.5331 7.00689 30.5802 4.84813 29.5872C4.50965 30.3347 5.49491 30.1281 5.42171 30.2527C5.15917 30.7004 4.4319 30.0654 3.70873 31.6211C3.5911 31.8764 4.20841 32.5973 3.36703 32.6164C3.27389 32.6174 2.69627 32.0046 2.70056 31.9571C2.73772 31.4447 3.27936 31.5998 3.28712 31.3865C3.2943 31.1845 2.71212 31.3443 2.70639 31.2889C2.64602 30.654 3.18268 31.0131 3.0953 30.8189C2.9064 30.3964 0.692587 29.1687 3.48983 29.3856C1.23628 30.2575 3.24185 30.1075 4.11966 29.7717C4.3436 29.6873 4.37623 29.3036 4.69314 29.1501C5.10076 28.9515 5.60321 29.1013 5.81535 29.0172C6.04339 28.9249 4.65909 28.1148 6.59276 28.2556C5.55842 27.427 3.89928 28.4938 2.89997 27.9302C0.883536 26.791 4.145 26.3012 4.47847 26.1557C4.56729 26.1163 4.22805 25.6235 4.28665 25.5881C4.38267 25.5332 6.25992 25.6468 6.41524 25.2101C6.57013 24.7737 5.73475 25.2749 5.64789 24.8363C5.58918 24.541 7.79955 23.8637 6.5705 23.7408C5.72347 23.6569 4.2584 24.9565 3.91294 23.6871C5.13799 23.4987 6.3632 23.3104 7.58812 23.1221C6.88131 22.6773 6.17444 22.2325 5.46752 21.7877C6.84029 21.5406 8.07208 22.014 9.33948 21.226C6.07847 19.8667 10.2815 19.906 10.3146 19.712C10.3225 19.5968 8.99551 18.406 8.78009 18.1863C9.84882 17.6234 13.1776 17.1622 11.1165 15.7197C11.4951 16.0511 12.2975 15.1177 12.2818 15.0523C12.1261 14.365 10.28 14.9399 10.5444 14.2922C10.8507 13.5407 11.4129 14.4954 11.9534 14.3803C14.7268 13.7834 13.7172 10.2082 16.5636 10.5959C16.4992 10.4705 16.4348 10.3451 16.3703 10.2197C19.4363 10.223 22.5012 10.2266 25.5687 10.2304C26.6891 9.04419 29.8256 8.16002 31.3938 8.17983C31.7097 8.18297 33.2929 8.66246 33.4159 8.75671C33.6445 8.93779 32.4629 9.09037 33.0232 9.42122C33.1417 9.48887 35.7706 9.56127 35.5428 8.95403C35.2455 8.90142 34.3497 9.27308 34.1901 9.13697C33.0673 8.16408 41.1802 8.46744 41.5536 8.02164C41.3619 7.8321 41.1701 7.64258 40.9784 7.45305C41.4937 7.51873 42.0087 7.58444 42.5236 7.65018ZM22.4525 58.9473C22.1891 59.5891 21.3946 59.1727 20.9548 59.3771C20.3475 59.6628 19.4459 62.1268 19.7434 59.6973C20.6467 59.4472 21.5498 59.1972 22.4525 58.9473ZM35.8934 58.9903C35.2574 58.6968 35.6455 57.3254 36.1854 57.8494C36.2454 57.909 36.7537 59.3851 35.8934 58.9903ZM29.4165 58.7786C29.4412 58.7592 29.9739 58.7596 29.9938 58.7794C30.5049 59.286 28.8987 59.2816 29.4165 58.7786ZM60.4491 56.0585C59.7767 56.16 60.3451 57.3467 60.7329 56.8182C60.7573 56.7846 60.4934 56.0528 60.4491 56.0585ZM59.9661 56.0573C59.3704 55.0002 58.4547 57.2798 59.2818 57.0027C59.362 56.9749 59.9939 56.1088 59.9661 56.0573ZM33.6706 58.6018C33.7121 58.1791 34.3583 58.3393 34.635 58.4215C34.6528 58.8037 33.9326 58.5376 33.6706 58.6018ZM49.7129 57.433C49.7186 57.1025 47.5197 57.2642 47.3977 57.7073C47.7335 57.5007 49.7071 57.73 49.7129 57.433ZM55.3236 56.6043C55.264 56.5511 54.5091 56.6869 54.5505 56.9755C54.9454 57.3319 55.5917 56.8452 55.3236 56.6043ZM66.5338 55.9001C66.5708 55.8246 65.882 54.0154 67.3099 55.1437C67.5195 55.3088 66.8427 55.8365 66.9173 55.8982C67.0731 56.0179 67.1935 56.0706 67.2878 56.0754C66.6684 56.2687 66.0224 56.3825 65.952 56.2746C65.6222 55.7648 66.5176 55.9317 66.5338 55.9001ZM72.3314 54.1484C72.4417 53.8391 73.2776 53.9475 73.4731 54.0595C73.5069 54.0808 73.4167 54.881 73.7844 54.7982C74.0794 54.7304 73.5825 53.9483 74.1715 54.041C74.7671 54.1339 74.0191 54.7614 74.0732 54.7993C74.1445 54.849 75.0321 54.4272 75.0337 54.9004C75.0346 55.2508 74.0447 55.0767 73.8095 55.1662C73.5076 55.2811 73.9181 55.839 73.3952 55.7468C73.0666 55.6894 73.1809 54.6551 73.1093 54.6078C73.0495 54.5698 71.9548 55.2306 72.3334 54.1515C72.3327 54.1505 72.3321 54.1495 72.3314 54.1484ZM67.4549 56.0193C67.4099 56.0569 67.3555 56.0788 67.2878 56.0754C67.344 56.0579 67.3997 56.0381 67.4549 56.0193ZM24.1971 58.3812C24.5371 58.6755 23.6165 59.1426 23.2302 58.7531C23.202 58.4203 24.143 58.3354 24.1971 58.3812ZM67.9842 55.1491C68.9333 55.3456 68.2701 55.7419 67.4549 56.0193C67.706 55.8099 67.6654 55.0835 67.9842 55.1491ZM41.5251 57.2943C41.5695 57.368 41.6022 57.4852 41.6182 57.6804C41.5008 57.4735 41.484 57.3593 41.5251 57.2943ZM43.7248 57.5002C44.4325 56.8561 42.9169 56.9795 42.9543 57.4048C42.9694 57.5653 43.6965 57.5258 43.7248 57.5002ZM61.3196 56.0606C61.2476 56.0068 62.1913 54.1411 60.7397 55.5891C61.5747 55.7479 60.7209 55.9996 60.7438 56.1561C60.8067 56.6063 62.1577 56.0825 62.4751 56.2584C62.6619 55.4336 61.5573 56.238 61.3213 56.0605C61.3207 56.0606 61.3201 56.0606 61.3196 56.0606ZM82.9609 53.9136C82.8041 54.3996 82.1989 54.2844 81.7989 54.2816C81.9549 53.7955 82.5587 53.9108 82.9609 53.9136ZM187.542 48.2362C184.824 48.8025 184.377 46.8859 186.921 47.5332C186.971 47.5469 187.7 48.0325 187.542 48.2362ZM164.004 48.8653C163.705 48.0356 164.549 47.8577 165.129 48.1777C165.26 48.2497 165.772 49.0797 165.244 49.2733C165.209 48.2512 164.362 47.9023 164.004 48.8653ZM68.4768 54.5762C68.7126 53.9973 69.5736 54.3435 70.0187 54.3997C69.7799 54.8791 68.8776 54.7269 68.4768 54.5762ZM178.488 47.6513C178.196 47.6012 178.035 48.3437 178.088 48.4023C178.325 48.6714 178.838 48.0529 178.488 47.6513ZM65.7721 54.6621C65.7124 54.329 66.7976 53.9351 66.9288 54.7596C66.6872 54.7149 65.8132 54.8708 65.7721 54.6621ZM82.1895 53.7092C82.0066 53.5494 82.879 53.188 83.1589 53.3404C83.1597 53.6988 82.3094 53.813 82.1895 53.7092ZM173.851 48.123C173.589 48.0718 172.942 48.0837 172.885 48.3835C172.814 48.7582 173.755 48.5861 173.851 48.123ZM222.008 45.2906C222.046 45.4223 221.085 46.4259 220.628 46.2025C219.761 45.7749 221.968 45.1981 222.008 45.2906ZM181.204 47.1436C182.055 47.8022 181.115 47.1698 181.186 47.9023C181.737 47.9027 183.105 47.8746 182.132 47.197C181.942 47.066 181.463 47.179 181.204 47.1436ZM180.441 46.9335C180.365 47.1755 179.813 47.9531 180.318 47.8753C180.552 47.8382 180.891 46.9872 180.441 46.9335ZM215.805 45.8894C215.044 45.2715 218.419 45.4728 218.521 45.5824C218.574 45.6403 218.61 45.6956 218.631 45.7427C218.746 45.5313 219.379 45.4664 219.475 45.9842C219.283 45.9496 218.765 46.0182 218.702 45.963C218.675 45.9396 218.655 45.9174 218.641 45.8945C218.436 46.3567 215.951 46.0064 215.805 45.8894ZM210.21 45.4658C211.006 44.4697 211.227 46.0936 211.157 46.1493C210.274 46.8569 210.816 45.6282 210.785 45.5731C210.717 45.4822 210.094 46.0688 210.213 45.4657C210.212 45.4657 210.211 45.4658 210.21 45.4658ZM214.653 45.6713C214.686 45.6486 215.392 45.668 215.422 45.6925C216.023 46.2151 214.025 46.1624 214.653 45.6713ZM76.6939 52.727C77.2069 52.8571 76.7517 53.4875 76.4038 53.2932C76.3749 53.2737 76.2412 52.6121 76.6939 52.727ZM180.047 47.1141C179.926 47.0061 176.92 46.7209 177.145 47.6182C177.39 47.4992 180.807 47.8041 180.047 47.1141ZM157.754 47.9883C158.278 47.9686 157.751 48.8519 157.454 48.5478C157.345 48.4348 157.622 47.9938 157.754 47.9883ZM64.23 53.9832C63.7134 54.4873 63.7253 52.9069 64.2339 53.4157C64.2539 53.4356 64.2502 53.9635 64.23 53.9832ZM161.977 48.2671C160.193 48.8758 160.479 46.1463 162.888 46.942C162.82 47.0663 162.753 47.1906 162.685 47.315C165.425 47.5853 162.882 47.4963 162.221 47.6815C161.971 47.7519 162.206 48.1933 161.979 48.2702C161.979 48.2692 161.978 48.2681 161.977 48.2671ZM154.987 48.0781C153.142 46.246 156.544 47.3258 157.484 47.0271C156.599 47.8679 155.386 47.8096 157.068 48.5383C154.677 48.8182 155.635 48.0017 155.537 47.9429C155.42 47.8774 155.066 48.1568 154.987 48.0781ZM159.593 47.8302C159.691 47.769 160.471 48.1219 160.741 48.0443C160.392 48.7201 158.942 48.2454 159.593 47.8302ZM204.398 46.1711C204.438 45.6536 204.578 45.2676 205.188 45.4331C205.014 45.7 204.639 45.9395 204.398 46.1711ZM21.6951 56.2806C21.2786 56.2711 20.441 56.1321 20.7297 56.6557C20.7604 56.7 21.714 56.584 21.6951 56.2806ZM171.363 47.1133C171.274 47.0542 168.999 47.1228 169.812 47.6522C170.058 47.8117 172.119 47.6384 171.363 47.1133ZM183.147 46.6149C182.956 46.6184 182.187 46.7518 182.176 46.8743C182.144 47.2974 183.083 47.0215 183.147 46.6149ZM19.5706 55.8928C19.5126 55.8431 18.253 56.0214 18.4088 56.2616C18.704 56.7157 19.7699 56.0641 19.5706 55.8928ZM78.4471 51.407C78.5517 51.3813 78.7269 51.9309 78.7639 51.9348C78.8509 51.9373 80.7713 51.6005 80.0777 52.3641C79.9624 52.4919 77.1609 52.3924 76.7961 52.3445C76.6079 51.5868 77.8413 52.2409 78.1247 52.1438C78.1748 52.1256 78.167 51.4821 78.4464 51.4103C78.4467 51.4092 78.4469 51.4081 78.4471 51.407ZM207.507 45.4885C207.571 44.9968 209.833 44.5728 209.832 45.1652C209.057 45.2729 208.282 45.3807 207.507 45.4885ZM206.347 45.4592C205.846 45.1357 206.978 44.9709 207.32 45.1082C207.339 45.4363 206.42 45.5065 206.347 45.4592ZM178.749 44.9961C178.526 45.1263 179.263 45.8046 179.112 45.9505C179.016 46.0414 178.492 45.7989 178.34 46.0293C178.297 46.1022 178.85 46.7465 178.999 46.7104C179.212 46.6617 178.979 46.145 179.212 46.1303C179.987 46.0822 180.69 46.4253 181.416 46.3822C181.482 46.3773 180.955 46.0295 181.515 46.0083C181.602 46.0043 182.148 46.5336 182.814 46.42C184.21 44.6355 185.378 46.2686 187.223 45.5631C187.145 45.4048 185.722 45.0369 185.639 45.0248C184.054 44.8158 181.243 44.917 179.603 44.9912C179.182 45.0097 179.403 45.363 179.223 45.3849C179.079 45.4016 179.218 44.7213 178.749 44.9961ZM21.8905 55.8948C21.6487 55.2372 20.9844 55.7075 20.5398 55.7022C20.7355 56.2968 21.4485 55.7748 21.8905 55.8948ZM196.108 45.398C195.888 45.434 195.192 45.263 195.144 45.4678C195.083 45.7351 196.082 45.8565 196.108 45.398ZM89.3604 50.9144C89.3803 50.8948 89.9151 50.8977 89.9369 50.9175C90.4462 51.4264 88.8422 51.4152 89.3604 50.9144ZM102.107 50.2617C102.507 50.1544 102.901 49.9201 103.07 50.4562C102.808 50.3884 102.083 50.6437 102.107 50.2617ZM119.669 49.2033C119.544 48.4952 120.788 48.8864 121.021 48.9371C120.955 49.2589 119.76 49.7134 119.669 49.2033ZM204.21 43.9354C204.956 43.9443 204.751 42.8706 205.245 43.3387C205.326 43.4179 205.676 45.6571 204.82 44.8504C204.666 44.7055 205.218 44.1449 204.21 43.9354ZM163.273 46.9454C163.439 46.4641 164.036 46.5747 164.435 46.5927C164.364 46.9477 163.556 46.8976 163.273 46.9454ZM17.2496 55.5052C16.8565 54.8628 15.276 55.4635 15.7043 55.8767C15.765 55.9303 17.0217 55.495 17.2496 55.5052ZM70.2281 52.3053C70.8572 51.7388 69.475 51.6641 69.0747 52.2039C69.2688 52.1578 70.1858 52.3426 70.2281 52.3053ZM115.429 49.0617C115.46 49.0384 116.163 49.0479 116.197 49.0718C116.804 49.5857 114.812 49.5618 115.429 49.0617ZM97.8657 49.6513C98.0934 49.2043 99.7792 49.4509 100.177 49.8603C99.8584 50.5128 97.5847 50.2093 97.8657 49.6513ZM201.162 44.3796C201.692 44.3334 202.201 44.4438 202.697 44.6086C202.611 44.9767 201.23 44.6486 201.162 44.3796ZM118.005 48.8658C118.043 48.8665 118.082 48.9055 118.118 48.9078C118.08 48.8946 118.042 48.8792 118.005 48.8658ZM189.272 44.6651C188.821 44.5421 188.944 45.2039 188.972 45.223C189.317 45.4233 189.782 44.8039 189.272 44.6651ZM21.3168 54.9407C21.1229 54.3505 20.4053 54.8657 19.9652 54.7514C20.1216 55.2173 20.9743 55.0266 21.3168 54.9407ZM153.056 46.9435C152.466 46.3207 154.69 45.4468 155.194 45.8421C155.246 46.2429 153.144 47.0283 153.056 46.9435ZM68.1133 51.5361C68.0387 51.0684 67.1203 51.6974 67.3374 51.9067C67.475 52.04 68.1588 51.8267 68.1133 51.5361ZM156.351 46.0581C156.557 45.9035 157.077 46.3428 156.916 46.6349C156.711 47.0094 156.298 46.1021 156.351 46.0581ZM175.47 44.7318C175.374 44.6643 174.14 45.2082 174.682 45.6636C175.059 45.9801 175.083 45.2965 175.168 45.2904C175.263 45.288 177.318 46.0245 175.47 44.7318ZM140.326 47.2058C140.787 46.9993 141.371 47.1785 141.867 47.1388C141.68 47.4409 140.546 47.5817 140.326 47.2058ZM71.7849 51.1751C71.6573 50.9921 68.5162 51.0777 70.3328 51.5498C70.4393 51.5762 72.1714 51.7291 71.7849 51.1751ZM204.21 43.9354C204.116 43.9342 204.007 43.9166 203.879 43.8757C204.004 43.8884 204.114 43.9155 204.21 43.9354ZM195.756 44.245C195.912 43.8943 195.045 43.8419 194.798 44.036C194.739 44.4585 195.735 44.294 195.756 44.245ZM141.879 46.6587C142.154 46.4472 142.683 46.6287 143.035 46.5869C142.992 46.9087 142.02 46.9757 141.879 46.6587ZM121.834 47.4159C122.41 47.5726 123.1 47.4457 123.088 47.0554C123.104 47.1156 123.135 47.1787 123.184 47.2411C123.234 47.3028 123.832 47.0867 124.104 47.2046C125.725 47.9039 118.038 48.019 122.419 46.6629C122.224 46.9139 122.029 47.1649 121.834 47.4159ZM95.5588 48.8722C95.2082 48.4176 94.3428 49.0674 94.5884 49.2397C94.7595 49.3576 95.9102 49.3298 95.5588 48.8722ZM107.92 47.8409C107.819 47.762 106.96 48.1467 106.952 48.3979C107.474 48.6308 108.38 48.208 107.92 47.8409ZM93.0494 48.4691C92.8435 48.41 92.6334 49.1906 92.6591 49.2225C92.8813 49.489 93.4142 48.874 93.0494 48.4691ZM202.576 41.9425C202.265 41.7368 201.331 42.3338 201.145 42.8487C201.101 42.7527 200.991 42.6299 200.792 42.4856C200.792 42.4856 200.793 42.4856 200.794 42.4856C200.525 42.2925 192.764 42.4207 198.007 43.1585C198.171 43.1823 197.928 42.7387 198.594 42.7887C198.639 42.7925 198.677 43.162 198.813 43.1739C199.126 43.1989 200.793 43.3574 201.113 43.0444C201.119 43.1129 201.143 43.1773 201.192 43.2351C201.625 43.751 202.817 42.101 202.576 41.9425ZM109.66 47.669C109.475 47.5424 108.921 47.7061 108.883 48.0362C109.171 48.1796 110.091 47.9645 109.66 47.669ZM71.6023 49.8415C71.2241 49.5959 70.3402 50.1565 70.634 50.4057C70.8145 50.559 72.0384 50.1233 71.6023 49.8415ZM104.058 48.1798C106.148 48.4414 104.549 48.1189 104.836 47.6208C104.575 47.8072 104.317 47.9935 104.058 48.1798ZM212.221 42.754C211.886 42.6583 212.232 41.6953 212.619 42.1925C212.74 42.3505 212.409 42.8058 212.221 42.754ZM227.138 41.806C226.819 40.9795 228.22 41.4123 227.707 42.0111C227.683 42.0316 227.16 41.837 227.138 41.806ZM216.689 41.9195C216.49 42.5005 216.347 42.5746 215.708 42.4613C216.637 42.2593 215.747 41.7923 216.689 41.9195ZM123.079 46.9944C123.084 47.0172 123.088 47.0341 123.088 47.0554C123.083 47.0346 123.08 47.0149 123.079 46.9944ZM91.1152 48.7377C90.8263 48.2704 90.1017 48.351 90.3483 48.8241C90.3721 48.8679 91.0312 49.1014 91.1152 48.7377ZM201.145 42.8487C201.183 42.9338 201.168 42.9906 201.113 43.0444C201.107 42.9799 201.119 42.9182 201.145 42.8487ZM94.988 48.1034C94.9844 48.4656 96.0972 48.5381 96.1386 48.493C96.7334 47.8288 95.4432 48.0536 94.988 48.1034ZM64.2619 49.8026C64.2073 49.8439 64.6347 50.751 64.8366 50.3719C64.9928 50.0777 64.4662 49.6457 64.2619 49.8026ZM218.826 41.5927C219.176 41.578 219.67 41.5559 219.78 41.9945C219.542 41.9369 218.833 41.9178 218.826 41.5927ZM226.572 41.2219C226.18 41.7603 225.233 41.8001 224.625 41.7407C224.584 41.0563 226.19 41.3999 226.572 41.2219ZM203.537 42.1553C203.507 42.1287 202.62 41.9637 202.76 42.4167C202.966 43.0811 203.796 42.3935 203.537 42.1553ZM65.9968 50.1871C66.3685 49.8466 65.4043 48.9353 65.0384 49.7106C64.8506 50.1076 65.9342 50.2442 65.9968 50.1871ZM88.8086 48.2455C88.3085 48.5427 89.6172 48.9353 89.7685 48.4452C89.5262 48.4217 88.9867 48.1403 88.8086 48.2455ZM106.392 46.6847C104.677 45.4014 105.717 47.868 105.994 47.629C106.033 47.5949 106.434 46.7148 106.392 46.6847ZM13.0128 53.0142C12.7943 53.2214 13.7026 53.8592 13.7838 53.3942C13.8337 53.1033 13.1526 52.8821 13.0128 53.0142ZM130.989 46.1576C130.921 46.1658 130.852 46.1742 130.785 46.1819C130.834 46.1565 130.901 46.1455 130.989 46.1576ZM83.9937 46.6887C85.2637 48.5668 85.0486 47.0715 85.1489 47.0734C85.3651 47.081 85.8999 47.5769 86.3017 47.4649C85.8489 47.7136 85.3969 47.9622 84.9462 48.2108C85.319 48.3287 88.5646 48.847 88.6093 48.5269C88.6772 48.0707 87.6816 48.2744 87.6497 48.2366C87.604 48.1827 87.369 46.9405 87.2728 46.8987C87.1144 46.8321 84.4402 46.9731 83.9937 46.6887ZM102.995 47.1065C103.266 47.2395 103.37 47.731 103.485 47.6051C103.524 47.562 103.502 47.0885 103.636 46.9575C103.422 47.0072 103.208 47.0568 102.995 47.1065ZM82.0453 48.571C81.6834 48.0133 83.1572 48.1412 83.2077 48.203C83.4819 48.5792 82.3414 49.0265 82.0453 48.571ZM94.4103 47.7176C94.3553 47.6871 93.2224 47.5757 93.2517 47.8959C93.5634 48.1222 95.0662 48.1012 94.4103 47.7176ZM103.809 46.9147C104.204 46.9462 104.975 47.378 104.848 46.6706C104.847 46.6706 104.847 46.6706 104.846 46.6707C104.498 46.7521 104.155 46.8333 103.809 46.9147ZM67.2449 48.5965C66.4423 47.5088 66.8802 48.9201 67.5496 49.2447C67.7126 48.7229 67.3764 48.7734 67.2449 48.5965ZM64.8571 47.9004C64.6417 47.7092 62.5644 48.0675 62.9221 48.6473C63.0495 48.8539 64.2174 48.237 64.2753 48.2749C64.3632 48.3311 64.0225 49.0198 64.6551 48.847C64.6031 48.6244 64.9309 47.9641 64.8571 47.9004ZM66.5942 47.9088C65.8129 47.0926 65.7531 48.6943 66.2982 48.6637C66.5117 48.6528 66.7057 48.0267 66.5942 47.9088ZM69.5627 47.8549C69.2927 47.7207 68.5848 47.5449 68.1399 48.1048C68.7834 48.109 69.4261 48.1133 70.0687 48.1176C70.1232 47.8131 69.7989 47.973 69.5609 47.8551C69.5615 47.855 69.5621 47.855 69.5627 47.8549ZM230.758 36.9499C230.161 36.5233 231.483 36.2922 231.544 36.4007C231.727 36.7619 231.024 37.1404 230.758 36.9499ZM7.55202 38.8584C7.37994 38.6892 7.23597 38.1044 6.90406 38.4378C7.28762 38.8511 7.67116 39.2644 8.05468 39.6777C8.26375 38.6585 7.74023 39.0452 7.55202 38.8584ZM5.95529 35.2911C6.00377 35.2636 5.62798 33.7426 6.34328 34.7272C6.82657 35.392 4.49386 36.226 4.0195 35.572C4.47259 35.2234 5.53722 35.5174 5.95529 35.2911ZM1.3485 28.9053C1.31294 28.7844 2.20423 28.5444 2.31453 28.6239C2.89378 29.0436 1.54048 29.553 1.3485 28.9053ZM4.24948 29.0077C3.80605 28.7369 4.73161 28.482 5.02278 28.6354C5.06892 28.9201 4.31777 29.0469 4.24948 29.0077ZM223.941 14.8849C223.436 13.8576 223.124 16.1302 223.811 15.6451C223.844 15.6222 223.963 14.9354 223.941 14.8849ZM2.12845 27.2941C2.5719 27.5648 1.64628 27.8198 1.35519 27.6664C1.31018 27.3819 2.06105 27.2546 2.12845 27.2941ZM223.509 12.404C222.867 11.6769 223.192 14.197 223.272 14.2956C223.604 14.6845 224.637 13.6447 224.845 13.3884C223.252 13.8382 223.812 12.7466 223.509 12.404ZM220.764 14.0457C220.21 14.3403 221.678 14.7933 221.923 14.0761C221.643 14.1221 220.921 13.9607 220.764 14.0457ZM217.295 13.3848C216.987 13.3075 216.073 13.1302 215.939 13.5349C216.268 13.4483 217.185 13.7999 217.295 13.3848ZM216.554 12.2224C216.055 11.7024 216.01 13.2831 216.538 12.7898C216.558 12.7707 216.573 12.2517 216.554 12.2224ZM213.856 11.7709C213.517 11.158 213.228 12.6996 213.735 12.7185C213.886 12.7213 213.893 11.8413 213.856 11.7709ZM222.627 9.71602C222.169 9.46643 221.641 10.5843 222.6 10.6627C222.272 10.8443 221.945 11.0259 221.617 11.2075C222.893 11.7655 222.735 10.2541 223.096 10.3011C223.601 10.3682 223.616 11.6205 223.533 12.0176C223.911 11.2335 225.654 11.1452 226.657 10.9553C225.756 10.6724 224.295 10.1776 223.41 10.0121C223.158 9.96406 222.93 10.3176 222.716 10.2885C222.371 10.2401 222.653 9.73304 222.629 9.71594C222.628 9.71597 222.628 9.71599 222.627 9.71602ZM210.341 11.9031C209.393 11.2338 210.041 12.7407 210.547 12.4445C210.568 12.4225 210.365 11.9194 210.341 11.9031ZM0.605941 22.7233C1.87124 23.2819 1.03873 24.1888 3.51128 22.7314C2.49712 23.7143 3.49537 23.3909 3.31001 23.7725C3.16105 24.0745 2.51449 23.8755 2.91993 24.4371C2.39582 23.8314 0.31585 24.1466 0.215728 24.0493C0.216605 24.0492 0.217482 24.0492 0.218359 24.0491C0.158278 23.9915 0.202232 22.5457 0.605941 22.7233ZM217.115 9.37741C216.728 7.53128 216.737 10.488 216.069 8.9732C215.366 11.2463 218.28 8.8766 218.727 10.751C215.447 10.6745 220.969 12.5296 218.563 9.79973C220.488 10.7445 219.164 9.42232 219.438 9.04906C219.732 8.65139 220.814 9.02231 220.73 8.33204C220.729 8.33206 220.729 8.33209 220.728 8.33211C220.079 8.40902 219.431 8.48595 218.782 8.56289C219.485 10.0292 218.136 9.63931 217.631 8.44166C217.459 8.75358 217.287 9.06549 217.115 9.37741ZM220.859 10.619C220.793 10.5875 219.387 10.8588 219.492 11.1547C219.689 11.3377 221.687 11.0206 220.859 10.619ZM227.071 10.0209C226.562 10.0394 225.764 9.78217 225.512 10.3576C226.02 10.3392 226.819 10.5967 227.071 10.0209ZM200.9 11.0666C200.273 11.5579 202.273 11.6055 201.672 11.0838C201.642 11.0593 200.931 11.0435 200.9 11.0666ZM215.654 9.72318C214.971 9.18379 215.361 10.979 215.829 10.4862C215.856 10.4572 215.686 9.74776 215.654 9.72318ZM1.58228 22.438C1.59687 21.9924 3.3917 22.1855 3.70591 22.1608C3.55457 22.5841 1.56554 22.9487 1.58228 22.438ZM227.892 8.32401C226.813 6.77443 225.52 8.6749 225.369 8.64122C225.217 8.60675 225.421 7.89993 225.387 7.88273C225.307 7.84705 223.718 7.97492 223.642 8.02679C223.589 8.06701 223.92 9.03334 223.604 9.35606C224.221 8.77182 227.148 8.99291 227.295 8.87784C227.408 8.78612 226.481 7.79657 227.89 8.32409C227.891 8.32406 227.892 8.32403 227.892 8.32401ZM224.983 8.44429C225.399 8.83729 224.286 8.93728 224.009 8.79762C223.395 8.48494 224.93 8.39789 224.983 8.44429ZM222.283 8.18324C222.152 8.09677 220.998 8.06338 220.92 8.52447C221.49 9.09328 222.582 8.38507 222.283 8.18324ZM209.485 8.80644C209.188 8.87817 208.351 8.5635 208.321 8.96476C208.618 8.89328 209.455 9.2077 209.485 8.80644ZM7.40486 18.5564C6.88727 18.2557 8.02605 18.0432 8.37182 18.181C8.4076 18.4457 7.4489 18.5823 7.40486 18.5564ZM215.375 5.91123C215.193 5.79753 211.596 6.25915 211.098 6.46851C211.607 6.74843 215.185 6.61434 215.341 6.45996C215.387 6.41377 215.399 5.92934 215.375 5.91123ZM223.172 5.38561C223.478 4.78335 223.724 5.47894 223.766 5.48597C224.179 5.55808 225.022 5.38857 224.86 5.96283C224.129 5.76585 222.564 6.58168 223.172 5.38561ZM209.11 6.15798C207.894 6.43034 210.276 6.9455 209.94 6.34475C209.919 6.30848 209.236 6.12947 209.11 6.15798ZM215.771 5.72225C216.021 5.23534 219.649 5.4869 220.228 5.46234C219.748 6.36112 219.3 5.71397 218.605 5.78915C218.417 5.81047 218.483 6.17275 218.463 6.1742C218.138 6.20535 218.364 5.77373 218.162 5.77613C218.036 5.77876 215.42 6.40813 215.771 5.72225ZM223.343 4.97015C223.531 4.62433 225.777 4.38249 225.872 4.46808C226.579 5.10454 223.524 5.07977 223.343 4.97015ZM215.406 4.9579C215.749 3.92267 217.572 4.52595 216.367 5.08734C216.252 5.13865 215.736 4.71905 215.406 4.9579ZM209.198 5.18265C209.137 5.15535 207.849 5.00842 207.841 5.33339C208.031 5.45107 209.9 5.48161 209.198 5.18265ZM209.813 4.05777C209.782 4.0669 210.11 4.6776 209.507 4.62501C209.456 4.61978 209.332 3.92189 208.59 4.2122C208.439 4.27189 208.223 4.74677 208.241 4.77488C209.075 5.84175 211.344 3.62752 209.813 4.05777ZM223.36 4.39953C223.225 4.10851 223.48 3.21624 223.764 3.65011C223.885 3.83748 223.697 4.37452 223.36 4.39953ZM205.131 5.078C205.851 4.51157 203.513 4.51456 203.4 4.65642C203.491 4.98527 205.059 5.13341 205.131 5.078ZM8.29228 14.3671C8.2917 14.3671 8.29111 14.3672 8.29053 14.3672C8.92242 14.4465 8.56539 14.9153 8.59554 14.9273C9.96756 15.49 9.54846 14.5097 9.74839 14.3774C10.1769 14.0917 10.1861 15.3171 10.904 14.7612C9.71144 15.5909 10.8213 15.2026 10.8853 15.6345C11.1421 17.3974 9.17641 14.9144 8.58153 15.327C8.49864 15.3842 9.17342 15.9075 8.96297 16.083C8.27851 16.6521 5.86801 14.0643 8.29228 14.3671ZM223.964 3.56366C224.231 3.02983 226.451 3.43954 225.887 3.89431C225.796 3.96723 223.571 4.34189 223.964 3.56366ZM121.033 7.83279C121.537 7.35166 120.279 6.89216 120.073 7.25603C119.971 7.43726 120.811 8.04395 121.033 7.83279ZM112.317 6.40431C111.694 6.53274 111.141 8.4513 111.907 8.11355C111.988 8.07677 112.405 6.66078 112.317 6.40431ZM153.717 5.09372C153.024 4.45555 153.127 5.70202 153.609 5.6596C153.78 5.64483 153.738 5.11392 153.717 5.09372ZM128.629 6.59904C128.56 6.55918 127.804 6.68147 127.849 6.96674C128.135 7.1233 129.074 6.87421 128.629 6.59904ZM153.916 4.90532C153.538 5.15032 154.256 6.01888 154.687 5.1121C154.449 5.19683 153.955 4.88027 153.916 4.90532ZM213.929 2.25738C213.626 2.78451 212.698 2.67006 212.173 2.7815C212.087 2.1196 213.557 2.39443 213.929 2.25738ZM115.033 7.00357C114.464 7.50626 115.763 7.81488 115.61 7.20325C115.592 7.17059 115.055 6.98224 115.033 7.00357ZM174.911 3.79876C174.498 4.21568 175.896 4.68296 175.485 4.00453C175.465 3.97701 174.934 3.77558 174.911 3.79876ZM180.926 3.7436C180.592 3.62531 179.191 3.73256 179.755 4.09342C179.843 4.14881 180.919 4.10769 180.926 3.7436ZM9.75353 13.8973C9.53197 13.2273 10.5663 13.3217 10.7207 13.4311C10.7815 13.4768 10.0424 14.7689 9.75353 13.8973ZM149.439 5.20768C149.101 5.31082 148.215 5.1944 148.078 5.56047C148.49 5.46463 149.587 5.91489 149.439 5.20768ZM117.748 6.84256C117.183 6.13166 116.305 6.25604 116.579 7.21168C117.553 7.09005 116.405 6.34848 117.748 6.84256ZM156.064 3.99564C155.788 3.95298 155.628 4.89383 155.661 4.9361C155.976 5.33811 156.355 4.34376 156.064 3.99564ZM135.631 5.8397C135.592 5.44314 134.729 5.67126 134.86 5.92072C134.902 6.00454 135.661 6.1607 135.631 5.8397ZM202.491 2.53714C202.074 2.19204 203.281 1.7826 203.661 2.19027C203.863 2.79302 202.543 2.57656 202.491 2.53714ZM163.643 3.84847C163.655 3.25637 162.301 3.65801 162.865 4.12026C163.007 4.2359 163.639 4.04645 163.643 3.84847ZM176.691 2.50588C175.808 3.25298 179.678 3.57015 178.626 2.74119C178.552 2.68204 176.768 2.44258 176.691 2.50588ZM182.995 2.64919C182.833 2.57906 182.82 0.592424 183.51 1.32652C183.601 1.42168 183.223 1.96461 183.299 2.08122C183.344 2.14758 184.779 2.35983 184.842 2.31054C184.91 2.25471 184.798 1.62301 184.866 1.5484C184.942 1.46498 185.843 1.98267 186.303 1.9675C187.168 1.93795 187.237 1.4047 187.307 1.39967C187.514 1.38663 187.878 1.74623 188.296 1.72651C190.405 1.62497 193.61 1.02946 195.331 2.07552C193.825 1.6924 192.426 2.23499 190.955 2.44964C191.338 1.32551 188.816 3.40027 190.285 2.05608C189.592 2.36426 183.527 2.8664 182.997 2.64911C182.996 2.64914 182.996 2.64917 182.995 2.64919ZM109.799 5.99541C110.144 5.29603 108.174 5.56537 108.052 6.35823C108.321 6.45123 109.755 6.07493 109.799 5.99541ZM118.859 3.81016C119.037 3.68275 119.136 2.34993 120.139 2.96526C120.14 2.96521 120.141 2.96516 120.142 2.96511C120.435 3.14481 120.133 3.48554 120.191 3.59742C120.212 3.64321 121.129 4.25074 120.405 4.39843C119.301 4.62476 120.244 3.42047 119.649 3.44063C119.576 3.44369 118.491 4.22455 118.566 4.37795C118.573 4.39587 118.904 4.22485 118.964 4.28695C119.189 4.5203 119.11 4.93926 119.141 4.9572C119.243 5.00181 120.977 4.19616 121.275 4.7957C121.366 4.98913 118.477 5.6139 118.355 5.51779C118.279 5.45704 118.243 4.30882 118.162 4.20039C118.121 4.14637 116.964 4.64438 116.808 4.54772C116.762 4.5198 116.726 4.4889 116.7 4.46326C116.898 4.80763 115.834 4.84383 115.843 4.44177C115.853 4.28338 116.59 4.3319 116.617 4.35789C116.629 4.36887 116.64 4.38433 116.65 4.39486C116.47 3.97149 118.96 3.84698 118.385 3.23478C119.085 2.8408 118.338 4.18439 118.859 3.81016ZM122.278 2.90437C122.211 3.02919 122.143 3.15401 122.076 3.27884C122.77 3.07401 123.539 3.13846 124.333 3.22066C124.968 3.2855 125.618 3.3615 126.26 3.32344C126.628 3.30249 126.163 2.58887 126.657 2.76324C127.052 2.903 127.517 3.56309 127.316 3.72737C127.267 3.76827 126.456 3.36691 126.064 3.43489C124.907 3.63597 125.236 4.25186 125.169 4.27276C125.118 4.28814 124.739 4.10016 124.377 3.9968C124.217 3.95057 124.06 3.9212 123.937 3.9343C122.937 4.0425 122.501 4.45681 121.095 4.02837C121.866 3.56611 121.379 2.68554 122.278 2.90437ZM169.326 1.77509C169.355 1.37452 170.198 1.6877 170.495 1.61471C170.467 2.01618 169.624 1.70193 169.326 1.77509ZM46.5696 8.42656C46.3601 9.09584 48.2606 9.13431 47.7271 8.62342C47.6087 8.51003 46.8076 8.4157 46.5696 8.42656ZM55.0931 8.27142C55.3343 8.07454 54.2857 7.67041 54.3202 8.1756C54.3323 8.33753 55.0621 8.297 55.0931 8.27142ZM138.606 2.64261C138.653 2.61955 139.362 2.72726 139.385 2.75933C139.886 3.42803 137.564 3.15121 138.606 2.64261ZM65.3767 6.80207C64.5219 7.28648 67.189 7.30205 66.3428 6.80832C66.3008 6.78431 65.4179 6.77854 65.3767 6.80207ZM69.0615 6.44673C68.8515 6.48313 67.8975 6.33064 67.8977 6.53069C67.8996 6.85329 68.99 7.00426 69.0615 6.44673ZM156.124 1.5179C155.984 0.786863 157.258 1.28121 157.684 1.16674C157.824 1.89826 156.553 1.40286 156.124 1.5179ZM148.252 1.37903C153.464 0.52655 152.389 2.15901 147.959 1.7539C147.928 1.28196 147.924 1.43281 148.252 1.37903ZM154.966 1.12009C154.8 1.60141 154.199 1.49191 153.795 1.47474C153.85 1.1431 154.682 1.21959 154.966 1.12009ZM44.2513 7.56318C44.5401 6.94646 46.0376 7.58574 45.7959 7.84811C45.7395 7.90503 44.1525 7.89839 44.2513 7.56318ZM139.012 1.98895C138.852 1.27959 140.444 1.48683 140.572 1.63946C141.092 2.25286 139.133 1.82391 139.012 1.98895ZM163.529 0.514748C163.78 -0.0599098 164.583 0.189529 165.09 0.172022C164.883 0.662951 163.961 0.503448 163.529 0.514748ZM159.843 0.25799C159.874 0.234846 160.586 0.249983 160.618 0.274233C161.226 0.792942 159.215 0.753078 159.843 0.25799ZM7.07029 9.0436C7.09252 9.02398 7.62825 9.02431 7.64826 9.04414C8.16001 9.5505 6.55202 9.54682 7.07029 9.0436Z" fill="#F6B254"/>
</svg>
