<svg preserveAspectRatio="none" width="349" height="51" viewBox="0 0 349 51" fill="none" xmlns="http://www.w3.org/2000/svg">
<path d="M27.5368 1.95696C27.7519 2.01803 28.6152 1.86255 28.9892 1.88689C28.5621 1.23173 26.7608 1.73514 27.5368 1.95696ZM66.1717 49.4817C65.8603 49.321 65.5488 49.1603 65.2373 48.9996C66.1196 48.8889 67.3048 49.0012 68.1239 48.8421C68.2578 48.8154 67.9071 48.347 68.2244 48.3241C68.5417 48.3014 68.4843 48.9447 68.9462 49.0108C69.4647 49.0829 71.8312 48.6208 72.6508 48.6267C75.7208 48.6515 78.8135 48.9995 81.8909 48.7127C78.7109 48.2573 81.9097 47.7528 82.7998 47.9532C82.997 47.9996 82.9736 49.1953 86.155 48.8735C88.1798 48.6691 86.2986 46.9727 89.682 47.8062C87.0927 49.0191 89.6475 48.9183 91.6809 48.9441C92.0326 48.9488 94.8693 48.7497 96.1204 48.7937C96.5488 48.8091 97.2051 49.4307 97.7731 49.443C98.165 49.4511 98.4589 49.1067 99.0404 49.1199C101.751 49.1776 104.411 49.1846 107.125 49.0483C105.528 47.4513 108.364 48.3531 108.49 48.2751C109.132 47.8334 106.21 47.7313 107.363 47.4493C108.977 47.4868 110.595 47.5242 112.211 47.5612C110.887 47.7693 113.978 48.9023 114.539 48.3712C114.299 49.7953 121.889 47.0735 123.057 47.5378C123.299 47.636 121.726 48.3524 125.388 47.9992C125.785 47.96 125.631 47.5324 125.839 47.5706C125.964 47.5935 126.728 48.9503 127.527 48.1898C127.818 47.9121 125.931 47.0337 130.063 47.3565C128.432 48.7592 135.791 48.0557 137.142 47.6944C136.873 47.8834 136.605 48.0724 136.336 48.2614C137.67 47.7457 137.915 48.2152 138.216 48.1866C139.429 48.0716 141.102 47.5797 142.234 47.6118C143.56 47.6484 143.569 48.5114 145.113 48.16C144.747 48.3541 144.383 48.5483 144.019 48.7424C145.083 48.6857 146.156 48.6289 147.222 48.572C144.737 47.4552 147.756 48.512 147.953 48.5344C148.269 48.5727 147.811 48.1098 148.34 48.1625C148.394 48.1715 148.32 48.6128 149.134 48.6537C150.831 48.7376 150.56 48.1866 151.275 48.1852C151.34 48.1874 151.116 48.5866 152.351 48.6672C156.275 48.9232 152.329 48.3634 152.177 48.3101C151.979 48.2399 153.307 46.5676 149.979 47.1911C151.095 46.9921 151.202 46.2571 151.327 46.2375C151.439 46.2214 153.378 46.3038 153.485 46.3278C154.44 46.5666 153.608 47.0771 153.794 47.1649C153.948 47.2357 156.267 46.5566 156.836 48.0584C157.94 46.6548 156.174 46.8023 154.305 46.609C154.03 46.3265 156.078 46.0263 156.187 46.0258C158.845 45.9985 157.387 47.1592 157.976 47.884C158.285 48.2633 159.357 47.4703 158.371 48.5077C160.78 48.5884 159.313 48.0106 159.467 47.9209C159.701 47.7889 160.545 48.0732 160.65 48.0328C160.804 47.9731 160.263 47.6241 160.87 47.4919C160.972 47.4725 161.96 48.0724 160.698 48.3792C162.385 48.2727 162.259 48.7954 162.821 47.7383C164.013 49.7116 163.654 46.5536 164.113 46.4368C165.331 46.1287 164.995 47.6931 165.061 47.7684C165.51 48.2508 168.886 47.6735 169.729 47.8876C169.386 46.7681 167.039 47.9087 166.516 47.697C164.757 46.993 168.978 47.1049 167.688 45.7085C168.228 46.0897 168.768 46.4709 169.307 46.852C170.274 45.9319 168.882 45.5536 171.517 45.8521C171.958 46.6303 169.656 45.7518 170.123 46.3632C170.399 46.7221 171.925 46.7806 171.957 46.9712C171.99 47.2007 170.609 46.9457 170.83 47.2965C171.311 48.0539 176.341 47.2625 172.499 46.8955C173.567 46.8948 174.103 45.3699 175.036 45.8307C175.639 46.1297 172.295 48.2703 177.348 47.8192C177.446 47.1011 175.324 47.6343 175.267 47.5805C175.188 47.5021 175.553 45.8798 175.618 45.7991C175.849 45.5336 181.03 46.3302 182.109 45.5021C181.689 46.443 186.015 45.6141 186.493 45.8917C186.62 45.9685 186.158 46.5478 186.293 46.6065C186.936 46.8718 188.394 46.3241 189.514 46.0286C189.869 45.9358 190.19 45.8678 190.442 45.8577C191.623 45.8101 191.48 46.3067 191.546 46.3048C192.064 46.2694 191.645 45.9405 191.962 45.9366C192.443 45.9311 195.719 45.8121 195.892 45.8792C195.941 45.9002 195.411 46.4735 196.132 46.5694C196.256 46.586 196.17 45.9177 198.297 46.1733C200.856 46.4804 196.536 47.0343 197.608 47.7187C199.235 46.6941 199.196 47.6843 199.639 47.5995C199.791 47.5688 200.927 46.7089 202.177 46.7416C201.28 46.6197 200.375 46.4979 199.484 46.3756C200.353 46.2141 202.077 46.3686 202.797 46.1899C203.15 46.103 202.847 45.4167 203.615 45.4226C203.777 45.4276 204.453 47.1008 202.428 46.3785C202.277 46.9824 203.229 46.5751 203.675 46.7378C203.743 46.7631 204.024 47.7632 204.58 47.1295C204.715 46.9734 203.177 44.0689 207.041 46.1246C207.165 46.1909 206.743 46.5652 206.865 46.6392C206.948 46.6893 207.923 46.5241 208.032 46.5743C208.143 46.6283 207.678 47.037 207.811 47.1135C208.492 47.5081 209.348 45.9041 207.962 46.049C208.423 45.8447 208.883 45.6403 209.343 45.4359C208.868 46.642 210.076 45.7602 210.716 45.7858C214.842 45.9487 212.096 46.7763 212.812 47.1667C213.962 47.7933 213.057 45.7597 214.755 46.3451C214.912 46.3997 212.888 47.3068 216.862 46.7435C216.269 46.7205 215.685 46.6972 215.097 46.674C215.413 45.5097 217.22 46.7148 217.36 46.7284C218.931 46.8585 217.865 46.4607 220.199 47.0137C220.407 47.0634 220.853 46.7691 221.298 46.9033C223.146 47.456 218.882 47.3053 218.772 47.7762C218.722 48.0072 223.307 47.863 223.466 47.7505C224.127 47.2541 221.377 47.5773 221.89 46.9669C222.084 46.7505 228.629 47.0619 229.94 46.8013C231.447 46.4992 232.093 44.9152 232.14 46.6793C232.534 44.9388 232.936 46.1128 233.13 46.0969C235.472 45.8887 235.47 45.8712 237.482 45.9953C237.928 46.0221 238.292 45.4887 238.451 45.5742C238.543 45.6258 238.384 46.1918 238.835 46.3559C239.464 46.5803 243.177 45.9226 243.452 45.6055C243.724 45.2887 241.87 45.5046 242.192 44.9864C243.536 44.9059 244.826 45.0045 246.173 44.9212C246.732 44.885 246.437 44.5336 246.678 44.5212C246.778 44.5147 248.729 44.7868 248.648 44.9206C248.458 45.2322 242.479 45.156 244.066 45.7478C244.373 45.8622 245.428 45.0146 245.279 46.0206C250.621 45.6771 255.951 45.3289 261.293 44.976C258.208 44.2984 254.77 45.0484 251.549 45.0504C251.109 45.0516 249.622 45.1815 249.792 44.6708C252.517 44.479 255.927 44.6655 258.546 44.2743C258.63 44.2614 258.31 43.8134 258.624 43.734C259.21 43.5857 261.141 44.2751 261.457 44.0777C261.511 44.0322 260.409 43.4577 260.731 43.0686C261.558 42.0701 261.822 44.2324 262.555 44.1894C263.125 44.1553 266.893 43.0169 267.86 43.6558C268.883 44.3373 265.068 44.1329 265.364 44.703C267.951 45.2214 270.548 44.5388 272.984 44.551C273.027 44.5518 272.665 45.0132 273.211 45.063C274.159 45.1498 274.391 44.5023 274.849 44.3883C275.342 44.2668 277.095 44.3151 277.326 44.0753C277.355 44.0439 276.983 43.4166 276.929 43.4001C276.158 43.157 275.909 43.9893 275.839 44.0017C275.579 44.0395 275.315 43.7296 275.077 43.7543C274.686 43.7955 274.477 44.0934 273.96 44.1321C273.602 44.1598 273.934 43.5894 273.59 43.6236C273.464 43.6385 272.13 44.955 271.97 43.6485C271.927 43.2377 283.055 42.4287 284.183 42.7289C283.231 42.9108 282.277 43.0927 281.325 43.2744C283.259 42.8419 285.617 43.8283 285.741 42.276C292.934 41.9643 300.129 41.6464 307.319 41.3243C308.6 41.1575 307.869 40.182 309.989 40.4138C309.452 40.7457 308.915 41.0775 308.377 41.4092C309.453 41.1576 314.242 40.5917 315.023 40.7754C315.124 40.7995 315.289 41.696 316.491 41.7402C317.557 41.7791 317.709 41.0998 318.274 40.9549C318.748 40.835 319.29 40.9969 319.43 40.9557C319.538 40.9229 319.57 40.5092 319.829 40.43C320.649 40.1847 320.012 41.3647 320.795 40.0083C320.594 39.963 320.393 39.9177 320.192 39.8724C321.183 39.6517 322.529 39.0083 321.052 38.7505C320.798 38.7059 321.026 39.099 320.838 39.1035C313.462 39.2337 319.328 38.295 321.93 38.8427C322.577 38.233 326.305 38.4902 326.426 38.3702C326.593 38.1966 325.943 37.7419 326.766 37.3105C326.939 37.2193 331.92 37.4108 330.108 36.6752C329.734 36.5235 327.355 36.7607 326.78 36.7536C328.097 35.4625 331.316 37.1691 331.671 37.113C333.103 36.8773 328.879 36.1045 332.113 35.8679C334.6 35.6861 332.286 36.5887 333.254 36.9189C333.798 37.1042 336.589 36.1029 336.546 37.2989C337.517 37.3991 336.933 36.7829 337.051 36.7341C337.167 36.6908 339.08 36.9945 339.689 36.7254C339.763 36.692 339.51 36.0782 339.586 36.0252C339.734 35.9341 341.571 36.0063 341.646 36.0568C341.694 36.092 341.272 36.6476 341.455 36.7743C341.669 36.9203 343.431 36.7425 343.532 36.895C343.676 37.126 341.493 37.0329 341.873 37.6301C342.874 37.4488 344.521 37.8078 345.197 38.2781C345.031 38.1429 344.057 38.1504 343.721 38.2092C343.905 39.0945 345.994 39.0232 345.26 38.3392C345.724 38.7046 345.42 38.914 345.686 39.2636C345.756 39.3522 346.402 39.3525 346.53 39.5031C346.547 39.5333 345.891 39.8878 346.029 40.0648C346.28 40.3845 348.235 40.2556 348.393 40.1654C348.837 39.9099 347.233 39.6613 347.089 39.2898C347.068 39.2327 348.405 38.4588 348.424 38.3933C348.484 37.6941 346.987 38.2391 347.142 37.6067C347.512 37.4636 347.882 37.3205 348.252 37.1774C346.792 36.5828 344.138 36.9849 343.43 36.2816C345.571 36.4363 347.806 36.3476 347.755 34.72C347.734 34.0346 346.801 33.6588 346.832 33.4835C346.95 32.856 348.249 33.4973 348.295 33.4631C348.333 33.4239 348.35 33.3864 348.349 33.3504C348.349 33.3504 348.349 33.3504 348.349 33.3504C348.338 32.9852 346.507 32.7739 346.411 32.6098C346.249 32.318 347.026 31.076 347.017 30.8064C346.987 30.753 345.681 30.5013 346.106 30.0184C346.535 29.5305 347.672 29.4879 347.71 29.4374C347.919 29.1469 345.924 28.9439 345.86 28.7776C345.826 28.6936 346.879 28.1419 346.906 27.9911C346.928 27.8398 346.107 27.5345 345.774 27.0686C345.526 26.7225 346.212 26.4324 346.089 26.3805C346 26.3463 344.123 26.4055 344.029 26.3461C343.889 26.2582 344.317 25.8241 344.25 25.7205C344.154 25.5714 343.553 25.7407 343.627 25.5825C343.683 25.4645 345.992 23.9444 345.966 23.5565C345.921 22.895 343.474 24.4893 345.717 21.8102C345.733 21.7926 346.302 21.9624 346.317 21.9459C346.652 21.4552 344.822 20.7667 347.037 20.8334C342.901 20.1146 346.497 19.8523 345.857 18.7544C345.61 18.3324 344.011 18.2008 344.002 18.1367C344.141 17.5885 344.661 17.9959 344.826 17.7244C344.917 17.5727 343.475 17.0382 343.785 16.6558C343.945 16.4587 345.461 16.4843 345.523 16.445C346.112 16.0741 345.366 15.7137 345.491 15.4586C345.573 15.2875 346.487 15.2483 346.51 15.2173C346.547 15.1531 345.286 14.5071 345.021 14.275C344.82 14.0964 345.549 13.787 345.409 13.7105C344.57 13.2537 342.848 14.5281 344.492 12.7641C344.593 12.6559 345.234 12.6803 345.253 12.6588C345.634 12.1611 344.454 12.1524 344.232 11.7601C343.851 11.0841 345.556 11.4188 344.133 10.976C345.177 10.4973 345.767 10.4994 347.009 10.5895C343.572 10.3375 342.313 8.59511 346.118 8.53222C344.908 8.59417 345.014 7.58771 344.653 7.58032C344.428 7.57688 342.703 8.62337 343.444 6.36387C343.537 6.08161 344.612 6.40647 344.262 5.84403C341.71 6.06229 344.197 5.48169 344.198 5.40602C344.129 4.08938 337.909 5.34526 336.831 5.22527C335.58 5.08619 334.444 4.07916 334.173 4.08548C333.283 4.11012 334.037 4.61645 333.843 4.81587C333.647 5.0136 331.084 4.07506 330.96 4.13407C330.475 4.37064 330.991 4.98128 330.941 5.01425C330.344 5.41415 326.928 5.02052 325.98 5.19234C325.998 4.7863 327.909 4.70057 326.697 4.08317C325.286 3.36329 325.256 5.15187 325.222 5.2315C318.852 5.39272 312.483 5.55208 306.116 5.70807C306.17 4.75559 310.35 5.35884 310.443 5.23102C310.978 4.47518 303.945 4.68048 303.094 5.03893C303.743 4.81594 304.392 4.59296 305.042 4.36988C303.894 3.30758 301.458 4.79398 299.824 4.35494C299.298 4.21255 300.29 3.76392 300.269 3.73567C299.669 3.32709 298.737 3.6792 299.456 4.23017C298.008 3.72255 298.234 4.31932 297.134 4.39388C297.078 4.39729 297.539 3.94377 296.663 3.78412C296.252 3.70973 294.076 3.76597 293.775 3.38792C293.651 3.22871 294.709 1.48959 294.883 2.9577C297.233 2.1775 295.658 3.60829 296.577 3.55004C296.718 3.53856 296.372 2.72582 298.697 3.05072C298.217 1.58118 295.58 2.75986 295.117 2.59248C294.165 2.24869 298.031 1.38054 298.773 2.51614C298.409 1.36902 299.044 2.35301 299.908 2.2823C300.855 2.20532 300.432 1.87218 300.945 1.85653C302.348 1.81019 301.789 2.64183 302.925 1.87503C301.86 4.18279 304.911 2.12215 305.801 1.50096C304.323 1.4254 302.85 1.34953 301.373 1.27357C301.454 1.15172 301.535 1.02986 301.616 0.908002C301.229 0.935387 300.841 0.962758 300.453 0.990119C300.519 1.10306 300.584 1.216 300.649 1.32893C298.628 0.637491 298.164 1.48785 298.001 1.50155C295.903 1.65477 293.479 1.71173 291.356 1.77015C291.038 1.77887 291.233 1.02798 288.931 1.67199C288.196 1.87708 288.909 2.43879 288.068 2.37359C286.978 0.825132 287.03 2.08139 286.718 2.09148C285.822 2.11447 285.262 1.73825 285.18 1.73625C284.074 1.70382 282.456 1.8105 281.238 1.78336C281.215 1.778 281.835 1.27776 281.049 1.44112C280.77 1.49942 278.343 3.62897 276.148 3.00976C276.71 2.85607 277.273 2.70235 277.835 2.5486C277.173 2.76062 272.505 2.35556 273.629 1.77403C274.319 1.41866 276.053 2.70831 276.21 1.42256C274.672 1.8456 266.098 1.4816 265.437 1.79442C265.346 1.83911 265.922 2.24116 265.796 2.29737C265.699 2.34028 263.739 2.28867 263.482 2.45447C263.329 2.553 264.202 2.7871 264.135 2.93852C264.076 3.0468 261.631 3.28298 261.478 2.76526C262.085 2.96019 263.771 2.73739 262.874 2.31933C262.759 2.26752 262.176 2.61755 262.035 2.55163C260.734 1.9438 264.581 2.0059 265.173 1.98625C262.747 1.38046 259.037 2.25082 256.227 1.88261C255.106 2.34233 257.92 2.5072 256.648 2.89603C254.015 3.70176 255.929 2.31266 255.845 2.2594C255.179 1.8371 252.991 4.23281 252.948 2.44829C251.993 2.73872 252.308 2.95673 250.946 2.75383C251.12 2.62625 251.297 2.49862 251.473 2.371C249.947 1.37137 246.819 4.04982 247.061 4.24343C247.716 4.76169 249.357 3.8943 249.499 3.91109C249.711 3.93586 250.322 5.73417 252.589 4.06293C253.557 5.25628 248.968 4.96469 251.068 5.74565C249.664 5.64185 243.889 6.61469 243.045 6.09911C242.943 6.03165 243.382 4.81155 241.962 5.4583C241.288 5.76622 242.929 5.74504 242.623 6.02742C241.684 6.89655 228.674 6.62482 226.197 6.62572C226.036 6.62753 226.102 7.00196 225.944 7.0016C225.462 7.00058 223.692 6.47465 222.827 6.66409C224.611 5.93438 221.118 5.94736 220.235 6.0403C218.895 6.18204 218.99 6.8414 218.412 6.9928C216.175 7.57662 212.687 6.06981 210.964 7.56762C211.027 6.11009 207.974 8.33427 206.555 8.37112C205.444 8.40057 203.825 7.46396 205.307 6.85185C203.403 6.95118 201.389 6.71277 199.589 6.65342C199.294 6.64334 199.707 7.06734 199.203 7.03655C199.157 7.03064 199.087 6.60972 198.654 6.57278C195.071 6.26208 196.824 7.13089 196.159 7.40514C195.785 7.55867 195.509 7.63642 195.305 7.6638C197.404 7.71359 199.797 7.84061 200.45 7.84191C199.909 8.78301 195.828 7.73727 194.626 8.00641C194.585 8.01617 194.738 8.52749 194.695 8.53179C194.695 8.5318 194.694 8.53182 194.693 8.53183C194.244 8.57832 191.398 8.4322 191.974 7.81086C192.131 7.64484 193.435 7.62538 194.995 7.65669C194.57 7.54839 194.877 6.96817 194.802 6.94479C193.894 6.67456 191.704 7.2697 190.918 7.35721C190.739 7.37652 190.747 7.00772 190.717 7.00728C190.005 7.1017 190.313 8.14982 189.564 7.07537C188.289 8.40639 191.991 7.23386 191.74 8.0896C191.668 8.338 190.453 8.46049 188.958 8.46081C186.511 8.4612 183.301 8.12706 183.31 7.48299C183.283 7.59391 183.172 7.73267 182.942 7.89196C182.434 8.246 180.141 8.16925 179.741 7.98418C179.674 7.94762 179.687 6.94431 179.604 6.93618C179.394 6.91609 176.603 7.74027 175.55 7.16108C176.113 7.01307 176.676 6.86501 177.238 6.71691C173.829 6.75353 174.349 6.4478 175.483 6.13302C175.54 6.12957 175.595 6.09076 175.649 6.08597C176.527 5.85261 177.651 5.62395 177.667 5.54462C177.733 5.24222 171.936 5.15012 173.062 6.06592C173.22 6.19116 175.896 5.74177 174.577 6.42309C174.347 6.54249 172.62 6.37533 172.53 6.44965C171.93 6.9441 175.704 7.54154 175.252 8.23881C174.332 7.59259 173.161 7.95454 172.112 7.798C171.637 7.72726 171.513 7.22589 171.455 7.21716C170.577 7.09703 171.075 7.61799 170.782 7.60856C170.626 7.60152 168.882 6.5011 169.228 8.04388C163.504 6.97634 167.641 6.92722 171.133 6.96999C170.024 6.42068 167.86 6.72019 166.883 6.60131C166.534 6.5581 166.734 6.0394 166.145 5.94332C164.936 5.74611 159.149 6.40731 157.644 6.56374C158.572 6.73558 158.308 7.30093 157.592 7.27021C156.876 7.2392 157.469 6.48192 157.328 6.40281C157.176 6.32111 153.826 6.71277 153.268 6.62148C155.793 6.86554 155.231 7.43255 153.09 7.51475C153.402 7.67286 153.713 7.83096 154.024 7.98905C152.769 7.77598 150.128 8.65982 149.401 8.41287C149.287 8.37318 149.691 7.89739 149.626 7.87509C148.989 7.68159 146.828 8.18504 146.725 8.02519C146.638 7.89217 147.559 7.48731 147.213 7.29629C147.141 7.25606 146.257 7.9026 145.376 7.75496C145.049 7.70067 145.241 7.2528 145.158 7.22778C144.472 7.02031 144.88 7.76707 143.631 7.65907C142.716 7.57902 142.028 6.85184 140.764 7.10749C144.908 6.13035 141.423 6.5562 139.679 6.28966C139.401 6.24713 139.63 5.43548 137.97 5.84569C141.527 7.2748 136.968 6.62919 136.039 6.65382C135.988 6.65927 135.976 7.19322 135.519 7.2061C135.481 7.20599 135.533 6.84475 135.108 6.82116C131.077 6.59814 133.657 6.98149 132.894 7.34437C132.569 7.49902 130.612 7.00686 130.084 6.99929C129.963 6.99912 130.022 7.37344 129.553 7.36302C128.723 7.3436 127.975 6.95122 127.426 6.92446C127.362 6.92318 127.362 7.51467 126.324 7.33201C126.032 7.28096 125.703 7.07384 126.116 6.90016C127.484 6.32887 130.107 7.27332 131.651 6.70083C133.062 6.17953 128.598 6.17239 128.364 6.17135C128.278 6.17026 129.154 6.45609 128.268 6.52215C127.509 6.57733 126.117 5.56811 124.992 5.80036C124.907 5.81762 124.013 6.69154 124.055 6.74168C124.093 6.77826 125.478 6.95422 125.279 7.20659C125.256 7.23536 124.377 7.23721 124.263 7.4248C124.125 7.65318 123.765 9.88562 123.577 9.94313C123.096 10.0854 123.405 9.57426 123.094 9.61231C122.425 9.69269 120.107 10.3716 120.027 9.59947C120.41 9.5504 120.791 9.50132 121.175 9.45221C119.044 9.39072 119.949 9.05413 119.646 8.91176C119.32 8.75771 119.417 9.43611 118.699 9.50588C118.544 9.52127 115.532 9.40419 115.584 9.11871C117.253 9.55871 116.629 8.72439 116.705 8.70878C116.997 8.65172 117.373 9.11946 117.764 9.10685C120.513 9.01038 117.734 8.29028 118.382 8.0938C118.605 8.02764 119.053 8.42583 119.147 8.40447C119.455 8.33534 119.455 7.80899 119.661 7.84985C120.141 7.94462 119.588 8.69403 119.626 8.73247C120.058 9.19496 121.73 8.60091 120.679 7.79942C121.303 7.5021 121.387 8.48628 121.882 8.08832C122.866 7.30027 121.383 7.51318 120.98 7.38712C119.538 6.93229 119.114 7.31389 117.073 7.20133C116.338 7.16173 115.463 6.6904 115.121 6.6669C114.907 6.65215 112.896 8.33282 112.815 5.72829C112.03 5.98662 110.807 7.71295 109.993 7.64076C109.262 7.57482 109.487 6.65145 109.419 6.61634C109.313 6.56114 108.435 6.64055 108.136 6.51259C107.786 6.3614 107.957 6.00831 107.402 5.86917C106.021 5.52387 106.064 6.46425 105.923 6.52645C104.282 7.24546 104.993 5.90203 104.626 5.79744C104.282 5.70154 99.5296 6.25148 98.521 5.91993C98.9308 6.10542 99.3405 6.29089 99.7501 6.47636C99.0238 7.06839 98.2419 6.11691 98.2358 7.16918C98.0746 5.47154 96.576 6.61774 96.1237 6.57702C95.9453 6.56021 95.9573 6.27064 95.734 6.25973C94.8621 6.21513 92.8959 6.4592 92.4209 6.31566C90.3683 5.69783 95.5983 4.61056 96.0075 4.54402C95.1854 4.56869 90.513 4.22036 92.6538 3.38895C92.9848 3.26067 93.5777 4.01679 93.7641 4.04526C95.0258 4.23223 94.0299 3.55788 94.1283 3.49241C94.2956 3.38666 95.1294 4.03943 95.3475 3.95945C95.4202 3.93379 94.9462 3.32025 96.1468 3.29882C95.553 2.70505 92.1778 3.2157 91.7322 3.07824C91.5746 3.02914 92.5529 1.74468 89.674 3.00549C89.7067 2.88662 89.7394 2.76777 89.7721 2.64891C88.1637 2.61091 86.5506 2.57278 84.9411 2.53445C85.1176 2.80663 86.0238 3.3497 84.8862 3.24066C84.2311 3.17753 84.7115 2.56558 84.6516 2.5483C84.0657 2.38508 73.6528 2.65334 71.6367 2.597C70.9508 2.57911 69.0343 2.10126 68.8881 2.09302C68.0133 2.04928 64.9297 2.38579 64.3123 2.32022C63.9273 2.27813 64.2902 1.7671 63.9465 1.79295C63.6271 1.81769 63.961 2.30766 63.8662 2.32878C63.0792 2.51171 57.1074 1.90036 55.6891 2.37201C56.5567 2.228 60.8865 3.18642 60.8009 3.53371C60.7824 3.58138 59.734 3.96152 59.5162 3.78026C59.1605 4.20816 57.9234 2.91841 57.2555 3.17682C57.1799 3.20616 57.4822 3.93184 56.2882 4.0705C55.8764 4.1179 54.7967 3.55692 53.7168 4.19834C52.146 3.90183 43.9 4.88915 43.3279 4.11049C43.311 4.06932 44.4723 3.79412 43.685 3.47754C42.6387 3.05673 43.5837 4.48775 42.3685 4.61798C42.1857 4.63781 38.8006 4.51007 38.689 4.42174C37.6596 3.62115 40.616 3.27919 40.5738 3.18573C40.4697 2.95037 38.0112 2.82034 37.9114 2.87648C37.8166 2.93484 39.827 3.99234 37.4156 3.59983C37.691 3.4708 37.9663 3.34177 38.2417 3.21275C37.1072 2.97006 37.0033 3.70934 36.7293 3.75588C35.8774 3.90313 34.9493 2.78572 33.5895 4.17865C33.23 4.54831 33.8321 4.95372 33.7871 5.00911C33.3555 5.50638 32.7948 4.18482 32.1468 5.17593C32.098 5.24985 33.6207 5.83396 30.9645 5.84886C31.1466 5.75323 31.3291 5.6576 31.5115 5.56197C31.1356 5.35242 28.4476 5.24026 28.0858 5.29203C27.0299 5.44339 27.9548 6.11867 26.8922 6.04271C27.569 5.1076 24.3376 5.00206 24.5279 5.80321C24.0721 4.79807 21.3326 5.58872 20.0425 5.61895C19.2283 5.63728 17.5667 5.20579 17.3083 5.25846C16.9937 5.32301 17.0927 6.00976 16.5247 6.16553C16.3628 6.20996 14.6671 5.71444 13.1839 6.43302C12.8963 6.57149 12.2972 7.74011 12.8339 8.02885C13.753 8.52296 15.4822 7.57542 15.4634 8.26431C15.4411 9.00128 13.1034 8.57442 12.4755 8.67363C9.57629 9.13247 11.2555 9.90764 11.182 10.1454C10.9913 10.7226 9.40573 10.7124 9.33981 10.7645C9.06673 10.9959 10.1925 11.4465 10.2111 11.7981C10.2338 12.2559 8.70951 13.0896 9.0577 13.2423C9.55614 13.4591 10.9573 12.7635 11.0465 12.796C12.2077 13.2346 10.6241 14.3001 10.1887 14.822C10.0567 14.9825 10.5869 15.2427 10.4771 15.2901C8.80039 16.0098 10.1157 13.8051 8.9989 13.9574C8.00243 14.0931 9.2887 14.782 9.25079 14.8205C9.20178 14.8629 8.00977 14.9065 7.82431 15.1534C7.73297 15.277 10.8381 16.6142 10.7116 17.2211C9.72236 17.0923 8.73304 16.9635 7.74366 16.8347C7.66997 17.6256 9.08926 17.0368 9.23673 17.1176C9.53362 17.2797 8.70989 17.6837 8.74654 17.9335C8.76632 18.0924 9.73812 18.6549 8.86378 18.893C8.56329 18.9752 7.92918 18.424 6.83597 18.9955C10.6534 19.7002 8.01255 20.1573 7.90149 20.4379C7.79272 20.7184 9.61668 21.3687 7.40601 21.2628C7.31761 22.8017 7.45601 21.7489 8.08532 22.0162C8.85623 22.3449 7.08071 22.86 9.89049 22.4621C9.73406 23.1831 7.47382 23.1431 7.35442 23.2011C7.25135 23.2537 7.75544 23.6056 7.57689 23.7265C5.46495 25.1284 6.91708 24.4859 6.30777 25.3776C6.2536 25.4572 4.25289 25.7964 5.77787 25.9185C8.5562 26.1404 9.71221 25.1141 10.1894 27.2939C8.13972 28.2517 5.64373 26.8552 5.01926 26.8343C4.0633 26.8046 5.05556 27.2448 4.93839 27.3701C4.89768 27.4106 4.07385 27.3778 4.06295 27.4132C3.4837 29.0803 7.72969 27.4232 9.07065 27.7061C8.71284 27.957 8.35502 28.208 7.9972 28.459C8.48434 28.4666 8.97147 28.4742 9.45859 28.4818C7.14057 28.994 9.37772 28.6719 9.9628 30.0167C10.0942 30.3189 8.56726 29.807 10.3103 30.6401C9.02864 30.8406 9.43907 31.1139 8.27584 30.7397C8.30844 31.2797 10.9244 31.8763 11.9562 32.1485C8.31847 32.7731 10.3851 30.7818 7.24247 31.8453C6.65551 31.1793 8.15863 31.3022 8.03557 31.1924C7.59407 30.7976 6.56668 31.4329 5.31692 30.0481C5.11341 29.8207 5.96649 29.1137 4.69927 29.1538C4.55911 29.1593 3.75442 29.7638 3.76583 29.8073C3.87516 30.2772 4.67347 30.0971 4.70741 30.2933C4.73927 30.479 3.84714 30.3715 3.84431 30.4231C3.81975 31.0125 4.58931 30.6447 4.47817 30.8298C4.23818 31.2322 1.03722 32.5159 5.22096 32.1242C1.74122 31.4747 4.77275 31.4756 6.12777 31.7251C6.47333 31.7876 6.56243 32.1391 7.055 32.2589C7.68867 32.4141 8.42859 32.2415 8.75637 32.3046C9.1089 32.3741 7.11179 33.2158 10.0048 32.9535C8.53589 33.7883 5.9297 32.9185 4.48577 33.5066C1.57239 34.695 6.52792 34.9232 7.04455 35.0345C7.18221 35.0647 6.72348 35.5423 6.81529 35.571C6.9654 35.6149 9.77645 35.3816 10.0556 35.7737C10.334 36.1654 9.02553 35.7605 8.94066 36.1709C8.88317 36.4471 12.2776 36.9202 10.4423 37.1177C9.17734 37.2531 6.8387 36.1552 6.45164 37.3493C8.31344 37.439 10.1755 37.5287 12.037 37.6184C11.0206 38.077 10.004 38.5355 8.98742 38.994C11.0774 39.1278 12.8803 38.6069 14.8683 39.2467C10.1065 40.7233 16.4224 40.3991 16.4925 40.5757C16.5163 40.6814 14.6452 41.8703 14.3441 42.0875C16.0099 42.5333 21.0633 42.7304 18.1145 44.2017C18.6493 43.8701 19.953 44.6757 19.9362 44.7371C19.7739 45.3815 16.9381 44.978 17.4031 45.557C17.9421 46.2289 18.6879 45.3102 19.5126 45.3792C23.7449 45.7394 22.5995 49.105 26.8388 48.5523C26.755 48.6723 26.6712 48.7924 26.5874 48.9124C31.1968 48.6991 35.8045 48.4854 40.4157 48.271C42.2236 49.2877 47.0308 49.8872 49.3862 49.761C49.8608 49.7364 52.1909 49.1852 52.366 49.0899C52.6909 48.9072 50.8987 48.8479 51.7066 48.5043C51.8778 48.4337 55.8222 48.1858 55.5429 48.7614C55.1014 48.8304 53.7162 48.5495 53.4904 48.6859C51.9037 49.6604 64.0678 48.8212 64.6751 49.2062C64.4066 49.3942 64.1381 49.5822 63.8695 49.7702C64.6372 49.6741 65.4046 49.5779 66.1717 49.4817ZM30.6552 3.56837C30.1921 2.99471 29.0406 3.4331 28.3579 3.27482C27.4147 3.05312 25.8018 0.843139 26.5025 3.06275C27.8872 3.23132 29.2714 3.39987 30.6552 3.56837ZM50.868 2.60477C49.9417 2.91917 50.6683 4.15685 51.4259 3.63659C51.5099 3.57748 52.121 2.18156 50.868 2.60477ZM41.1474 3.24556C41.1866 3.2618 41.9878 3.22476 42.0156 3.20514C42.7316 2.7029 40.3162 2.81738 41.1474 3.24556ZM88.1154 3.60814C87.0932 3.56136 87.8258 2.42777 88.464 2.888C88.5041 2.91722 88.1826 3.61033 88.1154 3.60814ZM87.3888 3.64289C86.6018 4.65889 84.9882 2.621 86.2614 2.81889C86.385 2.83891 87.4252 3.59343 87.3888 3.64289ZM47.5647 3.11603C47.6711 3.50285 48.6265 3.31069 49.0342 3.21583C49.0212 2.86223 47.9655 3.15719 47.5647 3.11603ZM71.8196 3.08641C71.8625 3.39074 68.5375 3.39379 68.3079 2.99373C68.8346 3.16094 71.7801 2.813 71.8196 3.08641ZM80.3469 3.46133C80.2629 3.51452 79.1129 3.44175 79.1453 3.17283C79.7026 2.81682 80.7254 3.22062 80.3469 3.46133ZM97.2876 3.32962C97.3511 3.39666 96.5012 5.11278 98.5336 3.97275C98.8318 3.80581 97.7591 3.36669 97.865 3.30458C98.0871 3.18333 98.2628 3.12629 98.4042 3.11529C97.4522 2.98037 96.4683 2.92065 96.3736 3.02504C95.9298 3.51809 97.26 3.30166 97.2876 3.32962ZM106.193 4.53844C106.39 4.81587 107.637 4.65726 107.92 4.54023C107.968 4.51825 107.75 3.78684 108.312 3.83734C108.763 3.87913 108.096 4.63512 108.973 4.5082C109.859 4.38075 108.669 3.85485 108.747 3.81605C108.849 3.76522 110.228 4.09167 110.182 3.65537C110.147 3.33223 108.675 3.56233 108.312 3.49638C107.846 3.41162 108.406 2.86845 107.629 2.99017C107.14 3.0662 107.419 4.01166 107.316 4.06032C107.23 4.09958 105.514 3.56725 106.195 4.53543C106.194 4.53643 106.193 4.53743 106.193 4.53844ZM98.6615 3.15532C98.5898 3.12381 98.5057 3.10739 98.4042 3.11529C98.4905 3.12753 98.5764 3.14185 98.6615 3.15532ZM33.3382 3.97056C33.819 3.67587 32.3856 3.30841 31.8452 3.69398C31.8374 4.00277 33.2616 4.01645 33.3382 3.97056ZM99.5476 3.92059C100.956 3.67301 99.9168 3.35409 98.6615 3.15532C99.0609 3.33081 99.0746 4.0033 99.5476 3.92059ZM59.5162 3.78026C59.5752 3.70925 59.6123 3.59885 59.616 3.4178C59.4609 3.61667 59.4475 3.72309 59.5162 3.78026ZM62.8039 3.43853C63.9354 3.98348 61.6426 3.97438 61.6547 3.5797C61.6607 3.43071 62.7586 3.41687 62.8039 3.43853ZM89.425 3.54552C89.3222 3.60018 90.935 5.2545 88.6012 4.02063C89.8412 3.81606 88.5304 3.64352 88.5488 3.49757C88.5968 3.07815 90.6838 3.46696 91.1433 3.28265C91.5096 4.03007 89.7643 3.36547 89.4276 3.54551C89.4267 3.54551 89.4258 3.54552 89.425 3.54552ZM122.214 4.00584C121.928 3.56885 121.029 3.71789 120.427 3.74881C120.712 4.18585 121.609 4.03688 122.214 4.00584ZM280.278 1.32008C276.132 1.01852 275.638 2.82069 279.408 2.01826C279.482 2.00155 280.534 1.49504 280.278 1.32008ZM244.769 2.6244C244.398 3.4126 245.686 3.50997 246.528 3.16923C246.719 3.09257 247.412 2.28713 246.597 2.15058C246.642 3.09515 245.4 3.48365 244.769 2.6244ZM100.348 4.41428C100.762 4.93141 102.022 4.55197 102.686 4.46894C102.278 4.04371 100.936 4.24723 100.348 4.41428ZM266.699 2.58977C266.263 2.65936 265.951 1.98812 266.025 1.92987C266.357 1.66286 267.187 2.19159 266.699 2.58977ZM96.2692 4.52423C96.2137 4.83545 97.8873 5.12276 97.9997 4.35343C97.6406 4.41161 96.3094 4.32891 96.2692 4.52423ZM121.074 4.24883C120.815 4.40906 122.165 4.68056 122.571 4.52023C122.535 4.18973 121.244 4.14468 121.074 4.24883ZM259.67 2.52656C259.281 2.59463 258.306 2.63536 258.191 2.36364C258.049 2.02401 259.483 2.10745 259.67 2.52656ZM332.427 1.20548C332.473 1.08091 330.934 0.235772 330.267 0.479329C329.002 0.945095 332.376 1.29401 332.427 1.20548ZM270.836 2.83915C272.055 2.16371 270.699 2.82216 270.737 2.14151C271.567 2.09672 273.63 2.01223 272.228 2.71517C271.955 2.85121 271.222 2.78568 270.836 2.83915ZM269.707 3.09415C269.569 2.87732 268.665 2.20521 269.434 2.23621C269.789 2.25159 270.379 3.00847 269.707 3.09415ZM323.039 1.1665C321.951 1.79874 327.01 1.33446 327.153 1.22498C327.229 1.16719 327.278 1.11335 327.305 1.06813C327.497 1.25349 328.455 1.26097 328.553 0.775826C328.267 0.823678 327.482 0.803268 327.392 0.859242C327.353 0.883089 327.325 0.905244 327.305 0.927502C326.956 0.518574 323.248 1.04663 323.039 1.1665ZM314.659 2.01844C315.948 2.87063 316.131 1.35616 316.02 1.31063C314.626 0.731395 315.555 1.81888 315.514 1.87216C315.42 1.96149 314.427 1.47238 314.663 2.01833C314.661 2.01837 314.66 2.0184 314.659 2.01844ZM321.325 1.46263C321.377 1.48083 322.438 1.40457 322.481 1.37954C323.338 0.848398 320.336 1.06196 321.325 1.46263ZM112.904 5.54215C113.662 5.38612 112.913 4.83697 112.409 5.04062C112.368 5.06062 112.234 5.67998 112.904 5.54215ZM269.097 2.95944C268.925 3.06879 264.425 3.57299 264.678 2.72808C265.058 2.81828 270.175 2.26258 269.097 2.95944ZM235.438 3.92368C236.23 3.90076 235.351 3.12814 234.934 3.43155C234.779 3.54426 235.239 3.92895 235.438 3.92368ZM94.0188 5.2578C93.1895 4.82913 93.3705 6.28527 94.0833 5.78076C94.1112 5.76101 94.0513 5.27455 94.0188 5.2578ZM241.773 3.33538C239.028 2.91466 239.719 5.40776 243.272 4.48475C243.158 4.37553 243.044 4.26631 242.93 4.15709C247.031 3.69193 243.209 3.9745 242.197 3.85579C241.812 3.81069 242.125 3.38544 241.776 3.33233C241.775 3.33334 241.774 3.33436 241.773 3.33538ZM231.262 4.05701C228.659 5.88915 233.679 4.62907 235.124 4.83063C233.711 4.12492 231.889 4.27335 234.352 3.47046C230.725 3.39928 232.246 4.07675 232.104 4.13867C231.933 4.20822 231.373 3.97835 231.262 4.05701ZM238.223 3.92537C238.377 3.97406 239.518 3.58768 239.932 3.63795C239.342 3.0426 237.203 3.59375 238.223 3.92537ZM305.845 1.84684C305.954 2.3203 306.199 2.66455 307.102 2.46191C306.815 2.23034 306.23 2.04037 305.845 1.84684ZM29.794 6.07905C29.1686 6.11634 27.9233 6.30203 28.3029 5.79939C28.3446 5.75651 29.7908 5.79803 29.794 6.07905ZM256.019 3.65546C255.89 3.71716 252.457 3.83485 253.631 3.28237C253.987 3.11589 257.107 3.11142 256.019 3.65546ZM273.811 3.16968C273.524 3.18179 272.353 3.12099 272.325 3.00896C272.237 2.62166 273.676 2.80022 273.811 3.16968ZM26.6392 6.58233C26.5572 6.63214 24.6442 6.55411 24.8535 6.32201C25.2501 5.88309 26.9211 6.41072 26.6392 6.58233ZM115.678 6.63547C115.838 6.65178 116.045 6.13277 116.1 6.12657C116.231 6.11818 119.155 6.29303 118.033 5.63813C117.847 5.5285 113.641 5.81776 113.097 5.88756C112.891 6.59939 114.68 5.9095 115.117 5.97902C115.194 5.99228 115.248 6.58598 115.676 6.63249C115.677 6.63349 115.677 6.63448 115.678 6.63547ZM310.588 2.22012C310.729 2.66797 314.172 2.8724 314.117 2.32657C312.941 2.29118 311.765 2.25569 310.588 2.22012ZM308.845 2.3426C308.121 2.68187 309.84 2.74063 310.342 2.58588C310.339 2.28212 308.95 2.29301 308.845 2.3426ZM267.341 5.01548C266.993 4.91346 268.039 4.22917 267.798 4.1069C267.644 4.03086 266.879 4.29637 266.628 4.09631C266.556 4.03254 267.329 3.39446 267.557 3.41569C267.881 3.44358 267.579 3.93835 267.932 3.93314C269.103 3.91521 270.129 3.54251 271.227 3.52365C271.326 3.52289 270.565 3.88583 271.411 3.86017C271.542 3.85688 272.315 3.32514 273.328 3.3761C275.596 4.90781 277.203 3.30857 280.047 3.80914C279.944 3.96133 277.836 4.41561 277.711 4.43353C275.346 4.75431 271.103 4.888 268.627 4.95139C267.991 4.96822 268.292 4.62482 268.017 4.61916C267.8 4.61533 268.073 5.23107 267.341 5.01548ZM30.1281 6.42132C29.833 7.04422 28.7849 6.65617 28.1167 6.69161C28.3492 6.12991 29.4759 6.5623 30.1281 6.42132ZM293.439 3.23822C293.104 3.22307 292.072 3.43745 291.981 3.25266C291.864 3.01134 293.357 2.81789 293.439 3.23822ZM132.152 6.31637C132.184 6.33302 132.989 6.29231 133.02 6.27244C133.734 5.76709 131.321 5.89161 132.152 6.31637ZM151.406 6.00462C152.018 6.07474 152.636 6.2622 152.836 5.75582C152.448 5.83728 151.331 5.65425 151.406 6.00462ZM177.954 5.69929C177.837 6.36121 179.672 5.90875 180.017 5.84474C179.885 5.55313 178.041 5.22237 177.954 5.69929ZM305.769 3.92232C306.892 3.85276 306.682 4.85895 307.383 4.38708C307.497 4.30743 307.816 2.21541 306.603 3.02901C306.384 3.17526 307.267 3.64638 305.769 3.92232ZM243.851 4.45125C244.146 4.88176 245.035 4.73276 245.635 4.68461C245.493 4.36313 244.281 4.47312 243.851 4.45125ZM23.189 7.0989C22.6647 7.71814 20.2251 7.2727 20.8262 6.86229C20.9118 6.80873 22.8473 7.1239 23.189 7.0989ZM103.217 6.38519C104.222 6.86333 102.15 7.02911 101.492 6.5594C101.789 6.58834 103.15 6.35373 103.217 6.38519ZM171.585 6.1417C171.633 6.16101 172.691 6.1006 172.74 6.07605C173.602 5.55787 170.604 5.72616 171.585 6.1417ZM145.083 6.87263C145.471 7.26835 147.984 6.91985 148.541 6.5137C147.995 5.93525 144.603 6.37849 145.083 6.87263ZM301.14 3.76314C301.942 3.76229 302.699 3.61876 303.43 3.42617C303.266 3.09407 301.218 3.50968 301.14 3.76314ZM175.483 6.13302C175.54 6.12957 175.595 6.09076 175.649 6.08597C175.593 6.10097 175.537 6.11799 175.483 6.13302ZM283.215 4.4704C282.547 4.62043 282.671 4.00059 282.712 3.98066C283.212 3.76817 283.971 4.301 283.215 4.4704ZM29.3647 7.34036C29.1345 7.89784 28.0017 7.47201 27.3517 7.60764C27.5383 7.16733 28.8406 7.28462 29.3647 7.34036ZM228.463 5.25282C227.635 5.87268 231.068 6.50507 231.788 6.10148C231.829 5.72803 228.587 5.16796 228.463 5.25282ZM100.114 7.24239C100.05 7.67881 98.6036 7.16314 98.9086 6.95499C99.102 6.82255 100.153 6.97128 100.114 7.24239ZM233.51 5.81213C233.835 5.93854 234.577 5.49302 234.307 5.23636C233.961 4.90737 233.426 5.77575 233.51 5.81213ZM262.429 5.52202C262.289 5.59199 260.381 5.18944 261.154 4.72645C261.691 4.4047 261.793 5.03261 261.921 5.03146C262.064 5.02612 265.089 4.18283 262.429 5.52202ZM209.264 5.99113C209.979 6.14631 210.841 5.93653 211.591 5.93522C211.28 5.67116 209.56 5.6279 209.264 5.99113ZM105.676 7.31792C105.503 7.49565 100.768 7.63691 103.453 7.07434C103.61 7.04256 106.201 6.78005 105.676 7.31792ZM305.769 3.92232C305.628 3.93109 305.465 3.95632 305.276 4.00451C305.464 3.98245 305.627 3.94848 305.769 3.92232ZM293.015 4.32945C293.282 4.63987 291.982 4.75897 291.593 4.60022C291.464 4.21577 292.979 4.28606 293.015 4.32945ZM211.656 6.37679C212.091 6.55068 212.871 6.34296 213.404 6.35453C213.309 6.06122 211.838 6.07386 211.656 6.37679ZM181.392 7.18675C182.246 6.99961 183.297 7.06544 183.318 7.42604C183.335 7.36939 183.375 7.30894 183.443 7.2478C183.512 7.18725 184.435 7.34203 184.832 7.21313C187.204 6.44853 175.617 6.91195 182.349 7.83746C182.031 7.62057 181.712 7.40367 181.392 7.18675ZM141.69 7.75632C141.208 8.20043 139.84 7.66344 140.192 7.48701C140.437 7.36611 142.172 7.30926 141.69 7.75632ZM160.401 7.81525C160.257 7.89535 158.925 7.60303 158.888 7.37208C159.65 7.11959 161.057 7.4434 160.401 7.81525ZM137.954 8.30741C137.65 8.37663 137.254 7.67209 137.29 7.64084C137.597 7.37931 138.462 7.9081 137.954 8.30741ZM303.494 5.89278C303.045 6.10783 301.584 5.63433 301.256 5.1752C301.2 5.26718 301.045 5.38935 300.758 5.53862C300.759 5.5386 300.76 5.53857 300.761 5.53855C300.375 5.73881 288.681 6.25507 296.504 5.14665C296.749 5.11125 296.425 5.53993 297.423 5.43934C297.489 5.43219 297.513 5.08863 297.716 5.06652C298.185 5.01784 300.679 4.73527 301.19 4.99745C301.193 4.93381 301.224 4.87252 301.291 4.81522C301.895 4.30445 303.842 5.72694 303.494 5.89278ZM163.038 7.84709C162.772 7.97729 161.923 7.86669 161.831 7.56524C162.25 7.41206 163.656 7.54341 163.038 7.84709ZM105.539 8.56019C104.995 8.81311 103.607 8.35831 104.024 8.10794C104.279 7.95397 106.166 8.26981 105.539 8.56019ZM154.553 7.78281C157.672 7.39049 155.298 7.80345 155.781 8.24174C155.37 8.08881 154.963 7.93581 154.553 7.78281ZM317.934 4.35136C317.439 4.46721 318.049 5.32601 318.585 4.83598C318.753 4.68042 318.212 4.28818 317.934 4.35136ZM340.465 3.99164C340.061 4.77958 342.128 4.26487 341.303 3.75553C341.264 3.73866 340.495 3.96125 340.465 3.99164ZM324.734 4.75146C324.381 4.23261 324.159 4.17612 323.209 4.3333C324.624 4.44272 323.328 4.94653 324.734 4.75146ZM183.31 7.48299C183.315 7.46156 183.319 7.44571 183.318 7.42604C183.312 7.44556 183.31 7.46401 183.31 7.48299ZM135.015 8.19789C134.628 8.64928 133.53 8.62661 133.852 8.17292C133.884 8.13091 134.852 7.86862 135.015 8.19789ZM301.256 5.1752C301.306 5.09362 301.278 5.0425 301.19 4.99745C301.188 5.05735 301.212 5.11321 301.256 5.1752ZM140.909 8.50584C140.867 8.17224 142.534 8.02573 142.601 8.06426C143.564 8.63391 141.599 8.51916 140.909 8.50584ZM94.4983 9.10975C94.4119 9.07549 94.9614 8.20938 95.3042 8.54482C95.5696 8.80508 94.8219 9.24016 94.4983 9.10975ZM327.979 4.87602C328.508 4.8606 329.252 4.84009 329.378 4.42684C329.026 4.49964 327.96 4.57591 327.979 4.87602ZM339.667 4.57671C339.028 4.11308 337.6 4.15477 336.69 4.25984C336.691 4.89385 339.076 4.44432 339.667 4.57671ZM304.921 5.61781C304.878 5.64479 303.558 5.86965 303.728 5.44067C303.975 4.81165 305.289 5.37706 304.921 5.61781ZM97.0689 8.63406C97.6632 8.92202 96.3066 9.82958 95.6762 9.14039C95.3526 8.78749 96.9689 8.58584 97.0689 8.63406ZM131.594 8.81597C130.811 8.57764 132.741 8.12254 133.018 8.56354C132.656 8.6025 131.873 8.90034 131.594 8.81597ZM158.218 8.99191C155.766 10.2992 157.083 7.95012 157.523 8.15036C157.585 8.17896 158.278 8.96113 158.218 8.99191ZM17.077 9.68609C16.7267 9.51002 18.0262 8.8597 18.1968 9.28283C18.3022 9.54762 17.301 9.79829 17.077 9.68609ZM195.305 7.6638C195.201 7.66133 195.097 7.65874 194.995 7.65669C195.072 7.67637 195.173 7.6816 195.305 7.6638ZM124.508 10.5931C126.227 8.77167 126.056 10.1654 126.207 10.1565C126.531 10.1342 127.285 9.6391 127.901 9.71378C127.194 9.5167 126.489 9.31956 125.785 9.12235C126.334 8.98733 131.166 8.27893 131.266 8.57073C131.414 8.98653 129.895 8.86951 129.851 8.90664C129.788 8.95957 129.561 10.1214 129.42 10.1667C129.189 10.2394 125.15 10.2994 124.508 10.5931ZM153.061 8.84906C153.456 8.70687 153.563 8.24618 153.748 8.354C153.811 8.39088 153.826 8.829 154.041 8.94C153.715 8.9097 153.388 8.87938 153.061 8.84906ZM121.383 8.99583C120.896 9.53552 123.1 9.31338 123.17 9.25274C123.544 8.88653 121.782 8.55498 121.383 8.99583ZM140.079 8.90285C139.999 8.93491 138.305 9.11866 138.317 8.82134C138.763 8.59053 141.027 8.50229 140.079 8.90285ZM154.306 8.96699C154.898 8.90936 156.015 8.45554 155.895 9.11684C155.894 9.11685 155.893 9.11686 155.892 9.11687C155.36 9.06699 154.835 9.01699 154.306 8.96699ZM99.1108 10.0132C98.0154 11.0722 98.5286 9.7404 99.5024 9.39429C99.8014 9.86401 99.2903 9.84092 99.1108 10.0132ZM95.5901 10.8219C95.2858 11.0132 92.1236 10.8279 92.6018 10.2684C92.7722 10.069 94.593 10.5563 94.6762 10.5172C94.8026 10.4594 94.219 9.84819 95.1884 9.96332C95.1333 10.1722 95.6946 10.758 95.5901 10.8219ZM98.2027 10.6927C97.1114 11.4998 96.8562 10.0274 97.6796 10.0175C98.0018 10.0126 98.3583 10.5763 98.2027 10.6927ZM102.674 10.5346C102.282 10.6773 101.235 10.889 100.508 10.4039C101.476 10.355 102.442 10.306 103.409 10.257C103.522 10.5339 103.018 10.4092 102.672 10.5346C102.673 10.5346 102.673 10.5346 102.674 10.5346ZM346.355 8.16646C345.497 8.60898 347.507 8.71236 347.589 8.60727C347.831 8.25931 346.739 7.9688 346.355 8.16646ZM10.3414 23.1119C10.1003 23.2798 9.94476 23.8288 9.41087 23.5441C9.94454 23.1368 10.4782 22.7294 11.0118 22.3221C11.4325 23.2475 10.6049 22.9268 10.3414 23.1119ZM8.31238 26.5104C8.38815 26.5325 7.98171 27.9606 8.95465 27.0038C9.61205 26.3577 6.0172 25.7486 5.37211 26.384C6.0898 26.6744 7.6601 26.3305 8.31238 26.5104ZM2.05102 32.7138C2.01016 32.8277 3.37549 32.9879 3.53304 32.907C4.36031 32.4804 2.27214 32.1034 2.05102 32.7138ZM6.40269 32.4206C5.76414 32.7006 7.18253 32.8723 7.60437 32.7109C7.64406 32.4453 6.5013 32.3798 6.40269 32.4206ZM338.126 29.0621C337.461 30.0505 336.783 27.9823 337.86 28.3725C337.911 28.3908 338.154 29.0138 338.126 29.0621ZM3.39196 34.1459C4.03056 33.8659 2.61205 33.6942 2.19033 33.8556C2.15231 34.1209 3.29472 34.1869 3.39196 34.1459ZM337.704 31.3839C336.804 32.107 337.062 29.758 337.174 29.6605C337.637 29.2747 339.286 30.1473 339.623 30.3662C337.185 30.0837 338.127 31.0431 337.704 31.3839ZM333.424 30.0983C332.563 29.8727 334.73 29.3339 335.164 29.9745C334.739 29.9552 333.668 30.1636 333.424 30.0983ZM328.267 30.9942C327.811 31.0908 326.452 31.3297 326.213 30.9679C326.716 31.0206 328.063 30.6208 328.267 30.9942ZM327.26 32.1265C326.557 32.6468 326.344 31.194 327.183 31.605C327.216 31.6209 327.285 32.0979 327.26 32.1265ZM323.244 32.7653C322.79 33.3581 322.213 31.9614 322.975 31.9021C323.201 31.8871 323.292 32.6974 323.244 32.7653ZM336.624 33.9336C335.957 34.2016 335.061 33.2151 336.496 33.0636C335.986 32.9234 335.477 32.7831 334.968 32.6429C336.835 32.0232 336.736 33.429 337.275 33.3557C338.029 33.2521 337.937 32.0969 337.775 31.7379C338.415 32.4292 341.046 32.3662 342.572 32.4581C341.242 32.7934 339.089 33.3703 337.774 33.596C337.399 33.6612 337.024 33.3543 336.704 33.3988C336.191 33.4719 336.661 33.9158 336.626 33.9336C336.625 33.9336 336.624 33.9336 336.624 33.9336ZM317.946 32.9335C316.581 33.6284 317.416 32.1865 318.205 32.4177C318.239 32.4362 317.98 32.9165 317.946 32.9335ZM1.57929 38.4645C3.42371 37.8628 2.07723 37.0836 5.94734 38.258C4.31977 37.4212 5.85463 37.651 5.53608 37.3119C5.28057 37.0436 4.32908 37.2714 4.88017 36.7258C4.15523 37.3202 0.994585 37.172 0.854177 37.2686C0.855502 37.2686 0.856827 37.2686 0.858151 37.2686C0.773817 37.3259 0.990731 38.6558 1.57929 38.4645ZM328.365 34.7015C327.952 36.4346 327.694 33.7094 326.828 35.1605C325.563 33.124 330.162 35.0668 330.662 33.3026C325.737 33.6442 333.871 31.4784 330.503 34.1927C333.312 33.163 331.441 34.4908 331.889 34.812C332.367 35.1542 333.96 34.7229 333.897 35.3659C333.896 35.3659 333.895 35.3659 333.894 35.366C332.912 35.3488 331.929 35.3315 330.947 35.3142C331.868 33.9051 329.875 34.3759 329.227 35.5211C328.939 35.2479 328.652 34.9747 328.365 34.7015ZM333.881 33.248C333.785 33.2824 331.645 33.1487 331.775 32.8674C332.055 32.6825 335.09 32.8094 333.881 33.248ZM343.279 33.2848C342.513 33.3099 341.336 33.613 340.904 33.1037C341.67 33.0785 342.847 32.7752 343.279 33.2848ZM303.826 34.4806C302.838 34.0794 305.841 33.8714 304.985 34.4015C304.943 34.4265 303.875 34.4993 303.826 34.4806ZM326.136 34.5037C325.158 35.0571 325.58 33.3707 326.328 33.7862C326.371 33.8107 326.181 34.4784 326.136 34.5037ZM3.07723 38.6606C3.14564 39.0704 5.82446 38.7694 6.29953 38.7707C6.0278 38.3908 2.99877 38.1909 3.07723 38.6606ZM344.67 34.7804C343.189 36.2976 341.07 34.6535 340.845 34.6971C340.621 34.7414 340.993 35.3757 340.942 35.3945C340.825 35.434 338.423 35.4477 338.305 35.4061C338.221 35.3735 338.63 34.4557 338.126 34.1845C339.108 34.6717 343.489 34.2257 343.721 34.3196C343.899 34.3947 342.596 35.3832 344.667 34.7805C344.668 34.7805 344.669 34.7804 344.67 34.7804ZM340.284 34.9104C340.873 34.5139 339.19 34.5139 338.787 34.6655C337.891 35.0045 340.209 34.9576 340.284 34.9104ZM336.247 35.3745C336.057 35.465 334.325 35.5912 334.166 35.1728C334.971 34.6015 336.677 35.1638 336.247 35.3745ZM316.942 35.8575C316.49 35.8158 315.259 36.1747 315.178 35.8074C315.631 35.8489 316.861 35.4901 316.942 35.8575ZM12.2376 41.8406C11.4907 42.1533 13.2252 42.2711 13.7308 42.1204C13.757 41.8739 12.3012 41.8137 12.2376 41.8406ZM326.066 38.0392C325.803 38.159 320.352 38.0306 319.583 37.8787C320.323 37.5789 325.716 37.407 325.965 37.5363C326.038 37.5752 326.1 38.0205 326.066 38.0392ZM337.841 37.8787C338.355 38.4084 338.662 37.747 338.725 37.737C339.34 37.6364 340.622 37.7229 340.327 37.2071C339.245 37.4491 336.817 36.8269 337.841 37.8787ZM316.623 38.3287C314.769 38.178 318.304 37.507 317.854 38.0882C317.825 38.1234 316.815 38.3446 316.623 38.3287ZM326.679 38.1806C327.099 38.6087 332.532 38.0769 333.406 38.0516C332.6 37.2632 331.987 37.8965 330.934 37.8847C330.65 37.8806 330.717 37.5413 330.686 37.5416C330.194 37.5398 330.573 37.9189 330.27 37.9333C330.079 37.9414 326.088 37.5776 326.679 38.1806ZM338.136 38.2474C338.45 38.5505 341.85 38.5874 341.985 38.5006C342.99 37.8557 338.398 38.1314 338.136 38.2474ZM326.2 38.9151C326.811 39.8406 329.498 39.134 327.634 38.7164C327.456 38.6786 326.719 39.1078 326.2 38.9151ZM316.845 39.2201C316.755 39.2504 314.832 39.4918 314.79 39.1931C315.065 39.069 317.872 38.8869 316.845 39.2201ZM317.873 40.206C317.826 40.2001 318.262 39.6104 317.36 39.7085C317.285 39.7175 317.163 40.3708 316.02 40.1645C315.788 40.1219 315.419 39.7021 315.444 39.6747C316.599 38.623 320.215 40.4762 317.873 40.206ZM338.213 38.7718C338.038 39.0511 338.503 39.8521 338.889 39.4289C339.055 39.2462 338.723 38.7669 338.213 38.7718ZM310.74 39.6513C311.874 40.1141 308.36 40.3035 308.177 40.182C308.282 39.8716 310.626 39.6062 310.74 39.6513ZM14.0089 45.6423C14.0081 45.6423 14.0072 45.6423 14.0063 45.6423C14.9482 45.5259 14.3624 45.1181 14.4065 45.105C16.4109 44.4922 15.8829 45.4248 16.1973 45.533C16.8715 45.7671 16.7576 44.6366 17.895 45.1C16.0153 44.4167 17.7246 44.6987 17.7758 44.296C17.9781 42.653 15.2813 45.0771 14.3438 44.7375C14.2132 44.6904 15.1732 44.1617 14.8385 44.0143C13.7499 43.5365 10.3952 46.0876 14.0089 45.6423ZM339.199 39.492C339.649 39.9618 342.95 39.4005 342.06 39.0281C341.916 38.9685 338.537 38.8074 339.199 39.492ZM184.122 43.7301C184.927 44.1361 183.084 44.6529 182.738 44.3328C182.566 44.1733 183.768 43.5519 184.122 43.7301ZM171.173 45.689C170.224 45.6162 169.202 43.8883 170.386 44.1436C170.512 44.1715 171.279 45.4462 171.173 45.689ZM233.478 43.7684C232.498 44.4105 232.534 43.2538 233.263 43.2553C233.52 43.2556 233.509 43.7481 233.478 43.7684ZM195.653 44.3006C195.553 44.3425 194.405 44.2865 194.444 44.0202C194.859 43.8545 196.293 44.0136 195.653 44.3006ZM233.796 43.9265C233.204 43.7302 234.199 42.8738 234.933 43.6758C234.568 43.6163 233.857 43.9465 233.796 43.9265ZM324.228 41.5253C323.724 41.0646 322.339 41.2467 321.539 41.1874C321.47 41.8044 323.655 41.4298 324.228 41.5253ZM175.193 44.9373C174.288 44.5158 176.209 44.1358 176.04 44.7108C176.016 44.7423 175.228 44.9553 175.193 44.9373ZM265.44 43.2862C264.78 42.9351 266.837 42.3924 266.283 43.0506C266.256 43.0775 265.477 43.3057 265.44 43.2862ZM274.483 42.8536C273.992 42.9896 271.877 43.0036 272.691 42.6256C272.817 42.5675 274.438 42.5187 274.483 42.8536ZM16.2551 45.9754C15.9919 46.6082 17.5372 46.4504 17.758 46.3389C17.8447 46.2926 16.5986 45.1519 16.2551 45.9754ZM227.042 43.9958C226.525 43.9269 225.205 44.1028 224.964 43.776C225.592 43.8325 227.196 43.3326 227.042 43.9958ZM179.286 44.8858C178.508 45.5827 177.178 45.5327 177.495 44.6317C178.969 44.672 177.318 45.4402 179.286 44.8858ZM237.11 44.5971C236.699 44.658 236.368 43.8034 236.413 43.7619C236.848 43.3668 237.512 44.2535 237.11 44.5971ZM206.243 44.4721C206.223 44.8405 204.905 44.6957 205.077 44.4559C205.132 44.3755 206.256 44.174 206.243 44.4721ZM307.005 42.2095C306.411 42.5617 308.262 42.8399 308.795 42.4331C309.045 41.861 307.08 42.1689 307.005 42.2095ZM248.507 44.1369C248.581 44.6816 246.51 44.4184 247.313 43.9479C247.515 43.8301 248.482 43.9548 248.507 44.1369ZM268.235 44.3349C266.839 43.7173 272.624 43.1141 271.121 43.9625C271.014 44.023 268.358 44.387 268.235 44.3349ZM277.694 43.6951C277.457 43.7728 277.623 45.6045 278.591 44.8723C278.718 44.7773 278.101 44.3075 278.204 44.1939C278.265 44.1291 280.401 43.8175 280.501 43.8578C280.608 43.9037 280.498 44.4949 280.607 44.5581C280.73 44.6288 282.036 44.0788 282.728 44.0555C284.031 44.0126 284.183 44.4984 284.29 44.4973C284.601 44.4926 285.115 44.1317 285.745 44.1159C288.925 44.0382 293.796 44.3258 296.285 43.2213C294.058 43.6973 291.904 43.3114 289.674 43.2334C290.354 44.2381 286.371 42.5314 288.704 43.6505C287.633 43.4233 278.473 43.4523 277.697 43.695C277.696 43.695 277.695 43.695 277.694 43.6951ZM167.431 46.2501C168.019 46.8696 165.035 46.765 164.771 46.0431C165.165 45.9378 167.357 46.18 167.431 46.2501ZM181.257 47.5987C181.536 47.703 181.818 48.9241 183.263 48.2827C183.265 48.2827 183.266 48.2826 183.267 48.2826C183.69 48.0953 183.201 47.8036 183.278 47.6962C183.306 47.6524 184.622 47.0245 183.52 46.942C181.839 46.8152 183.375 47.8554 182.479 47.8809C182.37 47.8834 180.663 47.2439 180.76 47.097C180.77 47.0799 181.283 47.2132 181.366 47.1515C181.682 46.9197 181.521 46.5394 181.566 46.5206C181.714 46.472 184.399 47.0861 184.787 46.5114C184.905 46.3264 180.504 45.9645 180.329 46.062C180.221 46.1236 180.282 47.1846 180.171 47.2905C180.115 47.3434 178.328 46.9697 178.103 47.0703C178.037 47.0994 177.987 47.1305 177.95 47.1561C178.213 46.8241 176.611 46.8691 176.665 47.239C176.695 47.3843 177.797 47.2853 177.836 47.2593C177.853 47.2483 177.868 47.2332 177.882 47.2228C177.653 47.6264 181.405 47.5573 180.603 48.164C181.693 48.4754 180.437 47.2923 181.257 47.5987ZM186.481 48.1801C186.367 48.0701 186.254 47.96 186.14 47.85C187.204 47.9874 188.354 47.8703 189.539 47.7351C190.484 47.6282 191.452 47.51 192.417 47.4971C192.972 47.4889 192.344 48.1814 193.069 47.9837C193.649 47.8253 194.282 47.1821 193.964 47.0457C193.887 47.0117 192.708 47.4423 192.113 47.409C190.355 47.3101 190.789 46.7178 190.687 46.7036C190.608 46.6933 190.061 46.8936 189.529 47.016C189.291 47.0711 189.057 47.1103 188.87 47.1074C187.357 47.0822 186.661 46.7328 184.592 47.232C185.796 47.6009 185.152 48.4486 186.481 48.1801ZM257.241 45.5969C257.322 45.9637 258.559 45.608 259.011 45.6516C258.932 45.2839 257.695 45.6406 257.241 45.5969ZM72.173 48.486C71.7886 47.8835 74.6413 47.7164 73.8923 48.2243C73.7261 48.3371 72.5317 48.4795 72.173 48.486ZM85.0002 48.0376C85.3831 48.2024 83.8488 48.6479 83.8485 48.1797C83.8498 48.0296 84.951 48.0162 85.0002 48.0376ZM211.022 47.1924C211.094 47.21 212.149 47.0567 212.181 47.0253C212.867 46.3709 209.407 46.8031 211.022 47.1924ZM100.607 48.675C99.2724 48.2882 103.279 48.0871 102.058 48.6016C101.998 48.6266 100.671 48.6938 100.607 48.675ZM106.181 48.7444C105.862 48.7255 104.444 48.933 104.423 48.7486C104.393 48.451 106.016 48.2354 106.181 48.7444ZM237.436 46.8758C237.296 47.5604 239.161 47.0051 239.813 47.0772C239.953 46.3921 238.091 46.9483 237.436 46.8758ZM225.628 47.6161C233.536 47.9977 231.766 46.5768 225.152 47.2932C225.151 47.7306 225.13 47.5919 225.628 47.6161ZM235.736 47.3328C235.44 46.9022 234.548 47.0501 233.942 47.0974C234.058 47.3987 235.298 47.2634 235.736 47.3328ZM68.7777 49.4424C69.2758 49.9911 71.4604 49.298 71.0698 49.0729C70.9792 49.0243 68.5945 49.1402 68.7777 49.4424ZM211.695 47.7638C211.524 48.4298 213.894 48.1172 214.072 47.9667C214.793 47.3617 211.892 47.9068 211.695 47.7638ZM248.653 47.218C249.083 47.7278 250.266 47.4344 251.029 47.4104C250.672 46.9744 249.302 47.1943 248.653 47.218ZM243.142 47.7451C243.191 47.764 244.257 47.6941 244.304 47.6692C245.168 47.1433 242.151 47.3383 243.142 47.7451ZM12.7267 50.6343C12.7622 50.6509 13.5677 50.6139 13.5957 50.5942C14.3124 50.0923 11.8949 50.2059 12.7267 50.6343Z" fill="#3C61F5"/>
</svg>
