<svg width="668" height="1222" viewBox="0 0 668 1222" fill="none" xmlns="http://www.w3.org/2000/svg">
<path opacity="0.25" d="M117.34 457.292C85.7754 457.292 58.1566 420.091 34.4833 345.69C11.9373 270.161 0.664348 198.014 0.664348 129.248C0.664348 113.466 18.1375 95.9931 53.0837 76.829C88.03 56.5376 141.013 39.0645 212.033 24.4096C283.053 8.62745 360.272 0.736365 443.693 0.736365C767.227 0.736365 928.994 113.466 928.994 338.926C928.994 403.182 915.467 458.983 888.412 506.33C862.484 552.549 830.92 586.368 793.719 607.786C718.19 649.497 648.861 670.915 585.732 672.043L546.84 673.733C546.84 686.134 549.659 705.861 555.295 732.917C560.932 759.972 563.75 783.645 563.75 803.936C563.75 821.973 532.749 836.064 470.748 846.21C409.874 855.228 356.891 859.738 311.799 859.738C243.033 859.738 200.196 842.828 183.287 809.009C167.504 775.19 159.613 703.607 159.613 594.259C159.613 568.331 208.087 549.167 305.035 536.767C341.108 531.13 373.8 519.294 403.11 501.257C433.547 483.22 448.765 458.419 448.765 426.855C448.765 395.291 423.401 379.509 372.673 379.509C321.944 379.509 268.398 392.473 212.033 418.4C156.795 444.328 125.231 457.292 117.34 457.292ZM382.818 917.23C459.475 917.23 518.094 927.376 558.677 947.667C599.26 966.831 619.551 1007.41 619.551 1069.42C619.551 1170.87 540.64 1221.6 382.818 1221.6C224.997 1221.6 146.086 1170.87 146.086 1069.42C146.086 967.958 224.997 917.23 382.818 917.23Z" fill="#F6B254"/>
</svg>
