<svg width="105" height="105" viewBox="0 0 105 105" fill="none" xmlns="http://www.w3.org/2000/svg">
<mask id="path-1-outside-1_1157_10263" maskUnits="userSpaceOnUse" x="0" y="0" width="105" height="105" fill="black">
<rect fill="white" width="105" height="105"/>
<path d="M77.4 9H27C17.0604 9 9 17.0604 9 27V77.4C9 87.3396 17.0604 95.4 27 95.4H77.4C87.3432 95.4 95.4 87.3396 95.4 77.4V27C95.4 17.0604 87.3432 9 77.4 9ZM37.8 77.4H27V37.8H37.8V77.4ZM32.4 33.2352C28.9224 33.2352 26.1 30.3912 26.1 26.8848C26.1 23.3784 28.9224 20.5344 32.4 20.5344C35.8776 20.5344 38.7 23.3784 38.7 26.8848C38.7 30.3912 35.8812 33.2352 32.4 33.2352ZM81 77.4H70.2V57.2256C70.2 45.1008 55.8 46.0188 55.8 57.2256V77.4H45V37.8H55.8V44.154C60.8256 34.8444 81 34.1568 81 53.0676V77.4Z"/>
<path d="M32.4 33.2352C28.9224 33.2352 26.1 30.3912 26.1 26.8848C26.1 23.3784 28.9224 20.5344 32.4 20.5344C35.8776 20.5344 38.7 23.3784 38.7 26.8848C38.7 30.3912 35.8812 33.2352 32.4 33.2352Z"/>
</mask>
<path d="M77.4 9H27C17.0604 9 9 17.0604 9 27V77.4C9 87.3396 17.0604 95.4 27 95.4H77.4C87.3432 95.4 95.4 87.3396 95.4 77.4V27C95.4 17.0604 87.3432 9 77.4 9ZM37.8 77.4H27V37.8H37.8V77.4ZM32.4 33.2352C28.9224 33.2352 26.1 30.3912 26.1 26.8848C26.1 23.3784 28.9224 20.5344 32.4 20.5344C35.8776 20.5344 38.7 23.3784 38.7 26.8848C38.7 30.3912 35.8812 33.2352 32.4 33.2352ZM81 77.4H70.2V57.2256C70.2 45.1008 55.8 46.0188 55.8 57.2256V77.4H45V37.8H55.8V44.154C60.8256 34.8444 81 34.1568 81 53.0676V77.4Z" fill="black"/>
<path d="M32.4 33.2352C28.9224 33.2352 26.1 30.3912 26.1 26.8848C26.1 23.3784 28.9224 20.5344 32.4 20.5344C35.8776 20.5344 38.7 23.3784 38.7 26.8848C38.7 30.3912 35.8812 33.2352 32.4 33.2352Z" fill="white"/>
<path d="M77.4 9H27C17.0604 9 9 17.0604 9 27V77.4C9 87.3396 17.0604 95.4 27 95.4H77.4C87.3432 95.4 95.4 87.3396 95.4 77.4V27C95.4 17.0604 87.3432 9 77.4 9ZM37.8 77.4H27V37.8H37.8V77.4ZM32.4 33.2352C28.9224 33.2352 26.1 30.3912 26.1 26.8848C26.1 23.3784 28.9224 20.5344 32.4 20.5344C35.8776 20.5344 38.7 23.3784 38.7 26.8848C38.7 30.3912 35.8812 33.2352 32.4 33.2352ZM81 77.4H70.2V57.2256C70.2 45.1008 55.8 46.0188 55.8 57.2256V77.4H45V37.8H55.8V44.154C60.8256 34.8444 81 34.1568 81 53.0676V77.4Z" stroke="white" stroke-width="18" stroke-linejoin="round" mask="url(#path-1-outside-1_1157_10263)"/>
<path d="M32.4 33.2352C28.9224 33.2352 26.1 30.3912 26.1 26.8848C26.1 23.3784 28.9224 20.5344 32.4 20.5344C35.8776 20.5344 38.7 23.3784 38.7 26.8848C38.7 30.3912 35.8812 33.2352 32.4 33.2352Z" stroke="white" stroke-width="18" stroke-linejoin="round" mask="url(#path-1-outside-1_1157_10263)"/>
</svg>
