<svg width="68" height="68" viewBox="0 0 68 68" fill="none" xmlns="http://www.w3.org/2000/svg">
<rect x="2" y="2" width="64" height="64" rx="12" fill="black" stroke="white" stroke-width="4"/>
<path d="M33.3938 30.9905L36.5851 20.3591C36.9287 19.2143 38.1096 18.5728 39.2227 18.9262L55.3463 24.0456C56.4594 24.399 57.0832 25.6135 56.7396 26.7583L51.7619 43.3409C51.4183 44.4857 50.2374 45.1272 49.1243 44.7738L34.8242 40.2334M33.3938 30.9905L32.6914 26.4515C32.5083 25.2682 31.4272 24.4617 30.2767 24.6501L13.6121 27.378C12.4616 27.5663 11.6774 28.6781 11.8605 29.8613L14.5129 47.0004C14.696 48.1836 15.7771 48.9901 16.9275 48.8018L33.5922 46.0739C34.7427 45.8856 35.5269 44.7737 35.3438 43.5905L34.8242 40.2334M33.3938 30.9905L34.8242 40.2334M19.4415 32.2007C19.5788 33.0881 18.9907 33.922 18.1278 34.0632C17.265 34.2044 16.4542 33.5996 16.3169 32.7122C16.1795 31.8247 16.7677 30.9909 17.6305 30.8496C18.4934 30.7084 19.3042 31.3133 19.4415 32.2007ZM30.3073 40.307C30.4447 41.1944 29.8565 42.0282 28.9937 42.1695C28.1309 42.3107 27.32 41.7058 27.1827 40.8184C27.0454 39.931 27.6335 39.0972 28.4964 38.9559C29.3592 38.8147 30.17 39.4196 30.3073 40.307ZM42.3829 25.9004C42.1252 26.759 41.2395 27.2402 40.4047 26.9751C39.5699 26.71 39.102 25.7991 39.3598 24.9405C39.6175 24.082 40.5032 23.6008 41.338 23.8659C42.1728 24.1309 42.6407 25.0418 42.3829 25.9004ZM48.6525 38.1078C48.3948 38.9663 47.5091 39.4475 46.6743 39.1824C45.8395 38.9174 45.3716 38.0065 45.6294 37.1479C45.8871 36.2893 46.7728 35.8081 47.6076 36.0732C48.4424 36.3383 48.9103 37.2492 48.6525 38.1078ZM48.4293 27.8202C48.1716 28.6788 48.6394 29.5897 49.4742 29.8547C50.309 30.1198 51.1947 29.6386 51.4525 28.7801C51.7102 27.9215 51.2424 27.0106 50.4075 26.7455C49.5727 26.4804 48.687 26.9616 48.4293 27.8202ZM36.5598 34.2682C36.3021 35.1268 36.7699 36.0377 37.6048 36.3028C38.4396 36.5679 39.3253 36.0867 39.583 35.2281C39.8407 34.3695 39.3729 33.4586 38.5381 33.1936C37.7033 32.9285 36.8176 33.4097 36.5598 34.2682Z" stroke="white" stroke-width="1.5"/>
</svg>
