<svg width="387" height="3177" viewBox="0 0 387 3177" fill="none" xmlns="http://www.w3.org/2000/svg">
<path d="M341.673 756.806L402.157 768.861L384.571 815.066L440.673 830.467" stroke="#3C61F5" stroke-width="13.2891" stroke-linecap="round" stroke-linejoin="round"/>
<path d="M341.673 721.242L451.687 682.894M341.673 689.348L451.687 651" stroke="#BB6EF6" stroke-width="13.4789" stroke-linecap="round" stroke-linejoin="round"/>
<path d="M372.932 1050.56L384.988 990.073L431.193 1007.66L446.594 951.557" stroke="#BB6EF6" stroke-width="13.2891" stroke-linecap="round" stroke-linejoin="round"/>
<path d="M302.058 881.849L417.862 909.853L344.677 974.113" stroke="#F6B254" stroke-width="13.4789" stroke-linecap="round" stroke-linejoin="round"/>
<path d="M337.369 1050.56L299.021 940.543M305.475 1050.56L267.127 940.543" stroke="#3C61F5" stroke-width="13.4789" stroke-linecap="round" stroke-linejoin="round"/>
<path d="M333.573 1278.5L361.577 1162.69L425.837 1235.88" stroke="#F6B254" stroke-width="13.4789" stroke-linecap="round" stroke-linejoin="round"/>
<path d="M326.985 1128.39L216.97 1166.74M326.985 1160.29L216.97 1198.64" stroke="#BB6EF6" stroke-width="13.4789" stroke-linecap="round" stroke-linejoin="round"/>
<path d="M139.476 1024.4L185.562 1019.3L157.07 944.021L211.693 943.105" stroke="#3C61F5" stroke-width="13.2891" stroke-linecap="round" stroke-linejoin="round"/>
<path d="M95.1852 959.718L104.368 1075.86M65.9898 972.557L75.1726 1088.7" stroke="#F6B254" stroke-width="13.4789" stroke-linecap="round" stroke-linejoin="round"/>
<path d="M223.944 1008.13L213.898 1107.31L139.409 1080.41" stroke="#BB6EF6" stroke-width="13.4789" stroke-linecap="round" stroke-linejoin="round"/>
<path d="M186.697 698.01L197.45 799.068L253.712 696.561" stroke="#3C61F5" stroke-width="13.4789" stroke-linecap="round" stroke-linejoin="round"/>
<path d="M301.806 779.03L247.478 882.095M270.269 774.273L215.941 877.338" stroke="#F6B254" stroke-width="13.4789" stroke-linecap="round" stroke-linejoin="round"/>
<path d="M165.883 867.412L191.95 829.065L116.213 801.815L151.007 759.697" stroke="#BB6EF6" stroke-width="13.2891" stroke-linecap="round" stroke-linejoin="round"/>
<path d="M272.948 1392.81L212.464 1404.86L230.05 1451.07L173.948 1466.47" stroke="#3C61F5" stroke-width="13.2891" stroke-linecap="round" stroke-linejoin="round"/>
<path d="M104.24 1321.93L132.244 1437.73L196.504 1364.55" stroke="#F6B254" stroke-width="13.4789" stroke-linecap="round" stroke-linejoin="round"/>
<path d="M272.948 1357.24L162.934 1318.89M272.948 1325.35L162.934 1287" stroke="#BB6EF6" stroke-width="13.4789" stroke-linecap="round" stroke-linejoin="round"/>
<path d="M241.688 1686.56L229.633 1626.07L183.428 1643.66L168.027 1587.56" stroke="#BB6EF6" stroke-width="13.2891" stroke-linecap="round" stroke-linejoin="round"/>
<path d="M312.563 1517.85L196.759 1545.85L269.943 1610.11" stroke="#F6B254" stroke-width="13.4789" stroke-linecap="round" stroke-linejoin="round"/>
<path d="M277.252 1686.56L315.6 1576.54M309.146 1686.56L347.494 1576.54" stroke="#3C61F5" stroke-width="13.4789" stroke-linecap="round" stroke-linejoin="round"/>
<path d="M112.34 1843.62L172.824 1831.57L155.238 1785.36L211.34 1769.96" stroke="#3C61F5" stroke-width="13.2891" stroke-linecap="round" stroke-linejoin="round"/>
<path d="M281.048 1914.5L253.044 1798.69L188.784 1871.88" stroke="#F6B254" stroke-width="13.4789" stroke-linecap="round" stroke-linejoin="round"/>
<path d="M287.636 1764.39L397.65 1802.74M287.636 1796.29L397.65 1834.64" stroke="#BB6EF6" stroke-width="13.4789" stroke-linecap="round" stroke-linejoin="round"/>
<path d="M390.677 1644.13L400.722 1743.31L475.211 1716.41" stroke="#BB6EF6" stroke-width="13.4789" stroke-linecap="round" stroke-linejoin="round"/>
<path d="M427.923 1334.01L417.171 1435.07L360.909 1332.56" stroke="#3C61F5" stroke-width="13.4789" stroke-linecap="round" stroke-linejoin="round"/>
<path d="M312.815 1415.03L367.143 1518.09M344.352 1410.27L398.68 1513.34" stroke="#F6B254" stroke-width="13.4789" stroke-linecap="round" stroke-linejoin="round"/>
<path d="M467.997 158.127L407.116 148.268L407.432 197.705L349.487 192.513" stroke="#3C61F5" stroke-width="13.2891" stroke-linecap="round" stroke-linejoin="round"/>
<path d="M334.73 32.7254L320.465 151.011L406.262 104.922" stroke="#F6B254" stroke-width="13.4789" stroke-linecap="round" stroke-linejoin="round"/>
<path d="M480.435 124.809L390.78 50.4069M491.589 94.9296L401.934 20.5273" stroke="#BB6EF6" stroke-width="13.4789" stroke-linecap="round" stroke-linejoin="round"/>
<path d="M335.977 422.396L345.836 361.514L296.399 361.831L301.591 303.885" stroke="#BB6EF6" stroke-width="13.2891" stroke-linecap="round" stroke-linejoin="round"/>
<path d="M461.379 289.129L343.094 274.864L389.183 360.661" stroke="#F6B254" stroke-width="13.4789" stroke-linecap="round" stroke-linejoin="round"/>
<path d="M369.295 434.833L443.697 345.178M399.174 445.988L473.577 356.332" stroke="#3C61F5" stroke-width="13.4789" stroke-linecap="round" stroke-linejoin="round"/>
<path d="M159.866 524.307L220.747 534.166L220.43 484.728L278.376 489.92" stroke="#3C61F5" stroke-width="13.2891" stroke-linecap="round" stroke-linejoin="round"/>
<path d="M293.133 649.708L307.397 531.423L221.601 577.512" stroke="#F6B254" stroke-width="13.4789" stroke-linecap="round" stroke-linejoin="round"/>
<path d="M351.801 511.385L441.456 585.787M340.647 541.265L430.302 615.667" stroke="#BB6EF6" stroke-width="13.4789" stroke-linecap="round" stroke-linejoin="round"/>
<path d="M460.275 3149.34L407.316 3042.62L503.58 3057.4" stroke="#F6B254" stroke-width="13.4789" stroke-linecap="round" stroke-linejoin="round"/>
<path d="M331.279 2781.64L360.909 2835.73L314.206 2851.95L338.457 2904.83" stroke="#BB6EF6" stroke-width="13.2891" stroke-linecap="round" stroke-linejoin="round"/>
<path d="M493.995 2865.36L387.27 2918.32L402.05 2822.06" stroke="#F6B254" stroke-width="13.4789" stroke-linecap="round" stroke-linejoin="round"/>
<path d="M358.527 2758.79L458.605 2818.44M382.964 2738.29L483.042 2797.94" stroke="#3C61F5" stroke-width="13.4789" stroke-linecap="round" stroke-linejoin="round"/>
<path d="M131.24 2744.42L185.33 2714.79L201.547 2761.49L254.43 2737.24" stroke="#3C61F5" stroke-width="13.2891" stroke-linecap="round" stroke-linejoin="round"/>
<path d="M214.96 2581.7L267.919 2688.42L171.655 2673.64" stroke="#F6B254" stroke-width="13.4789" stroke-linecap="round" stroke-linejoin="round"/>
<path d="M316.466 2692.48L376.116 2592.4M295.971 2668.04L355.621 2567.96" stroke="#BB6EF6" stroke-width="13.4789" stroke-linecap="round" stroke-linejoin="round"/>
<path d="M282.423 2037.81L342.907 2049.86L325.321 2096.07L381.423 2111.47" stroke="#3C61F5" stroke-width="13.2891" stroke-linecap="round" stroke-linejoin="round"/>
<path d="M451.131 1966.93L423.127 2082.73L358.867 2009.55" stroke="#F6B254" stroke-width="13.4789" stroke-linecap="round" stroke-linejoin="round"/>
<path d="M282.423 2002.24L392.437 1963.89M282.423 1970.35L392.437 1932" stroke="#BB6EF6" stroke-width="13.4789" stroke-linecap="round" stroke-linejoin="round"/>
<path d="M313.682 2331.56L325.738 2271.07L371.943 2288.66L387.344 2232.56" stroke="#BB6EF6" stroke-width="13.2891" stroke-linecap="round" stroke-linejoin="round"/>
<path d="M242.808 2162.85L358.612 2190.85L285.427 2255.11" stroke="#F6B254" stroke-width="13.4789" stroke-linecap="round" stroke-linejoin="round"/>
<path d="M278.119 2331.56L239.771 2221.54M246.225 2331.56L207.877 2221.54" stroke="#3C61F5" stroke-width="13.4789" stroke-linecap="round" stroke-linejoin="round"/>
<path d="M443.031 2488.62L382.547 2476.57L400.133 2430.36L344.03 2414.96" stroke="#3C61F5" stroke-width="13.2891" stroke-linecap="round" stroke-linejoin="round"/>
<path d="M274.323 2559.5L302.327 2443.69L366.587 2516.88" stroke="#F6B254" stroke-width="13.4789" stroke-linecap="round" stroke-linejoin="round"/>
<path d="M267.735 2409.39L157.72 2447.74M267.735 2441.29L157.72 2479.64" stroke="#BB6EF6" stroke-width="13.4789" stroke-linecap="round" stroke-linejoin="round"/>
<path d="M80.2262 2305.4L126.312 2300.3L97.8201 2225.02L152.443 2224.11" stroke="#3C61F5" stroke-width="13.2891" stroke-linecap="round" stroke-linejoin="round"/>
<path d="M35.9352 2240.72L45.118 2356.86M6.7398 2253.56L15.9226 2369.7" stroke="#F6B254" stroke-width="13.4789" stroke-linecap="round" stroke-linejoin="round"/>
<path d="M164.694 2289.13L154.648 2388.31L80.1595 2361.41" stroke="#BB6EF6" stroke-width="13.4789" stroke-linecap="round" stroke-linejoin="round"/>
<path d="M127.447 1979.01L138.2 2080.07L194.462 1977.56" stroke="#3C61F5" stroke-width="13.4789" stroke-linecap="round" stroke-linejoin="round"/>
<path d="M242.556 2060.03L188.228 2163.09M211.019 2055.27L156.691 2158.34" stroke="#F6B254" stroke-width="13.4789" stroke-linecap="round" stroke-linejoin="round"/>
<path d="M106.633 2148.41L132.7 2110.07L56.9631 2082.81L91.757 2040.7" stroke="#BB6EF6" stroke-width="13.2891" stroke-linecap="round" stroke-linejoin="round"/>
</svg>
