<svg width="160" height="160" viewBox="0 0 160 160" fill="none" xmlns="http://www.w3.org/2000/svg">
<g clip-path="url(#clip0_1533_13930)">
<rect width="160" height="160" fill="#F6B254"/>
<g style="mix-blend-mode:color-burn">
<path d="M37.7575 108.593L58.1397 104.525L52.2135 88.9355L71.119 83.7389M21.9026 76.0161L34.7448 84.9315L44.15 59.4584L58.2368 71.3308M26.9763 60.8751L14.2682 44.4026L28.9563 36.5406L18.102 20.1877M60.2874 46.7293L44.7572 45.0086L54.3586 19.6091L35.9515 19.3003M99.952 77.4576L112.66 60.985L97.972 53.123L108.826 36.7701M66.6409 63.3118L82.1711 61.5911L72.5697 36.1915L90.9768 35.8827M121.254 14.2027L109.858 3.5L96.8124 27.3105L84.6185 13.5008M137.972 8.26473L146.756 21.2034L121.234 30.3979L132.959 44.609M30.0014 139.89L41.398 150.592L54.4435 126.782L66.6374 140.592M13.2838 145.828L4.5 132.889L30.0218 123.695L18.2969 109.483M116.41 155.5L107.626 142.561L133.148 133.367L121.423 119.156M101.449 133.481L80.6616 133.71L83.2454 117.236L63.6708 116.056M110.245 98.3388L99.5159 109.712L85.0561 86.7351L73.7187 101.258M146.703 66.9133L125.916 66.684L128.5 83.1584L108.926 84.3383M155.5 102.056L144.771 90.6824L130.311 113.659L118.973 99.1365" stroke="#F6B254" stroke-width="5" stroke-linecap="round" stroke-linejoin="round"/>
</g>
</g>
<defs>
<clipPath id="clip0_1533_13930">
<rect width="160" height="160" fill="white"/>
</clipPath>
</defs>
</svg>
