<svg width="160" height="160" viewBox="0 0 160 160" fill="none" xmlns="http://www.w3.org/2000/svg">
<rect width="160" height="160" fill="#BB6EF6"/>
<g style="mix-blend-mode:color-burn">
<path d="M7 9.47518V30.5161L32.3086 14.0592M70.9536 9.47523L45.6928 22.8746L76.3568 30.5446M52.1365 45.5779L28.0937 30.5446L24.0446 52.4112M63.4496 152L55.4769 129.974L96.707 145.64M147.443 136.437L113.803 132.845L147.925 114.05M119.061 106.811L96.707 132.774L83.6975 111.606M90.702 7.07078L129.239 7L107.918 25.253M78.0255 76.4572L50.5778 57.7416L41.5092 82.5846M68.1166 44.2916L96.3145 54.6353L91.7148 27.0268M7 144.118L45.549 134.763L21.1874 113.295M100.958 100.22L83.6497 64.93L111.215 74.8348M145.538 101.461L143.141 70.148L117.929 88.9459M57.2683 82.3518L67.1544 120.43L41.9255 105.302M13.4404 72.414L9.39673 103.666L38.177 90.1164M126.286 25.2775L119.62 57.2963L153 41.5814" stroke="#BB6EF6" stroke-width="5" stroke-linecap="round" stroke-linejoin="round"/>
</g>
</svg>
