<svg width="1000" height="1000" viewBox="0 0 1000 1000" fill="none" xmlns="http://www.w3.org/2000/svg">
<g clip-path="url(#clip0_1928_14955)">
<rect width="1000" height="1000" transform="matrix(0 1 -1 0 1000 0)" fill="#190F47"/>
<g opacity="0.3">
<path d="M967.161 -58.6113L984.048 26.1129L1048.77 1.47913L1070.34 80.0651" stroke="#F6B254" stroke-width="18.6148" stroke-linecap="round" stroke-linejoin="round"/>
<path d="M867.881 177.709L1030.1 138.481L927.582 48.4688" stroke="#BB6EF6" stroke-width="18.8808" stroke-linecap="round" stroke-linejoin="round"/>
<path d="M917.342 -58.6113L863.625 95.4928M872.666 -58.6113L818.949 95.4928" stroke="#3C61F5" stroke-width="18.8808" stroke-linecap="round" stroke-linejoin="round"/>
<path d="M653.72 55.0946L646.576 119.65L541.13 79.7395L539.848 156.254" stroke="#F6B254" stroke-width="18.6148" stroke-linecap="round" stroke-linejoin="round"/>
<path d="M563.107 -6.94399L725.797 5.91895M581.091 -47.8399L743.782 -34.9769" stroke="#3C61F5" stroke-width="18.8808" stroke-linecap="round" stroke-linejoin="round"/>
<path d="M630.928 173.437L769.855 159.366L732.172 55.0249" stroke="#BB6EF6" stroke-width="18.8808" stroke-linecap="round" stroke-linejoin="round"/>
<path d="M475.028 123.532L366.165 29.4686L454.923 -25.2754" stroke="#BB6EF6" stroke-width="18.8808" stroke-linecap="round" stroke-linejoin="round"/>
<path d="M241.193 140.464L288.566 184.897L342.793 86.0469L393.481 143.378" stroke="#F6B254" stroke-width="18.6148" stroke-linecap="round" stroke-linejoin="round"/>
<path d="M365.822 -58.9524L271.415 74.1677M322.905 -71.3613L228.498 61.7588" stroke="#3C61F5" stroke-width="18.8808" stroke-linecap="round" stroke-linejoin="round"/>
<path d="M-70.7339 32.62L70.8252 47.6814L-72.7632 126.491" stroke="#BB6EF6" stroke-width="18.8808" stroke-linecap="round" stroke-linejoin="round"/>
<path d="M42.7531 193.852L187.122 117.752M36.09 149.676L180.459 73.5756" stroke="#3C61F5" stroke-width="18.8808" stroke-linecap="round" stroke-linejoin="round"/>
<path d="M166.555 3.44941L112.84 39.9619L74.6692 -66.1269L15.6717 -17.3889" stroke="#F6B254" stroke-width="18.6148" stroke-linecap="round" stroke-linejoin="round"/>
<path d="M824.895 331.15L966.454 346.212L822.866 425.021" stroke="#BB6EF6" stroke-width="18.8808" stroke-linecap="round" stroke-linejoin="round"/>
<path d="M938.381 492.397L1082.75 416.297M931.718 448.222L1076.09 372.122" stroke="#3C61F5" stroke-width="18.8808" stroke-linecap="round" stroke-linejoin="round"/>
<path d="M1062.18 302.013L1008.47 338.525L970.297 232.437L911.3 281.175" stroke="#F6B254" stroke-width="18.6148" stroke-linecap="round" stroke-linejoin="round"/>
<path d="M646.633 365.907L653.776 301.352L759.223 341.262L760.505 264.748" stroke="#F6B254" stroke-width="18.6148" stroke-linecap="round" stroke-linejoin="round"/>
<path d="M737.258 427.964L574.567 415.101M719.273 468.859L556.583 455.996" stroke="#3C61F5" stroke-width="18.8808" stroke-linecap="round" stroke-linejoin="round"/>
<path d="M669.44 247.599L530.513 261.67L568.197 366.011" stroke="#BB6EF6" stroke-width="18.8808" stroke-linecap="round" stroke-linejoin="round"/>
<path d="M370.08 239.937L386.967 324.661L451.689 300.027L473.262 378.613" stroke="#F6B254" stroke-width="18.6148" stroke-linecap="round" stroke-linejoin="round"/>
<path d="M270.8 476.272L433.014 437.045L330.5 347.032" stroke="#BB6EF6" stroke-width="18.8808" stroke-linecap="round" stroke-linejoin="round"/>
<path d="M320.26 239.937L266.543 394.041M275.585 239.937L221.868 394.041" stroke="#3C61F5" stroke-width="18.8808" stroke-linecap="round" stroke-linejoin="round"/>
<path d="M34.6606 479.613L17.7733 394.889L-46.9483 419.523L-68.522 340.937" stroke="#F6B254" stroke-width="18.6148" stroke-linecap="round" stroke-linejoin="round"/>
<path d="M133.94 243.311L-28.2739 282.538L74.24 372.551" stroke="#BB6EF6" stroke-width="18.8808" stroke-linecap="round" stroke-linejoin="round"/>
<path d="M84.4721 479.613L138.189 325.509M129.148 479.613L182.865 325.509" stroke="#3C61F5" stroke-width="18.8808" stroke-linecap="round" stroke-linejoin="round"/>
<path d="M977.355 534.507L962.293 676.066L883.483 532.478" stroke="#BB6EF6" stroke-width="18.8808" stroke-linecap="round" stroke-linejoin="round"/>
<path d="M816.115 647.974L892.215 792.343M860.291 641.311L936.391 785.68" stroke="#3C61F5" stroke-width="18.8808" stroke-linecap="round" stroke-linejoin="round"/>
<path d="M1006.51 771.792L969.995 718.077L1076.08 679.906L1027.35 620.908" stroke="#F6B254" stroke-width="18.6148" stroke-linecap="round" stroke-linejoin="round"/>
<path d="M644.042 654.775L708.598 661.919L668.687 767.365L745.201 768.648" stroke="#F6B254" stroke-width="18.6148" stroke-linecap="round" stroke-linejoin="round"/>
<path d="M581.999 745.417L594.862 582.726M541.103 727.432L553.966 564.742" stroke="#3C61F5" stroke-width="18.8808" stroke-linecap="round" stroke-linejoin="round"/>
<path d="M762.363 677.58L748.292 538.653L643.951 576.336" stroke="#BB6EF6" stroke-width="18.8808" stroke-linecap="round" stroke-linejoin="round"/>
<path d="M355.186 652.205L348.042 716.761L242.595 676.85L241.313 753.364" stroke="#F6B254" stroke-width="18.6148" stroke-linecap="round" stroke-linejoin="round"/>
<path d="M264.572 590.151L427.263 603.014M282.557 549.255L445.247 562.118" stroke="#3C61F5" stroke-width="18.8808" stroke-linecap="round" stroke-linejoin="round"/>
<path d="M332.386 770.514L471.313 756.443L433.629 652.102" stroke="#BB6EF6" stroke-width="18.8808" stroke-linecap="round" stroke-linejoin="round"/>
<path d="M46.9601 654.775L111.516 661.919L71.605 767.365L148.119 768.648" stroke="#F6B254" stroke-width="18.6148" stroke-linecap="round" stroke-linejoin="round"/>
<path d="M-15.0783 745.417L-2.21533 582.726M-55.9741 727.432L-43.1112 564.742" stroke="#3C61F5" stroke-width="18.8808" stroke-linecap="round" stroke-linejoin="round"/>
<path d="M165.281 677.58L151.21 538.653L46.8692 576.336" stroke="#BB6EF6" stroke-width="18.8808" stroke-linecap="round" stroke-linejoin="round"/>
<path d="M952.267 950.753L945.123 1015.31L839.677 975.398L838.394 1051.91" stroke="#F6B254" stroke-width="18.6148" stroke-linecap="round" stroke-linejoin="round"/>
<path d="M861.654 888.714L1024.34 901.577M879.638 847.818L1042.33 860.681" stroke="#3C61F5" stroke-width="18.8808" stroke-linecap="round" stroke-linejoin="round"/>
<path d="M929.472 1069.06L1068.4 1054.99L1030.72 950.649" stroke="#BB6EF6" stroke-width="18.8808" stroke-linecap="round" stroke-linejoin="round"/>
<path d="M770.017 975.322L685.292 992.21L709.926 1056.93L631.34 1078.5" stroke="#F6B254" stroke-width="18.6148" stroke-linecap="round" stroke-linejoin="round"/>
<path d="M533.702 876.041L572.93 1038.26L662.942 935.741" stroke="#BB6EF6" stroke-width="18.8808" stroke-linecap="round" stroke-linejoin="round"/>
<path d="M770.017 925.501L615.912 871.784M770.017 880.825L615.912 827.108" stroke="#3C61F5" stroke-width="18.8808" stroke-linecap="round" stroke-linejoin="round"/>
<path d="M289.348 1080.26L383.412 971.398L438.156 1060.16" stroke="#BB6EF6" stroke-width="18.8808" stroke-linecap="round" stroke-linejoin="round"/>
<path d="M272.407 846.431L227.974 893.804L326.824 948.031L269.493 998.719" stroke="#F6B254" stroke-width="18.6148" stroke-linecap="round" stroke-linejoin="round"/>
<path d="M471.845 971.06L338.725 876.653M484.254 928.142L351.134 833.735" stroke="#3C61F5" stroke-width="18.8808" stroke-linecap="round" stroke-linejoin="round"/>
<path d="M-66.7539 938.417L17.9703 921.53L-6.66345 856.808L71.9225 835.234" stroke="#F6B254" stroke-width="18.6148" stroke-linecap="round" stroke-linejoin="round"/>
<path d="M169.569 1037.73L130.342 875.515L40.3291 978.029" stroke="#BB6EF6" stroke-width="18.8808" stroke-linecap="round" stroke-linejoin="round"/>
<path d="M-66.7539 988.269L87.3502 1041.99M-66.7539 1032.95L87.3502 1086.66" stroke="#3C61F5" stroke-width="18.8808" stroke-linecap="round" stroke-linejoin="round"/>
</g>
<path d="M465.066 184.083C483.858 163.857 515.874 163.857 534.665 184.083L819.979 491.184C848.212 521.573 826.66 571.013 785.18 571.014H775.185C768.281 571.014 762.685 576.61 762.685 583.514V796.79C762.685 823.048 741.415 844.249 715.29 844.358L714.672 844.357C680.529 844.066 624.566 843.747 583.022 844.289C562.121 844.562 544.822 827.745 544.822 806.663V666.916C544.822 654.49 534.749 644.416 522.322 644.416H477.41C464.984 644.416 454.91 654.49 454.91 666.916V806.663C454.91 827.745 437.611 844.562 416.71 844.289C375.166 843.747 319.203 844.066 285.061 844.357C258.674 844.583 237.048 823.303 237.048 796.817V583.488C237.048 576.604 231.471 571.014 224.548 571.014H214.553C173.072 571.013 151.52 521.573 179.754 491.184L465.066 184.083Z" fill="black" stroke="#190F47" stroke-width="35" stroke-linejoin="round"/>
<path d="M192.575 503.094L477.888 195.994C489.756 183.219 509.977 183.219 521.845 195.994L807.158 503.094C824.99 522.288 811.378 553.514 785.179 553.514H775.184C758.616 553.514 745.184 566.945 745.184 583.514V796.79C745.184 813.503 731.534 827 714.821 826.858C680.674 826.566 624.544 826.245 582.794 826.79C571.556 826.937 562.322 817.902 562.322 806.663V666.916C562.322 644.824 544.414 626.916 522.322 626.916H499.866H477.41C455.318 626.916 437.41 644.824 437.41 666.916V806.663C437.41 817.902 428.176 826.937 416.939 826.79C375.188 826.245 319.058 826.566 284.911 826.858C268.199 827 254.548 813.53 254.548 796.817V583.488C254.548 566.919 241.117 553.514 224.548 553.514H214.553C188.354 553.514 174.743 522.288 192.575 503.094Z" fill="black" stroke="white" stroke-width="28" stroke-linejoin="round"/>
</g>
<defs>
<clipPath id="clip0_1928_14955">
<rect width="1000" height="1000" fill="white" transform="matrix(0 1 -1 0 1000 0)"/>
</clipPath>
</defs>
</svg>
