<svg width="1000" height="1000" viewBox="0 0 1000 1000" fill="none" xmlns="http://www.w3.org/2000/svg">
<g clip-path="url(#clip0_1928_15559)">
<rect width="1000" height="1000" transform="matrix(0 1 -1 0 1000 0)" fill="#190F47"/>
<g opacity="0.3">
<path d="M967.161 -58.6113L984.048 26.1129L1048.77 1.47913L1070.34 80.0651" stroke="#F6B254" stroke-width="18.6148" stroke-linecap="round" stroke-linejoin="round"/>
<path d="M867.881 177.709L1030.1 138.481L927.582 48.4688" stroke="#BB6EF6" stroke-width="18.8808" stroke-linecap="round" stroke-linejoin="round"/>
<path d="M917.342 -58.6113L863.625 95.4928M872.666 -58.6113L818.949 95.4928" stroke="#3C61F5" stroke-width="18.8808" stroke-linecap="round" stroke-linejoin="round"/>
<path d="M653.72 55.0946L646.576 119.65L541.13 79.7395L539.848 156.254" stroke="#F6B254" stroke-width="18.6148" stroke-linecap="round" stroke-linejoin="round"/>
<path d="M563.107 -6.94399L725.797 5.91895M581.091 -47.8399L743.782 -34.9769" stroke="#3C61F5" stroke-width="18.8808" stroke-linecap="round" stroke-linejoin="round"/>
<path d="M630.929 173.437L769.855 159.366L732.172 55.0249" stroke="#BB6EF6" stroke-width="18.8808" stroke-linecap="round" stroke-linejoin="round"/>
<path d="M475.028 123.532L366.165 29.4686L454.923 -25.2754" stroke="#BB6EF6" stroke-width="18.8808" stroke-linecap="round" stroke-linejoin="round"/>
<path d="M241.193 140.464L288.566 184.897L342.793 86.0469L393.481 143.378" stroke="#F6B254" stroke-width="18.6148" stroke-linecap="round" stroke-linejoin="round"/>
<path d="M365.822 -58.9524L271.415 74.1677M322.905 -71.3613L228.498 61.7588" stroke="#3C61F5" stroke-width="18.8808" stroke-linecap="round" stroke-linejoin="round"/>
<path d="M-70.7339 32.62L70.8252 47.6814L-72.7632 126.491" stroke="#BB6EF6" stroke-width="18.8808" stroke-linecap="round" stroke-linejoin="round"/>
<path d="M42.7531 193.852L187.122 117.752M36.09 149.676L180.459 73.5756" stroke="#3C61F5" stroke-width="18.8808" stroke-linecap="round" stroke-linejoin="round"/>
<path d="M166.555 3.44941L112.84 39.9619L74.6692 -66.1269L15.6717 -17.3889" stroke="#F6B254" stroke-width="18.6148" stroke-linecap="round" stroke-linejoin="round"/>
<path d="M824.895 331.15L966.454 346.212L822.866 425.021" stroke="#BB6EF6" stroke-width="18.8808" stroke-linecap="round" stroke-linejoin="round"/>
<path d="M938.381 492.397L1082.75 416.297M931.718 448.222L1076.09 372.122" stroke="#3C61F5" stroke-width="18.8808" stroke-linecap="round" stroke-linejoin="round"/>
<path d="M1062.18 302.013L1008.47 338.525L970.298 232.437L911.3 281.175" stroke="#F6B254" stroke-width="18.6148" stroke-linecap="round" stroke-linejoin="round"/>
<path d="M646.633 365.907L653.776 301.352L759.223 341.262L760.505 264.748" stroke="#F6B254" stroke-width="18.6148" stroke-linecap="round" stroke-linejoin="round"/>
<path d="M737.258 427.964L574.568 415.101M719.274 468.859L556.583 455.996" stroke="#3C61F5" stroke-width="18.8808" stroke-linecap="round" stroke-linejoin="round"/>
<path d="M669.44 247.599L530.513 261.67L568.197 366.011" stroke="#BB6EF6" stroke-width="18.8808" stroke-linecap="round" stroke-linejoin="round"/>
<path d="M370.08 239.937L386.967 324.661L451.689 300.027L473.262 378.613" stroke="#F6B254" stroke-width="18.6148" stroke-linecap="round" stroke-linejoin="round"/>
<path d="M270.8 476.272L433.014 437.045L330.5 347.032" stroke="#BB6EF6" stroke-width="18.8808" stroke-linecap="round" stroke-linejoin="round"/>
<path d="M320.26 239.937L266.543 394.041M275.585 239.937L221.868 394.041" stroke="#3C61F5" stroke-width="18.8808" stroke-linecap="round" stroke-linejoin="round"/>
<path d="M34.6606 479.613L17.7733 394.889L-46.9483 419.523L-68.522 340.937" stroke="#F6B254" stroke-width="18.6148" stroke-linecap="round" stroke-linejoin="round"/>
<path d="M133.94 243.311L-28.2739 282.538L74.24 372.551" stroke="#BB6EF6" stroke-width="18.8808" stroke-linecap="round" stroke-linejoin="round"/>
<path d="M84.4721 479.613L138.189 325.509M129.148 479.613L182.865 325.509" stroke="#3C61F5" stroke-width="18.8808" stroke-linecap="round" stroke-linejoin="round"/>
<path d="M977.355 534.507L962.293 676.066L883.483 532.478" stroke="#BB6EF6" stroke-width="18.8808" stroke-linecap="round" stroke-linejoin="round"/>
<path d="M816.115 647.974L892.215 792.343M860.291 641.311L936.391 785.68" stroke="#3C61F5" stroke-width="18.8808" stroke-linecap="round" stroke-linejoin="round"/>
<path d="M1006.51 771.792L969.995 718.077L1076.08 679.906L1027.35 620.908" stroke="#F6B254" stroke-width="18.6148" stroke-linecap="round" stroke-linejoin="round"/>
<path d="M644.042 654.775L708.597 661.919L668.687 767.365L745.201 768.648" stroke="#F6B254" stroke-width="18.6148" stroke-linecap="round" stroke-linejoin="round"/>
<path d="M581.999 745.417L594.862 582.726M541.103 727.432L553.966 564.742" stroke="#3C61F5" stroke-width="18.8808" stroke-linecap="round" stroke-linejoin="round"/>
<path d="M762.363 677.58L748.292 538.653L643.951 576.336" stroke="#BB6EF6" stroke-width="18.8808" stroke-linecap="round" stroke-linejoin="round"/>
<path d="M355.186 652.205L348.042 716.761L242.595 676.85L241.313 753.364" stroke="#F6B254" stroke-width="18.6148" stroke-linecap="round" stroke-linejoin="round"/>
<path d="M264.572 590.151L427.263 603.014M282.557 549.255L445.247 562.118" stroke="#3C61F5" stroke-width="18.8808" stroke-linecap="round" stroke-linejoin="round"/>
<path d="M332.386 770.514L471.313 756.443L433.629 652.102" stroke="#BB6EF6" stroke-width="18.8808" stroke-linecap="round" stroke-linejoin="round"/>
<path d="M46.9601 654.775L111.516 661.919L71.605 767.365L148.119 768.648" stroke="#F6B254" stroke-width="18.6148" stroke-linecap="round" stroke-linejoin="round"/>
<path d="M-15.0783 745.417L-2.21533 582.726M-55.9741 727.432L-43.1112 564.742" stroke="#3C61F5" stroke-width="18.8808" stroke-linecap="round" stroke-linejoin="round"/>
<path d="M165.281 677.58L151.21 538.653L46.8692 576.336" stroke="#BB6EF6" stroke-width="18.8808" stroke-linecap="round" stroke-linejoin="round"/>
<path d="M952.267 950.753L945.123 1015.31L839.677 975.398L838.394 1051.91" stroke="#F6B254" stroke-width="18.6148" stroke-linecap="round" stroke-linejoin="round"/>
<path d="M861.654 888.714L1024.34 901.577M879.638 847.818L1042.33 860.681" stroke="#3C61F5" stroke-width="18.8808" stroke-linecap="round" stroke-linejoin="round"/>
<path d="M929.471 1069.06L1068.4 1054.99L1030.72 950.649" stroke="#BB6EF6" stroke-width="18.8808" stroke-linecap="round" stroke-linejoin="round"/>
<path d="M770.017 975.322L685.292 992.21L709.926 1056.93L631.34 1078.5" stroke="#F6B254" stroke-width="18.6148" stroke-linecap="round" stroke-linejoin="round"/>
<path d="M533.702 876.041L572.929 1038.26L662.942 935.741" stroke="#BB6EF6" stroke-width="18.8808" stroke-linecap="round" stroke-linejoin="round"/>
<path d="M770.017 925.501L615.912 871.784M770.017 880.825L615.912 827.108" stroke="#3C61F5" stroke-width="18.8808" stroke-linecap="round" stroke-linejoin="round"/>
<path d="M289.348 1080.26L383.412 971.398L438.156 1060.16" stroke="#BB6EF6" stroke-width="18.8808" stroke-linecap="round" stroke-linejoin="round"/>
<path d="M272.407 846.431L227.974 893.804L326.824 948.031L269.493 998.719" stroke="#F6B254" stroke-width="18.6148" stroke-linecap="round" stroke-linejoin="round"/>
<path d="M471.845 971.06L338.725 876.653M484.254 928.142L351.134 833.735" stroke="#3C61F5" stroke-width="18.8808" stroke-linecap="round" stroke-linejoin="round"/>
<path d="M-66.7539 938.417L17.9703 921.53L-6.66345 856.808L71.9225 835.234" stroke="#F6B254" stroke-width="18.6148" stroke-linecap="round" stroke-linejoin="round"/>
<path d="M169.569 1037.73L130.342 875.515L40.3291 978.029" stroke="#BB6EF6" stroke-width="18.8808" stroke-linecap="round" stroke-linejoin="round"/>
<path d="M-66.7539 988.269L87.3502 1041.99M-66.7539 1032.95L87.3502 1086.66" stroke="#3C61F5" stroke-width="18.8808" stroke-linecap="round" stroke-linejoin="round"/>
</g>
<path d="M811.835 500.945C811.835 676.602 669.722 819 494.417 819C319.113 819 177 676.602 177 500.945C177 325.288 319.113 182.889 494.417 182.889C669.722 182.889 811.835 325.288 811.835 500.945Z" fill="black"/>
<path d="M677.035 500.945C677.035 602.004 595.274 683.929 494.417 683.929C393.561 683.929 311.8 602.004 311.8 500.945C311.8 399.885 393.561 317.96 494.417 317.96C595.274 317.96 677.035 399.885 677.035 500.945Z" fill="black"/>
<path d="M538.136 500.945C538.136 525.391 518.359 545.208 493.962 545.208C469.565 545.208 449.788 525.391 449.788 500.945C449.788 476.499 469.565 456.682 493.962 456.682C518.359 456.682 538.136 476.499 538.136 500.945Z" fill="white"/>
<path d="M899.826 220.409L800.547 286.887L844.722 326.732L944 256.002L899.826 220.409Z" fill="black"/>
<path d="M800.547 286.887L899.826 220.409L883.171 163L785.844 236.073L800.547 286.887Z" fill="black"/>
<path d="M494.417 165.39C679.42 165.39 829.335 315.656 829.335 500.945C829.335 686.234 679.42 836.5 494.417 836.5C309.414 836.5 159.5 686.234 159.5 500.945C159.5 315.656 309.414 165.39 494.417 165.39ZM873.099 148.689C877.635 145.496 883.43 144.637 888.713 146.4C894.165 148.221 898.376 152.603 899.978 158.124L915.097 210.239L954.979 242.375C959.244 245.811 961.654 251.046 961.492 256.521C961.33 261.995 958.615 267.077 954.154 270.255L854.876 340.984C848.191 345.747 839.095 345.224 833 339.727L788.826 299.882C788.796 299.854 788.766 299.826 788.735 299.798C788.645 299.715 788.555 299.632 788.467 299.548C788.227 299.319 787.995 299.085 787.771 298.845C787.612 298.675 787.457 298.502 787.306 298.326C787.015 297.99 786.738 297.645 786.476 297.29C786.407 297.197 786.34 297.103 786.273 297.009C786.24 296.962 786.206 296.915 786.173 296.868C786.143 296.825 786.114 296.781 786.085 296.738C785.927 296.506 785.774 296.27 785.627 296.031C785.49 295.809 785.36 295.582 785.233 295.353C785.196 295.284 785.157 295.217 785.12 295.148C785.089 295.091 785.06 295.033 785.03 294.976C784.981 294.88 784.931 294.785 784.883 294.688C784.858 294.639 784.835 294.588 784.811 294.538C784.762 294.437 784.712 294.337 784.665 294.235C784.64 294.182 784.617 294.128 784.593 294.074C784.546 293.97 784.499 293.865 784.454 293.76C784.427 293.696 784.401 293.631 784.374 293.566C784.341 293.486 784.307 293.405 784.275 293.324C784.241 293.237 784.207 293.149 784.174 293.061C784.151 292.999 784.128 292.938 784.105 292.877C784.073 292.788 784.042 292.7 784.011 292.61C783.983 292.53 783.956 292.45 783.93 292.37C783.905 292.296 783.881 292.222 783.857 292.147C783.825 292.043 783.794 291.939 783.763 291.834C783.755 291.806 783.745 291.779 783.737 291.751L769.034 240.938C767.013 233.952 769.522 226.445 775.337 222.079L872.664 149.006L873.099 148.689Z" stroke="#190F47" stroke-width="35" stroke-linejoin="round"/>
<path d="M811.835 500.945C811.835 676.602 669.722 819 494.417 819C319.113 819 177 676.602 177 500.945C177 325.288 319.113 182.889 494.417 182.889C669.722 182.889 811.835 325.288 811.835 500.945Z" fill="black"/>
<path d="M677.035 500.945C677.035 602.004 595.274 683.929 494.417 683.929C393.561 683.929 311.8 602.004 311.8 500.945C311.8 399.885 393.561 317.96 494.417 317.96C595.274 317.96 677.035 399.885 677.035 500.945Z" fill="black"/>
<path d="M899.826 220.409L800.547 286.887L844.722 326.732L944 256.002L899.826 220.409Z" fill="black"/>
<path d="M800.547 286.887L899.826 220.409L883.171 163L785.844 236.073L800.547 286.887Z" fill="black"/>
<path d="M493.962 500.945L800.547 286.887M899.826 220.409L800.547 286.887M899.826 220.409L944 256.002L844.722 326.732L800.547 286.887M899.826 220.409L883.171 163L785.844 236.073L800.547 286.887M479.5 459.108C462.206 465.11 449.788 481.574 449.788 500.945C449.788 525.391 469.565 545.208 493.962 545.208C512.707 545.208 528.725 533.509 535.141 517M811.835 500.945C811.835 676.602 669.722 819 494.417 819C319.113 819 177 676.602 177 500.945C177 325.288 319.113 182.889 494.417 182.889C669.722 182.889 811.835 325.288 811.835 500.945ZM677.035 500.945C677.035 602.004 595.274 683.929 494.417 683.929C393.561 683.929 311.8 602.004 311.8 500.945C311.8 399.885 393.561 317.96 494.417 317.96C595.274 317.96 677.035 399.885 677.035 500.945Z" stroke="white" stroke-width="28" stroke-linecap="round" stroke-linejoin="round"/>
</g>
<defs>
<clipPath id="clip0_1928_15559">
<rect width="1000" height="1000" fill="white" transform="matrix(0 1 -1 0 1000 0)"/>
</clipPath>
</defs>
</svg>
