<svg width="1000" height="1000" viewBox="0 0 1000 1000" fill="none" xmlns="http://www.w3.org/2000/svg">
<g clip-path="url(#clip0_1928_14653)">
<rect width="1000" height="1000" transform="matrix(0 1 -1 0 1000 0)" fill="#190F47"/>
<g opacity="0.3">
<path d="M967.161 -58.6113L984.048 26.1129L1048.77 1.47913L1070.34 80.0651" stroke="#F6B254" stroke-width="18.6148" stroke-linecap="round" stroke-linejoin="round"/>
<path d="M867.881 177.709L1030.1 138.481L927.582 48.4688" stroke="#BB6EF6" stroke-width="18.8808" stroke-linecap="round" stroke-linejoin="round"/>
<path d="M917.342 -58.6113L863.625 95.4928M872.666 -58.6113L818.949 95.4928" stroke="#3C61F5" stroke-width="18.8808" stroke-linecap="round" stroke-linejoin="round"/>
<path d="M653.72 55.0946L646.576 119.65L541.13 79.7395L539.848 156.254" stroke="#F6B254" stroke-width="18.6148" stroke-linecap="round" stroke-linejoin="round"/>
<path d="M563.107 -6.94399L725.797 5.91895M581.091 -47.8399L743.782 -34.9769" stroke="#3C61F5" stroke-width="18.8808" stroke-linecap="round" stroke-linejoin="round"/>
<path d="M630.929 173.437L769.855 159.366L732.172 55.0249" stroke="#BB6EF6" stroke-width="18.8808" stroke-linecap="round" stroke-linejoin="round"/>
<path d="M475.028 123.532L366.165 29.4686L454.923 -25.2754" stroke="#BB6EF6" stroke-width="18.8808" stroke-linecap="round" stroke-linejoin="round"/>
<path d="M241.193 140.464L288.566 184.897L342.793 86.0469L393.481 143.378" stroke="#F6B254" stroke-width="18.6148" stroke-linecap="round" stroke-linejoin="round"/>
<path d="M365.822 -58.9524L271.415 74.1677M322.905 -71.3613L228.498 61.7588" stroke="#3C61F5" stroke-width="18.8808" stroke-linecap="round" stroke-linejoin="round"/>
<path d="M-70.7339 32.62L70.8252 47.6814L-72.7632 126.491" stroke="#BB6EF6" stroke-width="18.8808" stroke-linecap="round" stroke-linejoin="round"/>
<path d="M42.7531 193.852L187.122 117.752M36.09 149.676L180.459 73.5756" stroke="#3C61F5" stroke-width="18.8808" stroke-linecap="round" stroke-linejoin="round"/>
<path d="M166.555 3.44941L112.84 39.9619L74.6692 -66.1269L15.6717 -17.3889" stroke="#F6B254" stroke-width="18.6148" stroke-linecap="round" stroke-linejoin="round"/>
<path d="M824.895 331.15L966.454 346.212L822.866 425.021" stroke="#BB6EF6" stroke-width="18.8808" stroke-linecap="round" stroke-linejoin="round"/>
<path d="M938.381 492.397L1082.75 416.297M931.718 448.222L1076.09 372.122" stroke="#3C61F5" stroke-width="18.8808" stroke-linecap="round" stroke-linejoin="round"/>
<path d="M1062.18 302.013L1008.47 338.525L970.298 232.437L911.3 281.175" stroke="#F6B254" stroke-width="18.6148" stroke-linecap="round" stroke-linejoin="round"/>
<path d="M646.633 365.907L653.776 301.352L759.223 341.262L760.505 264.748" stroke="#F6B254" stroke-width="18.6148" stroke-linecap="round" stroke-linejoin="round"/>
<path d="M737.258 427.964L574.568 415.101M719.274 468.859L556.583 455.996" stroke="#3C61F5" stroke-width="18.8808" stroke-linecap="round" stroke-linejoin="round"/>
<path d="M669.44 247.599L530.513 261.67L568.197 366.011" stroke="#BB6EF6" stroke-width="18.8808" stroke-linecap="round" stroke-linejoin="round"/>
<path d="M370.08 239.937L386.967 324.661L451.689 300.027L473.262 378.613" stroke="#F6B254" stroke-width="18.6148" stroke-linecap="round" stroke-linejoin="round"/>
<path d="M270.8 476.272L433.014 437.045L330.5 347.032" stroke="#BB6EF6" stroke-width="18.8808" stroke-linecap="round" stroke-linejoin="round"/>
<path d="M320.26 239.937L266.543 394.041M275.585 239.937L221.868 394.041" stroke="#3C61F5" stroke-width="18.8808" stroke-linecap="round" stroke-linejoin="round"/>
<path d="M34.6606 479.613L17.7733 394.889L-46.9483 419.523L-68.522 340.937" stroke="#F6B254" stroke-width="18.6148" stroke-linecap="round" stroke-linejoin="round"/>
<path d="M133.94 243.311L-28.2739 282.538L74.24 372.551" stroke="#BB6EF6" stroke-width="18.8808" stroke-linecap="round" stroke-linejoin="round"/>
<path d="M84.4721 479.613L138.189 325.509M129.148 479.613L182.865 325.509" stroke="#3C61F5" stroke-width="18.8808" stroke-linecap="round" stroke-linejoin="round"/>
<path d="M977.355 534.507L962.293 676.066L883.483 532.478" stroke="#BB6EF6" stroke-width="18.8808" stroke-linecap="round" stroke-linejoin="round"/>
<path d="M816.115 647.974L892.215 792.343M860.291 641.311L936.391 785.68" stroke="#3C61F5" stroke-width="18.8808" stroke-linecap="round" stroke-linejoin="round"/>
<path d="M1006.51 771.792L969.995 718.077L1076.08 679.906L1027.35 620.908" stroke="#F6B254" stroke-width="18.6148" stroke-linecap="round" stroke-linejoin="round"/>
<path d="M644.042 654.775L708.597 661.919L668.687 767.365L745.201 768.648" stroke="#F6B254" stroke-width="18.6148" stroke-linecap="round" stroke-linejoin="round"/>
<path d="M581.999 745.417L594.862 582.726M541.103 727.432L553.966 564.742" stroke="#3C61F5" stroke-width="18.8808" stroke-linecap="round" stroke-linejoin="round"/>
<path d="M762.363 677.58L748.292 538.653L643.951 576.336" stroke="#BB6EF6" stroke-width="18.8808" stroke-linecap="round" stroke-linejoin="round"/>
<path d="M355.186 652.205L348.042 716.761L242.595 676.85L241.313 753.364" stroke="#F6B254" stroke-width="18.6148" stroke-linecap="round" stroke-linejoin="round"/>
<path d="M264.572 590.151L427.263 603.014M282.557 549.255L445.247 562.118" stroke="#3C61F5" stroke-width="18.8808" stroke-linecap="round" stroke-linejoin="round"/>
<path d="M332.386 770.514L471.313 756.443L433.629 652.102" stroke="#BB6EF6" stroke-width="18.8808" stroke-linecap="round" stroke-linejoin="round"/>
<path d="M46.9601 654.775L111.516 661.919L71.605 767.365L148.119 768.648" stroke="#F6B254" stroke-width="18.6148" stroke-linecap="round" stroke-linejoin="round"/>
<path d="M-15.0783 745.417L-2.21533 582.726M-55.9741 727.432L-43.1112 564.742" stroke="#3C61F5" stroke-width="18.8808" stroke-linecap="round" stroke-linejoin="round"/>
<path d="M165.281 677.58L151.21 538.653L46.8692 576.336" stroke="#BB6EF6" stroke-width="18.8808" stroke-linecap="round" stroke-linejoin="round"/>
<path d="M952.267 950.753L945.123 1015.31L839.677 975.398L838.394 1051.91" stroke="#F6B254" stroke-width="18.6148" stroke-linecap="round" stroke-linejoin="round"/>
<path d="M861.654 888.714L1024.34 901.577M879.638 847.818L1042.33 860.681" stroke="#3C61F5" stroke-width="18.8808" stroke-linecap="round" stroke-linejoin="round"/>
<path d="M929.471 1069.06L1068.4 1054.99L1030.72 950.649" stroke="#BB6EF6" stroke-width="18.8808" stroke-linecap="round" stroke-linejoin="round"/>
<path d="M770.017 975.322L685.292 992.21L709.926 1056.93L631.34 1078.5" stroke="#F6B254" stroke-width="18.6148" stroke-linecap="round" stroke-linejoin="round"/>
<path d="M533.702 876.041L572.929 1038.26L662.942 935.741" stroke="#BB6EF6" stroke-width="18.8808" stroke-linecap="round" stroke-linejoin="round"/>
<path d="M770.017 925.501L615.912 871.784M770.017 880.825L615.912 827.108" stroke="#3C61F5" stroke-width="18.8808" stroke-linecap="round" stroke-linejoin="round"/>
<path d="M289.348 1080.26L383.412 971.398L438.156 1060.16" stroke="#BB6EF6" stroke-width="18.8808" stroke-linecap="round" stroke-linejoin="round"/>
<path d="M272.407 846.431L227.974 893.804L326.824 948.031L269.493 998.719" stroke="#F6B254" stroke-width="18.6148" stroke-linecap="round" stroke-linejoin="round"/>
<path d="M471.845 971.06L338.725 876.653M484.254 928.142L351.134 833.735" stroke="#3C61F5" stroke-width="18.8808" stroke-linecap="round" stroke-linejoin="round"/>
<path d="M-66.7539 938.417L17.9703 921.53L-6.66345 856.808L71.9225 835.234" stroke="#F6B254" stroke-width="18.6148" stroke-linecap="round" stroke-linejoin="round"/>
<path d="M169.569 1037.73L130.342 875.515L40.3291 978.029" stroke="#BB6EF6" stroke-width="18.8808" stroke-linecap="round" stroke-linejoin="round"/>
<path d="M-66.7539 988.269L87.3502 1041.99M-66.7539 1032.95L87.3502 1086.66" stroke="#3C61F5" stroke-width="18.8808" stroke-linecap="round" stroke-linejoin="round"/>
</g>
<path d="M725.036 260.5C788.945 260.5 840.92 312.046 840.92 375.837C840.92 413.661 822.646 447.179 794.446 468.2C797.515 469.297 800.56 470.467 803.578 471.71C820.486 478.674 836.348 487.842 850.758 498.945C857.573 504.197 864.064 509.882 870.188 515.971C889.258 534.935 904.391 557.455 914.718 582.246C916.237 585.894 917.649 589.581 918.951 593.303C922.204 602.602 924.773 612.113 926.644 621.759C932.945 654.26 905.247 677.952 877.084 677.952H700.495C700.89 679.732 701.261 681.517 701.608 683.307C707.91 715.808 680.212 739.5 652.049 739.5H347.951C319.788 739.5 292.09 715.808 298.392 683.307C298.739 681.517 299.111 679.732 299.506 677.952H122.916C94.7527 677.952 67.0548 654.26 73.3564 621.759C75.9752 608.253 79.9645 595.013 85.2822 582.246C95.6086 557.455 110.742 534.935 129.812 515.971C148.883 497.006 171.518 481.968 196.422 471.71C199.44 470.467 202.485 469.297 205.553 468.2C177.353 447.179 159.08 413.661 159.08 375.837C159.08 312.046 211.056 260.5 274.965 260.5C338.874 260.5 390.849 312.046 390.849 375.837C390.849 413.661 372.575 447.179 344.375 468.2C347.443 469.297 350.488 470.467 353.507 471.71C370.415 478.674 386.276 487.842 400.687 498.945C401.574 499.629 402.456 500.32 403.332 501.019C391.192 482.79 384.115 460.921 384.115 437.385C384.115 373.594 436.091 322.048 500 322.048C563.909 322.048 615.885 373.594 615.885 437.385C615.885 460.921 608.807 482.79 596.667 501.019C611.774 488.979 628.544 479.103 646.493 471.71C649.511 470.467 652.556 469.297 655.624 468.2C627.425 447.179 609.151 413.661 609.151 375.837C609.151 312.046 661.127 260.5 725.036 260.5Z" fill="black" stroke="#190F47" stroke-width="35" stroke-linejoin="round"/>
<path d="M500 535.221C445.664 535.221 401.615 491.418 401.615 437.385C401.615 383.351 445.664 339.548 500 339.548C554.336 339.548 598.384 383.351 598.384 437.385C598.384 491.418 554.336 535.221 500 535.221Z" fill="black"/>
<path fill-rule="evenodd" clip-rule="evenodd" d="M592.223 528.379C585.413 535.152 579.153 542.419 573.489 550.111C588.357 556.397 602.319 564.552 615.041 574.356C621.275 579.159 627.212 584.358 632.812 589.927C650.253 607.271 664.088 627.862 673.528 650.523C674.893 653.8 676.162 657.111 677.334 660.452H877.084C896.843 660.452 913.204 644.383 909.464 625.09C907.754 616.274 905.406 607.582 902.432 599.082C901.242 595.681 899.952 592.31 898.563 588.975C889.124 566.314 875.289 545.723 857.848 528.379C852.248 522.81 846.311 517.611 840.077 512.808C826.895 502.651 812.384 494.264 796.913 487.891C774.125 478.504 749.701 473.673 725.036 473.673C700.37 473.673 675.946 478.504 653.158 487.891C630.37 497.277 609.665 511.035 592.223 528.379Z" fill="black"/>
<path d="M725.036 473.673C670.699 473.673 626.651 429.87 626.651 375.837C626.651 321.803 670.699 278 725.036 278C779.372 278 823.42 321.803 823.42 375.837C823.42 429.87 779.372 473.673 725.036 473.673Z" fill="black"/>
<path fill-rule="evenodd" clip-rule="evenodd" d="M101.437 588.975C96.5759 600.645 92.9297 612.746 90.5364 625.09C86.7955 644.383 103.157 660.452 122.916 660.452H322.666C323.838 657.111 325.107 653.8 326.472 650.523C335.912 627.862 349.747 607.271 367.188 589.927C384.217 572.993 404.358 559.477 426.511 550.111C420.847 542.419 414.587 535.152 407.777 528.379C402.177 522.81 396.24 517.611 390.006 512.808C376.824 502.651 362.313 494.264 346.842 487.891C324.054 478.504 299.63 473.673 274.964 473.673C250.299 473.673 225.875 478.504 203.087 487.891C180.299 497.277 159.593 511.035 142.152 528.379C124.711 545.723 110.876 566.314 101.437 588.975Z" fill="black"/>
<path d="M274.964 473.673C220.628 473.673 176.58 429.87 176.58 375.837C176.58 321.803 220.628 278 274.964 278C329.301 278 373.349 321.803 373.349 375.837C373.349 429.87 329.301 473.673 274.964 473.673Z" fill="black"/>
<path d="M573.489 550.111C588.357 556.397 602.319 564.552 615.041 574.356C621.275 579.159 627.212 584.358 632.812 589.927C650.253 607.271 664.088 627.862 673.528 650.523C674.893 653.8 676.162 657.111 677.334 660.452L677.397 660.63C680.37 669.13 682.719 677.822 684.428 686.638C688.169 705.931 671.807 722 652.049 722H347.951C328.193 722 311.831 705.931 315.572 686.638C317.293 677.76 319.663 669.008 322.666 660.452C323.838 657.111 325.107 653.8 326.472 650.523C335.912 627.862 349.747 607.271 367.188 589.927C384.217 572.993 404.358 559.477 426.511 550.111C427.047 549.885 427.584 549.661 428.123 549.439C450.911 540.052 475.334 535.221 500 535.221C524.666 535.221 549.09 540.052 571.877 549.439C572.416 549.661 572.953 549.885 573.489 550.111Z" fill="black"/>
<path d="M500 535.221C445.664 535.221 401.615 491.418 401.615 437.385C401.615 383.351 445.664 339.548 500 339.548C554.336 339.548 598.384 383.351 598.384 437.385C598.384 491.418 554.336 535.221 500 535.221ZM500 535.221C475.334 535.221 450.911 540.052 428.123 549.439C427.584 549.661 427.047 549.885 426.511 550.111M500 535.221C524.666 535.221 549.09 540.052 571.877 549.439C572.416 549.661 572.953 549.885 573.489 550.111M573.489 550.111C579.153 542.419 585.413 535.152 592.223 528.379C609.665 511.035 630.37 497.277 653.158 487.891C675.946 478.504 700.37 473.673 725.036 473.673M573.489 550.111C588.357 556.397 602.319 564.552 615.041 574.356C621.275 579.159 627.212 584.358 632.812 589.927C650.253 607.271 664.088 627.862 673.528 650.523C674.893 653.8 676.162 657.111 677.334 660.452M677.334 660.452H877.084C896.843 660.452 913.204 644.383 909.464 625.09C907.754 616.274 905.406 607.582 902.432 599.082C901.242 595.681 899.952 592.31 898.563 588.975C889.124 566.314 875.289 545.723 857.848 528.379C852.248 522.81 846.311 517.611 840.077 512.808C826.895 502.651 812.384 494.264 796.913 487.891C774.125 478.504 749.701 473.673 725.036 473.673M677.334 660.452L677.397 660.63C680.37 669.13 682.719 677.822 684.428 686.638C688.169 705.931 671.807 722 652.049 722H347.951C328.193 722 311.831 705.931 315.572 686.638C317.293 677.76 319.663 669.008 322.666 660.452M725.036 473.673C670.699 473.673 626.651 429.87 626.651 375.837C626.651 321.803 670.699 278 725.036 278C779.372 278 823.42 321.803 823.42 375.837C823.42 429.87 779.372 473.673 725.036 473.673ZM322.666 660.452H122.916C103.157 660.452 86.7955 644.383 90.5364 625.09C92.9297 612.746 96.5759 600.645 101.437 588.975C110.876 566.314 124.711 545.723 142.152 528.379C159.593 511.035 180.299 497.277 203.087 487.891C225.875 478.504 250.299 473.673 274.964 473.673M322.666 660.452C323.838 657.111 325.107 653.8 326.472 650.523C335.912 627.862 349.747 607.271 367.188 589.927C384.217 572.993 404.358 559.477 426.511 550.111M426.511 550.111C420.847 542.419 414.587 535.152 407.777 528.379C402.177 522.81 396.24 517.611 390.006 512.808C376.824 502.651 362.313 494.264 346.842 487.891C324.054 478.504 299.63 473.673 274.964 473.673M274.964 473.673C220.628 473.673 176.58 429.87 176.58 375.837C176.58 321.803 220.628 278 274.964 278C329.301 278 373.349 321.803 373.349 375.837C373.349 429.87 329.301 473.673 274.964 473.673Z" stroke="white" stroke-width="28" stroke-linejoin="round"/>
</g>
<defs>
<clipPath id="clip0_1928_14653">
<rect width="1000" height="1000" fill="white" transform="matrix(0 1 -1 0 1000 0)"/>
</clipPath>
</defs>
</svg>
