<svg width="1000" height="1000" viewBox="0 0 1000 1000" fill="none" xmlns="http://www.w3.org/2000/svg">
<g clip-path="url(#clip0_1928_15861)">
<rect width="1000" height="1000" transform="matrix(0 1 -1 0 1000 0)" fill="#190F47"/>
<g opacity="0.3">
<path d="M967.161 -58.6113L984.049 26.1129L1048.77 1.47913L1070.34 80.0651" stroke="#F6B254" stroke-width="18.6148" stroke-linecap="round" stroke-linejoin="round"/>
<path d="M867.881 177.709L1030.1 138.481L927.582 48.4688" stroke="#BB6EF6" stroke-width="18.8808" stroke-linecap="round" stroke-linejoin="round"/>
<path d="M917.342 -58.6113L863.625 95.4928M872.666 -58.6113L818.949 95.4928" stroke="#3C61F5" stroke-width="18.8808" stroke-linecap="round" stroke-linejoin="round"/>
<path d="M653.72 55.0946L646.576 119.65L541.13 79.7395L539.848 156.254" stroke="#F6B254" stroke-width="18.6148" stroke-linecap="round" stroke-linejoin="round"/>
<path d="M563.107 -6.94399L725.797 5.91895M581.091 -47.8399L743.782 -34.9769" stroke="#3C61F5" stroke-width="18.8808" stroke-linecap="round" stroke-linejoin="round"/>
<path d="M630.929 173.437L769.855 159.366L732.172 55.0249" stroke="#BB6EF6" stroke-width="18.8808" stroke-linecap="round" stroke-linejoin="round"/>
<path d="M475.028 123.532L366.165 29.4686L454.923 -25.2754" stroke="#BB6EF6" stroke-width="18.8808" stroke-linecap="round" stroke-linejoin="round"/>
<path d="M241.193 140.464L288.566 184.897L342.793 86.0469L393.481 143.378" stroke="#F6B254" stroke-width="18.6148" stroke-linecap="round" stroke-linejoin="round"/>
<path d="M365.822 -58.9524L271.415 74.1677M322.905 -71.3613L228.498 61.7588" stroke="#3C61F5" stroke-width="18.8808" stroke-linecap="round" stroke-linejoin="round"/>
<path d="M-70.7339 32.62L70.8252 47.6814L-72.7632 126.491" stroke="#BB6EF6" stroke-width="18.8808" stroke-linecap="round" stroke-linejoin="round"/>
<path d="M42.7531 193.852L187.122 117.752M36.09 149.676L180.459 73.5756" stroke="#3C61F5" stroke-width="18.8808" stroke-linecap="round" stroke-linejoin="round"/>
<path d="M166.555 3.44941L112.84 39.9619L74.6692 -66.1269L15.6717 -17.3889" stroke="#F6B254" stroke-width="18.6148" stroke-linecap="round" stroke-linejoin="round"/>
<path d="M824.895 331.15L966.454 346.212L822.866 425.021" stroke="#BB6EF6" stroke-width="18.8808" stroke-linecap="round" stroke-linejoin="round"/>
<path d="M938.381 492.397L1082.75 416.297M931.718 448.222L1076.09 372.122" stroke="#3C61F5" stroke-width="18.8808" stroke-linecap="round" stroke-linejoin="round"/>
<path d="M1062.18 302.013L1008.47 338.525L970.298 232.437L911.3 281.175" stroke="#F6B254" stroke-width="18.6148" stroke-linecap="round" stroke-linejoin="round"/>
<path d="M646.633 365.907L653.776 301.352L759.223 341.262L760.505 264.748" stroke="#F6B254" stroke-width="18.6148" stroke-linecap="round" stroke-linejoin="round"/>
<path d="M737.258 427.964L574.568 415.101M719.274 468.859L556.583 455.996" stroke="#3C61F5" stroke-width="18.8808" stroke-linecap="round" stroke-linejoin="round"/>
<path d="M669.44 247.599L530.513 261.67L568.197 366.011" stroke="#BB6EF6" stroke-width="18.8808" stroke-linecap="round" stroke-linejoin="round"/>
<path d="M370.08 239.937L386.967 324.661L451.689 300.027L473.262 378.613" stroke="#F6B254" stroke-width="18.6148" stroke-linecap="round" stroke-linejoin="round"/>
<path d="M270.8 476.272L433.014 437.045L330.5 347.032" stroke="#BB6EF6" stroke-width="18.8808" stroke-linecap="round" stroke-linejoin="round"/>
<path d="M320.26 239.937L266.543 394.041M275.585 239.937L221.868 394.041" stroke="#3C61F5" stroke-width="18.8808" stroke-linecap="round" stroke-linejoin="round"/>
<path d="M34.6606 479.613L17.7733 394.889L-46.9483 419.523L-68.522 340.937" stroke="#F6B254" stroke-width="18.6148" stroke-linecap="round" stroke-linejoin="round"/>
<path d="M133.941 243.311L-28.2738 282.538L74.2402 372.551" stroke="#BB6EF6" stroke-width="18.8808" stroke-linecap="round" stroke-linejoin="round"/>
<path d="M84.4721 479.613L138.189 325.509M129.148 479.613L182.865 325.509" stroke="#3C61F5" stroke-width="18.8808" stroke-linecap="round" stroke-linejoin="round"/>
<path d="M977.355 534.507L962.293 676.066L883.483 532.478" stroke="#BB6EF6" stroke-width="18.8808" stroke-linecap="round" stroke-linejoin="round"/>
<path d="M816.115 647.974L892.215 792.343M860.291 641.311L936.391 785.68" stroke="#3C61F5" stroke-width="18.8808" stroke-linecap="round" stroke-linejoin="round"/>
<path d="M1006.51 771.792L969.995 718.077L1076.08 679.906L1027.35 620.908" stroke="#F6B254" stroke-width="18.6148" stroke-linecap="round" stroke-linejoin="round"/>
<path d="M644.042 654.775L708.597 661.919L668.687 767.365L745.201 768.648" stroke="#F6B254" stroke-width="18.6148" stroke-linecap="round" stroke-linejoin="round"/>
<path d="M581.999 745.417L594.862 582.726M541.103 727.432L553.966 564.742" stroke="#3C61F5" stroke-width="18.8808" stroke-linecap="round" stroke-linejoin="round"/>
<path d="M762.363 677.58L748.292 538.653L643.951 576.336" stroke="#BB6EF6" stroke-width="18.8808" stroke-linecap="round" stroke-linejoin="round"/>
<path d="M355.185 652.205L348.042 716.761L242.595 676.85L241.313 753.364" stroke="#F6B254" stroke-width="18.6148" stroke-linecap="round" stroke-linejoin="round"/>
<path d="M264.572 590.151L427.263 603.014M282.557 549.255L445.247 562.118" stroke="#3C61F5" stroke-width="18.8808" stroke-linecap="round" stroke-linejoin="round"/>
<path d="M332.386 770.514L471.313 756.443L433.63 652.102" stroke="#BB6EF6" stroke-width="18.8808" stroke-linecap="round" stroke-linejoin="round"/>
<path d="M46.9601 654.775L111.516 661.919L71.605 767.365L148.119 768.648" stroke="#F6B254" stroke-width="18.6148" stroke-linecap="round" stroke-linejoin="round"/>
<path d="M-15.0784 745.417L-2.21545 582.726M-55.9743 727.432L-43.1113 564.742" stroke="#3C61F5" stroke-width="18.8808" stroke-linecap="round" stroke-linejoin="round"/>
<path d="M165.281 677.58L151.21 538.653L46.869 576.336" stroke="#BB6EF6" stroke-width="18.8808" stroke-linecap="round" stroke-linejoin="round"/>
<path d="M952.267 950.753L945.123 1015.31L839.677 975.398L838.395 1051.91" stroke="#F6B254" stroke-width="18.6148" stroke-linecap="round" stroke-linejoin="round"/>
<path d="M861.654 888.714L1024.34 901.577M879.638 847.818L1042.33 860.681" stroke="#3C61F5" stroke-width="18.8808" stroke-linecap="round" stroke-linejoin="round"/>
<path d="M929.471 1069.06L1068.4 1054.99L1030.72 950.649" stroke="#BB6EF6" stroke-width="18.8808" stroke-linecap="round" stroke-linejoin="round"/>
<path d="M770.017 975.322L685.292 992.21L709.926 1056.93L631.34 1078.5" stroke="#F6B254" stroke-width="18.6148" stroke-linecap="round" stroke-linejoin="round"/>
<path d="M533.702 876.041L572.929 1038.26L662.942 935.741" stroke="#BB6EF6" stroke-width="18.8808" stroke-linecap="round" stroke-linejoin="round"/>
<path d="M770.017 925.501L615.913 871.784M770.017 880.825L615.913 827.108" stroke="#3C61F5" stroke-width="18.8808" stroke-linecap="round" stroke-linejoin="round"/>
<path d="M289.348 1080.26L383.412 971.398L438.156 1060.16" stroke="#BB6EF6" stroke-width="18.8808" stroke-linecap="round" stroke-linejoin="round"/>
<path d="M272.407 846.431L227.974 893.804L326.824 948.031L269.493 998.719" stroke="#F6B254" stroke-width="18.6148" stroke-linecap="round" stroke-linejoin="round"/>
<path d="M471.845 971.06L338.725 876.653M484.254 928.142L351.134 833.735" stroke="#3C61F5" stroke-width="18.8808" stroke-linecap="round" stroke-linejoin="round"/>
<path d="M-66.7539 938.417L17.9703 921.53L-6.66345 856.808L71.9225 835.234" stroke="#F6B254" stroke-width="18.6148" stroke-linecap="round" stroke-linejoin="round"/>
<path d="M169.569 1037.73L130.342 875.515L40.329 978.029" stroke="#BB6EF6" stroke-width="18.8808" stroke-linecap="round" stroke-linejoin="round"/>
<path d="M-66.7539 988.269L87.3502 1041.99M-66.7539 1032.95L87.3502 1086.66" stroke="#3C61F5" stroke-width="18.8808" stroke-linecap="round" stroke-linejoin="round"/>
</g>
<mask id="path-49-outside-1_1928_15861" maskUnits="userSpaceOnUse" x="65" y="155" width="871" height="689" fill="black">
<rect fill="white" x="65" y="155" width="871" height="689"/>
<path d="M438.852 507.629C439.382 512.829 435.598 517.474 430.4 518.005C425.202 518.535 420.557 514.75 420.027 509.55C419.496 504.35 423.281 499.704 428.479 499.174C433.677 498.643 438.321 502.429 438.852 507.629Z"/>
<path d="M463.44 477.443C463.97 482.643 460.186 487.289 454.988 487.819C449.789 488.35 445.145 484.565 444.615 479.365C444.084 474.165 447.868 469.519 453.067 468.988C458.265 468.458 462.909 472.243 463.44 477.443Z"/>
<path d="M493.616 502.039C494.146 507.239 490.362 511.884 485.163 512.415C479.965 512.946 475.321 509.16 474.791 503.96C474.26 498.76 478.044 494.115 483.243 493.584C488.441 493.053 493.085 496.839 493.616 502.039Z"/>
<path d="M469.028 532.224C469.558 537.424 465.774 542.07 460.576 542.6C455.377 543.131 450.733 539.346 450.203 534.146C449.672 528.946 453.456 524.3 458.655 523.769C463.853 523.239 468.497 527.024 469.028 532.224Z"/>
</mask>
<path d="M254.268 441.775L252.326 406.829L254.268 441.775ZM139.539 526.379L172.754 537.413L172.754 537.413L139.539 526.379ZM104.35 745.881L137.859 735.775L104.35 745.881ZM176.455 808.575L172.901 773.756L176.455 808.575ZM276.168 684.235L272.614 649.416L272.614 649.416L276.168 684.235ZM407.818 426.102L402.659 391.484L402.659 391.484L407.818 426.102ZM537.265 485.781L506.962 503.296L506.962 503.296L537.265 485.781ZM616.05 693.65L581.19 690.518L581.19 690.518L616.05 693.65ZM558.089 769.62L561.644 804.439L561.644 804.439L558.089 769.62ZM435.325 667.989L438.879 702.808L438.879 702.808L435.325 667.989ZM209.861 483.435L206.307 448.616L206.307 448.616L209.861 483.435ZM225.263 481.863L228.817 516.682L228.817 516.682L225.263 481.863ZM234.868 576.018L231.314 541.199L231.314 541.199L234.868 576.018ZM219.466 577.59L223.02 612.409L223.02 612.409L219.466 577.59ZM268.642 517.219L303.461 513.668L303.461 513.668L268.642 517.219ZM270.213 532.627L235.394 536.178L235.394 536.178L270.213 532.627ZM176.089 542.234L141.269 545.786L141.269 545.786L176.089 542.234ZM174.517 526.827L209.336 523.275L209.336 523.275L174.517 526.827ZM182.201 517.394L178.646 482.575L178.646 482.575L182.201 517.394ZM195.891 515.997L199.445 550.816L199.445 550.816L195.891 515.997ZM203.574 506.564L238.394 503.012L238.394 503.012L203.574 506.564ZM202.177 492.868L167.358 496.42L167.358 496.42L202.177 492.868ZM245.52 510.931L249.074 545.75L249.074 545.75L245.52 510.931ZM259.212 509.533L255.658 474.714L255.658 474.714L259.212 509.533ZM234.693 489.549L269.513 485.997L269.513 485.997L234.693 489.549ZM236.09 503.245L201.271 506.797L201.271 506.797L236.09 503.245ZM241.155 552.89L206.335 556.442L206.335 556.442L241.155 552.89ZM242.552 566.585L277.371 563.033L277.371 563.033L242.552 566.585ZM262.53 542.06L258.976 507.24L258.976 507.24L262.53 542.06ZM248.838 543.457L252.392 578.276L252.392 578.276L248.838 543.457ZM199.209 548.523L195.655 513.704L195.655 513.704L199.209 548.523ZM185.519 549.92L189.073 584.739L189.073 584.739L185.519 549.92ZM210.036 569.904L244.855 566.352L244.855 566.352L210.036 569.904ZM208.639 556.209L173.819 559.761L173.819 559.761L208.639 556.209ZM803.231 238.561L809.438 204.116L803.231 238.561ZM540.816 191.276L547.023 156.83L540.816 191.276ZM745.443 656.529L710.997 650.326L710.997 650.326L745.443 656.529ZM817.112 258.547L782.666 252.344L782.666 252.344L817.112 258.547ZM520.836 205.16L486.39 198.957L520.836 205.16ZM725.464 670.414L731.67 635.968L731.67 635.968L725.464 670.414ZM723.488 743.779L708.558 775.435L708.558 775.435L723.488 743.779ZM746.385 735.554L778.044 750.477L778.044 750.477L746.385 735.554ZM890.13 390.246L875.199 421.902L875.199 421.902L890.13 390.246ZM898.353 413.15L866.694 398.227L866.694 398.227L898.353 413.15ZM758.498 263.722L792.652 256.076C789.576 242.333 778.562 231.772 764.701 229.276C750.841 226.78 736.834 232.834 729.157 244.641L758.498 263.722ZM768.695 309.272L802.849 301.626L802.849 301.626L768.695 309.272ZM739.842 340.603C744.065 359.466 762.78 371.335 781.643 367.112C800.506 362.889 812.374 344.175 808.152 325.312L773.997 332.957L739.842 340.603ZM690.48 304.114C679.941 320.319 684.535 341.998 700.74 352.536C716.944 363.075 738.624 358.481 749.162 342.277L719.821 323.195L690.48 304.114ZM658.918 481.825L652.711 516.27L658.918 481.825ZM701.875 451.973L736.321 458.176L701.875 451.973ZM592.891 469.927L586.684 504.372L586.684 504.372L592.891 469.927ZM606.005 397.105L599.798 431.55L606.005 397.105ZM678.857 395.37L713.303 401.573L678.857 395.37ZM606.058 382.252L640.504 388.455L640.504 388.455L606.058 382.252ZM673.296 409.253L644.127 389.91C637.734 399.55 636.517 411.727 640.876 422.442C645.235 433.157 654.607 441.026 665.914 443.465L673.296 409.253ZM606.421 397.182L599.828 431.556C611.463 433.787 623.437 429.982 631.649 421.443C639.861 412.903 643.195 400.79 640.511 389.251L606.421 397.182ZM629.696 454.821L663.541 445.904C660.074 432.745 649.293 422.788 635.9 420.375C622.506 417.963 608.929 423.533 601.089 434.657L629.696 454.821ZM647.222 546.754C666.245 550.182 684.446 537.539 687.874 518.515C691.302 499.492 678.659 481.291 659.635 477.863L653.429 512.308L647.222 546.754ZM594.025 466.041C575.002 462.613 556.801 475.256 553.373 494.279C549.945 513.303 562.588 531.503 581.612 534.931L587.819 500.486L594.025 466.041ZM479.469 434.876L465.8 467.096L465.8 467.096L479.469 434.876ZM616.095 693.126L581.214 690.238L616.095 693.126ZM331.211 435.589L327.657 400.77C295.82 404.019 272.439 405.711 252.326 406.829L254.268 441.775L256.21 476.721C277.376 475.545 301.831 473.77 334.766 470.408L331.211 435.589ZM139.539 526.379L106.324 515.344C94.365 551.344 81.3071 595.389 73.1634 637.314C65.3713 677.429 60.6467 722.187 70.8411 755.987L104.35 745.881L137.859 735.775C133.064 719.874 134.197 690.208 141.879 650.662C149.209 612.924 161.241 572.07 172.754 537.413L139.539 526.379ZM104.35 745.881L70.8411 755.987C78.9463 782.861 90.8871 806.727 110.04 823.084C130.54 840.592 155.035 845.943 180.009 843.394L176.455 808.575L172.901 773.756C163.116 774.755 158.761 772.64 155.5 769.855C150.891 765.919 144.159 756.663 137.859 735.775L104.35 745.881ZM176.455 808.575L180.009 843.394C194.369 841.928 204.982 834.253 211.282 828.659C218.031 822.667 223.842 815.441 228.669 808.714C238.269 795.334 247.84 778.339 256.126 763.774C265.012 748.155 272.65 734.908 279.702 725.296C283.199 720.53 285.593 718.011 286.855 716.927C288.463 715.545 285.929 718.42 279.723 719.054L276.168 684.235L272.614 649.416C258.516 650.855 247.883 658.124 241.243 663.828C234.256 669.829 228.254 677.086 223.263 683.888C213.339 697.414 203.636 714.478 195.284 729.159C186.331 744.895 178.765 758.19 171.793 767.907C168.334 772.728 166.001 775.253 164.805 776.315C163.161 777.774 166.029 774.457 172.901 773.756L176.455 808.575ZM331.211 435.589L334.766 470.408C367.7 467.046 392.01 463.844 412.976 460.719L407.818 426.102L402.659 391.484C382.735 394.453 359.495 397.52 327.657 400.77L331.211 435.589ZM616.05 693.65L581.19 690.518C579.238 712.249 574.513 722.675 570.793 727.463C568.16 730.851 564.32 733.802 554.535 734.801L558.089 769.62L561.644 804.439C586.619 801.89 609.526 791.701 626.068 770.413C641.521 750.525 648.397 724.74 650.909 696.782L616.05 693.65ZM558.089 769.62L554.535 734.801C561.408 734.1 564.887 736.769 562.983 735.672C561.598 734.874 558.804 732.873 554.443 728.85C545.653 720.743 535.559 709.251 523.613 695.648C512.469 682.957 499.52 668.205 487.069 656.962C480.808 651.308 473.463 645.413 465.408 640.947C457.753 636.702 445.87 631.731 431.771 633.17L435.325 667.989L438.879 702.808C432.672 703.442 429.609 701.138 431.462 702.165C432.916 702.972 435.77 704.955 440.157 708.916C449.004 716.905 459.158 728.335 471.015 741.837C482.072 754.427 494.877 769.138 506.981 780.303C513.067 785.917 520.218 791.82 528.038 796.325C535.339 800.532 547.284 805.905 561.644 804.439L558.089 769.62ZM254.268 441.775L252.326 406.829C187.136 410.452 127.803 450.69 106.324 515.344L139.539 526.379L172.754 537.413C184.301 502.655 216.837 478.909 256.21 476.721L254.268 441.775ZM331.735 610.238L296.915 613.79C297.028 614.898 296.222 615.871 295.141 615.981L298.695 650.8L302.249 685.619C341.809 681.581 370.588 646.233 366.554 606.686L331.735 610.238ZM298.695 650.8L295.141 615.981C294.061 616.091 293.078 615.304 292.965 614.198L258.146 617.75L223.327 621.302C227.361 660.85 262.687 689.657 302.249 685.619L298.695 650.8ZM258.146 617.75L292.965 614.198C292.852 613.089 293.658 612.117 294.74 612.007L291.186 577.188L287.632 542.369C248.071 546.407 219.293 581.755 223.327 621.302L258.146 617.75ZM291.186 577.188L294.74 612.007C295.82 611.897 296.802 612.684 296.915 613.79L331.735 610.238L366.554 606.686C362.52 567.138 327.194 538.331 287.632 542.369L291.186 577.188ZM360.705 504.362L325.886 507.914C325.179 500.986 330.222 494.778 337.174 494.069L340.728 528.888L344.282 563.707C375.809 560.489 398.739 532.32 395.525 500.81L360.705 504.362ZM340.728 528.888L337.174 494.069C344.128 493.359 350.322 498.422 351.029 505.352L316.21 508.904L281.391 512.456C284.605 543.967 312.754 566.925 344.282 563.707L340.728 528.888ZM316.21 508.904L351.029 505.352C351.736 512.28 346.694 518.488 339.742 519.197L336.188 484.378L332.633 449.559C301.107 452.777 278.176 480.946 281.391 512.456L316.21 508.904ZM336.188 484.378L339.742 519.197C332.788 519.907 326.593 514.844 325.886 507.914L360.705 504.362L395.525 500.81C392.31 469.298 364.162 446.341 332.633 449.559L336.188 484.378ZM446.396 598.534L411.577 602.086C411.69 603.195 410.884 604.167 409.802 604.277L413.356 639.096L416.91 673.915C456.471 669.877 485.249 634.529 481.215 594.982L446.396 598.534ZM413.356 639.096L409.802 604.277C408.722 604.387 407.739 603.6 407.627 602.494L372.807 606.046L337.988 609.598C342.022 649.146 377.348 677.953 416.91 673.915L413.356 639.096ZM372.807 606.046L407.627 602.494C407.514 601.386 408.32 600.414 409.401 600.303L405.847 565.484L402.293 530.665C362.733 534.703 333.954 570.051 337.988 609.598L372.807 606.046ZM405.847 565.484L409.401 600.303C410.481 600.193 411.464 600.98 411.577 602.086L446.396 598.534L481.215 594.982C477.181 555.434 441.855 526.627 402.293 530.665L405.847 565.484ZM209.861 483.435L213.415 518.254L228.817 516.682L225.263 481.863L221.709 447.044L206.307 448.616L209.861 483.435ZM234.868 576.018L231.314 541.199L215.912 542.771L219.466 577.59L223.02 612.409L238.422 610.837L234.868 576.018ZM268.642 517.219L233.823 520.771L235.394 536.178L270.213 532.627L305.033 529.075L303.461 513.668L268.642 517.219ZM176.089 542.234L210.908 538.682L209.336 523.275L174.517 526.827L139.698 530.379L141.269 545.786L176.089 542.234ZM182.201 517.394L185.755 552.213L199.445 550.816L195.891 515.997L192.337 481.178L178.646 482.575L182.201 517.394ZM203.574 506.564L238.394 503.012L236.997 489.316L202.177 492.868L167.358 496.42L168.755 510.116L203.574 506.564ZM245.52 510.931L249.074 545.75L262.766 544.352L259.212 509.533L255.658 474.714L241.966 476.112L245.52 510.931ZM234.693 489.549L199.874 493.101L201.271 506.797L236.09 503.245L270.91 499.693L269.513 485.997L234.693 489.549ZM241.155 552.89L206.335 556.442L207.732 570.137L242.552 566.585L277.371 563.033L275.974 549.338L241.155 552.89ZM262.53 542.06L258.976 507.24L245.284 508.638L248.838 543.457L252.392 578.276L266.084 576.879L262.53 542.06ZM199.209 548.523L195.655 513.704L181.964 515.101L185.519 549.92L189.073 584.739L202.763 583.342L199.209 548.523ZM210.036 569.904L244.855 566.352L243.458 552.657L208.639 556.209L173.819 559.761L175.216 573.456L210.036 569.904ZM199.209 548.523L202.763 583.342C188.247 584.824 175.298 574.254 173.819 559.761L208.639 556.209L243.458 552.657C241.015 528.709 219.622 511.257 195.655 513.704L199.209 548.523ZM241.155 552.89L275.974 549.338C277.452 563.83 266.906 576.795 252.392 578.276L248.838 543.457L245.284 508.638C221.319 511.084 203.893 532.495 206.335 556.442L241.155 552.89ZM245.52 510.931L241.966 476.112C256.482 474.63 269.431 485.199 270.91 499.693L236.09 503.245L201.271 506.797C203.714 530.745 225.107 548.196 249.074 545.75L245.52 510.931ZM195.891 515.997L199.445 550.816C223.41 548.37 240.837 526.958 238.394 503.012L203.574 506.564L168.755 510.116C167.277 495.624 177.823 482.659 192.337 481.178L195.891 515.997ZM174.517 526.827L209.336 523.275C210.814 537.767 200.268 550.732 185.755 552.213L182.201 517.394L178.646 482.575C154.681 485.021 137.255 506.433 139.698 530.379L174.517 526.827ZM176.089 542.234L141.269 545.786C143.712 569.734 165.106 587.186 189.073 584.739L185.519 549.92L181.964 515.101C196.48 513.62 209.429 524.189 210.908 538.682L176.089 542.234ZM270.213 532.627L235.394 536.178C233.916 521.687 244.462 508.722 258.976 507.24L262.53 542.06L266.084 576.879C290.049 574.432 307.476 553.021 305.033 529.075L270.213 532.627ZM268.642 517.219L303.461 513.668C301.018 489.719 279.625 472.268 255.658 474.714L259.212 509.533L262.766 544.352C248.251 545.834 235.301 535.265 233.823 520.771L268.642 517.219ZM219.466 577.59L215.912 542.771C230.427 541.289 243.377 551.858 244.855 566.352L210.036 569.904L175.216 573.456C177.659 597.404 199.053 614.855 223.02 612.409L219.466 577.59ZM234.868 576.018L238.422 610.837C262.387 608.39 279.814 586.979 277.371 563.033L242.552 566.585L207.732 570.137C206.254 555.645 216.8 542.68 231.314 541.199L234.868 576.018ZM225.263 481.863L228.817 516.682C214.302 518.163 201.352 507.594 199.874 493.101L234.693 489.549L269.513 485.997C267.07 462.049 245.676 444.597 221.709 447.044L225.263 481.863ZM209.861 483.435L206.307 448.616C182.342 451.062 164.915 472.473 167.358 496.42L202.177 492.868L236.997 489.316C238.475 503.808 227.929 516.772 213.415 518.254L209.861 483.435ZM276.168 684.235L279.723 719.054L438.879 702.808L435.325 667.989L431.771 633.17L272.614 649.416L276.168 684.235ZM803.231 238.561L809.438 204.116L547.023 156.83L540.816 191.276L534.609 225.721L797.024 273.006L803.231 238.561ZM745.443 656.529L710.997 650.326C712.737 640.663 721.986 634.223 731.67 635.968L725.464 670.414L719.257 704.859C747.642 709.974 774.781 691.101 779.889 662.732L745.443 656.529ZM540.816 191.276L547.023 156.83C518.638 151.715 491.499 170.588 486.39 198.957L520.836 205.16L555.282 211.363C553.542 221.026 544.294 227.466 534.609 225.721L540.816 191.276ZM803.231 238.561L797.024 273.006C787.343 271.262 780.926 262.004 782.666 252.344L817.112 258.547L851.558 264.75C856.666 236.384 837.82 209.23 809.438 204.116L803.231 238.561ZM746.385 735.554L778.044 750.477L930.012 428.073L898.353 413.15L866.694 398.227L714.725 720.631L746.385 735.554ZM723.488 743.779L708.558 775.435C734.643 787.738 765.752 776.555 778.044 750.477L746.385 735.554L714.725 720.631C718.914 711.745 729.521 707.927 738.419 712.124L723.488 743.779ZM890.13 390.246L875.199 421.902C866.307 417.707 862.508 407.106 866.694 398.227L898.353 413.15L930.012 428.073C942.302 402.001 931.14 370.891 905.061 358.591L890.13 390.246ZM745.443 656.529L779.889 662.732L835.414 354.395L800.968 348.192L766.522 341.989L710.997 650.326L745.443 656.529ZM800.968 348.192L835.414 354.395L851.558 264.75L817.112 258.547L782.666 252.344L766.522 341.989L800.968 348.192ZM890.13 390.246L905.061 358.591L815.899 316.537L800.968 348.192L786.038 379.848L875.199 421.902L890.13 390.246ZM758.498 263.722L724.343 271.368L734.54 316.917L768.695 309.272L802.849 301.626L792.652 256.076L758.498 263.722ZM768.695 309.272L734.54 316.917L739.842 340.603L773.997 332.957L808.152 325.312L802.849 301.626L768.695 309.272ZM758.498 263.722L729.157 244.641L703.711 283.768L733.053 302.849L762.394 321.93L787.839 282.803L758.498 263.722ZM733.053 302.849L703.711 283.768L690.48 304.114L719.821 323.195L749.162 342.277L762.394 321.93L733.053 302.849ZM768.695 309.272L774.901 274.826L739.259 268.404L733.053 302.849L726.846 337.294L762.488 343.717L768.695 309.272ZM658.918 481.825L652.711 516.27C691.849 523.322 729.275 497.301 736.321 458.176L701.875 451.973L667.429 445.77C667.232 446.863 666.193 447.572 665.125 447.38L658.918 481.825ZM563.049 426.957L528.603 420.754C521.558 459.876 547.55 497.321 586.684 504.372L592.891 469.927L599.098 435.482C598.027 435.289 597.297 434.257 597.494 433.16L563.049 426.957ZM606.005 397.105L612.212 362.66C573.074 355.607 535.648 381.629 528.603 420.754L563.049 426.957L597.494 433.16C597.691 432.067 598.73 431.358 599.798 431.55L606.005 397.105ZM678.857 395.37L713.303 401.573C720.348 362.451 694.356 325.007 655.221 317.955L649.014 352.4L642.807 386.845C643.878 387.038 644.608 388.071 644.411 389.167L678.857 395.37ZM649.014 352.4L655.221 317.955C616.083 310.902 578.657 336.924 571.612 376.049L606.058 382.252L640.504 388.455C640.701 387.362 641.739 386.653 642.807 386.845L649.014 352.4ZM673.296 409.253L702.465 428.596C707.756 420.617 711.52 411.474 713.303 401.573L678.857 395.37L644.411 389.167C644.377 389.352 644.333 389.492 644.289 389.6C644.245 389.711 644.191 389.813 644.127 389.91L673.296 409.253ZM701.875 451.973L736.321 458.176C743.218 419.872 718.457 383.191 680.678 375.04L673.296 409.253L665.914 443.465C666.926 443.684 667.621 444.703 667.429 445.77L701.875 451.973ZM606.058 382.252L571.612 376.049C569.831 385.936 570.166 395.803 572.332 405.114L606.421 397.182L640.511 389.251C640.484 389.137 640.469 389.023 640.466 388.903C640.463 388.786 640.47 388.64 640.504 388.455L606.058 382.252ZM606.421 397.182L613.014 362.809C612.746 362.757 612.478 362.708 612.212 362.66L606.005 397.105L599.798 431.55C599.81 431.552 599.82 431.554 599.828 431.556L606.421 397.182ZM592.891 469.927L586.684 504.372C615.194 509.51 642.728 497.083 658.304 474.986L629.696 454.821L601.089 434.657C600.881 434.951 600.559 435.218 600.184 435.376C599.869 435.508 599.539 435.561 599.098 435.482L592.891 469.927ZM629.696 454.821L595.851 463.738C602.738 489.879 624.203 511.133 652.711 516.27L658.918 481.825L665.125 447.38C664.684 447.3 664.392 447.135 664.141 446.899C663.843 446.619 663.634 446.255 663.541 445.904L629.696 454.821ZM629.696 454.821L595.25 448.618L585.969 500.157L620.415 506.36L654.861 512.563L664.142 461.024L629.696 454.821ZM620.415 506.36L614.208 540.805L647.222 546.754L653.429 512.308L659.635 477.863L626.622 471.914L620.415 506.36ZM620.415 506.36L626.622 471.914L594.025 466.041L587.819 500.486L581.612 534.931L614.208 540.805L620.415 506.36ZM520.836 205.16L486.39 198.957L445.024 428.673L479.469 434.876L513.915 441.079L555.282 211.363L520.836 205.16ZM407.818 426.102L412.976 460.719C431.652 457.936 449.927 460.362 465.8 467.096L479.469 434.876L493.139 402.655C465.084 390.753 433.75 386.851 402.659 391.484L407.818 426.102ZM479.469 434.876L465.8 467.096C482.882 474.343 497.32 486.613 506.962 503.296L537.265 485.781L567.567 468.267C549.976 437.832 523.557 415.56 493.139 402.655L479.469 434.876ZM611.292 649.841L605.085 684.286L719.257 704.859L725.464 670.414L731.67 635.968L617.499 615.395L611.292 649.841ZM537.265 485.781L506.962 503.296C535.111 551.996 566.096 612.633 577.305 658.201L611.292 649.841L645.279 641.48C631.47 585.344 595.826 517.158 567.567 468.267L537.265 485.781ZM611.292 649.841L577.305 658.201C580.802 672.415 581.81 683.041 581.214 690.238L616.095 693.126L650.976 696.014C652.442 678.304 649.701 659.457 645.279 641.48L611.292 649.841ZM616.095 693.126L581.214 690.238C581.207 690.324 581.199 690.417 581.19 690.518L616.05 693.65L650.909 696.782C650.931 696.534 650.954 696.278 650.976 696.014L616.095 693.126ZM616.095 693.126L601.164 724.782L708.558 775.435L723.488 743.779L738.419 712.124L631.026 661.47L616.095 693.126ZM463.44 477.443L393.801 484.547C390.41 451.309 414.599 421.578 447.879 418.181L454.988 487.819L462.096 557.458C505.773 552.999 537.53 513.977 533.078 470.339L463.44 477.443ZM454.988 487.819L447.879 418.181C481.163 414.784 510.862 439.019 514.253 472.261L444.615 479.365L374.976 486.468C379.428 530.11 418.415 561.916 462.096 557.458L454.988 487.819ZM444.615 479.365L514.253 472.261C517.644 505.499 493.455 535.23 460.175 538.627L453.067 468.988L445.958 399.35C402.282 403.808 370.525 442.83 374.976 486.468L444.615 479.365ZM453.067 468.988L460.175 538.627C426.891 542.024 397.192 517.789 393.801 484.547L463.44 477.443L533.078 470.339C528.626 426.698 489.639 394.892 445.958 399.35L453.067 468.988ZM469.028 532.224L399.389 539.328C395.999 506.09 420.187 476.359 453.468 472.962L460.576 542.6L467.684 612.239C511.361 607.78 543.118 568.758 538.666 525.12L469.028 532.224ZM460.576 542.6L453.468 472.962C486.752 469.565 516.451 493.801 519.841 527.042L450.203 534.146L380.564 541.249C385.016 584.891 424.003 616.697 467.684 612.239L460.576 542.6ZM450.203 534.146L519.841 527.042C523.232 560.28 499.043 590.011 465.763 593.408L458.655 523.769L451.547 454.131C407.869 458.59 376.113 497.611 380.564 541.249L450.203 534.146ZM458.655 523.769L465.763 593.408C432.479 596.805 402.78 572.57 399.389 539.328L469.028 532.224L538.666 525.12C534.215 481.479 495.227 449.673 451.547 454.131L458.655 523.769ZM493.616 502.039L423.977 509.142C420.586 475.904 444.775 446.174 478.055 442.777L485.163 512.415L492.272 582.053C535.949 577.595 567.706 538.573 563.254 494.935L493.616 502.039ZM485.163 512.415L478.055 442.777C511.339 439.379 541.038 463.615 544.429 496.856L474.791 503.96L405.152 511.064C409.604 554.706 448.591 586.512 492.272 582.053L485.163 512.415ZM474.791 503.96L544.429 496.856C547.82 530.095 523.631 559.825 490.351 563.222L483.243 493.584L476.134 423.946C432.457 428.404 400.7 467.426 405.152 511.064L474.791 503.96ZM483.243 493.584L490.351 563.222C457.067 566.62 427.368 542.384 423.977 509.142L493.616 502.039L563.254 494.935C558.802 451.293 519.815 419.487 476.134 423.946L483.243 493.584ZM438.852 507.629L369.213 514.732C365.823 481.494 390.011 451.764 423.292 448.367L430.4 518.005L437.508 587.643C481.186 583.185 512.942 544.163 508.491 500.525L438.852 507.629ZM430.4 518.005L423.292 448.367C456.576 444.969 486.275 469.205 489.666 502.446L420.027 509.55L350.388 516.654C354.84 560.296 393.827 592.102 437.508 587.643L430.4 518.005ZM420.027 509.55L489.666 502.446C493.056 535.685 468.867 565.415 435.587 568.812L428.479 499.174L421.371 429.536C377.694 433.994 345.937 473.015 350.388 516.654L420.027 509.55ZM428.479 499.174L435.587 568.812C402.303 572.209 372.604 547.974 369.213 514.732L438.852 507.629L508.491 500.525C504.039 456.883 465.051 425.077 421.371 429.536L428.479 499.174Z" fill="#190F47" mask="url(#path-49-outside-1_1928_15861)"/>
<path fill-rule="evenodd" clip-rule="evenodd" d="M803.231 238.561L540.816 191.276C531.466 189.591 522.521 195.807 520.836 205.16L479.469 434.876C503.22 444.951 523.648 462.223 537.265 485.781C565.468 534.577 598.783 598.989 611.292 649.841L725.464 670.414C734.814 672.099 743.759 665.882 745.443 656.529L800.968 348.192L817.112 258.547C818.796 249.194 812.581 240.246 803.231 238.561ZM701.875 451.973C698.253 472.082 679.021 485.447 658.918 481.825C644.3 479.191 633.247 468.3 629.696 454.821C621.666 466.213 607.509 472.561 592.891 469.927C572.788 466.305 559.427 447.066 563.049 426.957C566.67 406.848 585.902 393.483 606.005 397.105C606.144 397.13 606.283 397.156 606.421 397.182C605.314 392.424 605.137 387.366 606.058 382.252C609.679 362.143 628.911 348.778 649.014 352.4C669.117 356.023 682.478 375.261 678.857 395.37C677.934 400.491 676 405.175 673.296 409.253C692.691 413.438 705.419 432.288 701.875 451.973Z" fill="black"/>
<path d="M658.918 481.825C679.021 485.447 698.253 472.082 701.875 451.973C705.419 432.288 692.691 413.438 673.296 409.253C676 405.175 677.934 400.491 678.857 395.37C682.478 375.261 669.117 356.023 649.014 352.4C628.911 348.778 609.679 362.143 606.058 382.252C605.137 387.366 605.314 392.424 606.421 397.182C606.283 397.156 606.144 397.13 606.005 397.105C585.902 393.483 566.67 406.848 563.049 426.957C559.427 447.066 572.788 466.305 592.891 469.927C607.509 472.561 621.666 466.213 629.696 454.821C633.247 468.3 644.3 479.191 658.918 481.825Z" fill="black"/>
<path d="M745.443 656.529C743.759 665.882 734.814 672.099 725.464 670.414L611.292 649.841C615.251 665.936 617.126 680.673 616.095 693.126L723.488 743.779C732.082 747.832 742.333 744.15 746.385 735.554L898.353 413.15C902.405 404.554 898.723 394.299 890.13 390.246L800.968 348.192L745.443 656.529Z" fill="black"/>
<path d="M302.735 590.238C304.808 610.566 290.016 628.726 269.695 630.8C249.374 632.874 231.22 618.077 229.146 597.75C227.072 577.422 241.865 559.262 262.186 557.188C282.507 555.114 300.661 569.911 302.735 590.238Z" fill="black"/>
<path d="M455.396 575.534C457.469 595.862 442.677 614.022 422.356 616.096C402.035 618.17 383.881 603.373 381.807 583.046C379.734 562.718 394.526 544.558 414.847 542.484C435.168 540.41 453.322 555.207 455.396 575.534Z" fill="black"/>
<path fill-rule="evenodd" clip-rule="evenodd" d="M331.211 435.589C298.826 438.895 274.907 440.628 254.268 441.775C201.987 444.681 156.052 476.672 139.539 526.379C116.067 597.035 89.3601 696.179 104.35 745.881C118.755 793.643 141.696 812.123 176.455 808.575C206.404 805.518 244.601 687.457 276.168 684.235L435.325 667.989C466.893 664.767 528.141 772.677 558.089 769.62C592.849 766.072 611.585 743.338 616.05 693.65C616.065 693.476 616.08 693.301 616.095 693.126C617.126 680.673 615.251 665.936 611.292 649.841C598.783 598.989 565.468 534.577 537.265 485.781C523.648 462.223 503.22 444.951 479.469 434.876C457.506 425.558 432.701 422.394 407.818 426.102C387.372 429.148 363.597 432.283 331.211 435.589ZM422.356 616.096C442.677 614.022 457.469 595.862 455.396 575.534C453.322 555.207 435.168 540.41 414.847 542.484C394.526 544.558 379.734 562.718 381.807 583.046C383.881 603.373 402.035 618.17 422.356 616.096ZM269.695 630.8C290.016 628.726 304.808 610.566 302.735 590.238C300.661 569.911 282.507 555.114 262.186 557.188C241.865 559.262 227.072 577.422 229.146 597.75C231.22 618.077 249.374 632.874 269.695 630.8Z" fill="black"/>
<path d="M254.268 441.775L253.491 427.797L253.491 427.797L254.268 441.775ZM139.539 526.379L152.825 530.792L152.825 530.792L139.539 526.379ZM104.35 745.881L117.754 741.838L117.754 741.838L104.35 745.881ZM176.455 808.575L175.034 794.647L176.455 808.575ZM276.168 684.235L274.747 670.307L274.747 670.307L276.168 684.235ZM407.818 426.102L405.754 412.254L405.754 412.254L407.818 426.102ZM537.265 485.781L525.144 492.787L525.144 492.787L537.265 485.781ZM616.05 693.65L602.106 692.397L602.106 692.397L616.05 693.65ZM558.089 769.62L559.511 783.548L558.089 769.62ZM435.325 667.989L436.747 681.917L436.747 681.917L435.325 667.989ZM803.231 238.561L805.714 224.783L803.231 238.561ZM540.816 191.276L543.299 177.497L540.816 191.276ZM745.443 656.529L731.665 654.048L731.665 654.048L745.443 656.529ZM817.112 258.547L803.333 256.066L803.333 256.066L817.112 258.547ZM520.836 205.16L507.058 202.679L520.836 205.16ZM725.464 670.414L727.946 656.636L727.946 656.636L725.464 670.414ZM723.488 743.779L717.516 756.442L717.516 756.442L723.488 743.779ZM746.385 735.554L759.048 741.523L759.048 741.523L746.385 735.554ZM890.13 390.246L884.158 402.908L884.158 402.908L890.13 390.246ZM898.353 413.15L885.689 407.181L885.689 407.181L898.353 413.15ZM658.918 481.825L656.435 495.603L658.918 481.825ZM701.875 451.973L715.653 454.454L701.875 451.973ZM592.891 469.927L590.408 483.705L592.891 469.927ZM606.005 397.105L603.522 410.883L606.005 397.105ZM678.857 395.37L692.635 397.851L678.857 395.37ZM606.058 382.252L619.836 384.733L606.058 382.252ZM673.296 409.253L661.628 401.515C659.071 405.372 658.584 410.242 660.328 414.528C662.072 418.814 665.82 421.962 670.343 422.938L673.296 409.253ZM606.421 397.182L603.784 410.932C608.438 411.824 613.228 410.302 616.512 406.886C619.797 403.471 621.131 398.625 620.057 394.01L606.421 397.182ZM629.696 454.821L643.234 451.254C641.847 445.991 637.535 442.008 632.178 441.043C626.82 440.078 621.389 442.306 618.253 446.755L629.696 454.821ZM650.946 526.087C658.555 527.458 665.836 522.401 667.207 514.791C668.578 507.182 663.521 499.902 655.911 498.53L653.429 512.308L650.946 526.087ZM590.301 486.708C582.692 485.337 575.412 490.394 574.04 498.003C572.669 505.613 577.726 512.893 585.336 514.264L587.819 500.486L590.301 486.708ZM479.469 434.876L474.002 447.764L474.002 447.764L479.469 434.876ZM616.095 693.126L602.143 691.971L616.095 693.126ZM302.735 590.238L288.807 591.659L302.735 590.238ZM229.146 597.75L243.074 596.329L229.146 597.75ZM331.211 435.589L329.79 421.661C297.623 424.944 273.92 426.661 253.491 427.797L254.268 441.775L255.045 455.753C275.895 454.595 300.028 452.845 332.633 449.516L331.211 435.589ZM139.539 526.379L126.253 521.965C114.428 557.561 101.678 600.65 93.7781 641.318C86.0191 681.263 82.3718 721.493 90.9465 749.923L104.35 745.881L117.754 741.838C111.338 720.568 113.549 686.375 121.264 646.657C128.839 607.664 141.178 565.852 152.825 530.792L139.539 526.379ZM104.35 745.881L90.9465 749.923C98.5102 775.002 108.888 794.484 123.678 807.115C139.006 820.207 157.459 824.587 177.877 822.503L176.455 808.575L175.034 794.647C160.692 796.111 150.295 793.026 141.862 785.824C132.89 778.161 124.595 764.522 117.754 741.838L104.35 745.881ZM176.455 808.575L177.877 822.503C185.867 821.687 192.435 817.31 197.339 812.956C202.422 808.443 207.19 802.627 211.606 796.472C220.417 784.191 229.387 768.306 237.873 753.39C246.599 738.052 254.856 723.66 262.77 712.874C266.715 707.497 270.192 703.556 273.171 700.997C276.289 698.319 277.705 698.151 277.59 698.162L276.168 684.235L274.747 670.307C266.74 671.124 260.057 675.35 254.926 679.757C249.658 684.283 244.737 690.119 240.194 696.311C231.132 708.663 222.049 724.581 213.536 739.544C204.784 754.928 196.616 769.333 188.856 780.149C184.987 785.542 181.61 789.477 178.748 792.018C175.707 794.718 174.531 794.699 175.034 794.647L176.455 808.575ZM331.211 435.589L332.633 449.516C365.238 446.188 389.227 443.026 409.881 439.949L407.818 426.102L405.754 412.254C385.517 415.27 361.956 418.378 329.79 421.661L331.211 435.589ZM616.05 693.65L602.106 692.397C599.985 715.996 594.616 731.03 587.375 740.348C580.57 749.106 571.01 754.229 556.668 755.693L558.089 769.62L559.511 783.548C579.929 781.464 597.117 773.446 609.485 757.528C621.419 742.17 627.649 720.992 629.993 694.903L616.05 693.65ZM558.089 769.62L556.668 755.693C557.171 755.641 556.023 755.898 552.5 753.868C549.184 751.958 545.083 748.786 540.204 744.286C530.421 735.261 519.513 722.804 507.834 709.505C496.476 696.571 484.366 682.815 472.996 672.549C467.296 667.402 461.299 662.681 455.224 659.313C449.31 656.033 441.911 653.244 433.904 654.061L435.325 667.989L436.747 681.917C436.632 681.928 438.052 681.807 441.646 683.8C445.08 685.704 449.281 688.861 454.231 693.33C464.159 702.295 475.152 714.722 486.795 727.981C498.118 740.874 510.11 754.62 521.22 764.868C526.788 770.004 532.632 774.736 538.521 778.129C544.204 781.403 551.521 784.364 559.511 783.548L558.089 769.62ZM254.268 441.775L253.491 427.797C196.046 430.989 144.753 466.279 126.253 521.965L139.539 526.379L152.825 530.792C167.352 487.065 207.927 458.372 255.045 455.753L254.268 441.775ZM455.396 575.534L441.468 576.955C442.758 589.595 433.56 600.88 420.935 602.168L422.356 616.096L423.778 630.024C451.794 627.164 472.181 602.129 469.324 574.114L455.396 575.534ZM422.356 616.096L420.935 602.168C408.31 603.457 397.024 594.264 395.735 581.625L381.807 583.046L367.88 584.467C370.737 612.482 395.76 632.884 423.778 630.024L422.356 616.096ZM381.807 583.046L395.735 581.625C394.446 568.985 403.644 557.7 416.269 556.412L414.847 542.484L413.425 528.556C385.409 531.416 365.022 556.452 367.88 584.467L381.807 583.046ZM414.847 542.484L416.269 556.412C428.893 555.123 440.179 564.316 441.468 576.955L455.396 575.534L469.324 574.114C466.466 546.098 441.443 525.697 413.425 528.556L414.847 542.484ZM276.168 684.235L277.59 698.162L436.747 681.917L435.325 667.989L433.904 654.061L274.747 670.307L276.168 684.235ZM803.231 238.561L805.714 224.783L543.299 177.497L540.816 191.276L538.333 205.054L800.748 252.339L803.231 238.561ZM745.443 656.529L731.665 654.048C731.35 655.795 729.683 656.948 727.946 656.636L725.464 670.414L722.981 684.192C739.945 687.249 756.168 675.97 759.222 659.01L745.443 656.529ZM540.816 191.276L543.299 177.497C526.335 174.441 510.112 185.72 507.058 202.679L520.836 205.16L534.615 207.641C534.929 205.895 536.597 204.741 538.333 205.054L540.816 191.276ZM803.231 238.561L800.748 252.339C802.486 252.652 803.648 254.318 803.333 256.066L817.112 258.547L830.89 261.028C833.944 244.07 822.677 227.84 805.714 224.783L803.231 238.561ZM746.385 735.554L759.048 741.523L911.017 419.119L898.353 413.15L885.689 407.181L733.721 729.584L746.385 735.554ZM723.488 743.779L717.516 756.442C733.106 763.795 751.7 757.112 759.048 741.523L746.385 735.554L733.721 729.584C732.965 731.188 731.057 731.87 729.461 731.117L723.488 743.779ZM890.13 390.246L884.158 402.908C885.757 403.663 886.446 405.575 885.689 407.181L898.353 413.15L911.017 419.119C918.364 403.532 911.69 384.936 896.102 377.584L890.13 390.246ZM745.443 656.529L759.222 659.01L814.747 350.673L800.968 348.192L787.19 345.711L731.665 654.048L745.443 656.529ZM800.968 348.192L814.747 350.673L830.89 261.028L817.112 258.547L803.333 256.066L787.19 345.711L800.968 348.192ZM890.13 390.246L896.102 377.584L806.941 335.53L800.968 348.192L794.996 360.854L884.158 402.908L890.13 390.246ZM658.918 481.825L656.435 495.603C684.152 500.597 710.662 482.169 715.653 454.454L701.875 451.973L688.096 449.491C685.845 461.994 673.89 470.297 661.401 468.047L658.918 481.825ZM563.049 426.957L549.27 424.476C544.279 452.19 562.693 478.711 590.408 483.705L592.891 469.927L595.374 456.149C582.884 453.898 574.575 441.942 576.827 429.438L563.049 426.957ZM606.005 397.105L608.488 383.327C580.771 378.332 554.261 396.76 549.27 424.476L563.049 426.957L576.827 429.438C579.078 416.935 591.033 408.633 603.522 410.883L606.005 397.105ZM678.857 395.37L692.635 397.851C697.626 370.137 679.212 343.616 651.497 338.622L649.014 352.4L646.531 366.178C659.022 368.429 667.33 380.385 665.078 392.889L678.857 395.37ZM649.014 352.4L651.497 338.622C623.78 333.628 597.27 352.055 592.279 379.771L606.058 382.252L619.836 384.733C622.088 372.23 634.042 363.928 646.531 366.178L649.014 352.4ZM673.296 409.253L684.964 416.99C688.702 411.352 691.369 404.885 692.635 397.851L678.857 395.37L665.078 392.889C664.5 396.098 663.297 398.999 661.628 401.515L673.296 409.253ZM701.875 451.973L715.653 454.454C720.539 427.322 702.997 401.339 676.249 395.568L673.296 409.253L670.343 422.938C682.385 425.536 690.3 437.254 688.096 449.491L701.875 451.973ZM606.058 382.252L592.279 379.771C591.015 386.794 591.255 393.775 592.786 400.355L606.421 397.182L620.057 394.01C619.374 391.072 619.259 387.938 619.836 384.733L606.058 382.252ZM606.421 397.182L609.058 383.433C608.868 383.396 608.678 383.361 608.488 383.327L606.005 397.105L603.522 410.883C603.61 410.899 603.698 410.915 603.784 410.932L606.421 397.182ZM592.891 469.927L590.408 483.705C610.583 487.34 630.091 478.561 641.139 462.887L629.696 454.821L618.253 446.755C613.242 453.865 604.435 457.782 595.374 456.149L592.891 469.927ZM629.696 454.821L616.158 458.388C621.044 476.931 636.261 491.968 656.435 495.603L658.918 481.825L661.401 468.047C652.339 466.414 645.451 459.668 643.234 451.254L629.696 454.821ZM629.696 454.821L615.918 452.34L606.637 503.878L620.415 506.36L634.194 508.841L643.475 457.302L629.696 454.821ZM620.415 506.36L617.932 520.138L650.946 526.087L653.429 512.308L655.911 498.53L622.898 492.582L620.415 506.36ZM620.415 506.36L622.898 492.582L590.301 486.708L587.819 500.486L585.336 514.264L617.932 520.138L620.415 506.36ZM520.836 205.16L507.058 202.679L465.691 432.394L479.469 434.876L493.248 437.357L534.615 207.641L520.836 205.16ZM407.818 426.102L409.881 439.949C432.282 436.611 454.474 439.479 474.002 447.764L479.469 434.876L484.937 421.988C460.537 411.636 433.121 408.177 405.754 412.254L407.818 426.102ZM479.469 434.876L474.002 447.764C495.084 456.708 513.117 471.979 525.144 492.787L537.265 485.781L549.386 478.776C534.18 452.466 511.355 433.195 484.937 421.988L479.469 434.876ZM611.292 649.841L608.809 663.619L722.981 684.192L725.464 670.414L727.946 656.636L613.775 636.063L611.292 649.841ZM537.265 485.781L525.144 492.787C553.325 541.545 585.708 604.446 597.697 653.185L611.292 649.841L624.887 646.497C611.858 593.531 577.611 527.61 549.386 478.776L537.265 485.781ZM611.292 649.841L597.697 653.185C601.471 668.527 603 681.62 602.143 691.971L616.095 693.126L630.047 694.281C631.252 679.725 629.031 663.344 624.887 646.497L611.292 649.841ZM616.095 693.126L602.143 691.971C602.131 692.11 602.119 692.252 602.106 692.397L616.05 693.65L629.993 694.903C630.012 694.699 630.03 694.492 630.047 694.281L616.095 693.126ZM616.095 693.126L610.123 705.788L717.516 756.442L723.488 743.779L729.461 731.117L622.067 680.464L616.095 693.126ZM302.735 590.238L288.807 591.659C290.096 604.299 280.898 615.584 268.273 616.873L269.695 630.8L271.116 644.728C299.133 641.868 319.52 616.833 316.662 588.818L302.735 590.238ZM269.695 630.8L268.273 616.873C255.649 618.161 244.363 608.968 243.074 596.329L229.146 597.75L215.218 599.171C218.076 627.186 243.099 647.588 271.116 644.728L269.695 630.8ZM229.146 597.75L243.074 596.329C241.784 583.689 250.982 572.404 263.607 571.116L262.186 557.188L260.764 543.26C232.747 546.12 212.36 571.156 215.218 599.171L229.146 597.75ZM262.186 557.188L263.607 571.116C276.232 569.827 287.518 579.02 288.807 591.659L302.735 590.238L316.662 588.818C313.804 560.802 288.781 540.401 260.764 543.26L262.186 557.188Z" fill="white"/>
</g>
<defs>
<clipPath id="clip0_1928_15861">
<rect width="1000" height="1000" fill="white" transform="matrix(0 1 -1 0 1000 0)"/>
</clipPath>
</defs>
</svg>
