<svg width="1000" height="1000" viewBox="0 0 1000 1000" fill="none" xmlns="http://www.w3.org/2000/svg">
<g clip-path="url(#clip0_1928_14342)">
<rect width="1000" height="1000" transform="matrix(0 1 -1 0 1000 0)" fill="#190F47"/>
<g opacity="0.3">
<path d="M967.161 -58.6113L984.049 26.1129L1048.77 1.47913L1070.34 80.0651" stroke="#F6B254" stroke-width="18.6148" stroke-linecap="round" stroke-linejoin="round"/>
<path d="M867.881 177.709L1030.1 138.481L927.582 48.4688" stroke="#BB6EF6" stroke-width="18.8808" stroke-linecap="round" stroke-linejoin="round"/>
<path d="M917.342 -58.6113L863.625 95.4928M872.666 -58.6113L818.949 95.4928" stroke="#3C61F5" stroke-width="18.8808" stroke-linecap="round" stroke-linejoin="round"/>
<path d="M653.72 55.0946L646.576 119.65L541.13 79.7395L539.848 156.254" stroke="#F6B254" stroke-width="18.6148" stroke-linecap="round" stroke-linejoin="round"/>
<path d="M563.107 -6.94399L725.797 5.91895M581.091 -47.8399L743.782 -34.9769" stroke="#3C61F5" stroke-width="18.8808" stroke-linecap="round" stroke-linejoin="round"/>
<path d="M630.929 173.437L769.855 159.366L732.172 55.0249" stroke="#BB6EF6" stroke-width="18.8808" stroke-linecap="round" stroke-linejoin="round"/>
<path d="M475.028 123.532L366.165 29.4686L454.923 -25.2754" stroke="#BB6EF6" stroke-width="18.8808" stroke-linecap="round" stroke-linejoin="round"/>
<path d="M241.193 140.464L288.566 184.897L342.793 86.0469L393.481 143.378" stroke="#F6B254" stroke-width="18.6148" stroke-linecap="round" stroke-linejoin="round"/>
<path d="M365.822 -58.9524L271.415 74.1677M322.905 -71.3613L228.498 61.7588" stroke="#3C61F5" stroke-width="18.8808" stroke-linecap="round" stroke-linejoin="round"/>
<path d="M-70.7339 32.62L70.8252 47.6814L-72.7632 126.491" stroke="#BB6EF6" stroke-width="18.8808" stroke-linecap="round" stroke-linejoin="round"/>
<path d="M42.7531 193.852L187.122 117.752M36.09 149.676L180.459 73.5756" stroke="#3C61F5" stroke-width="18.8808" stroke-linecap="round" stroke-linejoin="round"/>
<path d="M166.555 3.44941L112.84 39.9619L74.6692 -66.1269L15.6717 -17.3889" stroke="#F6B254" stroke-width="18.6148" stroke-linecap="round" stroke-linejoin="round"/>
<path d="M824.895 331.15L966.454 346.212L822.866 425.021" stroke="#BB6EF6" stroke-width="18.8808" stroke-linecap="round" stroke-linejoin="round"/>
<path d="M938.381 492.397L1082.75 416.297M931.718 448.222L1076.09 372.122" stroke="#3C61F5" stroke-width="18.8808" stroke-linecap="round" stroke-linejoin="round"/>
<path d="M1062.18 302.013L1008.47 338.525L970.298 232.437L911.3 281.175" stroke="#F6B254" stroke-width="18.6148" stroke-linecap="round" stroke-linejoin="round"/>
<path d="M646.633 365.907L653.776 301.352L759.223 341.262L760.505 264.748" stroke="#F6B254" stroke-width="18.6148" stroke-linecap="round" stroke-linejoin="round"/>
<path d="M737.258 427.964L574.568 415.101M719.274 468.859L556.583 455.996" stroke="#3C61F5" stroke-width="18.8808" stroke-linecap="round" stroke-linejoin="round"/>
<path d="M669.44 247.599L530.513 261.67L568.197 366.011" stroke="#BB6EF6" stroke-width="18.8808" stroke-linecap="round" stroke-linejoin="round"/>
<path d="M370.08 239.937L386.967 324.661L451.689 300.027L473.262 378.613" stroke="#F6B254" stroke-width="18.6148" stroke-linecap="round" stroke-linejoin="round"/>
<path d="M270.8 476.272L433.014 437.045L330.5 347.032" stroke="#BB6EF6" stroke-width="18.8808" stroke-linecap="round" stroke-linejoin="round"/>
<path d="M320.26 239.937L266.543 394.041M275.585 239.937L221.868 394.041" stroke="#3C61F5" stroke-width="18.8808" stroke-linecap="round" stroke-linejoin="round"/>
<path d="M34.6606 479.613L17.7733 394.889L-46.9483 419.523L-68.522 340.937" stroke="#F6B254" stroke-width="18.6148" stroke-linecap="round" stroke-linejoin="round"/>
<path d="M133.941 243.311L-28.2738 282.538L74.2402 372.551" stroke="#BB6EF6" stroke-width="18.8808" stroke-linecap="round" stroke-linejoin="round"/>
<path d="M84.4721 479.613L138.189 325.509M129.148 479.613L182.865 325.509" stroke="#3C61F5" stroke-width="18.8808" stroke-linecap="round" stroke-linejoin="round"/>
<path d="M977.355 534.507L962.293 676.066L883.483 532.478" stroke="#BB6EF6" stroke-width="18.8808" stroke-linecap="round" stroke-linejoin="round"/>
<path d="M816.115 647.974L892.215 792.343M860.291 641.311L936.391 785.68" stroke="#3C61F5" stroke-width="18.8808" stroke-linecap="round" stroke-linejoin="round"/>
<path d="M1006.51 771.792L969.995 718.077L1076.08 679.906L1027.35 620.908" stroke="#F6B254" stroke-width="18.6148" stroke-linecap="round" stroke-linejoin="round"/>
<path d="M644.042 654.775L708.597 661.919L668.687 767.365L745.201 768.648" stroke="#F6B254" stroke-width="18.6148" stroke-linecap="round" stroke-linejoin="round"/>
<path d="M581.999 745.417L594.862 582.726M541.103 727.432L553.966 564.742" stroke="#3C61F5" stroke-width="18.8808" stroke-linecap="round" stroke-linejoin="round"/>
<path d="M762.363 677.58L748.292 538.653L643.951 576.336" stroke="#BB6EF6" stroke-width="18.8808" stroke-linecap="round" stroke-linejoin="round"/>
<path d="M355.185 652.205L348.042 716.761L242.595 676.85L241.313 753.364" stroke="#F6B254" stroke-width="18.6148" stroke-linecap="round" stroke-linejoin="round"/>
<path d="M264.572 590.151L427.263 603.014M282.557 549.255L445.247 562.118" stroke="#3C61F5" stroke-width="18.8808" stroke-linecap="round" stroke-linejoin="round"/>
<path d="M332.386 770.514L471.313 756.443L433.63 652.102" stroke="#BB6EF6" stroke-width="18.8808" stroke-linecap="round" stroke-linejoin="round"/>
<path d="M46.9601 654.775L111.516 661.919L71.605 767.365L148.119 768.648" stroke="#F6B254" stroke-width="18.6148" stroke-linecap="round" stroke-linejoin="round"/>
<path d="M-15.0784 745.417L-2.21545 582.726M-55.9743 727.432L-43.1113 564.742" stroke="#3C61F5" stroke-width="18.8808" stroke-linecap="round" stroke-linejoin="round"/>
<path d="M165.281 677.58L151.21 538.653L46.869 576.336" stroke="#BB6EF6" stroke-width="18.8808" stroke-linecap="round" stroke-linejoin="round"/>
<path d="M952.267 950.753L945.123 1015.31L839.677 975.398L838.395 1051.91" stroke="#F6B254" stroke-width="18.6148" stroke-linecap="round" stroke-linejoin="round"/>
<path d="M861.654 888.714L1024.34 901.577M879.638 847.818L1042.33 860.681" stroke="#3C61F5" stroke-width="18.8808" stroke-linecap="round" stroke-linejoin="round"/>
<path d="M929.471 1069.06L1068.4 1054.99L1030.72 950.649" stroke="#BB6EF6" stroke-width="18.8808" stroke-linecap="round" stroke-linejoin="round"/>
<path d="M770.017 975.322L685.292 992.21L709.926 1056.93L631.34 1078.5" stroke="#F6B254" stroke-width="18.6148" stroke-linecap="round" stroke-linejoin="round"/>
<path d="M533.702 876.041L572.929 1038.26L662.942 935.741" stroke="#BB6EF6" stroke-width="18.8808" stroke-linecap="round" stroke-linejoin="round"/>
<path d="M770.017 925.501L615.913 871.784M770.017 880.825L615.913 827.108" stroke="#3C61F5" stroke-width="18.8808" stroke-linecap="round" stroke-linejoin="round"/>
<path d="M289.348 1080.26L383.412 971.398L438.156 1060.16" stroke="#BB6EF6" stroke-width="18.8808" stroke-linecap="round" stroke-linejoin="round"/>
<path d="M272.407 846.431L227.974 893.804L326.824 948.031L269.493 998.719" stroke="#F6B254" stroke-width="18.6148" stroke-linecap="round" stroke-linejoin="round"/>
<path d="M471.845 971.06L338.725 876.653M484.254 928.142L351.134 833.735" stroke="#3C61F5" stroke-width="18.8808" stroke-linecap="round" stroke-linejoin="round"/>
<path d="M-66.7539 938.417L17.9703 921.53L-6.66345 856.808L71.9225 835.234" stroke="#F6B254" stroke-width="18.6148" stroke-linecap="round" stroke-linejoin="round"/>
<path d="M169.569 1037.73L130.342 875.515L40.329 978.029" stroke="#BB6EF6" stroke-width="18.8808" stroke-linecap="round" stroke-linejoin="round"/>
<path d="M-66.7539 988.269L87.3502 1041.99M-66.7539 1032.95L87.3502 1086.66" stroke="#3C61F5" stroke-width="18.8808" stroke-linecap="round" stroke-linejoin="round"/>
</g>
<path fill-rule="evenodd" clip-rule="evenodd" d="M242.475 206.997V794.002C242.475 809.998 255.442 822.966 271.439 822.966H307.04H371.606H730.036C746.032 822.966 759 809.998 759 794.002V299.279H659.869C643.3 299.279 629.869 285.848 629.869 269.279V178.033H500.737H371.606H307.04H271.439C255.442 178.033 242.475 191.001 242.475 206.997Z" fill="black"/>
<path d="M759 299.279L629.869 178.033V269.279C629.869 285.848 643.3 299.279 659.869 299.279H759Z" fill="white"/>
<path d="M629.869 160.533C630.024 160.533 630.178 160.536 630.332 160.54C630.384 160.541 630.436 160.544 630.488 160.546C630.651 160.552 630.813 160.559 630.975 160.569C630.994 160.571 631.014 160.572 631.034 160.573C634.726 160.816 638.104 162.203 640.818 164.384C640.848 164.407 640.877 164.43 640.906 164.454C641.213 164.703 641.51 164.963 641.799 165.232C641.815 165.247 641.832 165.261 641.848 165.275L770.979 286.521C770.985 286.527 770.991 286.533 770.997 286.539C771.14 286.674 771.281 286.811 771.419 286.95C771.453 286.985 771.487 287.019 771.521 287.054C771.8 287.34 772.069 287.636 772.329 287.941C772.348 287.964 772.368 287.986 772.387 288.009C772.647 288.318 772.897 288.636 773.136 288.963C773.155 288.989 773.174 289.014 773.192 289.04C775.143 291.739 776.342 295.015 776.484 298.563C776.487 298.621 776.488 298.678 776.49 298.735C776.495 298.877 776.497 299.019 776.498 299.162C776.498 299.225 776.5 299.287 776.5 299.35V794.002C776.5 819.663 755.697 840.466 730.036 840.466H271.438C245.777 840.466 224.975 819.663 224.975 794.002V206.997C224.975 181.336 245.777 160.533 271.438 160.533H629.869Z" stroke="#190F47" stroke-width="35" stroke-linecap="round" stroke-linejoin="round"/>
<path fill-rule="evenodd" clip-rule="evenodd" d="M242.475 206.997V794.002C242.475 809.998 255.442 822.966 271.439 822.966H307.04H371.606H730.036C746.032 822.966 759 809.998 759 794.002V299.279H659.869C643.3 299.279 629.869 285.848 629.869 269.279V178.033H500.737H371.606H307.04H271.439C255.442 178.033 242.475 191.001 242.475 206.997Z" fill="black"/>
<path d="M759 299.279L629.869 178.033V269.279C629.869 285.848 643.3 299.279 659.869 299.279H759Z" fill="white"/>
<path d="M629.869 178.033H500.737H371.606H307.04H271.439M629.869 178.033L759 299.279M629.869 178.033V269.279C629.869 285.848 643.3 299.279 659.869 299.279H759M759 299.279V794.002M307.04 377.885H500.737M307.04 458.502H655.695M307.04 700.351H655.695M307.04 619.735H500.737M307.04 308.854H371.606M242.475 794.002V206.997M242.475 794.002C242.475 809.998 255.442 822.966 271.439 822.966M242.475 794.002C242.475 809.998 255.442 822.966 271.439 822.966M242.475 206.997C242.475 191.001 255.442 178.033 271.439 178.033M242.475 206.997C242.475 191.001 255.442 178.033 271.439 178.033M759 794.002C759 809.998 746.032 822.966 730.036 822.966M759 794.002C759 809.998 746.032 822.966 730.036 822.966M730.036 822.966H371.606H307.04H271.439" stroke="white" stroke-width="28" stroke-linecap="round" stroke-linejoin="round"/>
</g>
<defs>
<clipPath id="clip0_1928_14342">
<rect width="1000" height="1000" fill="white" transform="matrix(0 1 -1 0 1000 0)"/>
</clipPath>
</defs>
</svg>
