<svg width="150" height="147" viewBox="0 0 150 147" fill="none" xmlns="http://www.w3.org/2000/svg">
<path d="M91.0318 132.562C91.0318 139.009 96.2575 144.234 102.704 144.234C109.15 144.234 114.376 139.009 114.376 132.562C114.376 126.116 109.15 120.891 102.704 120.891C96.2575 120.891 91.0318 126.116 91.0318 132.562ZM91.0318 132.562H59.7203M118.172 74.7656C109.629 74.7656 102.704 67.84 102.704 59.2969C102.704 50.7537 109.629 43.8281 118.172 43.8281C126.716 43.8281 133.641 50.7537 133.641 59.2969C133.641 67.84 126.716 74.7656 118.172 74.7656ZM118.172 74.7656C114.294 74.7656 110.454 75.5295 106.871 77.0136C104.025 78.1925 101.385 79.8077 99.0454 81.7969M118.172 74.7656C122.051 74.7656 125.891 75.5295 129.474 77.0136C133.056 78.4976 136.312 80.6729 139.054 83.4151C141.796 86.1574 143.972 89.4129 145.456 92.9958C146.22 94.8409 146.793 96.7542 147.17 98.7058C147.758 101.756 145.185 104.297 142.079 104.297H94.2662C92.427 104.297 90.7751 103.406 89.8553 102.047M31.8287 112.734C23.2855 112.734 16.3599 105.809 16.3599 97.2656C16.3599 88.7225 23.2855 81.7969 31.8287 81.7969C40.3718 81.7969 47.2974 88.7225 47.2974 97.2656C47.2974 105.809 40.3718 112.734 31.8287 112.734ZM31.8287 112.734C27.9506 112.734 24.1105 113.498 20.5276 114.982C16.9447 116.466 13.6892 118.642 10.9469 121.384C8.20471 124.126 6.02946 127.382 4.54537 130.965C3.7811 132.81 3.20783 134.723 2.83153 136.675C2.24337 139.725 4.81583 142.266 7.92243 142.266H55.7349C58.8415 142.266 61.414 139.725 60.8258 136.675C60.5571 135.281 60.1879 133.906 59.7203 132.562M31.8287 112.734C35.7068 112.734 39.5469 113.498 43.1298 114.982C45.5623 115.99 47.8439 117.316 49.9164 118.922M76.7862 22.1969C75.3945 20.1953 74.5787 17.7632 74.5787 15.1406C74.5787 8.3061 80.1192 2.76562 86.9537 2.76562C93.7882 2.76562 99.3287 8.3061 99.3287 15.1406C99.3287 21.9751 93.7882 27.5156 86.9537 27.5156C82.7418 27.5156 79.0213 25.4114 76.7862 22.1969ZM76.7862 22.1969L47.2974 40.3286M47.2974 40.3286C45.9698 39.5122 44.5765 38.8003 43.1298 38.2011C39.5469 36.717 35.7068 35.9531 31.8287 35.9531C27.9506 35.9531 24.1105 36.717 20.5276 38.2011C16.9447 39.6851 13.6892 41.8604 10.9469 44.6026C8.20471 47.3449 6.02946 50.6004 4.54537 54.1833C3.7811 56.0284 3.20783 57.9417 2.83153 59.8933C2.24337 62.9437 4.81583 65.4844 7.92243 65.4844H55.7349C57.8171 65.4844 59.6593 64.343 60.4708 62.6719M47.2974 40.3286C49.258 41.5342 51.0754 42.9676 52.7104 44.6026C55.4527 47.3449 57.6279 50.6004 59.112 54.1833C59.8763 56.0284 60.4495 57.9417 60.8258 59.8933C61.0198 60.8992 60.87 61.8497 60.4708 62.6719M60.4708 62.6719L70.3868 67.5882M99.0454 81.7969C98.4398 82.3116 97.8544 82.8514 97.2907 83.4151C94.5484 86.1574 92.3732 89.4129 90.8891 92.9958C90.1248 94.8409 89.5516 96.7542 89.1753 98.7058C88.9353 99.9503 89.2214 101.11 89.8553 102.047M99.0454 81.7969L86.0124 75.3352M89.8553 102.047L78.2961 106.931M49.9164 118.922C50.8965 119.681 51.8299 120.503 52.7104 121.384C55.4527 124.126 57.6279 127.382 59.112 130.965C59.3304 131.492 59.5332 132.025 59.7203 132.562M49.9164 118.922L62.7572 113.496M78.2961 106.931C78.7983 108.011 79.0787 109.215 79.0787 110.484C79.0787 115.144 75.3011 118.922 70.6412 118.922C67.0424 118.922 63.9699 116.669 62.7572 113.496M78.2961 106.931C76.9549 104.047 74.0316 102.047 70.6412 102.047C65.9813 102.047 62.2037 105.824 62.2037 110.484C62.2037 111.546 62.3996 112.561 62.7572 113.496M86.0124 75.3352C84.5727 78.1683 81.6305 80.1094 78.2349 80.1094C73.4197 80.1094 69.5162 76.2059 69.5162 71.3906C69.5162 70.0274 69.829 68.7373 70.3868 67.5882M86.0124 75.3352C86.6144 74.1507 86.9537 72.8103 86.9537 71.3906C86.9537 66.5754 83.0502 62.6719 78.2349 62.6719C74.7829 62.6719 71.7994 64.6781 70.3868 67.5882M16.2193 20.4844C16.2193 29.0275 23.1449 35.9531 31.6881 35.9531C40.2312 35.9531 47.1568 29.0275 47.1568 20.4844C47.1568 11.9412 40.2312 5.01562 31.6881 5.01562C23.1449 5.01562 16.2193 11.9412 16.2193 20.4844Z" stroke="#3C61F5" stroke-width="5" stroke-linejoin="round"/>
</svg>
