<svg width="152" height="137" viewBox="0 0 152 137" fill="none" xmlns="http://www.w3.org/2000/svg">
<path d="M16.6232 57.8864C16.4187 57.2381 16.3677 56.527 16.5108 55.7846C16.8736 53.9029 17.4264 52.0582 18.1632 50.2793C19.5941 46.8249 21.6913 43.6862 24.3352 41.0423C25.9116 39.4659 27.6638 38.0839 29.5541 36.9215C30.8341 36.1344 32.1774 35.448 33.5722 34.8703C37.0266 33.4394 40.729 32.703 44.468 32.703C48.2071 32.703 51.9094 33.4394 55.3638 34.8703C58.8182 36.3011 61.957 38.3984 64.6009 41.0423C67.2448 43.6861 69.342 46.8249 70.7729 50.2793C71.5097 52.0582 72.0625 53.9029 72.4253 55.7845C72.5684 56.527 72.5174 57.2381 72.3129 57.8864M16.6232 57.8864H14.3624C12.8858 57.8864 11.6304 58.9643 11.407 60.4238L3.35302 113.043C3.07593 114.854 4.47691 116.485 6.30835 116.485H17.6337M16.6232 57.8864H72.3129M72.3129 57.8864H80.3049M80.3049 57.8864C80.1004 57.2381 80.0494 56.527 80.1925 55.7846C80.5553 53.9029 81.108 52.0582 81.8449 50.2793C83.2757 46.8249 85.373 43.6862 88.0169 41.0423C89.5932 39.4659 91.3455 38.0839 93.2357 36.9215C94.5158 36.1344 95.8591 35.448 97.2539 34.8703C100.708 33.4394 104.411 32.703 108.15 32.703C111.889 32.703 115.591 33.4394 119.046 34.8703C122.5 36.3011 125.639 38.3984 128.283 41.0423C130.926 43.6861 133.024 46.8249 134.455 50.2793C135.191 52.0582 135.744 53.9029 136.107 55.7845C136.25 56.527 136.199 57.2381 135.995 57.8864M80.3049 57.8864H135.995M135.995 57.8864H137.638C139.115 57.8864 140.37 58.9643 140.594 60.4238L148.648 113.043C148.925 114.854 147.524 116.485 145.692 116.485H135.283M135.283 116.485C136.902 118.537 138.234 120.805 139.238 123.229C139.975 125.008 140.528 126.853 140.891 128.734C141.458 131.675 138.977 134.125 135.982 134.125H89.8844C87.8769 134.125 86.1008 133.025 85.3184 131.413C84.9335 130.621 84.7891 129.704 84.9761 128.734C85.3389 126.853 85.8916 125.008 86.6285 123.229C87.6325 120.805 88.9647 118.537 90.5836 116.485M135.283 116.485C134.595 115.614 133.855 114.781 133.066 113.992C130.422 111.348 127.284 109.251 123.829 107.82C120.375 106.389 116.672 105.653 112.933 105.653C109.194 105.653 105.492 106.389 102.037 107.82C100.643 108.398 99.2994 109.084 98.0193 109.871C96.1291 111.034 94.3768 112.416 92.8005 113.992C92.0118 114.781 91.2718 115.614 90.5836 116.485M90.5836 116.485H62.3331M62.3331 116.485C63.952 118.537 65.2842 120.805 66.2882 123.229C67.0251 125.008 67.5778 126.853 67.9406 128.734C68.5077 131.675 66.0275 134.125 63.0323 134.125H16.9345C14.927 134.125 13.1509 133.025 12.3685 131.413C11.9836 130.621 11.8392 129.704 12.0262 128.734C12.389 126.853 12.9417 125.008 13.6786 123.229C14.6826 120.805 16.0148 118.537 17.6337 116.485M62.3331 116.485C61.6449 115.614 60.9049 114.781 60.1163 113.992C57.4724 111.348 54.3336 109.251 50.8792 107.82C47.4248 106.389 43.7224 105.653 39.9834 105.653C36.2444 105.653 32.542 106.389 29.0876 107.82C27.6928 108.398 26.3495 109.084 25.0694 109.871C23.1792 111.034 21.4269 112.416 19.8506 113.992C19.0619 114.781 18.3219 115.614 17.6337 116.485M127.983 90.7389C127.983 98.9756 121.306 105.653 113.069 105.653C104.832 105.653 98.1549 98.9756 98.1549 90.7389C98.1549 82.5021 104.832 75.8249 113.069 75.8249C121.306 75.8249 127.983 82.5021 127.983 90.7389ZM55.033 90.7389C55.033 98.9756 48.3558 105.653 40.119 105.653C31.8822 105.653 25.205 98.9756 25.205 90.7389C25.205 82.5021 31.8822 75.8249 40.119 75.8249C48.3558 75.8249 55.033 82.5021 55.033 90.7389ZM59.5176 17.789C59.5176 26.0257 52.8404 32.703 44.6036 32.703C36.3669 32.703 29.6896 26.0257 29.6896 17.789C29.6896 9.55222 36.3669 2.875 44.6036 2.875C52.8404 2.875 59.5176 9.55222 59.5176 17.789ZM123.199 17.789C123.199 26.0257 116.522 32.703 108.285 32.703C100.049 32.703 93.3713 26.0257 93.3713 17.789C93.3713 9.55222 100.049 2.875 108.285 2.875C116.522 2.875 123.199 9.55222 123.199 17.789Z" stroke="#BB6EF6" stroke-width="5" stroke-linejoin="round"/>
</svg>
