<svg width="148" height="123" viewBox="0 0 148 123" fill="none" xmlns="http://www.w3.org/2000/svg">
<path d="M86.086 13.2804L94.2625 45.6563L102.689 79.0215M86.086 13.2804C86.086 13.2804 83.7592 5.3113 92.6451 3.06719C101.531 0.823072 103.267 8.94137 103.267 8.94137L119.87 74.6824C119.87 74.6824 122.197 82.6515 113.311 84.8956C104.425 87.1398 102.689 79.0215 102.689 79.0215M86.086 13.2804C75.8633 25.9146 62.8546 33.3931 44.0886 40.0222M102.689 79.0215C89.4938 73.5086 76.2957 72.5329 59.92 74.4739M44.0886 40.0222C34.1305 43.5399 22.5511 46.8184 8.90651 50.5011C4.52578 51.6835 1.89509 56.1564 3.00615 60.5558L5.06527 68.7091L7.12438 76.8625C8.23544 81.2619 12.674 83.9495 17.0909 82.91C20.4043 82.1303 23.6011 81.3868 26.6911 80.6845M44.0886 40.0222L53.0302 75.4274M53.0302 75.4274C50.0898 75.8874 47.0451 76.4252 43.8806 77.0329M53.0302 75.4274C55.3913 75.058 57.6852 74.7388 59.92 74.4739M20.4156 64.3063L32.7493 61.1914M26.6911 80.6845L35.3091 114.809C35.3091 114.809 37.2644 122.016 45.6504 119.898C54.0363 117.78 52.335 110.509 52.335 110.509L47.6627 92.0085M26.6911 80.6845C32.8154 79.2925 38.52 78.0624 43.8806 77.0329M43.8806 77.0329L47.6627 92.0085M59.92 74.4739C62.8062 85.9023 60.6667 88.7244 47.6627 92.0085M129.81 36.6789L144.557 32.9546M120.402 22.0128L127.083 11.1982M128.493 54.0535L139.508 60.3989" stroke="#BB6EF6" stroke-width="5" stroke-linecap="round" stroke-linejoin="round"/>
</svg>
