<svg width="142" height="129" viewBox="0 0 142 129" fill="none" xmlns="http://www.w3.org/2000/svg">
<path d="M23.5 91.7501H72M23.5 74.7501H72M118.5 53.25H79.2225M118.5 36.25H70M50 41.8098C50 41.7899 50 41.7699 50 41.75C50 20.487 69.9233 3.25 94.5 3.25C119.077 3.25 139 20.487 139 41.75C139 51.6891 134.647 60.7485 127.5 67.579C124 70.9241 128.989 82.0416 134.5 87.25C126.5 87.25 119 84.75 111 77.5167C105.898 79.2801 100.33 80.25 94.5 80.25C93.661 80.25 92.8275 80.2299 91.9999 80.1903M50 41.8098C49.1725 41.7702 48.339 41.7501 47.5 41.7501C22.9233 41.7501 3 58.9871 3 80.2501C3 90.1892 7.35319 99.2486 14.5 106.079C18 109.424 13.0115 120.542 7.5 125.75C15.5 125.75 23 123.25 31 116.017C36.1023 117.78 41.6702 118.75 47.5 118.75C72.0767 118.75 92 101.513 92 80.2501C92 80.2301 92 80.2102 91.9999 80.1903M50 41.8098C61.4222 42.3571 71.6955 46.6311 79.2225 53.25M91.9999 80.1903C91.9815 69.6957 87.1097 60.1856 79.2225 53.25" stroke="#F6B254" stroke-width="5" stroke-linecap="round" stroke-linejoin="round"/>
</svg>
