<svg width="146" height="151" viewBox="0 0 146 151" fill="none" xmlns="http://www.w3.org/2000/svg">
<path d="M35.0761 81.8135C33.044 61.2028 51.913 35.8023 77.0232 35.8023V49.3008C77.0232 49.3008 64.2504 46.2528 64.2504 57.2839C64.2504 68.3149 77.0232 65.2669 77.0232 65.2669V98.0698C77.0232 98.0698 90.3766 94.4411 90.3766 106.271C90.3766 118.1 77.0232 114.471 77.0232 114.471V130.873M35.0761 81.8135C37.4088 105.472 59.4606 117.664 59.4606 130.873H63.815M35.0761 81.8135H44.6558C44.6558 81.8135 41.3175 95.7475 52.784 95.7475C64.2504 95.7475 60.9121 81.8135 60.9121 81.8135H93.1345C93.1345 81.8135 90.3767 69.3309 101.335 69.3309C112.294 69.3309 109.536 81.8135 109.536 81.8135H117.509C119.225 81.8135 120.574 83.3024 120.272 84.9914C116.407 106.59 96.3276 118.269 96.3276 130.873H91.9733M63.815 130.873V139.855C63.815 144.273 67.3967 147.855 71.815 147.855H83.9733C88.3916 147.855 91.9733 144.273 91.9733 139.855V130.873M63.815 130.873H77.0232M91.9733 130.873H77.0232M69.0812 19.6571L66.4276 3.14453M35.0761 35.8023L21.0741 22.3718M21.0741 68.9499H2.5M101.335 11.563C127.389 12.8693 143.5 32.8994 143.5 58.8805H133.63C133.63 58.8805 136.243 45.2368 125.502 45.2368C114.761 45.2368 117.374 58.8805 117.374 58.8805H101.335V42.3339C101.335 42.3339 87.9818 45.2368 87.9818 34.0606C87.9818 22.8843 101.335 25.7873 101.335 25.7873V11.563Z" stroke="#F6B254" stroke-width="5" stroke-linecap="round" stroke-linejoin="round"/>
</svg>
