<svg width="119" height="129" viewBox="0 0 119 129" fill="none" xmlns="http://www.w3.org/2000/svg">
<path d="M10.5 101.5H100.5C99.6139 89.5378 93.7029 64.7778 77.3404 51.5C77.386 46.4984 79.8968 35.7379 88.9325 27.7284C86.7855 25.0685 85.5 21.6844 85.5 18C85.5 17.3532 85.5396 16.7156 85.6166 16.0896C22.0548 15.3587 8.9013 71.9241 10.5 101.5Z" fill="#F55765" fill-opacity="0.3"/>
<path d="M71.6508 44.7806C70.4251 44.1451 68.9162 44.6235 68.2806 45.8492C67.6451 47.0749 68.1235 48.5838 69.3492 49.2194L70.5 47L71.6508 44.7806ZM77.3404 51.5L75.7651 53.4413L77.3404 51.5ZM85.6166 16.0896L88.0979 16.3946L85.6166 16.0896ZM10.5 101.5V104H100.5V101.5V99H10.5V101.5ZM108.5 109.5H106V118.5H108.5H111V109.5H108.5ZM100.5 126.5V124H10.5V126.5V129H100.5V126.5ZM2.5 118.5H5V109.5H2.5H0V118.5H2.5ZM10.5 126.5V124C7.46243 124 5 121.538 5 118.5H2.5H0C0 124.299 4.70101 129 10.5 129V126.5ZM108.5 118.5H106C106 121.538 103.538 124 100.5 124V126.5V129C106.299 129 111 124.299 111 118.5H108.5ZM100.5 101.5V104C103.538 104 106 106.462 106 109.5H108.5H111C111 103.701 106.299 99 100.5 99V101.5ZM10.5 101.5V99C4.70101 99 0 103.701 0 109.5H2.5H5C5 106.462 7.46243 104 10.5 104V101.5ZM100.5 101.5L102.993 101.315C102.533 95.1008 100.782 85.6758 97.0539 76.0873C93.3304 66.5118 87.5545 56.5689 78.9156 49.5587L77.3404 51.5L75.7651 53.4413C83.4888 59.7088 88.8496 68.7849 92.3938 77.8994C95.9329 87.0009 97.5811 95.9371 98.0068 101.685L100.5 101.5ZM77.3404 51.5L78.9156 49.5587C76.6893 47.7521 74.2717 46.1396 71.6508 44.7806L70.5 47L69.3492 49.2194C71.6493 50.412 73.7843 51.8339 75.7651 53.4413L77.3404 51.5ZM116.5 18H114C114 25.1797 108.18 31 101 31V33.5V36C110.941 36 119 27.9411 119 18H116.5ZM101 2.5V5C108.18 5 114 10.8203 114 18H116.5H119C119 8.05887 110.941 0 101 0V2.5ZM85.5 18H88C88 17.4554 88.0334 16.9196 88.0979 16.3946L85.6166 16.0896L83.1352 15.7846C83.0459 16.5116 83 17.251 83 18H85.5ZM85.6166 16.0896L88.0979 16.3946C88.8871 9.97339 94.3647 5 101 5V2.5V0C91.8082 0 84.2288 6.8876 83.1352 15.7846L85.6166 16.0896ZM10.5 101.5L12.9964 101.365C12.2161 86.9309 15.0561 65.9441 25.7462 48.7498C36.3336 31.7208 54.7096 18.2344 85.5878 18.5894L85.6166 16.0896L85.6453 13.5897C52.9618 13.2139 32.9802 27.6448 21.5 46.1098C10.1227 64.4094 7.18517 86.4932 8.00364 101.635L10.5 101.5ZM101 33.5V31C96.9115 31 93.2649 29.1155 90.8778 26.1581L88.9325 27.7284L86.9871 29.2986C90.2827 33.3814 95.3364 36 101 36V33.5ZM88.9325 27.7284L90.8778 26.1581C89.0767 23.9268 88 21.0925 88 18H85.5H83C83 22.2763 84.4943 26.2103 86.9871 29.2986L88.9325 27.7284ZM77.3404 51.5L79.8402 51.5228C79.8808 47.0777 82.1877 37.048 90.5908 29.5992L88.9325 27.7284L87.2741 25.8576C77.6059 34.4279 74.8912 45.9191 74.8405 51.4772L77.3404 51.5Z" fill="#F55765"/>
</svg>
