<svg width="146" height="141" viewBox="0 0 146 141" fill="none" xmlns="http://www.w3.org/2000/svg">
<path d="M114.188 120.5H128V138H72.75H17.5V120.5H31.3125M114.188 120.5H100.375H72.75H45.125H31.3125M114.188 120.5V103H103.828M31.3125 120.5V103H41.6719M41.6719 103H52.0312H72.75H93.4688H103.828M41.6719 103V85.5H72.75H103.828V103M3 35.5H17M15.5 3L26 13.5M15.5 68L26 57.5M143 35.5H129M130.5 3L120 13.5M130.5 68L120 57.5M73.0001 5.5L82.7374 25.0978L104.385 28.3024L88.7553 43.6192L92.397 65.1976L73.0001 55.066L53.6032 65.1976L57.2449 43.6192L41.6152 28.3024L63.2628 25.0978L73.0001 5.5Z" stroke="#3C61F5" stroke-width="5" stroke-linecap="round" stroke-linejoin="round"/>
</svg>
