<svg width="144" height="145" viewBox="0 0 144 145" fill="none" xmlns="http://www.w3.org/2000/svg">
<path d="M2.5 3H13.333M141.5 3H130.667M2.5 106.647H13.333M141.5 106.647H130.667M13.333 3V106.647M13.333 3H72H130.667M13.333 106.647H72M130.667 3V106.647M130.667 106.647H72M47.5202 47.5452L32.0445 40.3412L72 21.1736L111.955 40.3412M47.5202 47.5452L72 58.9408L96.4798 47.5452M47.5202 47.5452V80.38C47.5202 80.38 60.4704 86.3432 72 86.3432C83.5296 86.3432 96.4798 80.38 96.4798 80.38V47.5452M111.955 40.3412L96.4798 47.5452M111.955 40.3412V60.9285M72 106.647V120.987M72 120.987C66.2502 120.987 61.5891 125.691 61.5891 131.493C61.5891 137.296 66.2502 142 72 142C77.7498 142 82.4109 137.296 82.4109 131.493C82.4109 125.691 77.7498 120.987 72 120.987Z" stroke="#F6B254" stroke-width="5" stroke-linecap="round" stroke-linejoin="round"/>
</svg>
