<svg width="87" height="102" viewBox="0 0 87 102" fill="none" xmlns="http://www.w3.org/2000/svg">
<path d="M44.7862 18.2191C67.4645 18.2191 85.8488 36.5666 85.8488 59.1994C85.8488 81.8322 67.4645 100.18 44.7862 100.18C22.108 100.18 3.7236 81.8322 3.7236 59.1994C3.7236 36.5666 22.108 18.2191 44.7862 18.2191Z" fill="black"/>
<path d="M44.7862 35.6225C57.8336 35.6225 68.4105 46.1783 68.4105 59.1994C68.4105 72.2206 57.8336 82.7763 44.7862 82.7763C31.7389 82.7763 21.162 72.2206 21.162 59.1994C21.162 46.1783 31.7389 35.6225 44.7862 35.6225Z" fill="black"/>
<path d="M8.56761 6.85905L17.1502 19.6764L22.2944 13.9733L13.1629 1.15592L8.56761 6.85905Z" fill="black"/>
<path d="M17.1502 19.6764L8.56761 6.85905L1.15576 9.00928L10.5899 21.5747L17.1502 19.6764Z" fill="black"/>
<path d="M44.7862 53.5551C47.9423 53.5551 50.5008 56.1085 50.5008 59.2582C50.5008 62.408 47.9423 64.9613 44.7862 64.9613C41.6302 64.9613 39.0716 62.408 39.0716 59.2582M44.7862 59.2582L17.1502 19.6764M8.56761 6.85905L17.1502 19.6764M8.56761 6.85905L13.1629 1.15592L22.2944 13.9733L17.1502 19.6764M8.56761 6.85905L1.15576 9.00928L10.5899 21.5747L17.1502 19.6764M44.7862 18.2191C67.4645 18.2191 85.8488 36.5666 85.8488 59.1994C85.8488 81.8322 67.4645 100.18 44.7862 100.18C22.108 100.18 3.7236 81.8322 3.7236 59.1994C3.7236 36.5666 22.108 18.2191 44.7862 18.2191ZM44.7862 35.6225C57.8336 35.6225 68.4105 46.1783 68.4105 59.1994C68.4105 72.2206 57.8336 82.7763 44.7862 82.7763C31.7389 82.7763 21.162 72.2206 21.162 59.1994C21.162 46.1783 31.7389 35.6225 44.7862 35.6225Z" stroke="white" stroke-width="2.31179" stroke-linecap="round" stroke-linejoin="round"/>
</svg>
