<svg width="104" height="59" viewBox="0 0 104 59" fill="none" xmlns="http://www.w3.org/2000/svg">
<path d="M79.2798 0.979492C86.4316 0.979492 92.2378 6.75049 92.2378 13.8789C92.2376 18.9924 89.2494 23.4061 84.9204 25.4932C86.1063 25.7805 87.271 26.1581 88.4038 26.625C90.3678 27.4345 92.2107 28.4996 93.8843 29.79C94.6758 30.4003 95.43 31.061 96.1411 31.7686C98.3556 33.9722 100.112 36.5889 101.311 39.4688C101.487 39.8924 101.651 40.3208 101.802 40.7529C102.18 41.8331 102.479 42.9382 102.696 44.0586C103.294 47.1476 100.668 49.5332 97.7915 49.5332H74.811C75.0026 50.2009 75.1654 50.8764 75.2974 51.5576C75.8956 54.6463 73.2707 57.0311 70.394 57.0312H33.3696C30.493 57.0311 27.868 54.6463 28.4663 51.5576C28.5983 50.8764 28.761 50.2008 28.9526 49.5332H5.97217C3.09535 49.5332 0.469333 47.1476 1.06787 44.0586C1.37186 42.4898 1.8353 40.9518 2.45264 39.4688C3.65141 36.5889 5.40805 33.9722 7.62256 31.7686C9.83719 29.5648 12.4669 27.8174 15.3599 26.625C16.4924 26.1582 17.6568 25.7805 18.8423 25.4932C14.5138 23.4059 11.526 18.992 11.5259 13.8789C11.5259 6.75049 17.3321 0.979492 24.4839 0.979492C31.6356 0.979552 37.4419 6.75053 37.4419 13.8789C37.4417 18.9926 34.4528 23.4062 30.1235 25.4932C31.3097 25.7805 32.4748 26.158 33.6079 26.625C35.572 27.4345 37.4148 28.4996 39.0884 29.79C39.8798 30.4003 40.6332 31.0611 41.3442 31.7686C42.0274 32.4484 42.6671 33.1678 43.2603 33.9219C44.2335 33.5463 45.2291 33.2362 46.2397 32.9912C41.9115 30.9038 38.9243 26.49 38.9243 21.377C38.9243 14.2485 44.7305 8.47754 51.8823 8.47754C59.0339 8.47778 64.8394 14.2487 64.8394 21.377C64.8393 26.4903 61.8517 30.904 57.5229 32.9912C58.534 33.2362 59.5297 33.5471 60.5034 33.9229C61.0967 33.1686 61.736 32.4486 62.4194 31.7686C64.634 29.5649 67.2629 27.8174 70.1558 26.625C71.2886 26.1581 72.4533 25.7805 73.6392 25.4932C69.3104 23.406 66.3219 18.9923 66.3218 13.8789C66.3218 6.75055 72.1281 0.979591 79.2798 0.979492Z" fill="black" stroke="#190F47" stroke-width="1.95885" stroke-linejoin="round"/>
<path d="M51.9483 33.2964C45.3328 33.2964 39.97 27.9599 39.97 21.3769C39.97 14.794 45.3328 9.45741 51.9483 9.45741C58.5637 9.45741 63.9266 14.794 63.9266 21.3769C63.9266 27.9599 58.5637 33.2964 51.9483 33.2964Z" fill="black"/>
<path fill-rule="evenodd" clip-rule="evenodd" d="M63.1765 32.4629C62.3473 33.288 61.5851 34.1733 60.8956 35.1105C62.7057 35.8763 64.4056 36.8699 65.9546 38.0642C66.7136 38.6494 67.4364 39.2828 68.1182 39.9613C70.2416 42.0743 71.9261 44.5829 73.0753 47.3437C73.2415 47.7429 73.396 48.1463 73.5387 48.5534H97.8583C100.264 48.5534 102.256 46.5957 101.8 44.2451C101.592 43.1711 101.306 42.1121 100.944 41.0766C100.8 40.6622 100.643 40.2516 100.473 39.8453C99.3242 37.0844 97.6397 34.5759 95.5163 32.4629C94.8345 31.7844 94.1117 31.151 93.3527 30.5658C91.7478 29.3284 89.9811 28.3065 88.0975 27.5301C85.323 26.3866 82.3494 25.798 79.3464 25.798C76.3433 25.798 73.3697 26.3866 70.5953 27.5301C67.8209 28.6737 65.2999 30.3498 63.1765 32.4629Z" fill="black"/>
<path d="M79.3464 25.798C72.7309 25.798 67.368 20.4614 67.368 13.8785C67.368 7.29552 72.7309 1.95898 79.3464 1.95898C85.9618 1.95898 91.3247 7.29552 91.3247 13.8785C91.3247 20.4614 85.9618 25.798 79.3464 25.798Z" fill="black"/>
<path fill-rule="evenodd" clip-rule="evenodd" d="M3.4232 39.8453C2.83138 41.267 2.38746 42.7413 2.09607 44.2451C1.64062 46.5956 3.63264 48.5534 6.03825 48.5534H30.3578C30.5006 48.1463 30.6551 47.7429 30.8213 47.3437C31.9705 44.5829 33.6549 42.0743 35.7784 39.9613C37.8517 37.8982 40.3039 36.2516 43.001 35.1105C42.3114 34.1733 41.5492 33.288 40.7201 32.4629C40.0383 31.7844 39.3155 31.151 38.5565 30.5658C36.9516 29.3284 35.1849 28.3065 33.3013 27.5301C30.5268 26.3866 27.5532 25.798 24.5502 25.798C21.5472 25.798 18.5735 26.3866 15.7991 27.5301C13.0247 28.6737 10.5038 30.3498 8.38029 32.4629C6.25683 34.5759 4.57241 37.0844 3.4232 39.8453Z" fill="black"/>
<path d="M24.5502 25.798C17.9347 25.798 12.5719 20.4614 12.5719 13.8785C12.5719 7.29552 17.9347 1.95898 24.5502 1.95898C31.1656 1.95898 36.5285 7.29552 36.5285 13.8785C36.5285 20.4614 31.1656 25.798 24.5502 25.798Z" fill="black"/>
<path d="M60.8956 35.1105C62.7057 35.8763 64.4056 36.8699 65.9546 38.0642C66.7136 38.6494 67.4364 39.2828 68.1182 39.9613C70.2416 42.0743 71.9261 44.5829 73.0753 47.3437C73.2415 47.7429 73.396 48.1463 73.5387 48.5534L73.5463 48.575C73.9084 49.6106 74.1943 50.6695 74.4024 51.7436C74.8578 54.0941 72.8658 56.0518 70.4602 56.0518H33.4364C31.0307 56.0518 29.0387 54.0941 29.4942 51.7436C29.7037 50.6621 29.9922 49.5958 30.3578 48.5534C30.5006 48.1463 30.6551 47.7429 30.8213 47.3437C31.9705 44.5829 33.6549 42.0743 35.7784 39.9613C37.8517 37.8982 40.3039 36.2516 43.001 35.1105C43.0662 35.0829 43.1316 35.0556 43.1972 35.0286C45.9716 33.885 48.9452 33.2964 51.9483 33.2964C54.9513 33.2964 57.9249 33.885 60.6994 35.0286C60.7649 35.0556 60.8303 35.0829 60.8956 35.1105Z" fill="black"/>
<path d="M51.9483 33.2964C45.3328 33.2964 39.97 27.9599 39.97 21.3769C39.97 14.794 45.3328 9.45741 51.9483 9.45741C58.5637 9.45741 63.9266 14.794 63.9266 21.3769C63.9266 27.9599 58.5637 33.2964 51.9483 33.2964ZM51.9483 33.2964C48.9452 33.2964 45.9716 33.885 43.1972 35.0286C43.1316 35.0556 43.0662 35.0829 43.001 35.1105M51.9483 33.2964C54.9513 33.2964 57.9249 33.885 60.6994 35.0286C60.7649 35.0556 60.8303 35.0829 60.8956 35.1105M60.8956 35.1105C61.5851 34.1733 62.3473 33.288 63.1765 32.4629C65.2999 30.3498 67.8209 28.6737 70.5953 27.5301C73.3697 26.3866 76.3433 25.798 79.3464 25.798M60.8956 35.1105C62.7057 35.8763 64.4056 36.8699 65.9546 38.0642C66.7136 38.6494 67.4364 39.2828 68.1182 39.9613C70.2416 42.0743 71.9261 44.5829 73.0753 47.3437C73.2415 47.7429 73.396 48.1463 73.5388 48.5534M73.5388 48.5534H97.8583C100.264 48.5534 102.256 46.5957 101.8 44.2451C101.592 43.1711 101.306 42.1121 100.944 41.0766C100.8 40.6622 100.643 40.2516 100.473 39.8453C99.3242 37.0844 97.6397 34.5759 95.5163 32.4629C94.8345 31.7844 94.1117 31.151 93.3527 30.5658C91.7478 29.3284 89.9811 28.3065 88.0975 27.5301C85.323 26.3866 82.3494 25.798 79.3464 25.798M73.5388 48.5534L73.5463 48.575C73.9084 49.6106 74.1943 50.6695 74.4024 51.7436C74.8578 54.0941 72.8658 56.0518 70.4602 56.0518H33.4364C31.0307 56.0518 29.0387 54.0941 29.4942 51.7436C29.7037 50.6621 29.9922 49.5958 30.3578 48.5534M79.3464 25.798C72.7309 25.798 67.368 20.4614 67.368 13.8785C67.368 7.29552 72.7309 1.95898 79.3464 1.95898C85.9618 1.95898 91.3247 7.29552 91.3247 13.8785C91.3247 20.4614 85.9618 25.798 79.3464 25.798ZM30.3578 48.5534H6.03825C3.63264 48.5534 1.64062 46.5956 2.09607 44.2451C2.38746 42.7413 2.83138 41.267 3.4232 39.8453C4.57241 37.0844 6.25683 34.5759 8.38029 32.4629C10.5038 30.3498 13.0247 28.6737 15.7991 27.5301C18.5735 26.3866 21.5472 25.798 24.5502 25.798M30.3578 48.5534C30.5006 48.1463 30.6551 47.7429 30.8213 47.3437C31.9705 44.5829 33.6549 42.0743 35.7784 39.9613C37.8517 37.8982 40.3039 36.2516 43.001 35.1105M43.001 35.1105C42.3114 34.1733 41.5492 33.288 40.7201 32.4629C40.0383 31.7844 39.3155 31.151 38.5565 30.5658C36.9516 29.3284 35.1849 28.3065 33.3013 27.5301C30.5268 26.3866 27.5532 25.798 24.5502 25.798M24.5502 25.798C17.9347 25.798 12.5719 20.4614 12.5719 13.8785C12.5719 7.29552 17.9347 1.95898 24.5502 1.95898C31.1656 1.95898 36.5285 7.29552 36.5285 13.8785C36.5285 20.4614 31.1656 25.798 24.5502 25.798Z" stroke="white" stroke-width="1.95885" stroke-linejoin="round"/>
</svg>
