<svg width="100" height="96" viewBox="0 0 100 96" fill="none" xmlns="http://www.w3.org/2000/svg">
<path d="M45.6367 3.28027C47.8851 0.860196 51.7154 0.860251 53.9639 3.28027L94.0869 46.4668C97.4648 50.103 94.8861 56.0186 89.9228 56.0186H88.5176C86.9965 56.0186 85.7637 57.2514 85.7637 58.7725V88.7646C85.7637 91.9311 83.1781 94.4848 80.0166 94.458C75.215 94.417 67.3353 94.3718 61.4814 94.4482C59.0924 94.4794 57.1193 92.5576 57.1191 90.1533V70.501C57.1191 68.2033 55.2557 66.3408 52.958 66.3408H46.6426C44.3449 66.3408 42.4824 68.2033 42.4824 70.501V90.1533C42.4823 92.5576 40.5082 94.4794 38.1191 94.4482C32.2654 94.3718 24.3865 94.417 19.585 94.458C16.4251 94.485 13.838 91.9367 13.8379 88.7685V58.7686C13.8378 57.2494 12.6064 56.0188 11.084 56.0186H9.67773C4.71477 56.0183 2.13612 50.103 5.51367 46.4668L45.6367 3.28027Z" fill="black" stroke="#190F47" stroke-width="2.92944" stroke-linejoin="round"/>
<path d="M6.58724 47.4633L46.7097 4.27697C48.3787 2.48056 51.2223 2.48056 52.8912 4.27697L93.0137 47.4633C95.5213 50.1625 93.6072 54.5536 89.9229 54.5536H88.5174C86.1874 54.5536 84.2986 56.4424 84.2986 58.7724V88.7647C84.2986 91.115 82.379 93.013 80.0288 92.993C75.2268 92.952 67.3334 92.9068 61.4622 92.9834C59.8819 93.0041 58.5835 91.7335 58.5835 90.1531V70.5009C58.5835 67.3943 56.065 64.8759 52.9584 64.8759H49.8005H46.6425C43.5359 64.8759 41.0175 67.3943 41.0175 70.5009V90.1531C41.0175 91.7335 39.719 93.0041 38.1387 92.9834C32.2675 92.9068 24.3742 92.952 19.5722 92.993C17.222 93.013 15.3023 91.1187 15.3023 88.7684V58.7688C15.3023 56.4388 13.4135 54.5536 11.0835 54.5536H9.67799C5.99378 54.5536 4.07961 50.1625 6.58724 47.4633Z" fill="black" stroke="white" stroke-width="2.92944" stroke-linejoin="round"/>
</svg>
