<svg width="32" height="32" viewBox="0 0 32 32" fill="none" xmlns="http://www.w3.org/2000/svg">
<path d="M13.4965 2.21341C14.4981 0.262194 17.0019 0.262196 18.0035 2.21342L30.3975 26.3598C31.399 28.311 30.1471 30.75 28.144 30.75H3.35595C1.35288 30.75 0.100955 28.311 1.10249 26.3598L13.4965 2.21341Z" stroke="black" stroke-width="1.5"/>
<path d="M13.2796 10.227C13.2673 10.0813 13.6178 9.96863 14.3312 9.88913C15.0446 9.79638 15.8809 9.75 16.8403 9.75C17.7996 9.75 18.2793 9.90238 18.2793 10.2071C18.2793 10.5914 18.1686 13.7848 17.9472 19.7873C17.9349 20.1185 17.7135 20.4167 17.283 20.6817C16.8526 20.9467 16.2438 21.0792 15.4566 21.0792C14.3866 21.0792 13.8269 20.7678 13.7777 20.145L13.2796 10.227ZM18.0764 24.9612C18.0764 25.637 17.8734 26.1007 17.4675 26.3525C17.074 26.6175 16.5143 26.75 15.7887 26.75C15.0753 26.75 14.528 26.6307 14.1467 26.3922C13.7654 26.167 13.5748 25.69 13.5748 24.9612C13.5748 23.7686 14.3251 23.1724 15.8256 23.1724C17.3261 23.1724 18.0764 23.7686 18.0764 24.9612Z" stroke="black" stroke-width="1.5"/>
</svg>
