<svg width="32" height="32" viewBox="0 0 32 32" fill="none" xmlns="http://www.w3.org/2000/svg">
<path d="M15.7529 16.0988C11.3464 16.0988 7.77427 12.6629 7.77427 8.42442C7.77427 4.18596 11.3464 0.75 15.7529 0.75C20.1594 0.75 23.7316 4.18596 23.7316 8.42442C23.7316 12.6629 20.1594 16.0988 15.7529 16.0988ZM15.7529 16.0988C13.7526 16.0988 11.7719 16.4778 9.92391 17.2141C9.88025 17.2315 9.83668 17.2491 9.79321 17.2668C7.99669 18.0015 6.3633 19.0617 4.9823 20.3901C3.56788 21.7505 2.4459 23.3657 1.68042 25.1432C1.56972 25.4003 1.46679 25.66 1.3717 25.9221C1.12816 26.5933 0.936018 27.2798 0.79643 27.9761C0.493059 29.4895 1.81993 30.75 3.42229 30.75H28.0836C29.6859 30.75 31.0128 29.4895 30.7094 27.9761C30.5708 27.2846 30.3804 26.6028 30.1392 25.936L30.1342 25.9221C30.0391 25.66 29.9361 25.4003 29.8254 25.1432C29.06 23.3657 27.938 21.7505 26.5236 20.3901C26.0694 19.9532 25.588 19.5454 25.0824 19.1686C24.0506 18.3996 22.9184 17.7599 21.7127 17.2668C21.6692 17.2491 21.6256 17.2315 21.582 17.2141C19.7339 16.4778 17.7532 16.0988 15.7529 16.0988Z" stroke="black" stroke-width="1.5" stroke-linejoin="round"/>
</svg>
