<svg width="32" height="32" viewBox="0 0 32 32" fill="none" xmlns="http://www.w3.org/2000/svg">
<path d="M23.7661 15.7661C23.7661 20.1844 20.1844 23.7661 15.7661 23.7661C11.3479 23.7661 7.76613 20.1844 7.76613 15.7661C7.76613 11.3479 11.3479 7.76613 15.7661 7.76613C20.1844 7.76613 23.7661 11.3479 23.7661 15.7661Z" stroke="black" stroke-width="1.5"/>
<path d="M15.75 0.75C15.4745 0.75 15.2007 0.757429 14.9288 0.772097C13.804 0.832787 13 1.8188 13 2.94529V3.11614C13 4.08839 12.3188 4.9196 11.4206 5.29183C10.546 5.65427 9.52654 5.55196 8.84023 4.89992L8.67415 4.74213C7.8441 3.95354 6.55989 3.83918 5.70952 4.60583C5.32721 4.9505 4.96272 5.31456 4.6176 5.69647C3.88864 6.50316 4.03855 7.73082 4.84448 8.46062C5.6249 9.16732 5.75835 10.3297 5.34373 11.2974C4.94877 12.2193 4.08579 12.9341 3.08288 12.9341H2.96145C1.83158 12.9341 0.841218 13.7377 0.775638 14.8656C0.758625 15.1583 0.75 15.4531 0.75 15.75C0.75 16.0042 0.756323 16.2569 0.768819 16.508C0.824648 17.6297 1.80637 18.4341 2.92951 18.4341H3.07755C4.06162 18.4341 4.89834 19.1168 5.27058 20.0278L5.28453 20.0617C5.68298 21.0278 5.51222 22.1794 4.70591 22.8441C3.87876 23.5261 3.68993 24.7347 4.39041 25.5463C4.8016 26.0227 5.24225 26.4729 5.70952 26.8942C6.55989 27.6608 7.8441 27.5465 8.67415 26.7579L8.84023 26.6001C9.52654 25.948 10.5461 25.8457 11.4206 26.2082C12.3188 26.5804 13 27.4116 13 28.3839V28.5547C13 29.6812 13.804 30.6672 14.9288 30.7279C15.2007 30.7426 15.4745 30.75 15.75 30.75C16.0255 30.75 16.2993 30.7426 16.5712 30.7279C17.696 30.6672 18.5 29.6812 18.5 28.5547V28.3839C18.5 27.4116 19.1812 26.5804 20.0794 26.2082C20.9539 25.8457 21.9735 25.948 22.6598 26.6001L22.8258 26.7579C23.6559 27.5465 24.9401 27.6608 25.7905 26.8942C26.2578 26.4729 26.6984 26.0227 27.1096 25.5463C27.8101 24.7347 27.6212 23.5261 26.7941 22.8441C25.9878 22.1794 25.817 21.0278 26.2155 20.0617L26.2294 20.0278C26.6017 19.1168 27.4384 18.4341 28.4224 18.4341H28.5705C29.6936 18.4341 30.6754 17.6297 30.7312 16.508C30.7437 16.2569 30.75 16.0042 30.75 15.75C30.75 15.4531 30.7414 15.1583 30.7244 14.8656C30.6588 13.7377 29.6684 12.9341 28.5385 12.9341H28.4171C27.4142 12.9341 26.5512 12.2193 26.1563 11.2974C25.7416 10.3297 25.8751 9.16732 26.6555 8.46062C27.4615 7.73082 27.6114 6.50316 26.8824 5.69647C26.5373 5.31456 26.1728 4.9505 25.7905 4.60583C24.9401 3.83918 23.6559 3.95354 22.8258 4.74213L22.6598 4.89992C21.9735 5.55196 20.9539 5.65427 20.0794 5.29183C19.1812 4.9196 18.5 4.08839 18.5 3.11614V2.94529C18.5 1.8188 17.696 0.832787 16.5712 0.772097C16.2993 0.757429 16.0255 0.75 15.75 0.75Z" stroke="black" stroke-width="1.5"/>
</svg>
