<svg width="32" height="28" viewBox="0 0 32 28" fill="none" xmlns="http://www.w3.org/2000/svg">
<path d="M14.8753 14.1442C14.8753 15.113 14.1017 15.8985 13.1475 15.8985C12.1932 15.8985 11.4197 15.113 11.4197 14.1442C11.4197 13.1753 12.1932 12.3898 13.1475 12.3898M13.1475 14.1442L25.1391 5.66015M29.0222 3.02537L25.1391 5.66015M29.0222 3.02537L30.75 4.43607L26.8669 7.23938L25.1391 5.66015M29.0222 3.02537L28.3708 0.75L24.564 3.6462L25.1391 5.66015M25.5806 14.1442C25.5806 21.1062 20.0221 26.75 13.1653 26.75C6.30851 26.75 0.75 21.1062 0.75 14.1442C0.75 7.18214 6.30851 1.5383 13.1653 1.5383C20.0221 1.5383 25.5806 7.18214 25.5806 14.1442ZM20.3081 14.1442C20.3081 18.1496 17.1101 21.3966 13.1653 21.3966C9.22043 21.3966 6.02249 18.1496 6.02249 14.1442C6.02249 10.1387 9.22043 6.89172 13.1653 6.89172C17.1101 6.89172 20.3081 10.1387 20.3081 14.1442Z" stroke="black" stroke-width="1.5" stroke-linecap="round" stroke-linejoin="round"/>
</svg>
