<svg width="36" height="16" viewBox="0 0 36 16" fill="none" xmlns="http://www.w3.org/2000/svg">
<path d="M1.73609 6.74319C1.18382 6.73901 0.732728 7.18332 0.728544 7.73559C0.72436 8.28786 1.16867 8.73895 1.72094 8.74314L1.73609 6.74319ZM35.4302 8.70561C35.8237 8.31805 35.8285 7.68491 35.441 7.29143L29.1254 0.879446C28.7378 0.485974 28.1047 0.481178 27.7112 0.868732C27.3177 1.25629 27.3129 1.88943 27.7005 2.28291L33.3143 7.98245L27.6148 13.5963C27.2213 13.9838 27.2165 14.617 27.6041 15.0105C27.9916 15.4039 28.6248 15.4087 29.0183 15.0212L35.4302 8.70561ZM1.72852 7.74316L1.72094 8.74314L34.7209 8.99314L34.7285 7.99316L34.7361 6.99319L1.73609 6.74319L1.72852 7.74316Z" fill="white"/>
</svg>
