<svg width="1920" height="1014" viewBox="0 0 1920 1014" fill="none" xmlns="http://www.w3.org/2000/svg">
<path d="M-19.7731 1010.41C23.9612 1014.67 84.3534 993.425 112.44 956.978C112.857 956.501 113.272 956.021 113.685 955.538C125.881 941.154 135.678 925.58 144.96 905.694C146.122 903.188 147.284 900.586 148.437 897.891C158.825 873.427 167.929 844.013 175.513 801.97C197.461 662.333 191.016 552.988 192.909 519.193C194.059 451.28 193.598 379.026 206.093 282.255C207.33 273.378 208.631 264.916 210.275 255.462C211.585 247.92 213.334 241.949 214.038 241.913C214.744 241.886 214.136 247.775 212.824 255.28C211.202 264.567 209.936 272.762 208.719 281.409C208.713 281.448 208.708 281.487 208.703 281.526C196.092 378.656 196.62 449.295 195.45 515.584C193.422 550.097 200.409 662.104 177.406 805.512C169.476 848.296 160.033 877.868 149.017 902.837C147.847 905.465 146.673 907.99 145.504 910.415C145.477 910.472 145.449 910.529 145.421 910.586C135.499 930.978 125.61 945.738 113.579 959.46C113.326 959.746 113.073 960.031 112.819 960.315C83.2809 997.328 22.337 1017 -20.1956 1012.88C-29.4364 1012.43 -34.5969 1011.22 -34.6989 1010.54C-34.2879 1009.88 -28.938 1009.99 -19.7731 1010.41ZM1309.83 111.374C1338.34 84.3825 1384.5 57.3481 1428.89 44.0979C1473.45 30.0084 1516.03 28.1939 1535.65 28.7463C1554.9 29.1699 1576.35 30.6872 1601.24 35.909C1606.95 37.1177 1612.8 38.5307 1618.82 40.2094C1638.65 45.7561 1660.14 54.043 1681.28 67.2768C1692.16 74.0987 1701.91 81.62 1710.36 89.4618C1762.19 139.224 1780.2 188.608 1792.86 223.162C1795.75 231.573 1798.25 239.705 1800.34 247.101C1800.34 247.114 1800.35 247.126 1800.35 247.139C1808.28 275.496 1812.05 297.364 1814.53 317.389C1818.73 353.254 1819.59 382.839 1817.76 418.354C1815.72 467.356 1804.63 536.533 1791.44 579.845C1790.76 582.223 1790.05 584.644 1789.31 587.079C1779.3 618.159 1767.09 657.633 1731.42 706.036C1701.72 745.468 1663.19 769.38 1626.68 773.288C1616.15 774.554 1606.27 774.427 1596.51 773.31C1572.5 770.533 1550.77 761.593 1532.73 751.76C1528.23 749.304 1523.75 746.667 1519.3 743.861C1492.83 727.322 1473.55 707.032 1470.72 686.102C1467.67 665.139 1479.46 646.32 1491.69 631.891C1516.94 603.392 1544.36 586.913 1563.62 574.933C1596 555.685 1615.42 547.15 1629.4 540.616C1633.69 538.651 1637.42 536.982 1640.85 535.448C1672.06 521.499 1701.28 509.336 1736.65 495.798C1744.63 492.751 1752.71 489.732 1761.32 486.58C1790.21 476.03 1811.62 468.41 1828.56 462.344C1835.95 459.701 1842.45 457.383 1848.58 455.217C1848.7 455.177 1848.81 455.137 1848.92 455.097C1849.78 454.795 1850.63 454.497 1851.47 454.201C1852.1 453.977 1852.74 453.752 1853.37 453.53C1853.62 453.434 1853.84 453.351 1854.01 453.288C1854.14 453.238 1854.24 453.199 1854.3 453.174C1854.32 453.169 1854.33 453.164 1854.34 453.159C1855.53 452.709 1856.57 452.344 1856.78 452.269C1857.15 452.138 1857.48 452.025 1857.65 451.967C1858.53 451.659 1859.68 451.271 1860.44 451.014C1862.42 450.348 1865.86 449.194 1871.17 447.44C1875.78 445.889 1880.2 444.388 1885.71 442.53C1886.06 442.413 1886.4 442.296 1886.75 442.179C1892.15 440.364 1898.32 438.301 1906.39 435.677C1913.67 433.307 1920.48 431.717 1921.65 432.068C1922.82 432.422 1917.92 434.568 1910.66 436.92C1903.12 439.362 1897.19 441.333 1891.85 443.122C1891.51 443.236 1891.17 443.35 1890.83 443.464C1885.23 445.341 1879.92 447.138 1874.17 449.063C1872.24 449.708 1870.26 450.371 1868.4 450.992C1865.07 452.123 1861.25 453.442 1856.77 455.01C1855.87 455.326 1854.94 455.65 1853.98 455.985C1847.87 458.132 1840.75 460.657 1832.71 463.518C1813.87 470.24 1790.15 478.66 1758.81 490.166C1750.63 493.173 1742.76 496.133 1734.97 499.119C1699.7 512.663 1667.97 525.917 1635.34 540.765C1630.71 542.881 1626.32 544.898 1621.7 547.066C1608.24 553.506 1591.62 560.99 1561.85 578.939C1543.76 590.352 1517.18 606.52 1492.97 634.22C1481.15 648.313 1470.21 666.398 1473.21 685.966C1475.89 705.532 1494.39 725.401 1520.63 741.763C1524.67 744.309 1528.73 746.714 1532.81 748.969C1551.48 759.324 1574.38 768.596 1598.41 771.022C1607.74 771.981 1617.15 771.97 1626.8 770.769C1661.99 766.787 1698.56 744.369 1727.53 706.976C1762.48 660.782 1775.01 622.335 1785.19 591.835C1785.53 590.752 1785.87 589.662 1786.19 588.612C1786.59 587.296 1786.99 585.986 1787.38 584.682C1801.85 538.995 1813.84 465.586 1815.54 411.631C1816.92 377.782 1815.98 349.615 1811.6 314.116C1809.3 296.75 1806.24 278.183 1798.69 250.422C1796.56 242.737 1793.98 234.149 1790.83 224.887C1778.2 190.089 1760.11 140.648 1708.68 91.2946C1699.96 83.2033 1689.88 75.4839 1678.52 68.4882C1658.19 56.0105 1637.83 48.1304 1618.31 42.6443C1612.22 40.9434 1606.22 39.4903 1600.26 38.2386C1575.44 33.0403 1551.74 31.2882 1529.61 31.2279C1511.52 31.0461 1470.61 33.2401 1427.67 47.0904C1384.27 60.4226 1342.27 85.5971 1316.84 108.521C1314.18 110.866 1311.53 113.279 1308.92 115.74C1289.72 133.74 1272.91 154.696 1261.03 174.207C1258.86 177.727 1256.81 181.142 1254.88 184.436C1226.39 234.549 1190.19 306.708 1165.21 386.814C1137.41 465.673 1130.99 555.646 1080.86 620.179C1079.52 621.763 1078.1 623.356 1076.67 624.896C1022.79 679.403 954.068 670.16 907.147 667.383C824.4 660.191 779.867 610.602 764.338 591.704C763.067 590.159 761.927 588.737 760.913 587.448C760.007 586.298 759.195 585.249 758.486 584.319C748.042 570.583 739.829 557.397 732.304 543.696C731.889 542.938 731.477 542.178 731.066 541.416C723.053 526.493 715.793 510.795 708.407 491.866C681.528 420.824 669.22 361.75 655.847 311.658C653.441 302.345 651.101 293.395 648.754 284.645C648.747 284.619 648.74 284.593 648.733 284.567C638.471 246.294 628.333 212.721 616.382 182.321C594.772 127.022 570.627 95.3287 548.775 76.4289C541.883 70.4402 535.143 65.5844 528.439 61.4681C513.987 52.6459 499.96 47.2325 485.147 43.5354C457.219 36.6377 428.305 37.3692 401.704 41.1218C399.272 41.4653 396.814 41.8394 394.329 42.2473C376.736 45.1923 362.432 48.6191 344.588 53.7613C331.831 57.5183 320.759 62.2691 309.393 69.0921C303.565 72.6001 298.762 75.5173 298.227 75.0491C297.713 74.5927 301.735 70.8407 307.66 67.2388C319.356 60.1628 330.708 55.2602 343.902 51.3712C360.82 46.4853 374.889 43.0798 391.705 40.1621C394.238 39.7296 396.753 39.3272 399.243 38.9589C425.729 35.0263 455.845 33.9152 484.683 40.8672C499.275 44.4243 512.817 49.4291 527.338 57.9035C534.325 62.0175 541.454 66.9456 548.897 73.2534C571.657 92.447 596.514 124.798 618.492 180.904C630.387 211.079 640.461 244.235 650.758 282.532C653.136 291.374 655.499 300.384 657.938 309.815C671.36 360.036 683.704 419.414 710.563 490.562C717.471 508.297 724.297 523.293 732.06 537.987C732.496 538.811 732.935 539.632 733.376 540.451C740.723 554.034 749.142 567.852 760.033 582.251C761.516 584.205 763.431 586.679 765.807 589.584C781.193 608.376 825.098 657.743 907.381 664.913C954.26 667.76 1022.66 676.609 1075.2 622.826C1075.59 622.41 1075.97 621.992 1076.35 621.572C1143.1 521.31 1135.83 457.605 1153.05 414.673C1162.71 380.052 1171.62 354.561 1179.47 334.119C1181.02 330.107 1182.43 326.511 1183.83 323.03C1189.94 307.845 1195.06 296.165 1200.39 284.258C1216.51 248.702 1229.36 223.99 1246.02 194.203C1249.85 187.42 1254.12 180.197 1258.79 172.707C1270.63 153.509 1286.13 134.419 1301.99 118.851C1302.02 118.819 1302.05 118.787 1302.08 118.755C1304.65 116.222 1307.27 113.735 1309.83 111.374ZM2011.39 402.988C2018.99 400.909 2025.09 399.849 2025.21 400.527C2025.31 401.21 2019.38 403.375 2011.77 405.455C1994.67 410.128 1976.37 415.302 1959.23 420.31C1951.89 422.45 1945.76 423.695 1945.64 423.018C1945.51 422.34 1951.45 419.994 1958.79 417.852C1975.95 412.844 1994.25 407.668 2011.39 402.988ZM1278.31 124.83C1283.36 119.171 1289.16 114.109 1290.85 113.411C1292.56 112.715 1289.54 116.428 1284.37 121.977C1281.65 124.904 1277.23 129.735 1271.59 136.603C1265.44 144.114 1257.82 154.067 1249.74 166.648C1201.3 234.306 1145.25 378.222 1108.21 536.703C1103.4 551.985 1098.2 566.054 1092.24 578.584C1069.86 631.659 1015.31 669.508 908.119 657.137C905.05 656.847 901.978 656.496 898.902 656.08C717.333 628.227 700.008 417.104 658.912 276.778C638.325 201.971 616.307 122.347 559.704 68.8023C502.203 13.9527 415.082 17.8146 340.585 39.8292C180.779 96.6575 190.819 302.028 181.784 449.334C176.927 585.43 185.811 723.205 150.901 858.092C138.799 911.717 88.2832 998.184 7.01474 999.279C-67.3574 1003.73 -128.626 973.596 -151.256 965.164C-158.661 962.048 -164.568 958.784 -164.208 958.198C-163.851 957.604 -157.395 959.893 -150.029 962.988C-127.689 971.333 -66.7597 1001.11 6.3886 996.843C85.9383 996.01 135.972 911.807 148.181 858.564C183.232 724.655 174.462 587.156 179.244 451.242C188.661 303.442 175.992 96.3592 339.683 36.6892C414.477 14.3424 503.363 9.83745 562.547 65.996C620.544 120.745 642.669 200.995 663.572 275.966C704.836 417.154 724.129 625.286 900.267 650.724C903.059 651.094 905.849 651.411 908.636 651.678C1013.65 663.309 1065.02 631.98 1088.86 579.846C1094.97 567.398 1100.2 553.585 1105.14 538.144C1142.72 377.652 1200.09 231.095 1247.62 165.226C1254.08 155.171 1260.09 146.999 1265.24 140.431C1270.88 133.247 1275.49 127.986 1278.31 124.83ZM1610.49 24.4638C1645.41 32.4587 1686.21 48.5914 1719.68 79.2767C1767.2 122.369 1798.62 186.474 1814.61 247.188C1828.23 297.902 1832.62 346.789 1833.33 385.699C1834.03 446.1 1828.03 483.945 1820.74 520.817C1820.66 521.212 1820.58 521.606 1820.5 522.001C1812.39 558.596 1803.66 595.797 1777.86 650.976C1752.9 703.549 1696.13 789.856 1603.91 785.53C1603.85 785.526 1603.78 785.523 1603.71 785.519C1570.96 783.986 1539.8 771.292 1512.59 754.451C1489.63 740.032 1470.28 723.87 1460.98 700.91C1451.42 677.593 1459.87 653.115 1470.66 637.107C1629.97 481.8 1779.74 469.774 1839.56 442.19C1952.87 407.166 2082.56 364.506 2202.62 349.664C2204.35 349.73 2204.88 349.936 2205.11 350.083C2205.32 350.235 2205.27 350.358 2205.18 350.471C2205.06 350.724 2204.03 350.699 2199.75 351.245C2194.13 352.074 2181.72 354.306 2169.72 356.305C2168.9 356.444 2168.06 356.588 2167.2 356.735C2163.14 357.438 2159.09 358.175 2154.55 359.046C2150.7 359.775 2146.53 360.594 2141.35 361.664C2125.43 365.041 2116.13 367.219 2105.18 369.805C2079.3 374.502 1897.66 424.576 1835.12 446.262C1779.16 472.562 1631.14 488.002 1474.93 640.608C1464.79 655.98 1457.12 677.823 1465.52 699.354C1473.72 720.651 1491.95 736.973 1514.43 751.545C1540.4 768.217 1570.24 781.025 1602.05 782.938C1602.28 782.952 1602.52 782.965 1602.75 782.978C1692.55 788.528 1750.49 703.365 1775.59 649.973C1802.17 593.13 1810.97 554.247 1818.9 517.297C1818.97 516.936 1819.04 516.574 1819.12 516.213C1826.07 479.785 1831.51 443.77 1830.85 385.828C1830.13 346.216 1825.59 296.951 1811.78 246.229C1795.71 186.099 1764.54 123.31 1718.01 81.1064C1685.32 51.135 1645.45 35.1651 1611.13 27.1594C1603.65 25.4034 1597.23 23.6936 1597.04 22.9593C1596.81 22.2277 1602.92 22.7254 1610.49 24.4638ZM1615.81 9.83309C1657.16 19.2136 1697.91 37.3328 1730.85 67.0833C1886.96 227.252 1876.29 471.919 1795 656.541C1769.26 711.267 1707.86 807.701 1602.17 802.12C1601.07 802.055 1599.97 801.978 1598.87 801.89C1563.56 799.065 1531.66 785.061 1504.24 767.634C1479.79 751.727 1457.75 733.633 1446.85 704.926C1435.67 675.448 1447.55 645.407 1459.55 628.155C1629.21 464.516 1774.97 455.741 1836.28 426.983C1897.22 407.894 1914.12 403.185 1939.3 395.532C1939.99 395.327 1940.68 395.122 1941.37 394.918C1941.41 394.902 1941.46 394.887 1941.5 394.871C1942.36 394.582 1943.08 394.348 1943.45 394.229C1944.21 393.987 1944.83 393.797 1945.06 393.726C1945.6 393.562 1946.05 393.428 1946.21 393.38C1946.86 393.184 1947.61 392.964 1948.09 392.822C1952.66 391.479 1966.27 387.562 1977.78 384.39C1989.37 381.195 1997.26 379.134 2005.93 376.896C2006.82 376.665 2007.72 376.434 2008.61 376.205C2016.55 374.166 2025.12 371.986 2037.01 369.006C2044.57 367.105 2050.16 366.311 2049.38 367.212C2048.73 368.082 2041.55 370.435 2034.42 372.232C2021.85 375.399 2012.67 377.75 2004.65 379.825C2003.75 380.057 2002.94 380.266 2002.08 380.487C1994 382.584 1986.82 384.475 1976.57 387.308C1961.57 391.524 1951.23 394.571 1941.14 397.576C1915.08 405.492 1895.56 410.95 1831.83 431.052C1774.14 458.744 1630.99 466.879 1461.67 629.452C1449.85 646.453 1438.37 675.542 1449.18 704.062C1459.71 731.895 1481.34 749.797 1505.57 765.538C1532.79 782.844 1564.36 796.659 1599.12 799.423C1600.24 799.51 1601.35 799.586 1602.46 799.649C1706.35 805.104 1767.14 709.939 1792.72 655.552C1872.55 467.372 1879.29 228.848 1728 70.1971C1696.47 41.1533 1657.1 22.6968 1616.51 12.5521C1570.48 1.62064 1526.95 1.53725 1487.77 6.68325C1372.07 23.2071 1292.28 81.3258 1243.99 150.987C1242.49 153.176 1240.65 155.885 1238.53 159.133C1226.07 178.363 1202.39 214.97 1177.47 268.326C1168.82 286.898 1160.27 306.997 1151.85 329.461C1130.65 383.935 1114.98 452.04 1094.54 524.85C1089.91 540.165 1085.45 553.038 1080.14 565.211C1058.97 615.216 1020.93 650.661 909.825 639.147C909.57 639.122 909.316 639.098 909.061 639.072C747.874 642.455 703.924 369.835 672.852 258.313C656.447 197.879 643.051 164.262 632.202 140.843C629.235 134.465 626.387 128.751 623.66 123.578C616.57 110.244 610.371 99.9245 601.239 87.3296C538.383 -0.973957 437.535 -8.07719 335.624 22.5611C326.178 25.3191 316.95 28.8025 307.991 33.0975C300.755 36.5338 293.976 39.9692 293.128 39.6805C292.181 39.4668 297.521 35.4751 304.896 31.8349C314.61 27.0259 324.646 23.1716 334.936 20.1678C436.262 -10.4624 539.947 -3.92029 603.663 86.44C613.282 99.7774 619.82 110.866 627.02 124.639C629.717 129.843 632.38 135.275 635.209 141.42C645.824 164.588 659.098 198.066 675.415 258.277C706.321 370.223 750.888 640.352 908.971 636.568C909.334 636.605 909.696 636.64 910.059 636.675C1019.3 647.528 1055.24 615.098 1076.91 566.362C1082.21 554.548 1086.83 541.555 1091.51 526.259C1112.13 453.659 1127.63 385.21 1148.81 330.48C1157.21 307.916 1165.71 287.803 1174.28 269.283C1202.14 209.463 1226.61 173.205 1236.44 157.732C1237.11 156.697 1237.72 155.764 1238.27 154.928C1287.1 81.0345 1371.31 20.1064 1488.94 4.02404C1527.98 -0.955656 1570.86 -0.65679 1615.81 9.83309ZM162.879 443.529C163.092 435.876 163.874 429.086 164.577 428.582C165.283 428.051 165.642 433.944 165.423 441.64C164.302 482.237 163.995 511.564 163.644 534.324C163.034 576.567 162.712 597.062 161.708 627.315C158.92 705.964 154.03 781.788 136.842 846.666C122.902 900.458 97.221 945.316 62.387 965.564C27.6239 986.253 -7.17067 984.919 -30.6202 982.905C-37.602 982.224 -43.4475 980.741 -43.2625 980.082C-43.0818 979.412 -37.0175 979.798 -30.132 980.46C-7.03775 982.429 26.9451 983.637 60.7804 963.637C94.6811 944.108 120.188 900.403 134.142 847.157C151.452 782.537 156.402 706.71 159.215 627.59C160.189 598.286 160.509 578.917 161.107 537.644C161.461 514.885 161.753 485.269 162.879 443.529Z" fill="#F6B254"/>
</svg>
