<svg width="161" height="170" viewBox="0 0 161 170" fill="none" xmlns="http://www.w3.org/2000/svg">
<g clip-path="url(#clip0_1200_5994)">
<rect width="159.298" height="168.282" transform="translate(0.900391 0.906006)" fill="#3C61F5"/>
<path d="M35.5778 16.8834L21.7261 56.6212M24.0576 16.8834L10.2059 56.6212M10.2133 120.291L22.4068 160.568M0.900391 127.072L13.0938 167.35M131.991 74.2101L145.842 113.948M143.511 74.2101L157.363 113.948M75.2259 68.2597L41.2722 43.3979M78.5932 57.2426L44.6395 32.3808M67.337 36.7849L101.291 11.9231M63.9698 25.7678L97.9234 0.906006M90.0663 78.5697L96.2247 36.94M101.382 76.4106L107.541 34.7808M78.958 129.458L55.4769 94.5354M85.8696 120.242L62.3885 85.3189M6.09158 72.6521L48.0434 69.3352M10.7291 83.1977L52.6809 79.8808M157.391 16.9026L115.439 13.5858M152.754 27.4482L110.802 24.1313M151.851 38.8845L114.624 58.5079M153.569 50.2758L116.342 69.8992M131.972 105.056L89.9595 102.628M128.814 93.9769L86.8015 91.5494M87.7263 154.3L100.649 114.25M99.2434 154.032L112.166 113.982M125.872 123.102L160.199 147.446M122.672 134.169L156.999 158.513M127.729 148.457L100.413 169.188M137.326 154.83L118.407 169.188M70.6882 136.885L33.4608 156.509M72.4063 148.277L35.1789 167.9M48.8821 129.5L11.6547 109.876M50.6003 118.108L13.3729 98.4848" stroke="#3C61F5" stroke-width="4.86865" stroke-linecap="round" stroke-linejoin="round" style="mix-blend-mode:color-burn"/>
</g>
<defs>
<clipPath id="clip0_1200_5994">
<rect width="159.298" height="168.282" fill="white" transform="translate(0.900391 0.906006)"/>
</clipPath>
</defs>
</svg>
