<svg width="160" height="160" viewBox="0 0 160 160" fill="none" xmlns="http://www.w3.org/2000/svg">
<g clip-path="url(#clip0_1200_5994)">
<rect width="160" height="160" fill="#3C61F5"/>
<path d="M34.8301 15.1911L20.9175 52.9732M23.2592 15.1911L9.34653 52.9732M9.35389 113.509L21.6011 151.805M0 119.957L12.2472 158.252M131.668 69.6965L145.58 107.479M143.239 69.6965L157.151 107.479M74.6529 64.0389L40.5497 40.4007M78.035 53.564L43.9317 29.9258M66.7292 34.1131L100.832 10.4749M63.3471 23.6382L97.4504 0M89.5587 73.8416L95.7442 34.2606M100.925 71.7887L107.11 32.2077M78.4014 122.226L54.8169 89.0215M85.3435 113.463L61.759 80.2585M5.21405 68.2152L47.3507 65.0615M9.872 78.2417L52.0086 75.0881M157.18 15.2094L115.043 12.0557M152.522 25.2359L110.386 22.0823M151.616 36.1094L114.224 54.767M153.341 46.9401L115.95 65.5978M131.649 99.0241L89.4514 96.716M128.477 88.4905L86.2794 86.1824M87.2083 145.845L100.188 107.766M98.7761 145.59L111.756 107.511M125.522 116.183L160 139.328M122.308 126.705L156.786 149.851M127.387 140.289L99.951 160M137.027 146.348L118.024 160M70.0952 129.287L32.7038 147.945M71.8209 140.118L34.4295 158.776M48.1931 122.265L10.8017 103.607M49.9188 111.434L12.5274 92.7765" stroke="#3C61F5" stroke-width="4.86865" stroke-linecap="round" stroke-linejoin="round" style="mix-blend-mode:color-burn"/>
</g>
<defs>
<clipPath id="clip0_1200_5994">
<rect width="160" height="160" fill="white"/>
</clipPath>
</defs>
</svg>
