<svg  viewBox="0 0 1920 973"  fill="none" xmlns="http://www.w3.org/2000/svg" preserveAspectRatio="none">
<path d="M52.8026 963.482C93.6788 942.776 122.883 893.582 136.401 855.215C136.609 854.662 136.816 854.107 137.021 853.552C142.803 837.926 147.937 820.86 152.562 801.478C153.163 798.954 153.764 796.351 154.362 793.673C159.702 769.583 164.665 740.97 168.959 700.708C181.388 567.13 179.674 462.882 181.96 430.622C185.144 366.073 186.944 295.996 210.304 207.122C212.552 199.107 215.174 190.648 218.005 182.52C220.307 175.89 222.889 170.841 223.617 170.853C224.288 171.031 222.823 176.243 220.533 182.803C217.765 190.714 215.226 198.854 212.995 206.728C212.986 206.763 212.976 206.798 212.966 206.833C189.479 295.698 187.818 364.35 184.596 427.245C182.16 460.211 184.101 566.796 171.11 704.05C166.669 744.717 161.53 773.622 155.922 798.145C155.319 800.761 154.715 803.293 154.115 805.738C154.101 805.796 154.086 805.853 154.072 805.911C149.125 825.93 144.187 841.644 138.371 857.059C138.246 857.388 138.121 857.718 137.996 858.047C123.974 897.135 94.0685 945.493 53.7213 965.806C46.1907 969.885 39.8803 971.785 39.707 971.136C39.5192 970.455 45.4364 967.498 52.8026 963.482ZM1212.93 173.209C1214.25 171.043 1215.63 168.823 1217.08 166.552C1236.46 135.383 1269.81 101.654 1305.07 79.88C1342.79 55.7983 1382.03 44.0758 1400.36 39.8302C1418.36 35.5688 1438.64 31.7786 1463.06 30.1228C1468.63 29.7533 1474.5 29.5035 1480.49 29.4215C1500.36 29.1583 1522.5 30.6201 1546.17 35.6058C1594.22 45.7767 1629.26 66.0683 1652.48 87.6264C1671.69 105.48 1684.53 123.021 1694.19 138.616C1698.62 145.805 1702.42 152.726 1705.71 159.298C1705.72 159.309 1705.72 159.32 1705.73 159.332C1718.11 184.343 1724.26 204.418 1728.7 223.145C1736.24 256.529 1738.75 284.736 1738.19 318.587C1737.98 365.333 1726.99 431.479 1713.76 472.79C1713.07 475.061 1712.36 477.375 1711.62 479.704C1701.72 509.32 1688.99 546.966 1654.93 593.439C1626.35 631.518 1590.87 656.541 1556.36 662.038C1546.6 663.686 1536.88 663.844 1527.99 662.868C1505.07 660.337 1485.64 650.875 1469.15 639.789C1456.57 631.222 1446.61 622.473 1436.43 612.201C1397.41 575.961 1402 534.732 1425.68 513.016C1447.72 490.256 1472.1 478.437 1490.23 469.47C1522.63 454.352 1542.34 448.563 1556.3 444.003C1560.43 442.707 1564.14 441.58 1567.65 440.511C1599.22 430.955 1628.15 423.252 1663.71 414.996C1671.54 413.19 1679.76 411.357 1688.41 409.502C1717.03 403.392 1738.63 399.013 1755.44 395.567C1762.81 394.065 1769.31 392.746 1775.44 391.522C1775.55 391.499 1775.67 391.476 1775.78 391.453C1776.64 391.283 1777.48 391.115 1778.33 390.948C1778.96 390.823 1779.59 390.695 1780.23 390.57C1780.48 390.512 1780.7 390.463 1780.87 390.425C1781 390.396 1781.1 390.373 1781.17 390.358C1781.18 390.355 1781.19 390.352 1781.2 390.349C1782.4 390.082 1783.44 389.876 1783.65 389.834C1784.02 389.76 1784.35 389.697 1784.51 389.665C1785.4 389.493 1786.55 389.281 1787.31 389.141C1789.26 388.782 1792.66 388.162 1797.9 387.233C1802.44 386.404 1806.91 385.571 1812.42 384.561C1812.76 384.497 1813.11 384.433 1813.46 384.369C1818.84 383.386 1825.13 382.253 1832.97 380.902C1840.04 379.683 1846.93 379.106 1847.97 379.633C1849.05 380.154 1844.01 381.553 1836.83 382.779C1829.45 384.04 1823.58 385.09 1818.21 386.062C1817.87 386.124 1817.53 386.186 1817.19 386.248C1811.59 387.265 1806.25 388.251 1800.53 389.289C1798.63 389.634 1796.67 389.99 1794.83 390.322C1791.53 390.935 1787.78 391.657 1783.28 392.539C1782.38 392.716 1781.44 392.898 1780.49 393.086C1774.39 394.293 1767.24 395.727 1759.24 397.348C1740.51 401.158 1716.69 405.965 1685.55 412.679C1677.31 414.46 1669.39 416.24 1661.73 418.021C1626.02 426.377 1595.23 434.595 1561.8 445.012C1557.3 446.423 1553.14 447.728 1548.33 449.309C1534.51 454.004 1517.94 459.056 1488.2 473.227C1471.42 481.685 1447.61 493.494 1426.81 515.458C1404.63 536.695 1400.03 574.395 1438.2 610.461C1448.03 620.373 1457.46 628.701 1469.56 637.063C1486.52 648.696 1506.92 658.431 1529.74 660.551C1538.31 661.364 1547.38 661.067 1556.35 659.52C1589.49 654.051 1623.3 630.506 1651.12 594.297C1684.48 549.831 1697.44 513.233 1707.5 484.186C1707.83 483.16 1708.17 482.117 1708.5 481.101C1708.91 479.842 1709.31 478.588 1709.7 477.343C1724.21 433.785 1736.19 363.612 1735.72 312.284C1735.8 280.109 1733.23 253.272 1725.48 220.385C1721.44 204.292 1716.39 187.152 1704.64 162.737C1701.31 155.93 1697.38 148.578 1692.56 140.698C1682.89 124.967 1670.03 107.326 1650.8 89.4512C1627.55 67.8719 1592.36 47.6352 1544.04 37.7027C1521.3 33.0655 1500.28 31.6612 1480.68 31.9018C1474.62 31.9818 1468.58 32.2355 1462.77 32.6296C1438.41 34.287 1415.93 38.4207 1395.36 43.6916C1378.53 47.9001 1340.99 59.5825 1304.74 83.0402C1268.15 105.973 1236.4 140.029 1219.21 167.97C1219.09 168.158 1218.97 168.346 1218.85 168.533C1216.94 171.561 1215.08 174.592 1213.28 177.601C1198.09 202.824 1185.61 231.062 1179.36 254.2C1163.83 306.627 1166.36 380.652 1188.34 459.674C1196.89 498.027 1210.42 549.093 1182.21 591.772C1154.48 631.551 1114.51 646.22 1082.7 658.95C1081.02 659.575 1079.32 660.197 1077.6 660.817C1034.36 676.168 994.582 685.102 957.365 692.832C857.872 717.012 789.933 656.32 774.299 635.847C773.023 634.401 771.875 633.067 770.853 631.856C769.94 630.775 769.121 629.788 768.405 628.912C757.921 616.062 749.484 603.455 741.899 590.749C741.478 590.041 741.059 589.331 740.641 588.619C732.439 574.582 725.003 560.06 716.999 541.827C688.529 475.22 673.682 418.702 659.278 371.012C656.674 362.155 654.145 353.544 651.667 345.171C651.66 345.146 651.653 345.122 651.646 345.097C640.771 308.322 630.822 276.046 620.253 246.026C601.02 191.31 583.545 156.914 567.584 132.027C562.738 124.478 557.621 117.26 552.854 111.131C542.396 97.7122 532.241 87.11 520.688 77.4647C499.203 59.5445 475.37 48.8818 450.897 44.2369C448.688 43.8128 446.451 43.4295 444.185 43.0902C417.559 39.0559 388.416 41.5169 359.842 47.9985C353.074 49.5184 347.078 50.5663 346.752 49.9405C346.427 49.3236 351.943 47.2419 358.778 45.6932C386.58 39.3452 415.538 36.5876 442.514 40.3347C444.844 40.6552 447.154 41.0197 449.435 41.4298C474.242 45.8048 499.214 56.5075 521.47 74.8914C532.804 84.2601 542.56 94.2048 553.113 107.43C558.038 113.628 563.323 120.908 568.607 129.027C585.032 154.288 602.927 189.32 622.42 244.702C632.89 274.398 642.76 306.319 653.635 343.068C656.131 351.494 658.686 360.185 661.322 369.149C675.761 416.957 690.636 473.709 719.109 540.456C726.642 557.63 733.508 571.243 741.569 585.259C742.013 586.03 742.46 586.797 742.909 587.562C750.301 600.122 758.986 613.373 769.894 626.809C771.393 628.651 773.325 630.978 775.711 633.697C791.261 654.021 857.837 714.373 956.865 690.402C994.139 682.661 1034.01 673.699 1077.19 658.329C1077.65 658.161 1078.12 657.992 1078.58 657.823C1127.42 640.172 1169.75 615.136 1186.45 578.463C1202.61 541.511 1195.01 511.836 1191.29 489.766C1183.75 454.642 1176.76 429.873 1173.04 409.302C1172.27 405.305 1171.64 401.739 1171.04 398.184C1168.49 382.836 1167.21 370.807 1166.35 358.835C1164.07 322.332 1166.72 296.169 1173.69 265.065C1179.67 238.596 1192.72 207.782 1207.57 182.266C1207.59 182.228 1207.62 182.189 1207.64 182.151C1209.37 179.136 1211.14 176.147 1212.93 173.209ZM1937.34 364.363C1944.41 363.502 1950.63 363.332 1950.6 364.024C1950.64 364.71 1944.46 365.994 1937.39 366.857C1920.14 368.959 1902.61 371.247 1885.27 373.667C1877.91 374.693 1871.94 374.998 1871.95 374.305C1871.88 373.623 1877.83 372.2 1885.19 371.173C1902.53 368.754 1920.09 366.463 1937.34 364.363ZM1186.69 193.383C1190.19 186.59 1194.07 180.881 1195.5 179.787C1196.9 178.772 1195.18 182.839 1191.78 189.176C1189.91 192.667 1186.9 198.401 1183.34 205.962C1170.6 233.086 1147.24 290.03 1154.19 364.2C1157.03 400.912 1168.05 440.317 1177.89 482.311C1188.66 522.49 1189.46 578.742 1148.85 608.609C1136.6 618.847 1124.58 625.894 1112.38 632.195C1068.93 653.39 1031.14 666.063 955.258 682.605C939.984 685.729 926.382 687.693 907.933 687.727C819.292 691.202 757.162 611.395 727.514 538.375C695.185 463.41 676.142 384.167 652.758 307.003C629.077 230.293 604.47 151.107 552.734 90.0867C501.753 26.0903 412.01 14.4267 335.452 39.1809C202.415 78.859 183.999 240.601 173.296 363.439C163.393 493.833 169.067 624.749 150.265 756.062C141.515 809.079 126.423 892.285 68.8984 939.893C10.2957 986.935 -61.8419 969.7 -82.2343 966.571C-89.7523 965.112 -95.9176 963.053 -95.6747 962.411C-95.4371 961.759 -88.9398 962.75 -81.4939 964.187C-61.3661 967.297 9.69437 984.049 67.0077 938.233C123.52 891.905 138.933 809.463 147.636 756.823C166.538 626.098 160.917 495.498 170.674 365.134C181.502 241.855 198.396 77.7236 334.595 36.2139C411.509 10.9548 503.717 22.5576 555.745 87.7075C608.472 149.642 633.294 229.2 657.292 306.045C680.944 383.317 700.249 462.531 732.53 536.769C762.379 609.421 822.921 685.912 908.56 682.239C926.287 682.152 939.398 680.324 954.189 677.419C1028.77 661.849 1066.17 651.547 1108.94 631.145C1121.37 624.879 1133.33 617.994 1145.49 608.157C1185.04 580.075 1186.81 526.693 1176.31 486.83C1166.93 445.408 1155.65 406.694 1152.2 370.004C1143.94 296.675 1165.74 238.536 1178.28 210.835C1181.78 203.044 1184.79 197.074 1186.69 193.383ZM1468.57 16.6011C1525.36 13.2884 1605.39 25.2204 1661.98 77.3082C1686.59 100.003 1705.98 127.835 1719.68 156.593C1741.57 202.387 1749.65 249.453 1752.35 286.699C1755.96 344.687 1749.96 381.274 1742.94 416.612C1742.86 416.992 1742.78 417.371 1742.7 417.75C1734.78 452.88 1725.77 488.351 1700.2 541.08C1674.82 590.61 1623.54 674.602 1535.05 674.952C1534.98 674.95 1534.91 674.948 1534.85 674.946C1492.7 674.019 1454.57 648.596 1427.28 621.193C1398.95 595.393 1383.2 553.773 1400.18 525.398C1466.21 437.794 1562.65 428.316 1623.71 407.721C1688.28 391 1736.35 382.744 1768.53 377.311C1881.3 359.33 2009.58 338.329 2126.31 338.771C2136.39 340.552 2118.42 340.139 2094.09 341.325C2093.27 341.351 2092.44 341.379 2091.6 341.408C2083.21 341.72 2076.4 342.036 2066.29 342.671C2051.31 343.693 2041.11 344.577 2030.96 345.484C2005.46 346.512 1826.27 368.583 1763.77 380.671C1733.3 385.889 1686.87 394.667 1623.61 411.876C1564.14 432.541 1467.22 444.4 1404.83 528.367C1389.71 554.195 1402.8 592.086 1430.13 618.393C1455.88 645.262 1492.23 670.823 1533.2 672.396C1533.42 672.405 1533.65 672.415 1533.87 672.423C1619.91 673.525 1672.45 590.293 1697.94 540.044C1724.29 485.731 1733.37 448.669 1741.08 413.206C1741.16 412.86 1741.23 412.513 1741.3 412.166C1747.96 377.262 1753.33 342.488 1749.89 286.959C1747.16 249.114 1738.84 201.786 1716.75 156.224C1703.19 128.167 1684.21 101.19 1660.3 79.1346C1604.77 27.9923 1526.04 15.9367 1469.88 19.0193C1462.48 19.3823 1456.19 19.4224 1455.79 18.7671C1455.41 18.1207 1461.12 16.9965 1468.57 16.6011ZM1469.58 1.07535C1540.43 -2.80629 1616.94 13.5618 1673.62 64.6757C1806.49 195.2 1788.03 399.608 1717.24 546.908C1690.45 598.682 1637.19 691.366 1533.61 691.572C1532.5 691.526 1531.46 691.469 1530.38 691.398C1483.1 688.414 1443.75 659.894 1416.44 631.841C1385.91 604.348 1366.65 551.424 1388.16 517.722C1464.45 420.03 1558.7 415.265 1621.23 393.03C1686.57 375.852 1734.97 367.258 1767.39 361.804C1827.84 352.083 1844.9 349.938 1869.54 346.208C1870.21 346.111 1870.88 346.014 1871.58 345.914C1871.62 345.905 1871.67 345.896 1871.71 345.888C1872.57 345.73 1873.3 345.606 1873.67 345.544C1874.43 345.418 1875.05 345.322 1875.29 345.286C1875.82 345.203 1876.27 345.138 1876.43 345.115C1877.09 345.019 1877.83 344.912 1878.32 344.844C1882.83 344.205 1896.72 342.324 1907.61 340.982C1919.15 339.551 1927.2 338.664 1935.59 337.771C1936.43 337.681 1937.28 337.592 1938.13 337.503C1945.73 336.703 1954.5 335.791 1966.3 334.606C1973.38 333.898 1978.9 333.929 1978.03 334.706C1977.1 335.491 1970.56 336.682 1963.36 337.413C1950.9 338.678 1941.41 339.684 1934.05 340.464C1933.21 340.554 1932.37 340.644 1931.52 340.735C1923.46 341.605 1916.26 342.415 1906.08 343.683C1891.84 345.517 1880.98 347.056 1871 348.507C1845.54 352.355 1825.82 354.858 1762.61 365.16C1731.91 370.4 1685.2 378.743 1621.07 395.643C1559.83 417.443 1465.73 422.652 1390.4 518.791C1369.51 551.511 1387.97 602.727 1418.21 630.103C1445.33 657.978 1484.25 686.045 1530.6 688.927C1531.68 688.997 1532.74 689.053 1533.86 689.097C1635.38 688.91 1688.44 597.326 1714.97 545.889C1784.84 395.662 1798.91 195.707 1670.27 68.3092C1615.88 18.712 1541.5 1.18924 1470.95 3.49698C1425.92 5.56622 1385.5 15.5958 1350.19 29.9139C1279.7 58.7025 1229.94 104.286 1197.67 153.624C1182.12 177.491 1170.15 200.241 1160.43 225.421C1154.54 241.885 1135.51 287.189 1138.65 355.705C1139.55 375.47 1142.47 397.162 1147.08 419.73C1154.66 472.788 1193.92 545.258 1142.87 591.763C1132.63 601.371 1121.38 608.468 1110.88 614.26C1068.22 636.26 1031.64 647.84 951.63 665.002C939.699 667.436 928.399 669.032 915.348 669.535C761.798 690.384 707.824 422.961 675.385 319.039C658.58 261.467 647.302 229.264 638.674 206.555C636.303 200.326 634.107 194.767 632.021 189.65C626.557 176.329 622.213 166.414 615.669 153.074C572.633 61.7402 492.937 -11.7409 368.084 13.2772C360.893 14.5794 354.305 15.521 353.592 14.9772C352.875 14.4438 358.381 12.5664 365.668 11.1925C491.104 -15.3664 574.944 59.2587 618.191 152.577C625.057 166.614 629.653 177.22 635.208 190.892C637.271 196.001 639.337 201.277 641.595 207.246C650.078 229.708 661.214 261.602 677.939 318.928C710.158 423.172 764.952 688.148 914.943 667.065C927.998 666.582 939.226 664.997 951.129 662.57C1029.56 645.777 1065.73 634.351 1107.65 613.177C1118.44 607.352 1129.34 600.655 1139.78 591.237C1190.87 547.528 1153.15 475.412 1145.03 422.136C1140.34 399.551 1137.29 377.725 1136.27 357.997C1132.83 287.618 1151.24 244.769 1155.92 230.215C1165.79 203.171 1178.83 177.902 1195.59 152.241C1228.75 101.481 1280.12 55.4502 1350.6 27.0673C1385.82 12.946 1425.71 3.2375 1469.58 1.07535ZM154.68 356.94C155.254 349.534 156.388 343.029 157.116 342.583C157.848 342.118 157.899 347.783 157.308 355.263C154.295 394.178 153.219 422.398 152.339 444.39C150.845 484.933 150.426 504.6 149.415 533.883C146.84 609.688 144.118 682.108 134.859 746.764C122.956 854.958 73.1965 932.435 29.973 944.95C23.8781 947.581 18.4102 948.67 18.2808 948.003C18.1454 947.319 23.2648 945.161 29.2043 942.58C71.0232 930.386 120.169 855.112 132.242 747.535C141.583 682.945 144.331 610.438 146.921 534.149C147.902 505.741 148.3 487.195 149.731 447.508C150.594 425.549 151.629 397.016 154.68 356.94Z" fill="#3C61F5"/>
</svg>
