<svg width="358" height="354" viewBox="0 0 358 354" fill="none" xmlns="http://www.w3.org/2000/svg">
<g filter="url(#filter0_f_1809_14411)">
<path d="M64.9441 304.458L64.8119 301.962L64.9441 304.458ZM54.4291 295.002L56.9256 294.869L54.4291 295.002ZM219.727 296.258L219.859 298.754L219.727 296.258ZM52.9266 77.6367L52.7943 75.1402L52.9266 77.6367ZM43.4697 88.1518L40.9732 88.2841L43.4697 88.1518ZM337.908 151.129L340.125 152.284L337.908 151.129ZM242.23 334.848L240.012 333.693L242.23 334.848ZM228.741 339.098L227.587 341.315L228.741 339.098ZM333.658 137.641L332.503 139.858L333.658 137.641ZM151.563 38.4926L154.018 38.0227C153.829 37.0347 153.066 36.2563 152.083 36.0472C151.099 35.8381 150.085 36.2389 149.511 37.0646L151.563 38.4926ZM125.96 70.9076C125.171 72.0409 125.45 73.599 126.584 74.3876C127.717 75.1763 129.275 74.8969 130.064 73.7636L128.012 72.3356L125.96 70.9076ZM156.857 79.4586C157.117 80.8147 158.426 81.7037 159.782 81.4442C161.138 81.1847 162.027 79.875 161.768 78.5189L159.312 78.9887L156.857 79.4586ZM212.294 272.227L209.838 272.697C210.027 273.685 210.79 274.463 211.774 274.672C212.758 274.881 213.771 274.481 214.346 273.655L212.294 272.227ZM227.788 249.962L229.84 251.39L227.788 249.962ZM237.897 239.812C238.685 238.679 238.406 237.12 237.273 236.332C236.139 235.543 234.581 235.823 233.793 236.956L235.845 238.384L237.897 239.812ZM207.195 245.585L204.74 246.055L207.195 245.585ZM207 231.261C206.74 229.905 205.43 229.016 204.074 229.275C202.718 229.535 201.829 230.844 202.089 232.201L204.544 231.731L207 231.261ZM165.446 135.512L165.01 137.974C165.824 138.118 166.656 137.85 167.234 137.259C167.811 136.668 168.06 135.83 167.897 135.02L165.446 135.512ZM204.088 143.714L202.048 142.269C201.558 142.959 201.452 143.85 201.764 144.637C202.077 145.423 202.766 145.998 203.595 146.165L204.088 143.714ZM178.899 169.609L181.336 169.048C181.117 168.1 180.37 167.366 179.419 167.164C178.469 166.962 177.487 167.329 176.902 168.105L178.899 169.609ZM154.018 192.877C152.668 192.59 151.34 193.452 151.053 194.802C150.766 196.153 151.628 197.48 152.979 197.767L153.498 195.322L154.018 192.877ZM190.886 205.825C192.236 206.112 193.564 205.25 193.851 203.899C194.138 202.549 193.276 201.221 191.925 200.934L191.405 203.379L190.886 205.825ZM133.016 15.1258L132.496 17.5711L284.109 49.7975L284.629 47.3521L285.148 44.9067L133.535 12.6804L133.016 15.1258ZM72.2959 252.693L69.8505 252.173C68.4152 258.926 72.7257 265.563 79.4784 266.999L79.9982 264.553L80.518 262.108C76.4664 261.247 73.88 257.264 74.7412 253.213L72.2959 252.693ZM243.472 289.077L241.026 288.558C240.165 292.609 236.183 295.196 232.131 294.334L231.611 296.78L231.091 299.225C237.844 300.66 244.482 296.35 245.917 289.597L243.472 289.077ZM284.629 47.3521L284.109 49.7975C288.16 50.6587 290.747 54.6413 289.886 58.6929L292.331 59.2127L294.776 59.7325C296.212 52.9798 291.901 46.3421 285.148 44.9067L284.629 47.3521ZM133.016 15.1258L133.535 12.6804C126.783 11.2451 120.145 15.5557 118.71 22.3084L121.155 22.8281L123.6 23.3479C124.462 19.2963 128.444 16.71 132.496 17.5711L133.016 15.1258ZM54.4291 295.002L56.9256 294.869L45.9662 88.0196L43.4697 88.1518L40.9732 88.2841L51.9326 295.134L54.4291 295.002ZM64.9441 304.458L64.8119 301.962C60.6755 302.181 57.1447 299.006 56.9256 294.869L54.4291 295.002L51.9326 295.134C52.2978 302.028 58.1825 307.32 65.0764 306.955L64.9441 304.458ZM52.9266 77.6367L52.7943 75.1402C45.9004 75.5055 40.6079 81.3902 40.9732 88.2841L43.4697 88.1518L45.9662 88.0196C45.747 83.8832 48.9225 80.3524 53.0588 80.1332L52.9266 77.6367ZM337.908 151.129L335.691 149.974L240.012 333.693L242.23 334.848L244.447 336.002L340.125 152.284L337.908 151.129ZM281.441 110.447L280.286 112.664L332.503 139.858L333.658 137.641L334.812 135.423L282.595 108.229L281.441 110.447ZM242.23 334.848L240.012 333.693C238.099 337.367 233.57 338.794 229.896 336.881L228.741 339.098L227.587 341.315C233.71 344.504 241.258 342.125 244.447 336.002L242.23 334.848ZM337.908 151.129L340.125 152.284C343.314 146.161 340.935 138.612 334.812 135.423L333.658 137.641L332.503 139.858C336.177 141.771 337.604 146.3 335.691 149.974L337.908 151.129ZM292.331 59.2127L289.886 58.6929L241.026 288.558L243.472 289.077L245.917 289.597L294.776 59.7325L292.331 59.2127ZM231.611 296.78L232.131 294.334L224.365 292.684L223.845 295.129L223.325 297.574L231.091 299.225L231.611 296.78ZM223.845 295.129L222.682 292.916C221.758 293.402 220.715 293.702 219.595 293.761L219.727 296.258L219.859 298.754C221.713 298.656 223.458 298.156 225.008 297.342L223.845 295.129ZM72.2959 252.693L74.7412 253.213L112.595 75.1247L110.15 74.6049L107.704 74.0851L69.8505 252.173L72.2959 252.693ZM110.15 74.6049L112.595 75.1247L123.6 23.3479L121.155 22.8281L118.71 22.3084L107.704 74.0851L110.15 74.6049ZM52.9266 77.6367L53.0588 80.1332L110.282 77.1014L110.15 74.6049L110.017 72.1084L52.7943 75.1402L52.9266 77.6367ZM228.741 339.098L229.896 336.881L154.399 297.563L153.244 299.78L152.089 301.997L227.587 341.315L228.741 339.098ZM219.727 296.258L219.595 293.761L153.112 297.284L153.244 299.78L153.376 302.277L219.859 298.754L219.727 296.258ZM153.244 299.78L153.112 297.284L64.8119 301.962L64.9441 304.458L65.0764 306.955L153.376 302.277L153.244 299.78ZM151.563 38.4926L149.511 37.0646L134.017 59.3297L136.069 60.7577L138.121 62.1857L153.615 39.9205L151.563 38.4926ZM136.069 60.7577L134.017 59.3297L125.96 70.9076L128.012 72.3356L130.064 73.7636L138.121 62.1857L136.069 60.7577ZM151.563 38.4926L149.107 38.9624L154.206 65.6047L156.661 65.1348L159.117 64.6649L154.018 38.0227L151.563 38.4926ZM156.661 65.1348L154.206 65.6047L156.857 79.4586L159.312 78.9887L161.768 78.5189L159.117 64.6649L156.661 65.1348ZM136.069 60.7577L135.549 63.2031L156.141 67.5802L156.661 65.1348L157.181 62.6894L136.588 58.3123L136.069 60.7577ZM212.294 272.227L214.346 273.655L229.84 251.39L227.788 249.962L225.736 248.534L210.242 270.799L212.294 272.227ZM227.788 249.962L229.84 251.39L237.897 239.812L235.845 238.384L233.793 236.956L225.736 248.534L227.788 249.962ZM212.294 272.227L214.749 271.757L209.651 245.115L207.195 245.585L204.74 246.055L209.838 272.697L212.294 272.227ZM207.195 245.585L209.651 245.115L207 231.261L204.544 231.731L202.089 232.201L204.74 246.055L207.195 245.585ZM227.788 249.962L228.308 247.516L207.715 243.139L207.195 245.585L206.675 248.03L227.268 252.407L227.788 249.962ZM157.241 177.715L157.761 175.27C147.496 173.088 140.944 162.999 143.126 152.735L140.681 152.215L138.235 151.695C135.479 164.661 143.756 177.405 156.721 180.161L157.241 177.715ZM220.889 169.264L218.443 168.744C216.262 179.008 206.172 185.56 195.908 183.379L195.389 185.824L194.869 188.269C207.834 191.025 220.578 182.749 223.334 169.784L220.889 169.264ZM204.329 143.764L203.809 146.209C214.073 148.391 220.625 158.48 218.443 168.744L220.889 169.264L223.334 169.784C226.09 156.819 217.814 144.074 204.849 141.318L204.329 143.764ZM165.503 126.821L167.948 127.341C170.13 117.077 180.219 110.525 190.483 112.706L191.003 110.261L191.523 107.816C178.558 105.06 165.813 113.336 163.057 126.301L165.503 126.821ZM191.003 110.261L190.483 112.706C200.747 114.888 207.3 124.977 205.118 135.241L207.563 135.761L210.009 136.281C212.764 123.316 204.488 110.571 191.523 107.816L191.003 110.261ZM165.446 135.512L167.897 135.02C167.403 132.56 167.392 129.959 167.948 127.341L165.503 126.821L163.057 126.301C162.357 129.599 162.369 132.888 162.995 136.004L165.446 135.512ZM140.681 152.215L143.126 152.735C145.262 142.688 154.975 136.197 165.01 137.974L165.446 135.512L165.882 133.05C153.202 130.805 140.933 139.003 138.235 151.695L140.681 152.215ZM207.563 135.761L205.118 135.241C204.562 137.856 203.496 140.224 202.048 142.269L204.088 143.714L206.128 145.159C207.962 142.57 209.309 139.574 210.009 136.281L207.563 135.761ZM204.088 143.714L203.595 146.165C203.667 146.179 203.738 146.194 203.809 146.209L204.329 143.764L204.849 141.318C204.759 141.299 204.669 141.281 204.58 141.263L204.088 143.714ZM195.389 185.824L195.908 183.379C188.448 181.793 182.944 176.029 181.336 169.048L178.899 169.609L176.463 170.17C178.492 178.975 185.437 186.265 194.869 188.269L195.389 185.824ZM178.899 169.609L176.902 168.105C172.593 173.829 165.22 176.856 157.761 175.27L157.241 177.715L156.721 180.161C166.152 182.165 175.462 178.331 180.897 171.113L178.899 169.609ZM178.899 169.609L176.454 169.089L170.127 198.857L172.572 199.376L175.018 199.896L181.345 170.129L178.899 169.609ZM172.572 199.376L173.092 196.931L154.018 192.877L153.498 195.322L152.979 197.767L172.052 201.822L172.572 199.376ZM172.572 199.376L172.052 201.822L190.886 205.825L191.405 203.379L191.925 200.934L173.092 196.931L172.572 199.376ZM223.845 295.129L224.365 292.684L80.518 262.108L79.9982 264.553L79.4784 266.999L223.325 297.574L223.845 295.129Z" fill="#3C61F5"/>
</g>
<path d="M64.9441 304.458L64.8119 301.962L64.9441 304.458ZM54.4291 295.002L56.9256 294.869L54.4291 295.002ZM219.727 296.258L219.859 298.754L219.727 296.258ZM52.9266 77.6367L52.7943 75.1402L52.9266 77.6367ZM43.4697 88.1518L40.9732 88.2841L43.4697 88.1518ZM337.908 151.129L340.125 152.284L337.908 151.129ZM242.23 334.848L240.012 333.693L242.23 334.848ZM228.741 339.098L227.587 341.315L228.741 339.098ZM333.658 137.641L332.503 139.858L333.658 137.641ZM151.563 38.4926L154.018 38.0227C153.829 37.0347 153.066 36.2563 152.083 36.0472C151.099 35.8381 150.085 36.2389 149.511 37.0646L151.563 38.4926ZM125.96 70.9076C125.171 72.0409 125.45 73.599 126.584 74.3876C127.717 75.1763 129.275 74.8969 130.064 73.7636L128.012 72.3356L125.96 70.9076ZM156.857 79.4586C157.117 80.8147 158.426 81.7037 159.782 81.4442C161.138 81.1847 162.027 79.875 161.768 78.5189L159.312 78.9887L156.857 79.4586ZM212.294 272.227L209.838 272.697C210.027 273.685 210.79 274.463 211.774 274.672C212.758 274.881 213.771 274.481 214.346 273.655L212.294 272.227ZM227.788 249.962L229.84 251.39L227.788 249.962ZM237.897 239.812C238.685 238.679 238.406 237.12 237.273 236.332C236.139 235.543 234.581 235.823 233.793 236.956L235.845 238.384L237.897 239.812ZM207.195 245.585L204.74 246.055L207.195 245.585ZM207 231.261C206.74 229.905 205.43 229.016 204.074 229.275C202.718 229.535 201.829 230.844 202.089 232.201L204.544 231.731L207 231.261ZM165.446 135.512L165.01 137.974C165.824 138.118 166.656 137.85 167.234 137.259C167.811 136.668 168.06 135.83 167.897 135.02L165.446 135.512ZM204.088 143.714L202.048 142.269C201.558 142.959 201.452 143.85 201.764 144.637C202.077 145.423 202.766 145.998 203.595 146.165L204.088 143.714ZM178.899 169.609L181.336 169.048C181.117 168.1 180.37 167.366 179.419 167.164C178.469 166.962 177.487 167.329 176.902 168.105L178.899 169.609ZM154.018 192.877C152.668 192.59 151.34 193.452 151.053 194.802C150.766 196.153 151.628 197.48 152.979 197.767L153.498 195.322L154.018 192.877ZM190.886 205.825C192.236 206.112 193.564 205.25 193.851 203.899C194.138 202.549 193.276 201.221 191.925 200.934L191.405 203.379L190.886 205.825ZM133.016 15.1258L132.496 17.5711L284.109 49.7975L284.629 47.3521L285.148 44.9067L133.535 12.6804L133.016 15.1258ZM72.2959 252.693L69.8505 252.173C68.4152 258.926 72.7257 265.563 79.4784 266.999L79.9982 264.553L80.518 262.108C76.4664 261.247 73.88 257.264 74.7412 253.213L72.2959 252.693ZM243.472 289.077L241.026 288.558C240.165 292.609 236.183 295.196 232.131 294.334L231.611 296.78L231.091 299.225C237.844 300.66 244.482 296.35 245.917 289.597L243.472 289.077ZM284.629 47.3521L284.109 49.7975C288.16 50.6587 290.747 54.6413 289.886 58.6929L292.331 59.2127L294.776 59.7325C296.212 52.9798 291.901 46.3421 285.148 44.9067L284.629 47.3521ZM133.016 15.1258L133.535 12.6804C126.783 11.2451 120.145 15.5557 118.71 22.3084L121.155 22.8281L123.6 23.3479C124.462 19.2963 128.444 16.71 132.496 17.5711L133.016 15.1258ZM54.4291 295.002L56.9256 294.869L45.9662 88.0196L43.4697 88.1518L40.9732 88.2841L51.9326 295.134L54.4291 295.002ZM64.9441 304.458L64.8119 301.962C60.6755 302.181 57.1447 299.006 56.9256 294.869L54.4291 295.002L51.9326 295.134C52.2978 302.028 58.1825 307.32 65.0764 306.955L64.9441 304.458ZM52.9266 77.6367L52.7943 75.1402C45.9004 75.5055 40.6079 81.3902 40.9732 88.2841L43.4697 88.1518L45.9662 88.0196C45.747 83.8832 48.9225 80.3524 53.0588 80.1332L52.9266 77.6367ZM337.908 151.129L335.691 149.974L240.012 333.693L242.23 334.848L244.447 336.002L340.125 152.284L337.908 151.129ZM281.441 110.447L280.286 112.664L332.503 139.858L333.658 137.641L334.812 135.423L282.595 108.229L281.441 110.447ZM242.23 334.848L240.012 333.693C238.099 337.367 233.57 338.794 229.896 336.881L228.741 339.098L227.587 341.315C233.71 344.504 241.258 342.125 244.447 336.002L242.23 334.848ZM337.908 151.129L340.125 152.284C343.314 146.161 340.935 138.612 334.812 135.423L333.658 137.641L332.503 139.858C336.177 141.771 337.604 146.3 335.691 149.974L337.908 151.129ZM292.331 59.2127L289.886 58.6929L241.026 288.558L243.472 289.077L245.917 289.597L294.776 59.7325L292.331 59.2127ZM231.611 296.78L232.131 294.334L224.365 292.684L223.845 295.129L223.325 297.574L231.091 299.225L231.611 296.78ZM223.845 295.129L222.682 292.916C221.758 293.402 220.715 293.702 219.595 293.761L219.727 296.258L219.859 298.754C221.713 298.656 223.458 298.156 225.008 297.342L223.845 295.129ZM72.2959 252.693L74.7412 253.213L112.595 75.1247L110.15 74.6049L107.704 74.0851L69.8505 252.173L72.2959 252.693ZM110.15 74.6049L112.595 75.1247L123.6 23.3479L121.155 22.8281L118.71 22.3084L107.704 74.0851L110.15 74.6049ZM52.9266 77.6367L53.0588 80.1332L110.282 77.1014L110.15 74.6049L110.017 72.1084L52.7943 75.1402L52.9266 77.6367ZM228.741 339.098L229.896 336.881L154.399 297.563L153.244 299.78L152.089 301.997L227.587 341.315L228.741 339.098ZM219.727 296.258L219.595 293.761L153.112 297.284L153.244 299.78L153.376 302.277L219.859 298.754L219.727 296.258ZM153.244 299.78L153.112 297.284L64.8119 301.962L64.9441 304.458L65.0764 306.955L153.376 302.277L153.244 299.78ZM151.563 38.4926L149.511 37.0646L134.017 59.3297L136.069 60.7577L138.121 62.1857L153.615 39.9205L151.563 38.4926ZM136.069 60.7577L134.017 59.3297L125.96 70.9076L128.012 72.3356L130.064 73.7636L138.121 62.1857L136.069 60.7577ZM151.563 38.4926L149.107 38.9624L154.206 65.6047L156.661 65.1348L159.117 64.6649L154.018 38.0227L151.563 38.4926ZM156.661 65.1348L154.206 65.6047L156.857 79.4586L159.312 78.9887L161.768 78.5189L159.117 64.6649L156.661 65.1348ZM136.069 60.7577L135.549 63.2031L156.141 67.5802L156.661 65.1348L157.181 62.6894L136.588 58.3123L136.069 60.7577ZM212.294 272.227L214.346 273.655L229.84 251.39L227.788 249.962L225.736 248.534L210.242 270.799L212.294 272.227ZM227.788 249.962L229.84 251.39L237.897 239.812L235.845 238.384L233.793 236.956L225.736 248.534L227.788 249.962ZM212.294 272.227L214.749 271.757L209.651 245.115L207.195 245.585L204.74 246.055L209.838 272.697L212.294 272.227ZM207.195 245.585L209.651 245.115L207 231.261L204.544 231.731L202.089 232.201L204.74 246.055L207.195 245.585ZM227.788 249.962L228.308 247.516L207.715 243.139L207.195 245.585L206.675 248.03L227.268 252.407L227.788 249.962ZM157.241 177.715L157.761 175.27C147.496 173.088 140.944 162.999 143.126 152.735L140.681 152.215L138.235 151.695C135.479 164.661 143.756 177.405 156.721 180.161L157.241 177.715ZM220.889 169.264L218.443 168.744C216.262 179.008 206.172 185.56 195.908 183.379L195.389 185.824L194.869 188.269C207.834 191.025 220.578 182.749 223.334 169.784L220.889 169.264ZM204.329 143.764L203.809 146.209C214.073 148.391 220.625 158.48 218.443 168.744L220.889 169.264L223.334 169.784C226.09 156.819 217.814 144.074 204.849 141.318L204.329 143.764ZM165.503 126.821L167.948 127.341C170.13 117.077 180.219 110.525 190.483 112.706L191.003 110.261L191.523 107.816C178.558 105.06 165.813 113.336 163.057 126.301L165.503 126.821ZM191.003 110.261L190.483 112.706C200.747 114.888 207.3 124.977 205.118 135.241L207.563 135.761L210.009 136.281C212.764 123.316 204.488 110.571 191.523 107.816L191.003 110.261ZM165.446 135.512L167.897 135.02C167.403 132.56 167.392 129.959 167.948 127.341L165.503 126.821L163.057 126.301C162.357 129.599 162.369 132.888 162.995 136.004L165.446 135.512ZM140.681 152.215L143.126 152.735C145.262 142.688 154.975 136.197 165.01 137.974L165.446 135.512L165.882 133.05C153.202 130.805 140.933 139.003 138.235 151.695L140.681 152.215ZM207.563 135.761L205.118 135.241C204.562 137.856 203.496 140.224 202.048 142.269L204.088 143.714L206.128 145.159C207.962 142.57 209.309 139.574 210.009 136.281L207.563 135.761ZM204.088 143.714L203.595 146.165C203.667 146.179 203.738 146.194 203.809 146.209L204.329 143.764L204.849 141.318C204.759 141.299 204.669 141.281 204.58 141.263L204.088 143.714ZM195.389 185.824L195.908 183.379C188.448 181.793 182.944 176.029 181.336 169.048L178.899 169.609L176.463 170.17C178.492 178.975 185.437 186.265 194.869 188.269L195.389 185.824ZM178.899 169.609L176.902 168.105C172.593 173.829 165.22 176.856 157.761 175.27L157.241 177.715L156.721 180.161C166.152 182.165 175.462 178.331 180.897 171.113L178.899 169.609ZM178.899 169.609L176.454 169.089L170.127 198.857L172.572 199.376L175.018 199.896L181.345 170.129L178.899 169.609ZM172.572 199.376L173.092 196.931L154.018 192.877L153.498 195.322L152.979 197.767L172.052 201.822L172.572 199.376ZM172.572 199.376L172.052 201.822L190.886 205.825L191.405 203.379L191.925 200.934L173.092 196.931L172.572 199.376ZM223.845 295.129L224.365 292.684L80.518 262.108L79.9982 264.553L79.4784 266.999L223.325 297.574L223.845 295.129Z" fill="#3C61F5"/>
<defs>
<filter id="filter0_f_1809_14411" x="30.9551" y="2.40479" width="320.586" height="350.326" filterUnits="userSpaceOnUse" color-interpolation-filters="sRGB">
<feFlood flood-opacity="0" result="BackgroundImageFix"/>
<feBlend mode="normal" in="SourceGraphic" in2="BackgroundImageFix" result="shape"/>
<feGaussianBlur stdDeviation="5" result="effect1_foregroundBlur_1809_14411"/>
</filter>
</defs>
</svg>
