<svg width="240" height="240" viewBox="0 0 240 240" fill="none" xmlns="http://www.w3.org/2000/svg">
<rect y="0.00012207" width="240" height="240" fill="#180544"/>
<rect y="0.00012207" width="240" height="240" stroke="#371F6F"/>
<mask id="mask0_1374_5708" style="mask-type:alpha" maskUnits="userSpaceOnUse" x="0" y="0" width="240" height="240">
<rect x="1.5" y="1.5" width="237" height="237" fill="#180544" stroke="#371F6F" stroke-width="3"/>
</mask>
<g mask="url(#mask0_1374_5708)">
<g opacity="0.5">
<path d="M-0.559792 7.95503L7.55655 -0.698506L-10.5 -10.604L-0.0274978 -19.8629" stroke="#F6B254" stroke-width="3.40031" stroke-linecap="round" stroke-linejoin="round"/>
<path d="M-15.6816 43.4356L-14.3767 31.6434L4.88481 38.9338L5.11901 24.9572" stroke="#F6B254" stroke-width="3.40031" stroke-linecap="round" stroke-linejoin="round"/>
<path d="M0.870429 54.7687L-28.8477 52.4191M-2.41472 62.239L-32.1328 59.8894" stroke="#3C61F5" stroke-width="3.44888" stroke-linecap="round" stroke-linejoin="round"/>
<path d="M-30.9388 84.3959L-1.22068 86.7455M-27.6536 76.9255L2.06445 79.2752" stroke="#3C61F5" stroke-width="3.44888" stroke-linecap="round" stroke-linejoin="round"/>
<path d="M-18.5471 117.342L6.83026 114.771L-0.0532312 95.7116" stroke="#BB6EF6" stroke-width="3.44888" stroke-linecap="round" stroke-linejoin="round"/>
<path d="M-30.9388 138.929L-1.22068 141.279M-27.6536 131.459L2.06445 133.808" stroke="#3C61F5" stroke-width="3.44888" stroke-linecap="round" stroke-linejoin="round"/>
<path d="M-18.5471 171.873L6.83026 169.303L-0.0532312 150.243" stroke="#BB6EF6" stroke-width="3.44888" stroke-linecap="round" stroke-linejoin="round"/>
<path d="M7.58274 211.146L-18.2754 208.395L7.95342 193.999" stroke="#BB6EF6" stroke-width="3.44888" stroke-linecap="round" stroke-linejoin="round"/>
<path d="M9.18945 262.34L-4.71149 235.969M1.11998 263.557L-12.781 237.186" stroke="#3C61F5" stroke-width="3.44888" stroke-linecap="round" stroke-linejoin="round"/>
<path d="M18.7734 -1.66425L28.5854 -8.33386L35.558 11.045L46.3349 2.14222" stroke="#F6B254" stroke-width="3.40031" stroke-linecap="round" stroke-linejoin="round"/>
<path d="M17.6074 38.9469L33.0837 35.8621L28.5839 24.0397L42.939 20.0989" stroke="#F6B254" stroke-width="3.40031" stroke-linecap="round" stroke-linejoin="round"/>
<path d="M60.7758 57.082L53.6103 27.4509L37.168 46.1768" stroke="#BB6EF6" stroke-width="3.44888" stroke-linecap="round" stroke-linejoin="round"/>
<path d="M17.6074 48.0473L45.7571 57.8596M17.6074 56.2081L45.7571 66.0204" stroke="#3C61F5" stroke-width="3.44888" stroke-linecap="round" stroke-linejoin="round"/>
<path d="M38.379 96.2023L50.1712 97.5072L42.8808 116.769L56.8574 117.003" stroke="#F6B254" stroke-width="3.40031" stroke-linecap="round" stroke-linejoin="round"/>
<path d="M27.0449 112.754L29.3945 83.0361M19.5746 109.469L21.9242 79.751" stroke="#3C61F5" stroke-width="3.44888" stroke-linecap="round" stroke-linejoin="round"/>
<path d="M59.9961 100.365L57.4258 74.9881L38.3661 81.8716" stroke="#BB6EF6" stroke-width="3.44888" stroke-linecap="round" stroke-linejoin="round"/>
<path d="M50.8795 128.843L33.6972 148.729L23.6973 132.516" stroke="#BB6EF6" stroke-width="3.44888" stroke-linecap="round" stroke-linejoin="round"/>
<path d="M53.9715 171.557L62.0878 162.904L44.0312 152.998L54.5038 143.739" stroke="#F6B254" stroke-width="3.40031" stroke-linecap="round" stroke-linejoin="round"/>
<path d="M17.546 148.792L41.8626 166.036M15.2793 156.631L39.5959 173.876" stroke="#3C61F5" stroke-width="3.44888" stroke-linecap="round" stroke-linejoin="round"/>
<path d="M34.2728 228.536L37.024 202.678L51.4199 228.906" stroke="#BB6EF6" stroke-width="3.44888" stroke-linecap="round" stroke-linejoin="round"/>
<path d="M63.7246 207.805L49.8237 181.434M55.6551 209.023L41.7542 182.651" stroke="#3C61F5" stroke-width="3.44888" stroke-linecap="round" stroke-linejoin="round"/>
<path d="M28.9437 185.191L35.6133 195.003L16.2344 201.975L25.1372 212.752" stroke="#F6B254" stroke-width="3.40031" stroke-linecap="round" stroke-linejoin="round"/>
<path d="M59.9961 263.968L57.4258 238.59L38.3661 245.474" stroke="#BB6EF6" stroke-width="3.44888" stroke-linecap="round" stroke-linejoin="round"/>
<path d="M115.924 -8.85083L100.448 -5.76608L104.947 6.0564L90.5923 9.99721" stroke="#F6B254" stroke-width="3.40031" stroke-linecap="round" stroke-linejoin="round"/>
<path d="M72.7593 -26.9852L79.9249 2.64593L96.3672 -16.08" stroke="#BB6EF6" stroke-width="3.44888" stroke-linecap="round" stroke-linejoin="round"/>
<path d="M88.804 64.9343L91.5552 39.0762L105.951 65.305" stroke="#BB6EF6" stroke-width="3.44888" stroke-linecap="round" stroke-linejoin="round"/>
<path d="M118.258 44.204L104.357 17.8326M110.188 45.4212L96.2874 19.0498" stroke="#3C61F5" stroke-width="3.44888" stroke-linecap="round" stroke-linejoin="round"/>
<path d="M83.4808 21.5895L90.1504 31.4014L70.7715 38.374L79.6743 49.1509" stroke="#F6B254" stroke-width="3.40031" stroke-linecap="round" stroke-linejoin="round"/>
<path d="M95.1523 97.4968L83.3601 96.1919L90.6505 76.9304L76.6738 76.6962" stroke="#F6B254" stroke-width="3.40031" stroke-linecap="round" stroke-linejoin="round"/>
<path d="M106.488 80.9426L104.139 110.661M113.959 84.2277L111.609 113.946" stroke="#3C61F5" stroke-width="3.44888" stroke-linecap="round" stroke-linejoin="round"/>
<path d="M73.543 93.3306L76.1133 118.708L95.1729 111.824" stroke="#BB6EF6" stroke-width="3.44888" stroke-linecap="round" stroke-linejoin="round"/>
<path d="M72.1426 148.014L87.6189 144.929L83.1191 133.107L97.4741 129.166" stroke="#F6B254" stroke-width="3.40031" stroke-linecap="round" stroke-linejoin="round"/>
<path d="M115.313 166.149L108.147 136.518L91.7051 155.244" stroke="#BB6EF6" stroke-width="3.44888" stroke-linecap="round" stroke-linejoin="round"/>
<path d="M72.1426 157.114L100.292 166.927M72.1426 165.275L100.292 175.087" stroke="#3C61F5" stroke-width="3.44888" stroke-linecap="round" stroke-linejoin="round"/>
<path d="M115.924 209.284L100.448 212.368L104.947 224.191L90.5923 228.132" stroke="#F6B254" stroke-width="3.40031" stroke-linecap="round" stroke-linejoin="round"/>
<path d="M72.7593 191.149L79.9249 220.78L96.3672 202.054" stroke="#BB6EF6" stroke-width="3.44888" stroke-linecap="round" stroke-linejoin="round"/>
<path d="M115.924 200.185L87.7741 190.373M115.924 192.024L87.7741 182.212" stroke="#3C61F5" stroke-width="3.44888" stroke-linecap="round" stroke-linejoin="round"/>
<path d="M78.1296 247.997L107.848 250.347M81.4147 240.527L111.133 242.877" stroke="#3C61F5" stroke-width="3.44888" stroke-linecap="round" stroke-linejoin="round"/>
<path d="M143.339 10.4005L146.09 -15.4576L160.486 10.7712" stroke="#BB6EF6" stroke-width="3.44888" stroke-linecap="round" stroke-linejoin="round"/>
<path d="M125.95 37.0849L151.809 39.8361L125.58 54.2321" stroke="#BB6EF6" stroke-width="3.44888" stroke-linecap="round" stroke-linejoin="round"/>
<path d="M146.677 66.5381L173.049 52.6371M145.46 58.4686L171.832 44.5677" stroke="#3C61F5" stroke-width="3.44888" stroke-linecap="round" stroke-linejoin="round"/>
<path d="M169.295 31.7596L159.483 38.4292L152.51 19.0503L141.733 27.9531" stroke="#F6B254" stroke-width="3.40031" stroke-linecap="round" stroke-linejoin="round"/>
<path d="M147.92 97.9701L149.225 86.1779L168.486 93.4683L168.721 79.4917" stroke="#F6B254" stroke-width="3.40031" stroke-linecap="round" stroke-linejoin="round"/>
<path d="M164.478 109.303L134.76 106.954M161.193 116.774L131.475 114.424" stroke="#3C61F5" stroke-width="3.44888" stroke-linecap="round" stroke-linejoin="round"/>
<path d="M152.086 76.3568L126.709 78.9271L133.592 97.9868" stroke="#BB6EF6" stroke-width="3.44888" stroke-linecap="round" stroke-linejoin="round"/>
<path d="M147.451 150.734L159.243 152.039L151.953 171.301L165.93 171.535" stroke="#F6B254" stroke-width="3.40031" stroke-linecap="round" stroke-linejoin="round"/>
<path d="M136.115 167.286L138.465 137.568M128.645 164.001L130.995 134.283" stroke="#3C61F5" stroke-width="3.44888" stroke-linecap="round" stroke-linejoin="round"/>
<path d="M169.061 154.899L166.49 129.522L147.431 136.405" stroke="#BB6EF6" stroke-width="3.44888" stroke-linecap="round" stroke-linejoin="round"/>
<path d="M147.92 207.037L149.225 195.245L168.486 202.535L168.721 188.559" stroke="#F6B254" stroke-width="3.40031" stroke-linecap="round" stroke-linejoin="round"/>
<path d="M164.478 218.369L134.76 216.02M161.193 225.84L131.475 223.49" stroke="#3C61F5" stroke-width="3.44888" stroke-linecap="round" stroke-linejoin="round"/>
<path d="M152.086 185.424L126.709 187.994L133.592 207.054" stroke="#BB6EF6" stroke-width="3.44888" stroke-linecap="round" stroke-linejoin="round"/>
<path d="M151.938 238.559L155.022 254.036L166.845 249.536L170.786 263.891" stroke="#F6B254" stroke-width="3.40031" stroke-linecap="round" stroke-linejoin="round"/>
<path d="M142.834 238.559L133.022 266.709M134.674 238.559L124.861 266.709" stroke="#3C61F5" stroke-width="3.44888" stroke-linecap="round" stroke-linejoin="round"/>
<path d="M178.883 -14.1094L192.784 12.262M186.952 -15.3266L200.853 11.0448" stroke="#3C61F5" stroke-width="3.44888" stroke-linecap="round" stroke-linejoin="round"/>
<path d="M213.66 8.50659L206.99 -1.30537L226.369 -8.27796L217.466 -19.0548" stroke="#F6B254" stroke-width="3.40031" stroke-linecap="round" stroke-linejoin="round"/>
<path d="M201.984 41.6676L213.777 42.9725L206.486 62.2341L220.463 62.4683" stroke="#F6B254" stroke-width="3.40031" stroke-linecap="round" stroke-linejoin="round"/>
<path d="M190.652 58.2196L193.002 28.5014M183.182 54.9344L185.532 25.2163" stroke="#3C61F5" stroke-width="3.44888" stroke-linecap="round" stroke-linejoin="round"/>
<path d="M223.596 45.8316L221.025 20.4543L201.966 27.3378" stroke="#BB6EF6" stroke-width="3.44888" stroke-linecap="round" stroke-linejoin="round"/>
<path d="M206.473 74.9587L209.557 90.435L221.38 85.9353L225.321 100.29" stroke="#F6B254" stroke-width="3.40031" stroke-linecap="round" stroke-linejoin="round"/>
<path d="M188.338 118.125L217.969 110.96L199.243 94.5176" stroke="#BB6EF6" stroke-width="3.44888" stroke-linecap="round" stroke-linejoin="round"/>
<path d="M197.371 74.9587L187.559 103.108M189.211 74.9587L179.398 103.108" stroke="#3C61F5" stroke-width="3.44888" stroke-linecap="round" stroke-linejoin="round"/>
<path d="M225.643 162.761L205.757 145.579L221.97 135.579" stroke="#BB6EF6" stroke-width="3.44888" stroke-linecap="round" stroke-linejoin="round"/>
<path d="M182.928 165.855L191.582 173.972L201.487 155.915L210.746 166.388" stroke="#F6B254" stroke-width="3.40031" stroke-linecap="round" stroke-linejoin="round"/>
<path d="M205.693 129.425L188.448 153.741M197.854 127.158L180.609 151.475" stroke="#3C61F5" stroke-width="3.44888" stroke-linecap="round" stroke-linejoin="round"/>
<path d="M199.73 227.809L196.646 212.333L184.823 216.832L180.882 202.477" stroke="#F6B254" stroke-width="3.40031" stroke-linecap="round" stroke-linejoin="round"/>
<path d="M217.873 184.64L188.242 191.806L206.968 208.248" stroke="#BB6EF6" stroke-width="3.44888" stroke-linecap="round" stroke-linejoin="round"/>
<path d="M208.837 227.809L218.65 199.659M216.998 227.809L226.811 199.659" stroke="#3C61F5" stroke-width="3.44888" stroke-linecap="round" stroke-linejoin="round"/>
<path d="M187.202 247.997L216.92 250.347M190.487 240.527L220.205 242.877" stroke="#3C61F5" stroke-width="3.44888" stroke-linecap="round" stroke-linejoin="round"/>
<path d="M235.75 -6.48807L263.9 3.32425M235.75 1.67267L263.9 11.485" stroke="#3C61F5" stroke-width="3.44888" stroke-linecap="round" stroke-linejoin="round"/>
<path d="M258.285 41.1943L256.98 52.9865L237.719 45.6961L237.485 59.6727" stroke="#F6B254" stroke-width="3.40031" stroke-linecap="round" stroke-linejoin="round"/>
<path d="M241.733 29.862L271.451 32.2117M245.018 22.3917L274.736 24.7414" stroke="#3C61F5" stroke-width="3.44888" stroke-linecap="round" stroke-linejoin="round"/>
<path d="M258.285 95.7266L256.98 107.519L237.719 100.228L237.485 114.205" stroke="#F6B254" stroke-width="3.40031" stroke-linecap="round" stroke-linejoin="round"/>
<path d="M241.733 84.3959L271.451 86.7455M245.018 76.9255L274.736 79.2752" stroke="#3C61F5" stroke-width="3.44888" stroke-linecap="round" stroke-linejoin="round"/>
<path d="M247.082 130.656L253.752 140.468L234.373 147.441L243.276 158.218" stroke="#F6B254" stroke-width="3.40031" stroke-linecap="round" stroke-linejoin="round"/>
<path d="M237.463 220.39L246.117 228.506L256.022 210.45L265.281 220.922" stroke="#F6B254" stroke-width="3.40031" stroke-linecap="round" stroke-linejoin="round"/>
<path d="M260.229 183.96L242.984 208.277M252.389 181.693L235.144 206.01" stroke="#3C61F5" stroke-width="3.44888" stroke-linecap="round" stroke-linejoin="round"/>
<path d="M241.733 247.997L271.451 250.347M245.018 240.527L274.736 242.877" stroke="#3C61F5" stroke-width="3.44888" stroke-linecap="round" stroke-linejoin="round"/>
</g>
</g>
</svg>
