<svg width="351" height="452" viewBox="0 0 351 452" fill="none" xmlns="http://www.w3.org/2000/svg">
<path d="M42.7479 64.6685L88.0595 85.5234M115.56 21.5681L130.417 52.7869M285.444 50.2416L243.785 76.2665M208.901 16.0194L197.848 48.7785M186.016 423.481L180.255 326.554M186.016 423.481C186.256 427.51 189.713 430.582 193.737 430.343L273.534 425.599C277.559 425.36 280.627 421.9 280.388 417.871L278.832 391.709C278.744 390.22 279.113 388.739 279.89 387.466L333.813 299.085C334.59 297.812 334.959 296.332 334.87 294.843L327.959 178.59C327.172 165.338 315.481 158.822 304.126 159.025C292.354 159.235 280.943 166.666 282.414 181.297L285.768 257.598M186.016 423.481C186.256 427.51 183.187 430.969 179.163 431.209L99.3662 435.952C95.3415 436.191 91.8847 433.119 91.6453 429.091L90.0901 402.928C90.0015 401.439 89.4599 400.013 88.5378 398.841L24.5236 317.47C23.6015 316.298 23.0599 314.872 22.9714 313.383L16.0608 197.13C15.273 183.878 26.1095 176.023 37.4087 174.879C49.1226 173.694 61.334 179.72 61.6067 194.423L67.3151 270.583M180.255 326.554C180.14 324.625 180.793 322.73 182.07 321.282L248.249 246.285C263.537 232.475 281.836 242.761 285.768 257.598M180.255 326.554C180.14 324.625 179.267 322.82 177.827 321.534L103.23 254.905C86.413 243.004 69.462 255.385 67.3151 270.583M116.676 327.311L72.0946 287.692C71.7046 287.346 71.3491 286.96 71.0552 286.529C67.6084 281.473 66.57 275.858 67.3151 270.583M243.476 319.774L283.049 275.153C283.395 274.762 283.703 274.337 283.943 273.875C286.767 268.446 287.133 262.747 285.768 257.598M143.495 131.102L114.181 137.657C108.682 138.886 106.877 145.826 111.078 149.584L133.475 169.623C135.115 171.091 135.961 173.251 135.754 175.442L132.925 205.377C132.395 210.992 138.431 214.855 143.3 212.018L169.257 196.89C171.158 195.782 173.471 195.645 175.49 196.519L203.057 208.466C208.227 210.706 213.763 206.155 212.571 200.642L206.216 171.254C205.751 169.102 206.335 166.857 207.789 165.206L227.655 142.654C231.381 138.425 228.767 131.748 223.161 131.178L193.276 128.143C191.088 127.921 189.135 126.671 188.016 124.776L172.727 98.892C169.859 94.037 162.707 94.4621 160.435 99.6227L148.32 127.135C147.433 129.15 145.642 130.622 143.495 131.102Z" stroke="#3C61F5" stroke-width="6" stroke-linecap="round"/>
<g filter="url(#filter0_f_2125_23725)">
<path d="M42.7479 64.6685L88.0595 85.5234M115.56 21.5681L130.417 52.7869M285.444 50.2416L243.785 76.2665M208.901 16.0194L197.848 48.7785M186.016 423.481L180.255 326.554M186.016 423.481C186.256 427.51 189.713 430.582 193.737 430.343L273.534 425.599C277.559 425.36 280.627 421.9 280.388 417.871L278.832 391.709C278.744 390.22 279.113 388.739 279.89 387.466L333.813 299.085C334.59 297.812 334.959 296.332 334.87 294.843L327.959 178.59C327.172 165.338 315.481 158.822 304.126 159.025C292.354 159.235 280.943 166.666 282.414 181.297L285.768 257.598M186.016 423.481C186.256 427.51 183.187 430.969 179.163 431.209L99.3662 435.952C95.3415 436.191 91.8847 433.119 91.6453 429.091L90.0901 402.928C90.0015 401.439 89.4599 400.013 88.5378 398.841L24.5236 317.47C23.6015 316.298 23.0599 314.872 22.9714 313.383L16.0608 197.13C15.273 183.878 26.1095 176.023 37.4087 174.879C49.1226 173.694 61.334 179.72 61.6067 194.423L67.3151 270.583M180.255 326.554C180.14 324.625 180.793 322.73 182.07 321.282L248.249 246.285C263.537 232.475 281.836 242.761 285.768 257.598M180.255 326.554C180.14 324.625 179.267 322.82 177.827 321.534L103.23 254.905C86.413 243.004 69.462 255.385 67.3151 270.583M116.676 327.311L72.0946 287.692C71.7046 287.346 71.3491 286.96 71.0552 286.529C67.6084 281.473 66.57 275.858 67.3151 270.583M243.476 319.774L283.049 275.153C283.395 274.762 283.703 274.337 283.943 273.875C286.767 268.446 287.133 262.747 285.768 257.598M143.495 131.102L114.181 137.657C108.682 138.886 106.877 145.826 111.078 149.584L133.475 169.623C135.115 171.091 135.961 173.251 135.754 175.442L132.925 205.377C132.395 210.992 138.431 214.855 143.3 212.018L169.257 196.89C171.158 195.782 173.471 195.645 175.49 196.519L203.057 208.466C208.227 210.706 213.763 206.155 212.571 200.642L206.216 171.254C205.751 169.102 206.335 166.857 207.789 165.206L227.655 142.654C231.381 138.425 228.767 131.748 223.161 131.178L193.276 128.143C191.088 127.921 189.135 126.671 188.016 124.776L172.727 98.892C169.859 94.037 162.707 94.4621 160.435 99.6227L148.32 127.135C147.433 129.15 145.642 130.622 143.495 131.102Z" stroke="#3C61F5" stroke-width="6" stroke-linecap="round"/>
</g>
<defs>
<filter id="filter0_f_2125_23725" x="0.000812531" y="-0.000164032" width="350.901" height="451.984" filterUnits="userSpaceOnUse" color-interpolation-filters="sRGB">
<feFlood flood-opacity="0" result="BackgroundImageFix"/>
<feBlend mode="normal" in="SourceGraphic" in2="BackgroundImageFix" result="shape"/>
<feGaussianBlur stdDeviation="6.50936" result="effect1_foregroundBlur_2125_23725"/>
</filter>
</defs>
</svg>
