<svg preserveAspectRatio="none" width="282" height="62" viewBox="0 0 282 62" fill="none" xmlns="http://www.w3.org/2000/svg">
<path d="M257.926 60.8579C257.756 60.7813 257.051 60.9067 256.751 60.862C257.054 61.5905 258.537 61.1356 257.926 60.8579ZM229.781 7.63199C230.022 7.82096 230.262 8.00992 230.503 8.1989C229.786 8.27468 228.838 8.09457 228.168 8.22569C228.058 8.24787 228.311 8.7711 228.054 8.78006C227.797 8.78887 227.884 8.09705 227.516 8.0028C227.103 7.89917 225.167 8.28059 224.507 8.2335C222.035 8.05408 219.565 7.52439 217.067 7.68058C219.601 8.33089 216.992 8.71621 216.287 8.45541C216.131 8.39542 216.225 7.10555 213.642 7.29422C211.998 7.41379 213.407 9.33959 210.733 8.27045C212.895 7.09021 210.831 7.07138 209.194 6.9417C208.911 6.91905 206.613 6.99207 205.608 6.88171C205.263 6.8436 204.774 6.13959 204.317 6.0977C204.001 6.06935 203.743 6.4265 203.275 6.38299C201.095 6.18462 198.952 6.0433 196.757 6.05382C197.944 7.85865 195.715 6.74205 195.609 6.81985C195.064 7.26449 197.411 7.52194 196.465 7.76837C195.167 7.64651 193.866 7.52461 192.566 7.4029C193.646 7.24519 191.226 5.86563 190.741 6.41066C191.023 4.88517 184.738 7.43967 183.826 6.87877C183.637 6.76045 184.949 6.06687 181.977 6.26204C181.655 6.28419 181.752 6.75378 181.587 6.70197C181.487 6.67081 180.957 5.1669 180.265 5.94741C180.014 6.23236 181.479 7.27718 178.17 6.7179C179.572 5.28652 173.598 5.67044 172.488 5.99108C172.716 5.80075 172.944 5.61044 173.173 5.42013C172.066 5.90859 171.897 5.38912 171.653 5.40458C170.668 5.46652 169.29 5.91178 168.38 5.81893C167.314 5.71114 167.36 4.77883 166.094 5.07875C166.401 4.88795 166.707 4.69712 167.013 4.50625C166.151 4.51259 165.283 4.51868 164.421 4.52513C166.353 5.85922 163.987 4.56241 163.829 4.52792C163.577 4.47027 163.918 4.9938 163.495 4.9096C163.452 4.89705 163.539 4.42443 162.886 4.33823C161.524 4.15989 161.707 4.7688 161.132 4.73331C161.079 4.72761 161.285 4.30815 160.294 4.1572C157.149 3.67736 160.293 4.48637 160.412 4.55174C160.568 4.63786 159.393 6.37494 162.113 5.87381C161.202 6.03103 161.07 6.81912 160.968 6.83374C160.877 6.84539 159.319 6.65601 159.235 6.62448C158.481 6.31721 159.183 5.80906 159.038 5.70456C158.919 5.62015 157.008 6.23312 156.643 4.58189C155.666 6.04012 157.098 5.97274 158.592 6.27838C158.796 6.59762 157.127 6.81556 157.039 6.81038C154.896 6.70174 156.143 5.52423 155.714 4.7109C155.488 4.28531 154.575 5.08572 155.435 4.01695C153.499 3.80431 154.645 4.50464 154.515 4.5935C154.319 4.72384 153.656 4.3728 153.569 4.41096C153.441 4.46749 153.855 4.87253 153.357 4.98358C153.275 4.99923 152.516 4.29998 153.552 4.03442C152.186 4.06145 152.32 3.50363 151.802 4.6158C150.964 2.42266 151.056 5.85143 150.679 5.95361C149.678 6.22261 150.047 4.5509 149.999 4.46615C149.667 3.92185 146.911 4.36829 146.245 4.09269C146.452 5.31963 148.414 4.2111 148.822 4.46712C150.195 5.31943 146.801 4.97734 147.753 6.55278C147.342 6.11285 146.931 5.67296 146.521 5.23312C145.684 6.17582 146.782 6.65752 144.677 6.19662C144.371 5.33321 146.171 6.40279 145.833 5.71803C145.633 5.31603 144.407 5.17261 144.393 4.96513C144.38 4.71555 145.478 5.06357 145.321 4.67309C144.981 3.83014 140.879 4.41961 143.951 5.01835C143.091 4.96281 142.564 6.58111 141.841 6.03433C141.374 5.6796 144.202 3.54487 140.103 3.76505C139.979 4.5352 141.722 4.07161 141.764 4.13274C141.823 4.22153 141.428 5.95398 141.37 6.03765C141.167 6.31234 137.044 5.17802 136.122 6.01462C136.519 5.02107 132.982 5.68591 132.615 5.36047C132.517 5.27075 132.925 4.66989 132.82 4.59932C132.323 4.28117 131.13 4.78366 130.212 5.04477C129.911 5.12946 129.64 5.18867 129.431 5.18599C128.477 5.17418 128.623 4.64552 128.57 4.64405C128.15 4.65447 128.467 5.03218 128.212 5.01932C127.823 4.99947 125.177 4.95179 125.042 4.86994C125.004 4.84459 125.466 4.25414 124.891 4.11174C124.792 4.08712 124.82 4.81347 123.123 4.42264C121.08 3.95271 124.595 3.58802 123.773 2.7911C122.399 3.80965 122.492 2.74242 122.13 2.81004C122.006 2.83504 121.037 3.70201 120.032 3.59889C120.747 3.77914 121.469 3.95977 122.179 4.13997C121.469 4.26737 120.089 4.00709 119.498 4.16089C119.209 4.23568 119.41 4.99316 118.792 4.94506C118.661 4.93083 118.221 3.08751 119.807 3.97733C119.966 3.33345 119.174 3.72162 118.825 3.52172C118.772 3.49064 118.607 2.39552 118.121 3.04958C118.002 3.21062 119.06 6.43078 116.075 4.00053C115.979 3.92221 116.343 3.54114 116.249 3.45458C116.185 3.39591 115.389 3.52107 115.305 3.46094C115.219 3.3966 115.619 2.98066 115.516 2.89074C114.992 2.42749 114.203 4.11281 115.329 4.03193C114.945 4.22743 114.561 4.42298 114.178 4.61857C114.636 3.34226 113.607 4.22831 113.094 4.16559C109.78 3.76371 112.044 3.02057 111.491 2.55979C110.604 1.82006 111.206 4.06554 109.875 3.3402C109.751 3.2725 111.438 2.40448 108.202 2.79411C108.679 2.85164 109.147 2.90889 109.62 2.96634C109.293 4.20609 107.911 2.80543 107.8 2.783C106.543 2.55595 107.376 3.04431 105.531 2.31829C105.366 2.25315 104.989 2.5463 104.639 2.37675C103.184 1.67769 106.609 2.07618 106.727 1.57374C106.782 1.32714 103.079 1.22936 102.945 1.34188C102.381 1.84121 104.617 1.64468 104.165 2.2753C103.996 2.49843 98.7424 1.79884 97.6709 2.0068C96.4381 2.24886 95.819 3.92304 95.8904 2.0156C95.4654 3.87292 95.2143 2.58287 95.0571 2.58917C93.1577 2.68282 93.1583 2.70182 91.5449 2.45485C91.1879 2.40093 90.8617 2.95631 90.739 2.85513C90.6677 2.79414 90.8308 2.19204 90.4774 1.98947C89.9851 1.71184 86.953 2.2127 86.712 2.53948C86.4737 2.86623 87.9804 2.73773 87.6891 3.27911C86.6012 3.29014 85.5683 3.11077 84.4784 3.12449C84.0257 3.13186 84.242 3.52801 84.0466 3.52773C83.9662 3.52917 82.4114 3.1247 82.4845 2.98484C82.657 2.65934 87.4683 3.07991 86.2267 2.35116C85.9866 2.21029 85.0842 3.06581 85.2664 1.98796C80.9422 2.05672 76.627 2.12899 72.3031 2.20374C74.746 3.11222 77.5614 2.49887 80.1562 2.67994C80.5103 2.70363 81.7159 2.64785 81.5477 3.18959C79.3414 3.24198 76.6058 2.84621 74.4723 3.11873C74.4039 3.12783 74.6335 3.62981 74.3762 3.69766C73.8949 3.82422 72.3823 2.96932 72.1152 3.16431C72.0689 3.21035 72.9212 3.89384 72.6379 4.2955C71.9101 5.32622 71.8311 2.97632 71.2376 2.98067C70.7766 2.98483 67.6717 3.99742 66.9324 3.25176C66.15 2.457 69.21 2.89734 69.007 2.26471C66.9556 1.55625 64.8217 2.14352 62.8603 1.98939C62.8257 1.98606 63.1455 1.50886 62.7094 1.42348C61.9506 1.27492 61.7238 1.96062 61.3485 2.05723C60.9434 2.15984 59.5345 2.00612 59.3338 2.25163C59.3083 2.28386 59.5691 2.98267 59.612 3.00368C60.218 3.31085 60.4701 2.42658 60.5269 2.41729C60.7387 2.39155 60.9324 2.74143 61.1254 2.72848C61.4432 2.70673 61.6297 2.39712 62.0488 2.38534C62.3381 2.37605 62.0362 2.97274 62.3153 2.95572C62.4177 2.94698 63.5734 1.60258 63.6214 3.02248C63.6307 3.46911 54.6183 3.69719 53.7287 3.30677C54.5062 3.16576 55.2856 3.0249 56.0637 2.88407C54.4794 3.23867 52.6415 2.03613 52.4454 3.7049C46.6335 3.62206 40.819 3.54312 35.0089 3.46706C33.9671 3.57167 34.4957 4.66809 32.8026 4.29266C33.2556 3.96609 33.7087 3.63953 34.1619 3.313C33.2799 3.5213 29.3885 3.84959 28.7708 3.60503C28.6909 3.573 28.6134 2.59537 27.6486 2.47656C26.7925 2.37152 26.6282 3.09594 26.1641 3.21902C25.7746 3.32032 25.3488 3.11353 25.233 3.14966C25.144 3.17872 25.0932 3.62349 24.8793 3.69363C24.2039 3.90996 24.7897 2.67365 24.0756 4.09183C24.2348 4.15262 24.3939 4.21341 24.5531 4.2742C23.7408 4.4538 22.618 5.06878 23.7915 5.43466C23.9932 5.49779 23.8338 5.05994 23.9857 5.06618C29.933 5.36203 25.1516 6.02852 23.0902 5.28305C22.5315 5.90304 19.5448 5.40438 19.4405 5.52682C19.2952 5.70432 19.7903 6.23384 19.1013 6.65081C18.9562 6.73907 14.9573 6.23673 16.3713 7.13847C16.6629 7.32446 18.5933 7.20952 19.0561 7.25128C17.9161 8.56715 15.4288 6.53358 15.1394 6.57302C13.9718 6.74254 17.3257 7.82758 14.7067 7.89115C12.6927 7.93982 14.6119 7.10268 13.8528 6.68867C13.4258 6.45631 11.1169 7.37165 11.2248 6.08292C10.4492 5.91708 10.8815 6.61701 10.7834 6.66272C10.6877 6.70256 9.16605 6.26108 8.65884 6.51537C8.59723 6.54704 8.76334 7.22485 8.69894 7.27752C8.57419 7.36717 7.09933 7.18004 7.04181 7.12106C7.0054 7.08021 7.37927 6.50538 7.23932 6.35771C7.07626 6.18738 5.64679 6.27463 5.57419 6.10388C5.47241 5.846 7.22501 6.07623 6.95541 5.4088C6.13882 5.54519 4.83432 5.05962 4.31879 4.51164C4.44446 4.66754 5.22894 4.71735 5.50333 4.6738C5.40961 3.70708 3.72281 3.65984 4.27209 4.44199C3.92026 4.0199 4.17819 3.81188 3.98563 3.41854C3.93503 3.31883 3.41489 3.28006 3.3204 3.10987C3.30856 3.07622 3.85898 2.73243 3.75839 2.53316C3.57632 2.17306 1.99368 2.19598 1.8609 2.28399C1.48758 2.53351 2.76462 2.89728 2.85742 3.30695C2.87051 3.36982 1.74634 4.1259 1.7272 4.19555C1.6362 4.94684 2.87491 4.44739 2.71118 5.12094C2.40457 5.25348 2.09796 5.38602 1.79123 5.51856C2.93027 6.24731 5.09235 5.9709 5.6188 6.77231C3.90466 6.47808 2.09937 6.44103 2.04001 8.20127C2.01474 8.94258 2.74304 9.40374 2.70749 9.59119C2.57373 10.2616 1.56723 9.49207 1.52789 9.52632C1.49503 9.5663 1.47925 9.6058 1.47784 9.64475C1.47784 9.64476 1.47784 9.64478 1.47784 9.6448C1.4639 10.0397 2.92578 10.3767 2.99286 10.5596C3.10522 10.8843 2.40305 12.179 2.39362 12.4706C2.41437 12.53 3.45114 12.8795 3.07935 13.3757C2.70328 13.8768 1.78534 13.8553 1.75125 13.9076C1.56509 14.2088 3.15985 14.5466 3.20105 14.7299C3.22299 14.8226 2.34122 15.3557 2.3103 15.517C2.28302 15.6789 2.9252 16.0574 3.16479 16.5802C3.34351 16.9686 2.77286 17.2411 2.86923 17.3044C2.93832 17.3466 4.45389 17.3943 4.52588 17.464C4.63324 17.5672 4.26212 18.0105 4.30966 18.1264C4.37708 18.293 4.8721 18.1459 4.8024 18.3123C4.75024 18.4364 2.79703 19.9404 2.7941 20.3607C2.79028 21.0777 4.85831 19.5018 2.8877 22.261C2.87393 22.2791 2.42596 22.062 2.41266 22.0789C2.1131 22.5888 3.54395 23.4409 1.76431 23.2372C5.05127 24.2591 2.13901 24.3286 2.58694 25.552C2.7601 26.0223 4.03943 26.2595 4.04285 26.3292C3.89682 26.9128 3.50345 26.4421 3.35379 26.7254C3.27142 26.8838 4.39972 27.5466 4.12634 27.941C3.98511 28.1443 2.7662 28.0265 2.71423 28.0653C2.21698 28.4308 2.7952 28.8642 2.67926 29.1323C2.60217 29.312 1.86423 29.3001 1.84381 29.3322C1.81036 29.3994 2.78531 30.1717 2.98453 30.438C3.13593 30.6429 2.52972 30.9337 2.63724 31.0245C3.28522 31.5676 4.74982 30.2939 3.3176 32.1008C3.23013 32.2117 2.715 32.1472 2.69897 32.1693C2.36078 32.684 3.3107 32.7635 3.46542 33.2003C3.73105 33.9528 2.37851 33.4902 3.49695 34.0527C2.62656 34.5075 2.15186 34.4702 1.15762 34.2992C3.90982 34.7756 4.81589 36.7315 1.74847 36.5733C2.72617 36.5783 2.57892 37.6587 2.86951 37.6882C3.05032 37.7052 4.50378 36.6779 3.76855 39.0734C3.67633 39.3727 2.83044 38.958 3.07755 39.586C5.14615 39.5021 3.1073 39.9811 3.1022 40.0628C3.07721 41.4885 8.16238 40.5021 9.02307 40.6956C10.0219 40.9201 10.8749 42.0748 11.0933 42.0841C11.8121 42.1104 11.236 41.5189 11.4043 41.3151C11.5743 41.1133 13.5801 42.2787 13.6842 42.2224C14.0888 41.9957 13.7112 41.3058 13.7536 41.2732C14.2588 40.8769 16.9851 41.5045 17.7593 41.3752C17.7197 41.8126 16.1754 41.7918 17.1135 42.5303C18.2057 43.3912 18.3396 41.4618 18.372 41.3779C23.5112 41.5815 28.6493 41.7862 33.7862 41.993C33.6839 43.0182 30.3549 42.1203 30.2727 42.2529C29.7951 43.0374 35.4706 43.2305 36.1783 42.8934C35.6414 43.096 35.1058 43.2985 34.5682 43.5011C35.4277 44.7157 37.4805 43.2542 38.7687 43.8242C39.1841 44.0089 38.3572 44.435 38.3727 44.4667C38.8308 44.9432 39.6028 44.6177 39.0576 43.9806C40.1921 44.6137 40.0473 43.9561 40.9371 43.9402C40.983 43.9398 40.5839 44.4024 41.2793 44.6262C41.6054 44.7307 43.3615 44.7975 43.5802 45.2233C43.6703 45.4025 42.7116 47.2183 42.6612 45.6229C40.7215 46.3275 42.0775 44.875 41.3339 44.884C41.2199 44.8881 41.4481 45.786 39.5961 45.2986C39.8921 46.9135 42.088 45.7957 42.4504 46.0035C43.1963 46.4306 40.0299 47.1411 39.5023 45.8714C39.7245 47.1313 39.2741 46.0316 38.5738 46.0572C37.8065 46.0846 38.1263 46.4691 37.7122 46.4559C36.5798 46.4234 37.0816 45.5584 36.1195 46.3194C37.1192 43.8904 34.5356 45.9357 33.7803 46.5539C34.9657 46.7226 36.1472 46.8913 37.3318 47.0601C37.259 47.1869 37.1863 47.3137 37.1136 47.4405C37.4274 47.4338 37.7411 47.427 38.055 47.4203C38.0094 47.2945 37.9638 47.1687 37.9182 47.0429C39.5035 47.9083 39.929 47.0174 40.0613 47.0122C41.7598 46.9699 43.7151 47.0505 45.4286 47.1117C45.685 47.1209 45.4813 47.9203 47.3752 47.3595C47.9797 47.181 47.4395 46.5329 48.1129 46.6524C48.8956 48.388 48.9309 47.0285 49.183 47.0359C49.9059 47.0633 50.3329 47.5021 50.3988 47.5091C51.2875 47.6086 52.5971 47.5877 53.5765 47.6879C53.5947 47.695 53.064 48.199 53.7075 48.0684C53.936 48.0217 56.0211 45.8635 57.7506 46.6594C57.2879 46.7927 56.8257 46.926 56.3637 47.0594C56.9098 46.869 60.6436 47.5768 59.7022 48.1395C59.1248 48.4833 57.8083 46.9903 57.6025 48.3695C58.8671 48.0023 65.7483 48.8905 66.2998 48.5903C66.3757 48.5473 65.9369 48.0801 66.0416 48.0266C66.1223 47.9859 67.6976 48.1544 67.9148 47.9901C68.0437 47.8925 67.3559 47.5896 67.4191 47.4299C67.4728 47.3164 69.4567 47.2019 69.548 47.7696C69.0706 47.5243 67.6992 47.668 68.3958 48.1709C68.4854 48.2335 68.9767 47.889 69.0856 47.9683C70.096 48.6993 67.002 48.4113 66.5247 48.3984C68.4407 49.1922 71.4813 48.4652 73.7213 49.0233C74.6523 48.5909 72.3969 48.2521 73.4449 47.905C75.6147 47.1854 73.9879 48.5759 74.0525 48.6383C74.5625 49.1323 76.4725 46.6703 76.3963 48.5996C77.1836 48.3404 76.943 48.0871 78.0278 48.3837C77.8793 48.5115 77.7291 48.6392 77.5796 48.767C78.7466 49.9333 81.431 47.2187 81.2483 46.9959C80.7523 46.3992 79.3773 47.2426 79.2643 47.2164C79.0948 47.1775 78.714 45.2012 76.7852 46.8766C76.0798 45.5331 79.757 46.109 78.1139 45.1463C79.2379 45.3385 83.9492 44.6154 84.5968 45.2195C84.6741 45.2981 84.2458 46.5908 85.4288 45.9726C85.9907 45.6781 84.6681 45.6084 84.9316 45.3207C85.7421 44.4364 96.2018 45.4599 98.1962 45.5954C98.3258 45.6024 98.2956 45.1944 98.4229 45.2036C98.811 45.2315 100.204 45.8977 100.912 45.741C99.4307 46.4301 102.244 46.6097 102.961 46.5581C104.049 46.4791 104.013 45.7619 104.488 45.6303C106.326 45.1235 109.041 46.9421 110.521 45.4191C110.38 46.9895 112.977 44.755 114.122 44.7924C115.018 44.8212 116.265 45.9207 115.033 46.5009C116.572 46.4974 118.179 46.8641 119.625 47.0256C119.862 47.0525 119.556 46.5723 119.96 46.6328C119.997 46.6417 120.027 47.1 120.373 47.1633C123.24 47.6924 121.882 46.6595 122.435 46.3993C122.745 46.2536 122.972 46.1846 123.138 46.166C121.451 45.9992 119.532 45.7325 119.006 45.6957C119.5 44.7089 122.722 46.0587 123.706 45.8326C123.74 45.8243 123.649 45.2639 123.683 45.2616C123.684 45.2616 123.684 45.2617 123.685 45.2617C124.05 45.2357 126.332 45.5464 125.83 46.1864C125.693 46.3572 124.642 46.3083 123.387 46.1904C123.723 46.3302 123.44 46.9402 123.498 46.9695C124.214 47.3102 126.014 46.7852 126.652 46.7329C126.797 46.7216 126.769 47.1194 126.792 47.1215C127.372 47.0577 127.188 45.9095 127.725 47.1098C128.834 45.7408 125.78 46.8086 126.036 45.8979C126.11 45.6319 127.108 45.5658 128.321 45.6477C130.289 45.7808 132.834 46.3111 132.788 47.0035C132.816 46.8851 132.914 46.7412 133.109 46.5814C133.54 46.2262 135.382 46.4308 135.693 46.6518C135.745 46.6949 135.672 47.7776 135.738 47.7908C135.906 47.8236 138.205 47.0815 139.017 47.7624C138.555 47.8925 138.092 48.0226 137.63 48.1528C140.378 48.2935 139.94 48.596 139.007 48.876C138.961 48.8768 138.914 48.9158 138.87 48.9181C138.148 49.1237 137.229 49.3111 137.211 49.3959C137.14 49.7192 141.802 50.1246 140.953 49.0763C140.833 48.9327 138.65 49.2767 139.755 48.6107C139.948 48.4939 141.328 48.7654 141.405 48.6899C141.919 48.1876 138.917 47.3436 139.324 46.6144C140.025 47.3608 140.991 47.0317 141.826 47.256C142.204 47.3574 142.272 47.9053 142.319 47.9178C143.019 48.0937 142.65 47.5049 142.885 47.5305C143.011 47.5464 144.346 48.8262 144.164 47.1421C148.708 48.595 145.373 48.4315 142.562 48.2016C143.421 48.8531 145.183 48.6433 145.963 48.8228C146.242 48.8878 146.048 49.4374 146.516 49.572C147.478 49.8485 152.18 49.4366 153.402 49.3458C152.665 49.1119 152.913 48.5152 153.488 48.5856C154.063 48.6563 153.538 49.4432 153.646 49.536C153.764 49.6321 156.486 49.3832 156.93 49.5106C154.911 49.1161 155.399 48.533 157.129 48.5553C156.888 48.3684 156.647 48.1816 156.406 47.9947C157.404 48.2899 159.586 47.4722 160.157 47.7764C160.246 47.8252 159.891 48.3181 159.942 48.3455C160.443 48.5874 162.215 48.1553 162.288 48.3332C162.35 48.4814 161.583 48.871 161.849 49.0951C161.905 49.1423 162.658 48.4898 163.358 48.6946C163.618 48.7701 163.435 49.2438 163.5 49.2751C164.04 49.5345 163.758 48.7071 164.757 48.888C165.489 49.0215 165.999 49.8422 167.032 49.631C163.633 50.4731 166.467 50.1925 167.855 50.5698C168.077 50.6301 167.841 51.4948 169.204 51.137C166.428 49.4113 170.061 50.3424 170.81 50.3633C170.851 50.36 170.895 49.7841 171.263 49.7935C171.294 49.7956 171.23 50.183 171.57 50.2302C174.804 50.6772 172.749 50.1313 173.386 49.7785C173.658 49.6282 175.204 50.2595 175.629 50.2946C175.726 50.301 175.702 49.8938 176.079 49.929C176.747 49.9923 177.325 50.4541 177.765 50.5109C177.816 50.5156 177.853 49.8769 178.678 50.127C178.91 50.1969 179.162 50.4373 178.819 50.6039C177.681 51.1512 175.627 49.9976 174.347 50.5369C173.178 51.0278 176.773 51.2634 176.962 51.2764C177.031 51.2819 176.343 50.9286 177.062 50.9025C177.676 50.8815 178.735 52.0422 179.655 51.8486C179.725 51.8344 180.5 50.9361 180.469 50.8799C180.441 50.8384 179.336 50.578 179.512 50.3156C179.533 50.2857 180.241 50.3284 180.344 50.1316C180.47 49.8921 180.9 47.4998 181.054 47.4472C181.451 47.3181 181.17 47.8542 181.423 47.829C181.967 47.7762 183.876 47.1608 183.892 47.9985C183.581 48.0321 183.271 48.0658 182.959 48.0993C184.672 48.2738 183.921 48.5913 184.156 48.7605C184.41 48.9433 184.374 48.2059 184.956 48.1669C185.083 48.1582 187.501 48.4372 187.442 48.7428C186.124 48.1832 186.575 49.1157 186.512 49.1286C186.274 49.1755 186 48.6514 185.685 48.6452C183.464 48.61 185.658 49.5285 185.124 49.7078C184.94 49.7679 184.604 49.3152 184.526 49.3335C184.274 49.3926 184.241 49.9609 184.078 49.9064C183.697 49.7797 184.19 48.9985 184.161 48.9551C183.842 48.4338 182.458 48.9904 183.254 49.9092C182.733 50.1985 182.727 49.1316 182.304 49.5362C181.462 50.3371 182.669 50.1825 182.987 50.3391C184.12 50.9034 184.485 50.5128 186.122 50.7378C186.712 50.8178 187.387 51.371 187.661 51.4137C187.833 51.4404 189.558 49.7273 189.46 52.5438C190.109 52.3045 191.202 50.5022 191.853 50.6212C192.437 50.7292 192.198 51.7149 192.251 51.7563C192.333 51.8213 193.045 51.7798 193.278 51.933C193.551 52.1139 193.391 52.4866 193.829 52.6648C194.92 53.1072 194.944 52.0896 195.062 52.0296C196.429 51.3358 195.772 52.7506 196.061 52.882C196.332 53.003 200.195 52.648 200.987 53.0566C200.668 52.8357 200.35 52.6149 200.032 52.3941C200.654 51.7913 201.224 52.8579 201.295 51.722C201.318 53.5632 202.598 52.4007 202.959 52.4673C203.102 52.4944 203.074 52.8065 203.253 52.8295C203.953 52.9213 205.552 52.7563 205.926 52.935C207.541 53.7049 203.259 54.6171 202.925 54.6684C203.589 54.683 207.331 55.2931 205.555 56.0837C205.28 56.2056 204.85 55.3594 204.701 55.3194C203.697 55.0543 204.457 55.8323 204.373 55.8981C204.232 56.0039 203.601 55.2573 203.421 55.3327C203.36 55.3568 203.704 56.043 202.735 56.006C203.176 56.6769 205.927 56.2946 206.278 56.4653C206.402 56.5262 205.533 57.8642 207.931 56.6468C207.898 56.7735 207.864 56.9002 207.83 57.027C209.123 57.1484 210.42 57.2702 211.715 57.3919C211.589 57.0892 210.893 56.4575 211.803 56.6321C212.327 56.7329 211.902 57.3697 211.949 57.3914C212.41 57.5971 220.816 57.8261 222.437 57.9869C222.988 58.0403 224.502 58.6515 224.619 58.6676C225.321 58.7583 227.827 58.5479 228.32 58.6493C228.628 58.7139 228.303 59.2477 228.582 59.2368C228.841 59.2259 228.602 58.6803 228.68 58.6622C229.326 58.5038 234.098 59.4597 235.271 59.0205C234.563 59.1331 231.134 57.8838 231.225 57.513C231.243 57.4625 232.112 57.1039 232.276 57.3105C232.589 56.866 233.505 58.3199 234.059 58.074C234.122 58.046 233.924 57.2475 234.894 57.1568C235.229 57.126 236.064 57.7852 236.974 57.146C238.221 57.544 244.926 56.8851 245.339 57.7541C245.35 57.7994 244.397 58.0392 245.011 58.4199C245.828 58.926 245.156 57.3341 246.143 57.2535C246.292 57.2411 249.011 57.546 249.095 57.6469C249.875 58.5621 247.471 58.7856 247.499 58.8885C247.569 59.1478 249.541 59.4095 249.625 59.3538C249.705 59.2954 248.152 58.0544 250.07 58.5972C249.84 58.7229 249.61 58.8486 249.38 58.9744C250.279 59.2924 250.409 58.4992 250.633 58.4625C251.328 58.3455 252.006 59.5978 253.189 58.1607C253.502 57.7793 253.042 57.3119 253.082 57.2543C253.461 56.7386 253.829 58.1932 254.414 57.1549C254.458 57.0775 253.268 56.3718 255.409 56.4866C255.256 56.5808 255.103 56.6751 254.95 56.7694C255.24 57.0142 257.398 57.2677 257.693 57.2296C258.553 57.1182 257.85 56.3434 258.702 56.4778C258.098 57.4542 260.695 57.7272 260.592 56.8528C260.896 57.9606 263.152 57.2417 264.194 57.2725C264.851 57.2928 266.163 57.8404 266.374 57.7963C266.632 57.742 266.595 56.9956 267.062 56.8554C267.196 56.8153 268.531 57.4338 269.771 56.7308C270.011 56.5955 270.567 55.363 270.153 55.0249C269.443 54.4461 267.991 55.3842 268.049 54.6413C268.113 53.8466 269.97 54.4225 270.482 54.3463C272.847 53.9934 271.543 53.0738 271.617 52.8206C271.807 52.2068 273.084 52.2958 273.14 52.2428C273.374 52.0063 272.496 51.4644 272.503 51.0838C272.513 50.5884 273.794 49.7631 273.523 49.5811C273.135 49.3225 271.962 50.0047 271.892 49.9652C270.984 49.4345 272.327 48.3618 272.711 47.8197C272.827 47.6529 272.416 47.3458 272.508 47.3C273.904 46.6053 272.706 48.9213 273.615 48.8118C274.426 48.7143 273.433 47.9071 273.466 47.8674C273.508 47.8241 274.472 47.8355 274.637 47.5781C274.718 47.4491 272.3 45.8525 272.44 45.2034C273.229 45.3911 274.018 45.5789 274.807 45.7666C274.916 44.9163 273.736 45.4822 273.622 45.3877C273.393 45.1981 274.082 44.8023 274.068 44.5308C274.062 44.3583 273.314 43.7031 274.034 43.489C274.281 43.415 274.757 44.0414 275.674 43.478C272.643 42.5293 274.799 42.1656 274.906 41.8681C275.011 41.5705 273.583 40.7787 275.357 41.0017C275.525 39.3444 275.347 40.4744 274.857 40.1548C274.257 39.762 275.72 39.293 273.431 39.5846C273.602 38.8137 275.421 38.9681 275.52 38.9112C275.607 38.8595 275.223 38.4548 275.374 38.3331C277.164 36.9231 275.953 37.5455 276.5 36.6126C276.549 36.5292 278.182 36.2614 276.961 36.0546C274.737 35.6784 273.741 36.7297 273.493 34.3525C275.205 33.419 277.128 35.0497 277.63 35.1029C278.398 35.1821 277.627 34.6579 277.729 34.5284C277.764 34.4867 278.426 34.5626 278.437 34.5249C279.008 32.7532 275.483 34.3339 274.421 33.9624C274.725 33.709 275.029 33.4556 275.333 33.2022C274.941 33.17 274.549 33.1379 274.157 33.1057C276.056 32.6666 274.234 32.9044 273.847 31.4235C273.76 31.0908 274.958 31.7186 273.606 30.7333C274.651 30.5798 274.338 30.2645 275.251 30.7258C275.259 30.1411 273.189 29.3682 272.375 29.0236C275.345 28.528 273.555 30.5766 276.153 29.5828C276.585 30.3308 275.381 30.1241 275.473 30.2487C275.804 30.6968 276.672 30.0613 277.592 31.6181C277.742 31.8736 277.01 32.595 278.033 32.6141C278.147 32.615 278.833 32.0018 278.827 31.9543C278.768 31.4415 278.113 31.5968 278.098 31.3833C278.084 31.1811 278.797 31.3411 278.802 31.2856C278.859 30.6503 278.216 31.0096 278.317 30.8153C278.535 30.3925 281.195 29.1638 277.8 29.381C280.563 30.2534 278.12 30.1034 277.044 29.7674C276.769 29.6829 276.72 29.2989 276.33 29.1453C275.83 28.9466 275.223 29.0966 274.963 29.0124C274.683 28.92 276.345 28.1093 273.997 28.2503C275.233 27.4211 277.279 28.4885 278.479 27.9245C280.901 26.7845 276.922 26.2944 276.513 26.1488C276.404 26.1094 276.804 25.6162 276.732 25.5808C276.613 25.5259 274.334 25.6396 274.134 25.2026C273.934 24.7659 274.963 25.2674 275.057 24.8285C275.12 24.533 272.415 23.8553 273.906 23.7323C274.934 23.6483 276.749 24.9488 277.136 23.6784C275.642 23.49 274.147 23.3015 272.653 23.1132C273.501 22.668 274.349 22.2229 275.196 21.7778C273.521 21.5305 272.036 22.0043 270.474 21.2157C274.403 19.8554 269.294 19.8949 269.249 19.7008C269.236 19.5855 270.819 18.3937 271.075 18.1739C269.761 17.6106 265.701 17.1492 268.17 15.7056C267.718 16.0373 266.718 15.1033 266.736 15.0378C266.907 14.35 269.166 14.9252 268.828 14.2771C268.436 13.525 267.777 14.4805 267.117 14.3653C263.73 13.7681 264.864 10.1904 261.414 10.5785C261.489 10.453 261.564 10.3275 261.639 10.202C257.912 10.2054 254.186 10.2091 250.457 10.2131C249.064 9.0261 245.228 8.14147 243.323 8.16138C242.939 8.16454 241.027 8.64445 240.88 8.73878C240.606 8.91999 242.047 9.07262 241.374 9.40373C241.232 9.47143 238.038 9.54402 238.299 8.93634C238.659 8.88368 239.758 9.25556 239.948 9.11934C241.288 8.14571 231.434 8.44973 230.969 8.00365C231.197 7.81397 231.426 7.6243 231.654 7.43464C231.029 7.50039 230.405 7.56618 229.781 7.63199ZM255.515 58.9643C255.852 59.6065 256.807 59.1899 257.347 59.3944C258.093 59.6802 259.254 62.146 258.829 59.7147C257.724 59.4645 256.619 59.2144 255.515 58.9643ZM239.169 59.0076C239.935 58.7139 239.428 57.3415 238.785 57.8659C238.713 57.9255 238.133 59.4026 239.169 59.0076ZM247.041 58.7957C247.01 58.7762 246.363 58.7767 246.339 58.7965C245.731 59.3035 247.684 59.299 247.041 58.7957ZM209.225 56.074C210.045 56.1756 209.384 57.363 208.899 56.8342C208.868 56.8006 209.171 56.0683 209.225 56.074ZM209.812 56.0728C210.51 55.015 211.682 57.2961 210.669 57.0188C210.57 56.9911 209.78 56.1243 209.812 56.0728ZM241.863 58.6187C241.801 58.1958 241.02 58.3561 240.685 58.4384C240.673 58.8209 241.542 58.5545 241.863 58.6187ZM222.32 57.4494C222.305 57.1186 224.983 57.2805 225.143 57.7238C224.73 57.5172 222.335 57.7466 222.32 57.4494ZM215.474 56.6202C215.545 56.5669 216.467 56.7028 216.424 56.9916C215.952 57.3482 215.154 56.8612 215.474 56.6202ZM201.818 55.9155C201.771 55.8399 202.563 54.0295 200.855 55.1585C200.604 55.3238 201.441 55.8518 201.351 55.9136C201.165 56.0334 201.02 56.0861 200.905 56.0909C201.664 56.2844 202.453 56.3982 202.535 56.2902C202.924 55.7801 201.839 55.9471 201.818 55.9155ZM194.72 54.1626C194.578 53.8531 193.564 53.9616 193.329 54.0737C193.288 54.095 193.418 54.8957 192.969 54.8129C192.608 54.745 193.193 53.9624 192.479 54.0552C191.756 54.1481 192.682 54.776 192.617 54.814C192.532 54.8637 191.441 54.4416 191.451 54.9151C191.459 55.2658 192.659 55.0915 192.947 55.1811C193.318 55.2961 192.832 55.8543 193.466 55.7621C193.864 55.7046 193.699 54.6697 193.785 54.6223C193.857 54.5843 195.206 55.2455 194.718 54.1658C194.719 54.1647 194.719 54.1637 194.72 54.1626ZM200.7 56.0348C200.756 56.0724 200.823 56.0944 200.905 56.0909C200.836 56.0734 200.768 56.0536 200.7 56.0348ZM253.378 58.3978C252.972 58.6923 254.104 59.1597 254.564 58.77C254.589 58.437 253.443 58.352 253.378 58.3978ZM200.035 55.164C198.885 55.3606 199.702 55.7571 200.7 56.0348C200.39 55.8252 200.421 55.0984 200.035 55.164ZM232.276 57.3105C232.224 57.3842 232.187 57.5016 232.172 57.6969C232.31 57.4898 232.327 57.3756 232.276 57.3105ZM229.606 57.5166C228.728 56.872 230.575 56.9955 230.54 57.4211C230.526 57.5817 229.641 57.5422 229.606 57.5166ZM208.166 56.0761C208.252 56.0223 207.056 54.1553 208.859 55.6043C207.847 55.7632 208.893 56.015 208.869 56.1717C208.804 56.6222 207.147 56.098 206.765 56.274C206.517 55.4487 207.881 56.2536 208.164 56.076C208.164 56.0761 208.165 56.0761 208.166 56.0761ZM181.781 53.9276C181.984 54.4139 182.717 54.2987 183.204 54.2958C183.002 53.8094 182.27 53.9248 181.781 53.9276ZM54.3206 48.2439C57.6407 48.8104 58.1495 46.8932 55.0642 47.5406C55.0037 47.5544 54.1256 48.0401 54.3206 48.2439ZM82.9932 48.8738C83.3412 48.0438 82.3098 47.8658 81.6106 48.186C81.4523 48.2579 80.8443 49.0883 81.4921 49.2819C81.514 48.2595 82.5385 47.9104 82.9932 48.8738ZM199.421 54.5907C199.119 54.0115 198.081 54.3579 197.54 54.4141C197.843 54.8939 198.937 54.7415 199.421 54.5907ZM65.3332 47.659C65.6882 47.6089 65.8977 48.3516 65.8344 48.4102C65.5508 48.6794 64.9152 48.0607 65.3332 47.659ZM202.713 54.6766C202.778 54.3434 201.447 53.9492 201.309 54.7743C201.601 54.7295 202.669 54.8855 202.713 54.6766ZM182.714 53.7231C182.933 53.5632 181.863 53.2015 181.526 53.354C181.534 53.7127 182.571 53.8269 182.714 53.7231ZM70.9889 48.131C71.3061 48.0798 72.094 48.0916 72.1695 48.3916C72.2629 48.7664 71.1138 48.5943 70.9889 48.131ZM12.3223 45.2973C12.2777 45.4291 13.4651 46.4329 14.0168 46.2095C15.0648 45.7817 12.369 45.2048 12.3223 45.2973ZM62.017 47.151C60.994 47.8099 62.1262 47.1773 62.0537 47.91C61.3824 47.9104 59.716 47.8823 60.8887 47.2044C61.1172 47.0733 61.7026 47.1864 62.017 47.151ZM62.9421 46.9409C63.0393 47.1829 63.726 47.9608 63.1092 47.883C62.8242 47.8459 62.3957 46.9946 62.9421 46.9409ZM19.8792 45.8962C20.795 45.2781 16.692 45.4795 16.5703 45.5892C16.506 45.6471 16.4632 45.7023 16.4383 45.7495C16.2955 45.538 15.524 45.4731 15.4158 45.9911C15.649 45.9564 16.28 46.025 16.3555 45.9699C16.3881 45.9464 16.4125 45.9242 16.4296 45.9013C16.686 46.3636 19.7039 46.0133 19.8792 45.8962ZM26.6802 45.4724C25.694 44.4761 25.4541 46.1004 25.5402 46.1561C26.6273 46.864 25.9462 45.6349 25.9823 45.5798C26.0634 45.4889 26.8327 46.0757 26.677 45.4723C26.678 45.4723 26.6791 45.4724 26.6802 45.4724ZM21.2781 45.678C21.2369 45.6553 20.378 45.6748 20.3418 45.6992C19.6196 46.222 22.0499 46.1692 21.2781 45.678ZM189.377 52.7403C188.756 52.8704 189.325 53.5013 189.744 53.3068C189.779 53.2873 189.925 52.6253 189.377 52.7403ZM63.4248 47.1215C63.57 47.0135 67.2248 46.7283 66.9687 47.6259C66.6682 47.5068 62.5135 47.8118 63.4248 47.1215ZM90.5871 47.9967C89.9481 47.977 90.6086 48.8606 90.9631 48.5564C91.0945 48.4434 90.7482 48.0022 90.5871 47.9967ZM204.572 53.9973C205.213 54.5017 205.159 52.9203 204.553 53.4294C204.529 53.4493 204.547 53.9776 204.572 53.9973ZM85.4495 48.2755C87.6346 48.8845 87.2322 46.1538 84.3141 46.9498C84.3991 47.0742 84.4841 47.1985 84.5691 47.3229C81.2382 47.5933 84.3329 47.5044 85.1409 47.6897C85.4476 47.76 85.1698 48.2016 85.4472 48.2786C85.448 48.2775 85.4487 48.2765 85.4495 48.2755ZM93.9586 48.0866C96.1681 46.2537 92.0473 47.3339 90.8968 47.0351C91.9906 47.8763 93.4668 47.818 91.4335 48.547C94.3504 48.827 93.167 48.0102 93.2858 47.9514C93.4272 47.8858 93.8641 48.1653 93.9586 48.0866ZM88.3448 47.8384C88.224 47.7772 87.2815 48.1302 86.9512 48.0526C87.3892 48.7287 89.1459 48.2539 88.3448 47.8384ZM33.7663 46.1779C33.7081 45.6603 33.5313 45.2741 32.7918 45.4397C33.0086 45.7067 33.4683 45.9463 33.7663 46.1779ZM256.366 56.2956C256.872 56.2862 257.887 56.147 257.55 56.6711C257.514 56.7153 256.351 56.5993 256.366 56.2956ZM73.9982 47.1209C74.1064 47.0618 76.8774 47.1305 75.898 47.66C75.6016 47.8196 73.0883 47.6462 73.9982 47.1209ZM59.6422 46.6221C59.8742 46.6256 60.8131 46.759 60.8286 46.8816C60.8759 47.3049 59.7279 47.0288 59.6422 46.6221ZM258.939 55.9076C259.009 55.8578 260.545 56.0362 260.362 56.2766C260.015 56.731 258.702 56.079 258.939 55.9076ZM187.211 51.4194C187.083 51.3937 186.883 51.9437 186.838 51.9476C186.733 51.95 184.388 51.6131 185.251 52.3771C185.394 52.505 188.8 52.4055 189.243 52.3575C189.453 51.5993 187.969 52.2538 187.621 52.1566C187.56 52.1384 187.553 51.4946 187.212 51.4227C187.211 51.4216 187.211 51.4205 187.211 51.4194ZM29.9704 45.4952C29.8839 45.0033 27.1241 44.5792 27.1349 45.1717C28.0798 45.2795 29.0249 45.3873 29.9704 45.4952ZM31.3815 45.4658C31.9853 45.1422 30.605 44.9773 30.1906 45.1147C30.1743 45.4429 31.2939 45.5131 31.3815 45.4658ZM64.9655 45.0028C65.2393 45.133 64.355 45.8116 64.5412 45.9575C64.6606 46.0485 65.2934 45.8059 65.4833 46.0364C65.5368 46.1094 64.8756 46.7538 64.6932 46.7177C64.4341 46.669 64.7074 46.1521 64.4231 46.1374C63.4787 46.0892 62.6302 46.4325 61.7448 46.3894C61.6648 46.3845 62.3001 46.0366 61.617 46.0154C61.5115 46.0114 60.856 46.5408 60.0438 46.4272C58.3116 44.642 56.9195 46.2757 54.6604 45.5699C54.7523 45.4115 56.4775 45.0435 56.5792 45.0314C58.5038 44.8224 61.9285 44.9236 63.926 44.9979C64.4394 45.0164 64.176 45.3698 64.3966 45.3918C64.5711 45.4084 64.3893 44.7279 64.9655 45.0028ZM256.118 55.9096C256.395 55.2515 257.215 55.7222 257.756 55.7168C257.533 56.3119 256.653 55.7895 256.118 55.9096ZM43.8415 45.4046C44.1103 45.4406 44.9546 45.2696 45.0163 45.4744C45.0954 45.7418 43.8814 45.8633 43.8415 45.4046ZM173.92 50.9265C173.895 50.9068 173.244 50.9097 173.218 50.9296C172.611 51.4387 174.563 51.4276 173.92 50.9265ZM158.391 50.2731C157.903 50.1658 157.417 49.9313 157.224 50.4678C157.542 50.3999 158.43 50.6554 158.391 50.2731ZM136.99 49.2137C137.125 48.5052 135.619 48.8966 135.337 48.9473C135.425 49.2692 136.89 49.7241 136.99 49.2137ZM33.9553 43.9415C33.0471 43.9504 33.2781 42.8764 32.6847 43.3446C32.5878 43.4238 32.2018 45.6638 33.2289 44.8569C33.4138 44.7118 32.7318 44.1511 33.9553 43.9415ZM83.8452 46.9532C83.6344 46.4717 82.9099 46.5823 82.4235 46.6003C82.5177 46.9555 83.5006 46.9053 83.8452 46.9532ZM261.752 55.5196C262.213 54.8767 264.15 55.4778 263.64 55.8914C263.568 55.945 262.028 55.5094 261.752 55.5196ZM197.233 52.3183C196.453 51.7514 198.133 51.6766 198.633 52.2169C198.396 52.1707 197.285 52.3556 197.233 52.3183ZM142.147 49.0722C142.11 49.0488 141.254 49.0583 141.213 49.0823C140.486 49.5964 142.911 49.5725 142.147 49.0722ZM163.539 49.6624C163.251 49.2152 161.205 49.4619 160.731 49.8716C161.134 50.5245 163.894 50.2208 163.539 49.6624ZM37.6731 44.3859C37.0272 44.3396 36.4089 44.45 35.8083 44.6149C35.9197 44.9832 37.5946 44.655 37.6731 44.3859ZM139.007 48.876C138.961 48.8768 138.914 48.9158 138.87 48.9181C138.917 48.9049 138.962 48.8894 139.007 48.876ZM52.15 44.6715C52.697 44.5484 52.5593 45.2105 52.5252 45.2296C52.1094 45.43 51.5309 44.8104 52.15 44.6715ZM256.791 54.9548C257.012 54.3642 257.898 54.8798 258.43 54.7653C258.252 55.2316 257.21 55.0408 256.791 54.9548ZM96.2861 46.9516C96.9915 46.3285 94.2662 45.4542 93.6612 45.8496C93.6049 46.2506 96.1814 47.0364 96.2861 46.9516ZM199.786 51.5486C199.865 51.0806 200.998 51.71 200.739 51.9195C200.575 52.0528 199.738 51.8394 199.786 51.5486ZM92.2569 46.0657C92.0029 45.911 91.3783 46.3505 91.5795 46.6428C91.8377 47.0174 92.3223 46.1097 92.2569 46.0657ZM68.9522 44.7384C69.0687 44.6709 70.581 45.2151 69.9296 45.6706C69.4772 45.9872 69.4343 45.3034 69.3312 45.2973C69.2152 45.2949 66.7273 46.0316 68.9522 44.7384ZM111.793 47.2144C111.227 47.0078 110.519 47.1871 109.915 47.1474C110.149 47.4496 111.532 47.5905 111.793 47.2144ZM195.31 51.1874C195.461 51.0042 199.285 51.0898 197.086 51.5623C196.957 51.5887 194.854 51.7418 195.31 51.1874ZM33.9553 43.9415C34.0698 43.9404 34.2026 43.9227 34.3574 43.8818C34.2047 43.8945 34.0713 43.9216 33.9553 43.9415ZM44.2499 44.2512C44.0541 43.9004 45.1084 43.848 45.4119 44.0422C45.4917 44.4648 44.2767 44.3003 44.2499 44.2512ZM109.89 46.667C109.551 46.4554 108.91 46.6369 108.481 46.5952C108.539 46.9171 109.725 46.9842 109.89 46.667ZM134.313 47.4253C133.615 47.5821 132.772 47.455 132.777 47.0645C132.76 47.1248 132.724 47.1879 132.665 47.2503C132.606 47.312 131.873 47.0958 131.545 47.2138C129.586 47.9134 138.947 48.0288 133.583 46.6718C133.826 46.9229 134.07 47.1741 134.313 47.4253ZM166.327 48.8829C166.743 48.4281 167.812 49.0782 167.517 49.2506C167.312 49.3686 165.911 49.3408 166.327 48.8829ZM151.26 47.8508C151.381 47.7719 152.435 48.1569 152.45 48.4082C151.821 48.6412 150.708 48.2182 151.26 47.8508ZM169.371 48.4796C169.62 48.4204 169.895 49.2015 169.864 49.2334C169.6 49.5001 168.937 48.8847 169.371 48.4796ZM35.9086 41.948C36.2829 41.7422 37.4307 42.3394 37.6666 42.8544C37.7175 42.7584 37.8499 42.6356 38.0895 42.4913C38.0888 42.4913 38.0881 42.4912 38.0874 42.4912C38.4108 42.2981 47.8589 42.4264 41.4908 43.1644C41.2913 43.1882 41.579 42.7444 40.7691 42.7944C40.7155 42.7983 40.6753 43.1678 40.51 43.1798C40.1296 43.2048 38.104 43.3634 37.7085 43.0502C37.7026 43.1188 37.6739 43.1831 37.616 43.241C37.0985 43.757 35.6182 42.1065 35.9086 41.948ZM149.137 47.6788C149.359 47.5521 150.037 47.7159 150.092 48.0462C149.745 48.1897 148.62 47.9744 149.137 47.6788ZM195.499 49.8529C195.953 49.6072 197.042 50.1681 196.691 50.4175C196.475 50.5709 194.975 50.1348 195.499 49.8529ZM155.968 48.19C153.43 48.4516 155.369 48.129 155.007 47.6307C155.329 47.8172 155.647 48.0035 155.968 48.19ZM24.186 42.7598C24.5923 42.6641 24.1537 41.7007 23.6922 42.1981C23.5472 42.3561 23.9587 42.8116 24.186 42.7598ZM6.02121 41.8117C6.39499 40.985 4.69864 41.4178 5.33231 42.0169C5.36203 42.0373 5.99548 41.8427 6.02121 41.8117ZM18.7351 41.9251C18.9877 42.5062 19.1632 42.5804 19.9378 42.467C18.8044 42.2649 19.8792 41.7978 18.7351 41.9251ZM132.788 47.0035C132.782 47.0263 132.778 47.0432 132.777 47.0645C132.783 47.0438 132.786 47.024 132.788 47.0035ZM171.731 48.7484C172.071 48.2808 172.955 48.3615 172.666 48.8348C172.638 48.8786 171.842 49.1123 171.731 48.7484ZM37.6666 42.8544C37.6214 42.9396 37.6407 42.9964 37.7085 43.0502C37.7142 42.9857 37.6984 42.924 37.6666 42.8544ZM167.003 48.1137C167.016 48.4761 165.664 48.5485 165.612 48.5035C164.873 47.8389 166.448 48.0638 167.003 48.1137ZM204.427 49.8139C204.495 49.8553 203.998 50.763 203.743 50.3836C203.545 50.0892 204.175 49.6569 204.427 49.8139ZM16.13 41.5982C15.703 41.5835 15.1023 41.5614 14.9755 42.0002C15.2639 41.9425 16.1271 41.9234 16.13 41.5982ZM6.69998 41.2274C7.18591 41.766 8.33795 41.8057 9.07742 41.7464C9.11539 41.0618 7.16757 41.4055 6.69998 41.2274ZM34.7426 42.1608C34.7791 42.1343 35.8553 41.9692 35.6925 42.4224C35.4546 43.087 34.4316 42.3991 34.7426 42.1608ZM202.327 50.1987C201.866 49.858 203.016 48.946 203.48 49.7218C203.719 50.1191 202.404 50.2558 202.327 50.1987ZM174.526 48.2559C175.141 48.5532 173.559 48.9461 173.363 48.4557C173.657 48.4321 174.306 48.1506 174.526 48.2559ZM153.091 46.694C155.148 45.4099 153.94 47.8779 153.599 47.6388C153.55 47.6047 153.041 46.7241 153.091 46.694ZM266.838 53.0267C267.11 53.234 266.022 53.8723 265.911 53.407C265.843 53.1159 266.665 52.8945 266.838 53.0267ZM123.138 46.166C123.222 46.1743 123.305 46.1826 123.387 46.1904C123.326 46.165 123.245 46.1539 123.138 46.166ZM180.345 46.6981C178.847 48.5774 179.071 47.0811 178.949 47.0831C178.687 47.0906 178.048 47.5868 177.557 47.4748C178.114 47.7236 178.67 47.9724 179.224 48.2212C178.773 48.3391 174.837 48.8578 174.775 48.5375C174.681 48.0809 175.897 48.2848 175.935 48.2469C175.99 48.193 176.245 46.9501 176.361 46.9083C176.552 46.8416 179.809 46.9826 180.345 46.6981ZM157.236 47.116C156.909 47.2491 156.794 47.741 156.652 47.615C156.603 47.5719 156.618 47.098 156.452 46.967C156.713 47.0166 156.975 47.0663 157.236 47.116ZM182.762 48.5816C183.189 48.0235 181.399 48.1515 181.339 48.2134C181.015 48.5898 182.413 49.0373 182.762 48.5816ZM167.697 47.7276C167.763 47.6971 169.139 47.5856 169.111 47.906C168.737 48.1324 166.908 48.1115 167.697 47.7276ZM156.241 46.9241C155.76 46.9556 154.832 47.3877 154.97 46.6798C154.971 46.6799 154.972 46.6799 154.972 46.68C155.398 46.7614 155.818 46.8427 156.241 46.9241ZM200.768 48.607C201.717 47.5186 201.22 48.9309 200.414 49.2557C200.202 48.7335 200.613 48.7841 200.768 48.607ZM203.655 47.9105C203.912 47.7191 206.448 48.0776 206.028 48.6578C205.878 48.8646 204.442 48.2472 204.372 48.2852C204.267 48.3414 204.699 49.0306 203.925 48.8577C203.982 48.6349 203.567 47.9742 203.655 47.9105ZM201.542 47.9189C202.472 47.1021 202.585 48.7049 201.921 48.6742C201.662 48.6634 201.41 48.0368 201.542 47.9189ZM197.93 47.865C198.255 47.7306 199.112 47.5547 199.667 48.115C198.884 48.1192 198.103 48.1235 197.321 48.1278C197.247 47.8231 197.646 47.9832 197.932 47.8651C197.932 47.8651 197.931 47.865 197.93 47.865ZM1.5347 36.9541C2.25351 36.5274 0.64093 36.2963 0.568298 36.4049C0.351776 36.7662 1.21344 37.1447 1.5347 36.9541ZM273.108 38.8607C273.313 38.6913 273.473 38.1061 273.885 38.4398C273.43 38.8534 272.974 39.267 272.518 39.6806C272.238 38.6607 272.884 39.0476 273.108 38.8607ZM274.956 35.2908C274.897 35.2632 275.314 33.7411 274.47 34.7265C273.9 35.3917 276.758 36.2263 277.317 35.5718C276.757 35.223 275.471 35.5172 274.956 35.2908ZM280.391 28.9003C280.431 28.7792 279.341 28.5391 279.209 28.6187C278.515 29.0387 280.174 29.5485 280.391 28.9003ZM276.866 29.0028C277.398 28.7319 276.266 28.4767 275.916 28.6303C275.868 28.9152 276.784 29.0421 276.866 29.0028ZM9.4462 14.8822C10.0426 13.8546 10.4615 16.1279 9.61804 15.6426C9.57779 15.6198 9.42053 14.9327 9.4462 14.8822ZM279.4 27.2879C278.868 27.5589 280 27.814 280.35 27.6604C280.397 27.3758 279.481 27.2484 279.4 27.2879ZM9.92905 12.4005C10.6982 11.6732 10.3462 14.1941 10.2498 14.2928C9.85333 14.6818 8.5791 13.6417 8.32077 13.3853C10.2667 13.8352 9.56708 12.7433 9.92905 12.4005ZM13.2966 14.0427C13.9753 14.3374 12.1976 14.7905 11.8874 14.0731C12.2283 14.1191 13.1034 13.9577 13.2966 14.0427ZM17.5038 13.3815C17.8773 13.3042 18.986 13.1268 19.1563 13.5316C18.7548 13.445 17.6453 13.7967 17.5038 13.3815ZM18.3848 12.2187C18.9829 11.6986 19.0649 13.2797 18.4147 12.7863C18.3894 12.7671 18.3625 12.248 18.3848 12.2187ZM21.6581 11.767C22.0604 11.1539 22.4384 12.696 21.8218 12.7149C21.6388 12.7177 21.6153 11.8374 21.6581 11.767ZM10.9555 9.71173C11.5087 9.46205 12.1696 10.5803 11.0051 10.6587C11.4066 10.8404 11.8082 11.022 12.2097 11.2037C10.6681 11.7619 10.8338 10.2499 10.3951 10.297C9.78201 10.3642 9.78528 11.6169 9.89368 12.0141C9.42029 11.2297 7.29831 11.1414 6.07516 10.9515C7.16638 10.6685 8.93539 10.1735 10.0084 10.008C10.3146 9.95986 10.5974 10.3135 10.8579 10.2844C11.2758 10.236 10.9244 9.72876 10.9534 9.71165C10.9541 9.71168 10.9548 9.7117 10.9555 9.71173ZM25.9349 11.8991C27.0765 11.2296 26.3152 12.737 25.6948 12.4407C25.6686 12.4187 25.9065 11.9155 25.9349 11.8991ZM281.132 22.7138C279.608 23.2728 280.644 24.1804 277.6 22.722C278.858 23.7056 277.636 23.382 277.872 23.7638C278.061 24.0661 278.841 23.8669 278.363 24.4289C278.985 23.8227 281.522 24.1382 281.641 24.0407C281.64 24.0407 281.639 24.0406 281.638 24.0406C281.709 23.9829 281.618 22.5361 281.132 22.7138ZM17.6534 9.37286C18.0926 7.52614 18.1322 10.4838 18.9193 8.96848C19.8127 11.2423 16.2285 8.87192 15.7172 10.7469C19.7042 10.6703 13.0208 12.5261 15.9001 9.79535C13.5749 10.7405 15.1629 9.41784 14.8226 9.04447C14.4585 8.64669 13.1489 9.01776 13.2395 8.32727C13.2402 8.32729 13.2409 8.32732 13.2416 8.32734C14.0318 8.40426 14.8218 8.48119 15.6118 8.55813C14.7832 10.0249 16.417 9.63486 17.0096 8.43683C17.2242 8.74884 17.4388 9.06085 17.6534 9.37286ZM13.1221 10.6149C13.2014 10.5835 14.916 10.8548 14.794 11.1508C14.5573 11.3338 12.1213 11.0167 13.1221 10.6149ZM5.55621 10.0168C6.17487 10.0353 7.1413 9.77798 7.45792 10.3536C6.83957 10.3352 5.8728 10.5928 5.55621 10.0168ZM37.4008 11.062C38.1719 11.5534 35.7406 11.6011 36.4626 11.0792C36.4981 11.0547 37.3629 11.0389 37.4008 11.062ZM19.4361 9.71869C20.2579 9.17911 19.814 10.9749 19.2373 10.4819C19.2039 10.4529 19.3981 9.74328 19.4361 9.71869ZM279.937 22.4283C279.908 21.9825 277.731 22.1758 277.348 22.151C277.543 22.5746 279.971 22.9395 279.937 22.4283ZM4.52802 8.31943C5.81378 6.76935 7.41888 8.67037 7.60287 8.63667C7.78629 8.60219 7.52582 7.89516 7.56796 7.87795C7.66415 7.84225 9.59937 7.97013 9.69202 8.02201C9.75784 8.06224 9.37186 9.02888 9.76108 9.35168C9.00043 8.76728 5.44467 8.98852 5.26428 8.87342C5.12497 8.78167 6.23492 7.79179 4.53015 8.3195C4.52945 8.31948 4.52875 8.31945 4.52802 8.31943ZM8.06784 8.43968C7.56906 8.8328 8.92477 8.93279 9.25864 8.79309C10.001 8.48029 8.13168 8.39326 8.06784 8.43968ZM11.3476 8.17847C11.506 8.09196 12.9085 8.05854 13.011 8.51976C12.3275 9.08877 10.9882 8.38037 11.3476 8.17847ZM26.923 8.80144C27.2846 8.87318 28.2977 8.55839 28.3405 8.95977C27.9784 8.88828 26.9656 9.20283 26.923 8.80144ZM272.756 18.5442C273.378 18.2433 271.988 18.0307 271.571 18.1686C271.534 18.4335 272.704 18.5701 272.756 18.5442ZM19.7094 5.90554C19.9291 5.79181 24.3106 6.25344 24.9203 6.46284C24.3063 6.74287 19.9525 6.60887 19.7603 6.45444C19.7042 6.40824 19.6813 5.92366 19.7094 5.90554ZM10.2181 5.38C9.83646 4.77756 9.54837 5.47338 9.49725 5.48041C8.99615 5.55255 7.96896 5.38301 8.17493 5.95745C9.06094 5.76039 10.9781 6.57643 10.2181 5.38ZM27.3319 6.15214C28.816 6.42454 25.9278 6.93995 26.3261 6.33899C26.3516 6.30271 27.1785 6.12362 27.3319 6.15214ZM19.2249 5.71651C18.9129 5.22946 14.5051 5.48122 13.7997 5.45667C14.4 6.35571 14.9331 5.70835 15.78 5.78353C16.0085 5.80486 15.9342 6.16724 15.9588 6.1687C16.3546 6.19984 16.0731 5.7681 16.3177 5.77049C16.472 5.77312 19.6638 6.4026 19.2249 5.71651ZM10.0029 4.96442C9.76852 4.6185 7.03271 4.37664 6.91867 4.46226C6.06985 5.09894 9.7847 5.07407 10.0029 4.96442ZM19.656 4.95191C19.2203 3.91638 17.0136 4.51991 18.4888 5.08142C18.6297 5.13275 19.2496 4.713 19.656 4.95191ZM27.2078 5.1765C27.2822 5.14919 28.8455 5.00216 28.8613 5.32723C28.6321 5.44497 26.3604 5.47559 27.2078 5.1765ZM26.4412 4.05129C26.4784 4.06043 26.0911 4.67133 26.8232 4.6187C26.8843 4.61347 27.0231 3.91535 27.9306 4.20572C28.1148 4.26542 28.3862 4.74045 28.3644 4.76856C27.3692 5.8358 24.5715 3.62097 26.4412 4.05129ZM9.97299 4.39362C10.1315 4.10251 9.80643 3.20998 9.46881 3.64398C9.32407 3.83142 9.56238 4.36861 9.97299 4.39362ZM32.1508 5.07165C31.2662 4.50507 34.1082 4.50795 34.2479 4.64986C34.1442 4.97882 32.24 5.12707 32.1508 5.07165ZM271.568 14.3519C271.569 14.352 271.569 14.352 271.57 14.3521C270.804 14.4314 271.25 14.9006 271.214 14.9126C269.561 15.4758 270.044 14.4947 269.798 14.3624C269.269 14.0764 269.29 15.3027 268.403 14.7464C269.875 15.5767 268.515 15.1881 268.448 15.6204C268.182 17.3846 270.507 14.8997 271.241 15.3126C271.344 15.3698 270.537 15.8935 270.797 16.0691C271.644 16.6386 274.508 14.0489 271.568 14.3519ZM9.22369 3.55751C8.89026 3.02353 6.19724 3.43342 6.89105 3.88832C7.00293 3.96126 9.71466 4.33598 9.22369 3.55751ZM134.39 7.82099C133.767 7.33965 135.284 6.87979 135.543 7.24384C135.672 7.42515 134.665 8.03225 134.39 7.82099ZM144.944 6.39087C145.704 6.51931 146.42 8.43888 145.482 8.10102C145.383 8.06423 144.844 6.6475 144.944 6.39087ZM94.6328 5.08387C95.4617 4.44537 95.3615 5.69238 94.7744 5.64998C94.5672 5.63523 94.6067 5.10408 94.6328 5.08387ZM125.136 6.58739C125.219 6.5475 126.141 6.66979 126.093 6.9552C125.748 7.11187 124.602 6.86275 125.136 6.58739ZM94.3862 4.89541C94.8512 5.14049 93.9964 6.00948 93.4548 5.10236C93.7457 5.1871 94.3383 4.87035 94.3862 4.89541ZM21.4043 2.2505C21.782 2.77778 22.9085 2.66326 23.5493 2.77471C23.6427 2.1126 21.8599 2.38758 21.4043 2.2505ZM141.659 6.99073C142.362 7.49364 140.791 7.80255 140.963 7.19057C140.984 7.15789 141.632 6.96939 141.659 6.99073ZM68.8581 3.79019C69.3685 4.20723 67.6779 4.67478 68.1647 3.99607C68.1884 3.96854 68.8301 3.76699 68.8581 3.79019ZM61.5485 3.73544C61.9525 3.61708 63.6566 3.72427 62.9778 4.0853C62.8721 4.14071 61.5642 4.09966 61.5485 3.73544ZM269.779 13.8819C270.031 13.2114 268.776 13.3059 268.591 13.4154C268.518 13.4612 269.451 14.7541 269.779 13.8819ZM99.8311 5.19748C100.244 5.30064 101.318 5.18408 101.492 5.5503C100.99 5.45446 99.6663 5.90501 99.8311 5.19748ZM138.358 6.8299C139.028 6.11856 140.097 6.24293 139.786 7.19911C138.6 7.07751 139.978 6.33543 138.358 6.8299ZM91.7587 3.98555C92.0937 3.94285 92.3069 4.88407 92.268 4.92636C91.8933 5.32857 91.4129 4.33384 91.7587 3.98555ZM116.616 5.82841C116.654 5.43165 117.708 5.65981 117.554 5.9094C117.505 5.99327 116.587 6.14957 116.616 5.82841ZM35.3165 2.52986C35.8166 2.18462 34.3432 1.77511 33.8884 2.18293C33.6523 2.78588 35.2534 2.56928 35.3165 2.52986ZM82.5496 3.839C82.5236 3.24667 84.1758 3.64835 83.4994 4.11083C83.33 4.22653 82.5588 4.03706 82.5496 3.839ZM66.672 2.49697C67.7582 3.24427 63.0614 3.56184 64.3246 2.73251C64.4141 2.67333 66.5765 2.43365 66.672 2.49697ZM59.0139 2.64079C59.2094 2.57062 59.1893 0.583286 58.364 1.31769C58.2557 1.41288 58.7244 1.95598 58.6343 2.07264C58.5811 2.13902 56.8411 2.35145 56.7636 2.30215C56.68 2.24629 56.805 1.61437 56.7209 1.53974C56.6263 1.4563 55.541 1.97422 54.982 1.95909C53.9301 1.92959 53.8371 1.39616 53.751 1.39113C53.5001 1.3781 53.0641 1.73784 52.5559 1.71815C49.9901 1.61671 46.0842 1.0212 44.0117 2.0677C45.8347 1.68437 47.5457 2.22705 49.3371 2.44168C48.8511 1.3172 51.9536 3.39251 50.1438 2.04795C50.992 2.35619 58.372 2.85812 59.0118 2.64071C59.0125 2.64074 59.0132 2.64076 59.0139 2.64079ZM147.994 5.98149C147.559 5.28174 149.957 5.55105 150.125 6.34435C149.8 6.43742 148.049 6.06106 147.994 5.98149ZM136.939 3.79599C136.721 3.66854 136.57 2.33502 135.366 2.9508C135.365 2.95075 135.364 2.9507 135.362 2.95065C135.01 3.13048 135.386 3.47136 135.318 3.5833C135.292 3.62912 134.193 4.23707 135.075 4.38475C136.422 4.61109 135.249 3.40626 135.972 3.42637C136.06 3.42941 137.396 4.21057 137.309 4.36406C137.3 4.38199 136.895 4.21092 136.824 4.27305C136.555 4.50656 136.66 4.92573 136.623 4.94368C136.501 4.98832 134.376 4.18243 134.027 4.78233C133.921 4.97586 137.445 5.60067 137.591 5.50449C137.682 5.4437 137.699 4.29486 137.795 4.18636C137.844 4.13231 139.26 4.63045 139.447 4.53374C139.502 4.5058 139.545 4.47487 139.577 4.44921C139.344 4.79379 140.637 4.8299 140.617 4.42762C140.602 4.26915 139.708 4.31777 139.675 4.34378C139.66 4.35476 139.647 4.37024 139.635 4.38077C139.845 3.95716 136.818 3.83285 137.502 3.22026C136.643 2.82615 137.581 4.17036 136.939 3.79599ZM132.767 2.89012C132.852 3.015 132.936 3.13988 133.021 3.26476C132.179 3.06124 131.254 3.12365 130.298 3.20521C129.523 3.2705 128.728 3.34819 127.942 3.30988C127.494 3.28896 128.043 2.57492 127.447 2.74944C126.97 2.88932 126.42 3.5498 126.668 3.71414C126.728 3.75506 127.704 3.3534 128.181 3.42136C129.591 3.6224 129.205 4.23865 129.287 4.25956C129.35 4.27516 129.819 4.08127 130.262 3.97886C130.449 3.93521 130.631 3.90812 130.775 3.92078C131.993 4.02892 132.532 4.4434 134.229 4.01457C133.283 3.55215 133.854 2.67107 132.767 2.89012ZM75.6052 1.7653C75.5626 1.36458 74.5444 1.67796 74.1826 1.60497C74.2239 2.00659 75.2421 1.69214 75.6052 1.7653ZM224.883 8.40915C225.155 9.07888 222.846 9.11749 223.481 8.60622C223.622 8.49275 224.594 8.3983 224.883 8.40915ZM214.52 8.25445C214.222 8.05745 215.486 7.65298 215.457 8.15851C215.446 8.32055 214.558 8.28004 214.52 8.25445ZM112.935 2.63015C112.877 2.60707 112.019 2.71491 111.991 2.747C111.397 3.41606 114.212 3.13887 112.935 2.63015ZM201.985 6.78482C203.036 7.2695 199.795 7.28527 200.811 6.79115C200.862 6.76713 201.935 6.76128 201.985 6.78482ZM197.498 6.42953C197.755 6.46594 198.91 6.31328 198.915 6.51345C198.921 6.83627 197.599 6.98741 197.498 6.42953ZM91.6372 1.50679C91.7923 0.775436 90.2554 1.27012 89.7348 1.15565C89.5793 1.88748 91.1141 1.39175 91.6372 1.50679ZM101.194 1.36705C94.8479 0.514757 96.1858 2.1478 101.558 1.74205C101.586 1.2699 101.594 1.42082 101.194 1.36705ZM93.0349 1.1087C93.2461 1.59021 93.9744 1.48059 94.4651 1.46337C94.3908 1.13161 93.383 1.20821 93.0349 1.1087ZM227.679 7.54503C227.312 6.92791 225.508 7.56772 225.809 7.83026C225.879 7.88721 227.807 7.88047 227.679 7.54503ZM112.427 1.97622C112.607 1.26651 110.678 1.47403 110.526 1.62675C109.907 2.24049 112.278 1.81111 112.427 1.97622ZM82.623 0.503954C82.3077 -0.0709057 81.3367 0.178709 80.7208 0.161242C80.9815 0.652344 82.0983 0.492691 82.623 0.503954ZM87.0945 0.246735C87.0565 0.223585 86.1931 0.2388 86.1537 0.263063C85.4255 0.782042 87.8678 0.741962 87.0945 0.246735ZM272.915 9.02462C272.887 9.005 272.236 9.00535 272.212 9.02519C271.603 9.53193 273.558 9.52818 272.915 9.02462Z" fill="#BB6EF6"/>
</svg>
