<svg width="105" height="105" viewBox="0 0 105 105" fill="none" xmlns="http://www.w3.org/2000/svg">
<path d="M52.2 16.7868C63.7344 16.7868 65.1024 16.83 69.66 17.0388C81.3672 17.5716 86.8356 23.1264 87.3684 34.7472C87.5772 39.3012 87.6168 40.6692 87.6168 52.2036C87.6168 63.7416 87.5736 65.106 87.3684 69.66C86.832 81.27 81.378 86.8356 69.66 87.3684C65.1024 87.5772 63.7416 87.6204 52.2 87.6204C40.6656 87.6204 39.2976 87.5772 34.7436 87.3684C23.0076 86.832 17.568 81.252 17.0352 69.6564C16.8264 65.1024 16.7832 63.738 16.7832 52.2C16.7832 40.6656 16.83 39.3012 17.0352 34.7436C17.5716 23.1264 23.0256 17.568 34.7436 17.0352C39.3012 16.83 40.6656 16.7868 52.2 16.7868ZM52.2 9C40.4676 9 38.9988 9.0504 34.3908 9.2592C18.702 9.9792 9.9828 18.684 9.2628 34.3872C9.0504 38.9988 9 40.4676 9 52.2C9 63.9324 9.0504 65.4048 9.2592 70.0128C9.9792 85.7016 18.684 94.4208 34.3872 95.1408C38.9988 95.3496 40.4676 95.4 52.2 95.4C63.9324 95.4 65.4048 95.3496 70.0128 95.1408C85.6872 94.4208 94.428 85.716 95.1372 70.0128C95.3496 65.4048 95.4 63.9324 95.4 52.2C95.4 40.4676 95.3496 38.9988 95.1408 34.3908C94.4352 18.7164 85.7196 9.9828 70.0164 9.2628C65.4048 9.0504 63.9324 9 52.2 9ZM52.2 30.0168C39.9492 30.0168 30.0168 39.9492 30.0168 52.2C30.0168 64.4508 39.9492 74.3868 52.2 74.3868C64.4508 74.3868 74.3832 64.4544 74.3832 52.2C74.3832 39.9492 64.4508 30.0168 52.2 30.0168ZM52.2 66.6C44.2476 66.6 37.8 60.156 37.8 52.2C37.8 44.2476 44.2476 37.8 52.2 37.8C60.1524 37.8 66.6 44.2476 66.6 52.2C66.6 60.156 60.1524 66.6 52.2 66.6ZM75.2616 23.958C72.396 23.958 70.074 26.28 70.074 29.142C70.074 32.004 72.396 34.326 75.2616 34.326C78.1236 34.326 80.442 32.004 80.442 29.142C80.442 26.28 78.1236 23.958 75.2616 23.958Z" fill="black"/>
<path fill-rule="evenodd" clip-rule="evenodd" d="M52.2 16.7868C63.7344 16.7868 65.1024 16.83 69.66 17.0388C81.3672 17.5716 86.8356 23.1264 87.3684 34.7472C87.5772 39.3012 87.6168 40.6692 87.6168 52.2036C87.6168 63.7416 87.5736 65.106 87.3684 69.66C86.832 81.27 81.378 86.8356 69.66 87.3684C65.1024 87.5772 63.7416 87.6204 52.2 87.6204C40.6656 87.6204 39.2976 87.5772 34.7436 87.3684C23.0076 86.832 17.568 81.252 17.0352 69.6564C16.8264 65.1024 16.7832 63.738 16.7832 52.2C16.7832 40.6656 16.83 39.3012 17.0352 34.7436C17.5716 23.1264 23.0256 17.568 34.7436 17.0352C39.3012 16.83 40.6656 16.7868 52.2 16.7868ZM30.0168 52.2C30.0168 39.9492 39.9492 30.0168 52.2 30.0168C64.4508 30.0168 74.3832 39.9492 74.3832 52.2C74.3832 64.4544 64.4508 74.3868 52.2 74.3868C39.9492 74.3868 30.0168 64.4508 30.0168 52.2ZM70.074 29.142C70.074 26.28 72.396 23.958 75.2616 23.958C78.1236 23.958 80.442 26.28 80.442 29.142C80.442 32.004 78.1236 34.326 75.2616 34.326C72.396 34.326 70.074 32.004 70.074 29.142Z" fill="white"/>
<path d="M52.2 66.6C44.2476 66.6 37.8 60.156 37.8 52.2C37.8 44.2476 44.2476 37.8 52.2 37.8C60.1524 37.8 66.6 44.2476 66.6 52.2C66.6 60.156 60.1524 66.6 52.2 66.6Z" fill="white"/>
<path d="M52.2002 4.5C63.9548 4.5 65.5084 4.55041 70.2236 4.76758L70.2227 4.76855C78.8578 5.16452 86.1518 7.80076 91.3857 13.0381C96.6198 18.2755 99.2486 25.5671 99.6367 34.1885H99.6357C99.8491 38.897 99.9004 40.4462 99.9004 52.2002C99.9004 63.9545 99.85 65.5082 99.6328 70.2197C99.2421 78.8554 96.6049 86.1462 91.3672 91.3789C86.1299 96.6112 78.8382 99.2398 70.2197 99.6357H70.2168C65.5072 99.8491 63.9551 99.9004 52.2002 99.9004C40.4451 99.9004 38.8967 99.8491 34.1836 99.6357H34.1807C25.5471 99.2398 18.2552 96.6071 13.0215 91.3711C7.78819 86.1354 5.15951 78.844 4.76367 70.2188V70.2168C4.55027 65.5072 4.5 63.9551 4.5 52.2002C4.5 40.4454 4.55041 38.8949 4.76758 34.1797C5.16366 25.5465 7.79645 18.255 13.0322 13.0215C18.268 7.78809 25.5592 5.15951 34.1846 4.76367H34.1875C38.8968 4.55028 40.4454 4.5 52.2002 4.5Z" stroke="white" stroke-width="9"/>
</svg>
