<svg width="106" height="105" viewBox="0 0 106 105" fill="none" xmlns="http://www.w3.org/2000/svg">
<path d="M78.3004 9H27.9004C17.9608 9 9.90039 17.0604 9.90039 27V77.4C9.90039 87.3396 17.9608 95.4 27.9004 95.4H78.3004C88.2436 95.4 96.3004 87.3396 96.3004 77.4V27C96.3004 17.0604 88.2436 9 78.3004 9ZM38.7004 77.4H27.9004V37.8H38.7004V77.4ZM33.3004 33.2352C29.8228 33.2352 27.0004 30.3912 27.0004 26.8848C27.0004 23.3784 29.8228 20.5344 33.3004 20.5344C36.778 20.5344 39.6004 23.3784 39.6004 26.8848C39.6004 30.3912 36.7816 33.2352 33.3004 33.2352ZM81.9004 77.4H71.1004V57.2256C71.1004 45.1008 56.7004 46.0188 56.7004 57.2256V77.4H45.9004V37.8H56.7004V44.154C61.726 34.8444 81.9004 34.1568 81.9004 53.0676V77.4Z" fill="black"/>
<path d="M33.3004 33.2352C29.8228 33.2352 27.0004 30.3912 27.0004 26.8848C27.0004 23.3784 29.8228 20.5344 33.3004 20.5344C36.778 20.5344 39.6004 23.3784 39.6004 26.8848C39.6004 30.3912 36.7816 33.2352 33.3004 33.2352Z" fill="white"/>
<path d="M78.3008 4.5C90.7297 4.50021 100.801 14.5758 100.801 27V77.4004C100.801 89.8244 90.7295 99.9002 78.3008 99.9004H27.9004C15.4756 99.9004 5.4006 89.8251 5.40039 77.4004V27C5.40039 14.5751 15.4755 4.5 27.9004 4.5H78.3008ZM70.3818 42.4561C67.544 41.9417 64.7169 42.701 62.7578 44.0566C63.0877 44.0172 63.4208 43.9892 63.7568 43.9785C66.7907 43.8818 69.8615 45.0265 72.1377 47.4609C74.4183 49.9002 75.6006 53.2958 75.6006 57.2256V72.9004H77.4004V53.0674C77.4004 49.1533 76.3684 46.7069 75.1631 45.208C73.9542 43.7049 72.2894 42.8019 70.3818 42.4561ZM50.4004 72.9004H52.2002V57.2256C52.2002 53.6576 53.3117 50.6252 55.1143 48.3643C53.3781 47.7113 52.2003 46.044 52.2002 44.1543V42.2998H50.4004V72.9004ZM32.4004 72.9004H34.2002V42.2998H32.4004V72.9004Z" stroke="white" stroke-width="9" stroke-linejoin="round"/>
</svg>
