<svg width="98" height="98" viewBox="0 0 98 98" fill="none" xmlns="http://www.w3.org/2000/svg">
<g filter="url(#filter0_d_2205_120)">
<rect x="19" y="19" width="60" height="60" rx="10" fill="black"/>
<rect x="17" y="17" width="64" height="64" rx="12" stroke="white" stroke-width="4"/>
</g>
<path d="M48.3938 45.9905L51.5851 35.3591C51.9287 34.2143 53.1096 33.5728 54.2227 33.9262L70.3463 39.0456C71.4594 39.399 72.0832 40.6135 71.7396 41.7583L66.7619 58.3409C66.4183 59.4857 65.2374 60.1272 64.1243 59.7738L49.8242 55.2334M48.3938 45.9905L47.6914 41.4515C47.5083 40.2682 46.4272 39.4617 45.2767 39.6501L28.6121 42.378C27.4616 42.5663 26.6774 43.6781 26.8605 44.8613L29.5129 62.0004C29.696 63.1836 30.7771 63.9901 31.9275 63.8018L48.5922 61.0739C49.7427 60.8856 50.5269 59.7737 50.3438 58.5905L49.8242 55.2334M48.3938 45.9905L49.8242 55.2334M34.4415 47.2007C34.5788 48.0881 33.9907 48.922 33.1278 49.0632C32.265 49.2044 31.4542 48.5996 31.3169 47.7122C31.1795 46.8247 31.7677 45.9909 32.6305 45.8496C33.4934 45.7084 34.3042 46.3133 34.4415 47.2007ZM45.3073 55.307C45.4447 56.1944 44.8565 57.0282 43.9937 57.1695C43.1309 57.3107 42.32 56.7058 42.1827 55.8184C42.0454 54.931 42.6335 54.0972 43.4964 53.9559C44.3592 53.8147 45.17 54.4196 45.3073 55.307ZM57.3829 40.9004C57.1252 41.759 56.2395 42.2402 55.4047 41.9751C54.5699 41.71 54.102 40.7991 54.3598 39.9405C54.6175 39.082 55.5032 38.6008 56.338 38.8659C57.1728 39.1309 57.6407 40.0418 57.3829 40.9004ZM63.6525 53.1078C63.3948 53.9663 62.5091 54.4475 61.6743 54.1824C60.8395 53.9174 60.3716 53.0065 60.6294 52.1479C60.8871 51.2893 61.7728 50.8081 62.6076 51.0732C63.4424 51.3383 63.9103 52.2492 63.6525 53.1078ZM63.4293 42.8202C63.1716 43.6788 63.6394 44.5897 64.4742 44.8547C65.309 45.1198 66.1947 44.6386 66.4525 43.7801C66.7102 42.9215 66.2424 42.0106 65.4075 41.7455C64.5727 41.4804 63.687 41.9616 63.4293 42.8202ZM51.5598 49.2682C51.3021 50.1268 51.7699 51.0377 52.6048 51.3028C53.4396 51.5679 54.3253 51.0867 54.583 50.2281C54.8407 49.3695 54.3729 48.4586 53.5381 48.1936C52.7033 47.9285 51.8176 48.4097 51.5598 49.2682Z" stroke="white" stroke-width="1.5"/>
<defs>
<filter id="filter0_d_2205_120" x="0" y="0" width="98" height="98" filterUnits="userSpaceOnUse" color-interpolation-filters="sRGB">
<feFlood flood-opacity="0" result="BackgroundImageFix"/>
<feColorMatrix in="SourceAlpha" type="matrix" values="0 0 0 0 0 0 0 0 0 0 0 0 0 0 0 0 0 0 127 0" result="hardAlpha"/>
<feOffset/>
<feGaussianBlur stdDeviation="7.5"/>
<feComposite in2="hardAlpha" operator="out"/>
<feColorMatrix type="matrix" values="0 0 0 0 0 0 0 0 0 0 0 0 0 0 0 0 0 0 0.35 0"/>
<feBlend mode="normal" in2="BackgroundImageFix" result="effect1_dropShadow_2205_120"/>
<feBlend mode="normal" in="SourceGraphic" in2="effect1_dropShadow_2205_120" result="shape"/>
</filter>
</defs>
</svg>
