<svg width="4180" height="402" viewBox="0 0 4180 402" fill="none" xmlns="http://www.w3.org/2000/svg">
<g clip-path="url(#clip0_1277_6151)">
<path d="M377.622 241.375L178 220.136L380.484 109.001" stroke="#F6B254" stroke-width="26.625" stroke-linecap="round" stroke-linejoin="round"/>
<path d="M217.584 14.001L14 121.315M226.98 76.2964L23.3961 183.61" stroke="#F6B254" stroke-width="26.625" stroke-linecap="round" stroke-linejoin="round"/>
<path d="M43 282.49L118.747 231.001L172.575 380.604L255.771 311.875" stroke="#F6B254" stroke-width="26.25" stroke-linecap="round" stroke-linejoin="round"/>
<path d="M536.156 375.001L668.802 221.486L746 346.65" stroke="#F6B254" stroke-width="26.625" stroke-linecap="round" stroke-linejoin="round"/>
<path d="M512.263 45.2495L449.605 112.054L589 188.523L508.153 260.001" stroke="#F6B254" stroke-width="26.25" stroke-linecap="round" stroke-linejoin="round"/>
<path d="M793.501 221.001L605.78 87.8716M811 160.48L623.278 27.3506" stroke="#F6B254" stroke-width="26.625" stroke-linecap="round" stroke-linejoin="round"/>
<path d="M871 113.157L1024.51 245.803L899.351 323.001" stroke="#F6B254" stroke-width="26.625" stroke-linecap="round" stroke-linejoin="round"/>
<path d="M1200.75 89.2637L1133.95 26.6064L1057.48 166.001L986 85.1544" stroke="#F6B254" stroke-width="26.25" stroke-linecap="round" stroke-linejoin="round"/>
<path d="M1025 370.502L1158.13 182.781M1085.52 388.001L1218.65 200.279" stroke="#F6B254" stroke-width="26.625" stroke-linecap="round" stroke-linejoin="round"/>
<path d="M1640.62 241.375L1441 220.136L1643.48 109.001" stroke="#F6B254" stroke-width="26.625" stroke-linecap="round" stroke-linejoin="round"/>
<path d="M1480.58 14.001L1277 121.315M1489.98 76.2964L1286.4 183.61" stroke="#F6B254" stroke-width="26.625" stroke-linecap="round" stroke-linejoin="round"/>
<path d="M1306 282.49L1381.75 231.001L1435.57 380.604L1518.77 311.875" stroke="#F6B254" stroke-width="26.25" stroke-linecap="round" stroke-linejoin="round"/>
<path d="M1882 209.652L1892.07 118.618L2040.77 174.899L2042.58 67.001" stroke="#F6B254" stroke-width="26.25" stroke-linecap="round" stroke-linejoin="round"/>
<path d="M2009.78 297.14L1780.36 279.001M1984.42 354.81L1755 336.671" stroke="#F6B254" stroke-width="26.625" stroke-linecap="round" stroke-linejoin="round"/>
<path d="M1914.15 42.8017L1718.24 62.6441L1771.38 209.782" stroke="#F6B254" stroke-width="26.625" stroke-linecap="round" stroke-linejoin="round"/>
<path d="M2282 370.001L2258.19 250.526L2166.92 285.263L2136.5 174.444" stroke="#F6B254" stroke-width="26.25" stroke-linecap="round" stroke-linejoin="round"/>
<path d="M2422 36.751L2193.25 92.0681L2337.81 219.001" stroke="#F6B254" stroke-width="26.625" stroke-linecap="round" stroke-linejoin="round"/>
<path d="M2352.25 370.001L2428 152.688M2415.25 370.001L2491 152.688" stroke="#F6B254" stroke-width="26.625" stroke-linecap="round" stroke-linejoin="round"/>
<path d="M2898 227.001L2778.52 250.815L2813.26 342.083L2702.44 372.506" stroke="#F6B254" stroke-width="26.25" stroke-linecap="round" stroke-linejoin="round"/>
<path d="M2564.75 87.001L2620.07 315.75L2747 171.188" stroke="#F6B254" stroke-width="26.625" stroke-linecap="round" stroke-linejoin="round"/>
<path d="M2898 156.751L2680.69 81.001M2898 93.751L2680.69 18.001" stroke="#F6B254" stroke-width="26.625" stroke-linecap="round" stroke-linejoin="round"/>
<path d="M3062.16 375.001L3194.8 221.486L3272 346.65" stroke="#F6B254" stroke-width="26.625" stroke-linecap="round" stroke-linejoin="round"/>
<path d="M3038.26 45.2495L2975.61 112.054L3115 188.523L3034.15 260.001" stroke="#F6B254" stroke-width="26.25" stroke-linecap="round" stroke-linejoin="round"/>
<path d="M3319.5 221.001L3131.78 87.8716M3337 160.48L3149.28 27.3506" stroke="#F6B254" stroke-width="26.625" stroke-linecap="round" stroke-linejoin="round"/>
<path d="M3693.78 297.14L3464.36 279.001M3668.42 354.81L3439 336.671" stroke="#F6B254" stroke-width="26.625" stroke-linecap="round" stroke-linejoin="round"/>
<path d="M3598.15 42.8017L3402.24 62.6441L3455.38 209.782" stroke="#F6B254" stroke-width="26.625" stroke-linecap="round" stroke-linejoin="round"/>
<path d="M4079.84 27.001L3947.2 180.516L3870 55.3521" stroke="#F6B254" stroke-width="26.625" stroke-linecap="round" stroke-linejoin="round"/>
<path d="M4103.74 356.752L4166.39 289.948L4027 213.478L4107.85 142.001" stroke="#F6B254" stroke-width="26.25" stroke-linecap="round" stroke-linejoin="round"/>
<path d="M3822.5 181.001L4010.22 314.13M3805 241.522L3992.72 374.651" stroke="#F6B254" stroke-width="26.625" stroke-linecap="round" stroke-linejoin="round"/>
</g>
<defs>
<clipPath id="clip0_1277_6151">
<rect width="4180" height="402" fill="white"/>
</clipPath>
</defs>
</svg>
