<svg width="124" height="202" viewBox="0 0 124 202" fill="none" xmlns="http://www.w3.org/2000/svg">
<g filter="url(#filter0_f_2002_14336)">
<path d="M110.914 138.92C74.7952 138.92 74.9999 138.92 74.9999 188.999M110.914 138.92C75.3761 138.92 75.0032 138.92 74.9999 186.841M110.914 138.92C75.3761 138.92 75.0033 138.921 75 91C74.9982 138.921 74.6782 138.92 39.0856 138.92M74.9999 188.999C74.9999 138.92 75.1493 138.92 39.0856 138.92M74.9999 188.999C74.9999 188.269 74.9999 187.55 74.9999 186.841M74.9999 188.999L74.9999 186.841M39.0856 138.92C74.6782 138.92 74.9981 138.92 74.9999 186.841" stroke="#F6B254" stroke-width="5" stroke-linejoin="round"/>
</g>
<path d="M110.914 138.92C74.7952 138.92 74.9999 138.92 74.9999 188.999M110.914 138.92C75.3761 138.92 75.0032 138.92 74.9999 186.841M110.914 138.92C75.3761 138.92 75.0033 138.921 75 91C74.9982 138.921 74.6782 138.92 39.0856 138.92M74.9999 188.999C74.9999 138.92 75.1493 138.92 39.0856 138.92M74.9999 188.999C74.9999 188.269 74.9999 187.55 74.9999 186.841M74.9999 188.999L74.9999 186.841M39.0856 138.92C74.6782 138.92 74.9981 138.92 74.9999 186.841" stroke="#F6B254" stroke-width="5" stroke-linejoin="round"/>
<g filter="url(#filter1_f_2002_14336)">
<path d="M39.5176 30.7864C26.1115 30.7864 26.1875 30.7864 26.1875 49.3739M39.5176 30.7864C26.3271 30.7864 26.1887 30.7864 26.1875 48.573M39.5176 30.7864C26.3271 30.7864 26.1887 30.7866 26.1875 13C26.1868 30.7866 26.0681 30.7864 12.8573 30.7864M26.1875 49.3739C26.1875 30.7864 26.2429 30.7864 12.8573 30.7864M26.1875 49.3739C26.1875 49.103 26.1875 48.8361 26.1875 48.573M26.1875 49.3739L26.1875 48.573M12.8573 30.7864C26.0681 30.7864 26.1868 30.7864 26.1875 48.573" stroke="#F6B254" stroke-width="5" stroke-linejoin="round"/>
</g>
<path d="M39.5176 30.7864C26.1115 30.7864 26.1875 30.7864 26.1875 49.3739M39.5176 30.7864C26.3271 30.7864 26.1887 30.7864 26.1875 48.573M39.5176 30.7864C26.3271 30.7864 26.1887 30.7866 26.1875 13C26.1868 30.7866 26.0681 30.7864 12.8573 30.7864M26.1875 49.3739C26.1875 30.7864 26.2429 30.7864 12.8573 30.7864M26.1875 49.3739C26.1875 49.103 26.1875 48.8361 26.1875 48.573M26.1875 49.3739L26.1875 48.573M12.8573 30.7864C26.0681 30.7864 26.1868 30.7864 26.1875 48.573" stroke="#F6B254" stroke-width="5" stroke-linejoin="round"/>
<defs>
<filter id="filter0_f_2002_14336" x="26.5859" y="78.5" width="96.8281" height="122.999" filterUnits="userSpaceOnUse" color-interpolation-filters="sRGB">
<feFlood flood-opacity="0" result="BackgroundImageFix"/>
<feBlend mode="normal" in="SourceGraphic" in2="BackgroundImageFix" result="shape"/>
<feGaussianBlur stdDeviation="5" result="effect1_foregroundBlur_2002_14336"/>
</filter>
<filter id="filter1_f_2002_14336" x="0.357422" y="0.5" width="51.6602" height="61.374" filterUnits="userSpaceOnUse" color-interpolation-filters="sRGB">
<feFlood flood-opacity="0" result="BackgroundImageFix"/>
<feBlend mode="normal" in="SourceGraphic" in2="BackgroundImageFix" result="shape"/>
<feGaussianBlur stdDeviation="5" result="effect1_foregroundBlur_2002_14336"/>
</filter>
</defs>
</svg>
