<svg width="187" height="206" viewBox="0 0 187 206" fill="none" xmlns="http://www.w3.org/2000/svg">
<g filter="url(#filter0_f_2125_23726)">
<path d="M119.897 122.163C68.8973 122.163 69.1863 122.163 69.1863 192.874M119.897 122.163C69.7176 122.163 69.1911 122.163 69.1864 189.827M119.897 122.163C69.7176 122.163 69.1912 122.164 69.1865 54.5001C69.184 122.164 68.7321 122.163 18.4756 122.163M69.1863 192.874C69.1863 122.163 69.3973 122.163 18.4756 122.163M69.1863 192.874C69.1863 191.843 69.1864 190.828 69.1864 189.827M69.1863 192.874L69.1864 189.827M18.4756 122.163C68.7321 122.163 69.1839 122.163 69.1864 189.827" stroke="#F6B254" stroke-width="5" stroke-linejoin="round"/>
</g>
<path d="M119.897 122.163C68.8973 122.163 69.1863 122.163 69.1863 192.874M119.897 122.163C69.7176 122.163 69.1911 122.163 69.1864 189.827M119.897 122.163C69.7176 122.163 69.1912 122.164 69.1865 54.5001C69.184 122.164 68.7321 122.163 18.4756 122.163M69.1863 192.874C69.1863 122.163 69.3973 122.163 18.4756 122.163M69.1863 192.874C69.1863 191.843 69.1864 190.828 69.1864 189.827M69.1863 192.874L69.1864 189.827M18.4756 122.163C68.7321 122.163 69.1839 122.163 69.1864 189.827" stroke="#F6B254" stroke-width="5" stroke-linejoin="round"/>
<g filter="url(#filter1_f_2125_23726)">
<path d="M174.218 38.0185C154.984 38.0185 155.093 38.0185 155.093 64.6864M174.218 38.0185C155.293 38.0185 155.094 38.0185 155.093 63.5373M174.218 38.0185C155.293 38.0185 155.095 38.0188 155.093 12.5C155.092 38.0188 154.921 38.0185 135.968 38.0185M155.093 64.6864C155.093 38.0185 155.172 38.0185 135.968 38.0185M155.093 64.6864C155.093 64.2978 155.093 63.9148 155.093 63.5373M155.093 64.6864L155.093 63.5373M135.968 38.0185C154.921 38.0185 155.092 38.0185 155.093 63.5373" stroke="#BB6EF6" stroke-width="5" stroke-linejoin="round"/>
</g>
<path d="M174.218 38.0185C154.984 38.0185 155.093 38.0185 155.093 64.6864M174.218 38.0185C155.293 38.0185 155.094 38.0185 155.093 63.5373M174.218 38.0185C155.293 38.0185 155.095 38.0188 155.093 12.5C155.092 38.0188 154.921 38.0185 135.968 38.0185M155.093 64.6864C155.093 38.0185 155.172 38.0185 135.968 38.0185M155.093 64.6864C155.093 64.2978 155.093 63.9148 155.093 63.5373M155.093 64.6864L155.093 63.5373M135.968 38.0185C154.921 38.0185 155.092 38.0185 155.093 63.5373" stroke="#BB6EF6" stroke-width="5" stroke-linejoin="round"/>
<defs>
<filter id="filter0_f_2125_23726" x="5.97559" y="42" width="126.422" height="163.374" filterUnits="userSpaceOnUse" color-interpolation-filters="sRGB">
<feFlood flood-opacity="0" result="BackgroundImageFix"/>
<feBlend mode="normal" in="SourceGraphic" in2="BackgroundImageFix" result="shape"/>
<feGaussianBlur stdDeviation="5" result="effect1_foregroundBlur_2125_23726"/>
</filter>
<filter id="filter1_f_2125_23726" x="123.468" y="0" width="63.25" height="77.1865" filterUnits="userSpaceOnUse" color-interpolation-filters="sRGB">
<feFlood flood-opacity="0" result="BackgroundImageFix"/>
<feBlend mode="normal" in="SourceGraphic" in2="BackgroundImageFix" result="shape"/>
<feGaussianBlur stdDeviation="5" result="effect1_foregroundBlur_2125_23726"/>
</filter>
</defs>
</svg>
