<svg width="187" height="206" viewBox="0 0 187 206" fill="none" xmlns="http://www.w3.org/2000/svg">
<g filter="url(#filter0_f_2002_14335)">
<path d="M119.898 122.663C68.8983 122.663 69.1873 122.663 69.1873 193.374M119.898 122.663C69.7185 122.663 69.192 122.663 69.1873 190.327M119.898 122.663C69.7185 122.663 69.1921 122.664 69.1874 55.0001C69.1849 122.664 68.7331 122.663 18.4766 122.663M69.1873 193.374C69.1873 122.663 69.3982 122.663 18.4766 122.663M69.1873 193.374C69.1873 192.343 69.1874 191.328 69.1873 190.327M69.1873 193.374L69.1873 190.327M18.4766 122.663C68.7331 122.663 69.1849 122.663 69.1873 190.327" stroke="#F6B254" stroke-width="5" stroke-linejoin="round"/>
</g>
<path d="M119.898 122.663C68.8983 122.663 69.1873 122.663 69.1873 193.374M119.898 122.663C69.7185 122.663 69.192 122.663 69.1873 190.327M119.898 122.663C69.7185 122.663 69.1921 122.664 69.1874 55.0001C69.1849 122.664 68.7331 122.663 18.4766 122.663M69.1873 193.374C69.1873 122.663 69.3982 122.663 18.4766 122.663M69.1873 193.374C69.1873 192.343 69.1874 191.328 69.1873 190.327M69.1873 193.374L69.1873 190.327M18.4766 122.663C68.7331 122.663 69.1849 122.663 69.1873 190.327" stroke="#F6B254" stroke-width="5" stroke-linejoin="round"/>
<g filter="url(#filter1_f_2002_14335)">
<path d="M174.218 38.5185C154.984 38.5185 155.093 38.5185 155.093 65.1864M174.218 38.5185C155.293 38.5185 155.094 38.5185 155.093 64.0373M174.218 38.5185C155.293 38.5185 155.095 38.5188 155.093 13C155.092 38.5188 154.921 38.5185 135.968 38.5185M155.093 65.1864C155.093 38.5185 155.172 38.5185 135.968 38.5185M155.093 65.1864C155.093 64.7978 155.093 64.4148 155.093 64.0373M155.093 65.1864L155.093 64.0373M135.968 38.5185C154.921 38.5185 155.092 38.5185 155.093 64.0373" stroke="#F6B254" stroke-width="5" stroke-linejoin="round"/>
</g>
<path d="M174.218 38.5185C154.984 38.5185 155.093 38.5185 155.093 65.1864M174.218 38.5185C155.293 38.5185 155.094 38.5185 155.093 64.0373M174.218 38.5185C155.293 38.5185 155.095 38.5188 155.093 13C155.092 38.5188 154.921 38.5185 135.968 38.5185M155.093 65.1864C155.093 38.5185 155.172 38.5185 135.968 38.5185M155.093 65.1864C155.093 64.7978 155.093 64.4148 155.093 64.0373M155.093 65.1864L155.093 64.0373M135.968 38.5185C154.921 38.5185 155.092 38.5185 155.093 64.0373" stroke="#F6B254" stroke-width="5" stroke-linejoin="round"/>
<defs>
<filter id="filter0_f_2002_14335" x="5.97656" y="42.5" width="126.422" height="163.374" filterUnits="userSpaceOnUse" color-interpolation-filters="sRGB">
<feFlood flood-opacity="0" result="BackgroundImageFix"/>
<feBlend mode="normal" in="SourceGraphic" in2="BackgroundImageFix" result="shape"/>
<feGaussianBlur stdDeviation="5" result="effect1_foregroundBlur_2002_14335"/>
</filter>
<filter id="filter1_f_2002_14335" x="123.468" y="0.5" width="63.25" height="77.1865" filterUnits="userSpaceOnUse" color-interpolation-filters="sRGB">
<feFlood flood-opacity="0" result="BackgroundImageFix"/>
<feBlend mode="normal" in="SourceGraphic" in2="BackgroundImageFix" result="shape"/>
<feGaussianBlur stdDeviation="5" result="effect1_foregroundBlur_2002_14335"/>
</filter>
</defs>
</svg>
