<svg width="124" height="201" viewBox="0 0 124 201" fill="none" xmlns="http://www.w3.org/2000/svg">
<g filter="url(#filter0_f_2125_23734)">
<path d="M110.557 138.42C74.4377 138.42 74.6425 138.42 74.6425 188.499M110.557 138.42C75.0187 138.42 74.6458 138.42 74.6425 186.341M110.557 138.42C75.0187 138.42 74.6459 138.421 74.6425 90.5C74.6408 138.421 74.3208 138.42 38.7282 138.42M74.6425 188.499C74.6425 138.42 74.7918 138.42 38.7282 138.42M74.6425 188.499C74.6425 187.769 74.6425 187.05 74.6425 186.341M74.6425 188.499L74.6425 186.341M38.7282 138.42C74.3208 138.42 74.6407 138.42 74.6425 186.341" stroke="#BB6EF6" stroke-width="5" stroke-linejoin="round"/>
</g>
<path d="M110.557 138.42C74.4377 138.42 74.6425 138.42 74.6425 188.499M110.557 138.42C75.0187 138.42 74.6458 138.42 74.6425 186.341M110.557 138.42C75.0187 138.42 74.6459 138.421 74.6425 90.5C74.6408 138.421 74.3208 138.42 38.7282 138.42M74.6425 188.499C74.6425 138.42 74.7918 138.42 38.7282 138.42M74.6425 188.499C74.6425 187.769 74.6425 187.05 74.6425 186.341M74.6425 188.499L74.6425 186.341M38.7282 138.42C74.3208 138.42 74.6407 138.42 74.6425 186.341" stroke="#BB6EF6" stroke-width="5" stroke-linejoin="round"/>
<g filter="url(#filter1_f_2125_23734)">
<path d="M39.1602 30.2864C25.7541 30.2864 25.83 30.2864 25.83 48.8739M39.1602 30.2864C25.9697 30.2864 25.8313 30.2864 25.83 48.073M39.1602 30.2864C25.9697 30.2864 25.8313 30.2866 25.8301 12.5C25.8294 30.2866 25.7106 30.2864 12.4999 30.2864M25.83 48.8739C25.83 30.2864 25.8855 30.2864 12.4999 30.2864M25.83 48.8739C25.83 48.603 25.83 48.3361 25.83 48.073M25.83 48.8739L25.83 48.073M12.4999 30.2864C25.7106 30.2864 25.8294 30.2864 25.83 48.073" stroke="#F6B254" stroke-width="5" stroke-linejoin="round"/>
</g>
<path d="M39.1602 30.2864C25.7541 30.2864 25.83 30.2864 25.83 48.8739M39.1602 30.2864C25.9697 30.2864 25.8313 30.2864 25.83 48.073M39.1602 30.2864C25.9697 30.2864 25.8313 30.2866 25.8301 12.5C25.8294 30.2866 25.7106 30.2864 12.4999 30.2864M25.83 48.8739C25.83 30.2864 25.8855 30.2864 12.4999 30.2864M25.83 48.8739C25.83 48.603 25.83 48.3361 25.83 48.073M25.83 48.8739L25.83 48.073M12.4999 30.2864C25.7106 30.2864 25.8294 30.2864 25.83 48.073" stroke="#F6B254" stroke-width="5" stroke-linejoin="round"/>
<defs>
<filter id="filter0_f_2125_23734" x="26.2285" y="78" width="96.8281" height="122.999" filterUnits="userSpaceOnUse" color-interpolation-filters="sRGB">
<feFlood flood-opacity="0" result="BackgroundImageFix"/>
<feBlend mode="normal" in="SourceGraphic" in2="BackgroundImageFix" result="shape"/>
<feGaussianBlur stdDeviation="5" result="effect1_foregroundBlur_2125_23734"/>
</filter>
<filter id="filter1_f_2125_23734" x="0" y="0" width="51.6602" height="61.374" filterUnits="userSpaceOnUse" color-interpolation-filters="sRGB">
<feFlood flood-opacity="0" result="BackgroundImageFix"/>
<feBlend mode="normal" in="SourceGraphic" in2="BackgroundImageFix" result="shape"/>
<feGaussianBlur stdDeviation="5" result="effect1_foregroundBlur_2125_23734"/>
</filter>
</defs>
</svg>
